<?xml version="1.0" encoding="UTF-8"?>
<svg id="Layer_2" data-name="Layer 2" xmlns="http://www.w3.org/2000/svg" viewBox="0 0 637.01 498.21">
  <defs>
    <style>
      .cls-1 {
        fill: #d10089;
        opacity: .17;
      }

      .cls-1, .cls-2, .cls-3, .cls-4, .cls-5, .cls-6, .cls-7, .cls-8, .cls-9 {
        stroke-width: 0px;
      }

      .cls-2 {
        opacity: .2;
      }

      .cls-2, .cls-4, .cls-5, .cls-6, .cls-8 {
        fill: #d13389;
      }

      .cls-10 {
        stroke: #fff;
        stroke-miterlimit: 10;
      }

      .cls-10, .cls-3, .cls-7, .cls-9 {
        fill: #d7d1e7;
      }

      .cls-5, .cls-7 {
        opacity: .5;
      }

      .cls-6 {
        opacity: .4;
      }

      .cls-8, .cls-9 {
        opacity: .3;
      }
    </style>
  </defs>
  <g id="Layer_1-2" data-name="Layer 1">
    <path class="cls-7" d="M57.07,137.64l7.88,13.73c3.21,5.59,10.21,7.51,15.63,4.29l13.5-8.01c5.42-3.22,7.22-10.36,4.01-15.94l-7.88-13.73c-3.21-5.59-10.21-7.51-15.63-4.29l-13.5,8.01c-5.42,3.22-7.22,10.36-4.01,15.94Z"/>
    <ellipse class="cls-4" cx="96" cy="25.04" rx="14.3" ry="14.68" transform="translate(-3.19 23.21) rotate(-13.56)"/>
    <path class="cls-9" d="M206.78,116.19l-25,18.83c-2.52,1.9-2.09,5.8.79,7.1l28.69,12.94c2.94,1.33,6.2-1.06,5.83-4.26l-3.69-31.77c-.37-3.19-4.06-4.77-6.62-2.84Z"/>
    <path class="cls-4" d="M163.09,102.38h0c2.23,2.4,5.91,2.51,8.23.26l.05-.05c2.32-2.25,2.39-6.02.16-8.42h0c-2.23-2.4-5.91-2.51-8.23-.26l-.05.05c-2.32,2.25-2.39,6.02-.16,8.42Z"/>
    <ellipse class="cls-8" cx="250.47" cy="148.06" rx="11.47" ry="11.77" transform="translate(-27.73 62.85) rotate(-13.56)"/>
    <ellipse class="cls-10" cx="268.24" cy="88.68" rx="7.15" ry="7.34" transform="translate(-13.32 65.36) rotate(-13.56)"/>
    <ellipse class="cls-7" cx="148.87" cy="65.63" rx="10.27" ry="10.54" transform="translate(-11.24 36.73) rotate(-13.56)"/>
    <ellipse class="cls-4" cx="226.69" cy="175.85" rx="3.32" ry="3.41" transform="translate(-34.91 58.05) rotate(-13.56)"/>
    <ellipse class="cls-4" cx="99.35" cy="61.22" rx="5.23" ry="5.37" transform="translate(-11.58 25) rotate(-13.56)"/>
    <path class="cls-4" d="M203.57,86.86l.02.5c.32,6.57,5.77,11.7,12.19,11.45l.62-.02c6.41-.25,11.36-5.77,11.04-12.34l-.02-.5c-.32-6.57-5.77-11.7-12.19-11.45l-.62.02c-6.41.25-11.36,5.77-11.04,12.34Z"/>
    <path class="cls-3" d="M35.77,42l6.27,6.74c2.59,2.78,6.86,2.92,9.55.3l6.61-6.43c2.69-2.62,2.77-6.99.18-9.77l-6.27-6.74c-2.59-2.78-6.86-2.92-9.55-.3l-6.61,6.43c-2.69,2.62-2.77,6.99-.18,9.77Z"/>
    <path class="cls-6" d="M168.55,188.57l2.24,11.22c.93,4.68,5.38,7.74,9.94,6.84l11.09-2.19c4.56-.9,7.5-5.42,6.56-10.09l-2.24-11.22c-.93-4.68-5.38-7.74-9.94-6.84l-11.09,2.19c-4.56.9-7.5,5.42-6.56,10.09Z"/>
    <path class="cls-4" d="M72.51,73.31l-15.54,9.42c-2.55,1.55-1.62,5.45,1.35,5.69l29.71,2.35c2.99.24,4.51-3.51,2.2-5.42l-14.18-11.78c-1.01-.84-2.43-.94-3.55-.26Z"/>
    <path class="cls-4" d="M5.65,14.53L.41,21.36c-.9,1.17-.22,2.88,1.24,3.11l8.42,1.32c1.48.23,2.66-1.23,2.12-2.63l-3.17-8.15c-.55-1.41-2.43-1.68-3.36-.48Z"/>
    <path class="cls-6" d="M117.92,125.11l10.8,29.35c1.41,3.83,6.86,3.73,8.13-.15l14.97-45.77c1.26-3.84-3-7.14-6.41-4.97l-25.77,16.42c-1.71,1.09-2.43,3.22-1.73,5.12Z"/>
    <path class="cls-1" d="M141.95,210.61l7.04-30.41c.57-2.47-1.8-4.61-4.2-3.78l-31.05,10.68c-2.39.82-2.95,3.94-1,5.55l24.01,19.73c1.85,1.52,4.66.57,5.2-1.77Z"/>
    <path class="cls-2" d="M214.14,238.08l20.25,35.26c2.84,4.95,9.04,6.66,13.85,3.8l15.74-9.34c4.81-2.85,6.4-9.18,3.55-14.13l-20.25-35.26c-2.84-4.95-9.04-6.66-13.85-3.8l-15.74,9.34c-4.81,2.85-6.4,9.18-3.55,14.13Z"/>
    <path class="cls-4" d="M40.76,75.77l-2.75-1.41c-2.98-1.52-6.3,1.34-5.24,4.51l1.41,4.21c1.07,3.18,5.46,3.44,6.9.42l1.34-2.8c.87-1.82.13-4.01-1.67-4.93Z"/>
    <path class="cls-4" d="M39.3,10.08h0c2.23,2.4,5.91,2.51,8.23.26l.05-.05c2.32-2.25,2.39-6.02.16-8.42h0c-2.23-2.4-5.91-2.51-8.23-.26l-.05.05c-2.32,2.25-2.39,6.02-.16,8.42Z"/>
    <ellipse class="cls-4" cx="107.36" cy="164.08" rx="7.45" ry="7.64" transform="translate(-35.48 29.74) rotate(-13.56)"/>
    <path class="cls-7" d="M237.46,184.76l4.42,15.2c1.8,6.19,8.15,9.7,14.17,7.86l15.01-4.6c6.03-1.85,9.45-8.36,7.65-14.55l-4.42-15.2c-1.8-6.19-8.15-9.7-14.17-7.86l-15.01,4.6c-6.03,1.85-9.45,8.36-7.65,14.55Z"/>
    <path class="cls-9" d="M388.01,199.22l-28.74,12.4c-2.9,1.25-3.4,5.15-.91,7.09l24.83,19.34c2.54,1.98,6.28.43,6.67-2.77l3.9-31.75c.39-3.18-2.82-5.59-5.77-4.32Z"/>
    <path class="cls-4" d="M348.8,175.5h0c1.6,2.85,5.15,3.84,7.93,2.19l.06-.03c2.78-1.64,3.74-5.29,2.14-8.14h0c-1.6-2.85-5.15-3.84-7.93-2.19l-.06.03c-2.78,1.64-3.74,5.29-2.14,8.14Z"/>
    <ellipse class="cls-8" cx="422.95" cy="240.5" rx="11.77" ry="11.47" transform="translate(181.87 663.11) rotate(-89.92)"/>
    <ellipse class="cls-10" cx="454.21" cy="186.98" rx="7.34" ry="7.15" transform="translate(266.61 640.94) rotate(-89.92)"/>
    <ellipse class="cls-7" cx="343.64" cy="136.44" rx="10.54" ry="10.27" transform="translate(206.74 479.9) rotate(-89.92)"/>
    <ellipse class="cls-4" cx="393.28" cy="261.89" rx="3.41" ry="3.32" transform="translate(130.86 654.82) rotate(-89.92)"/>
    <path class="cls-4" d="M391.79,169.96l-.09.49c-1.24,6.46,2.85,12.73,9.15,14l.61.12c6.29,1.27,12.4-2.93,13.64-9.39l.09-.49c1.24-6.46-2.85-12.73-9.15-14l-.61-.12c-6.29-1.27-12.4,2.93-13.64,9.39Z"/>
    <path class="cls-6" d="M333.79,260.55l-.47,11.43c-.2,4.76,3.41,8.79,8.05,8.99l11.3.49c4.64.2,8.56-3.5,8.76-8.26l.47-11.43c.2-4.76-3.41-8.79-8.05-8.99l-11.3-.49c-4.64-.2-8.56,3.5-8.76,8.26Z"/>
    <path class="cls-6" d="M299.54,186.94l3.58,31.07c.47,4.06,5.79,5.25,7.94,1.77l25.34-40.95c2.13-3.44-1.23-7.65-5.05-6.34l-28.92,9.88c-1.92.65-3.12,2.56-2.89,4.57Z"/>
    <path class="cls-1" d="M302.73,275.69l14.01-27.9c1.14-2.27-.66-4.9-3.19-4.66l-32.69,3.06c-2.52.24-3.8,3.14-2.28,5.16l18.68,24.84c1.44,1.91,4.39,1.65,5.47-.49Z"/>
    <path class="cls-2" d="M366.42,319.41l11.36,39.04c1.6,5.48,7.22,8.6,12.56,6.96l17.5-5.37c5.34-1.64,8.38-7.41,6.78-12.9l-11.36-39.04c-1.6-5.48-7.22-8.6-12.56-6.96l-17.5,5.37c-5.34,1.64-8.38,7.41-6.78,12.9Z"/>
    <ellipse class="cls-4" cx="280.1" cy="222.33" rx="7.64" ry="7.45" transform="translate(57.39 502.12) rotate(-89.92)"/>
    <path class="cls-4" d="M500.49,223.01l-17.17-5.96c-2.82-.98-5.23,2.23-3.52,4.67l17.14,24.39c1.72,2.45,5.58,1.24,5.58-1.76l.03-18.43c0-1.31-.83-2.48-2.06-2.91Z"/>
    <ellipse class="cls-4" cx="439.72" cy="338.25" rx="7.64" ry="7.45" transform="translate(100.87 777.52) rotate(-89.92)"/>
    <path class="cls-3" d="M417.18,294.03l4.5,8.03c1.86,3.31,5.98,4.46,9.21,2.55l7.94-4.69c3.23-1.91,4.34-6.14,2.48-9.46l-4.5-8.03c-1.86-3.31-5.98-4.46-9.21-2.55l-7.94,4.69c-3.23,1.91-4.34,6.14-2.48,9.46Z"/>
    <path class="cls-9" d="M470.13,301.72l-22.64,23.42c-2.19,2.27-1.15,6.06,1.89,6.89l31.6,8.64c3.11.85,5.96-2.02,5.09-5.12l-8.96-32.06c-.86-3.09-4.75-4.08-6.98-1.77Z"/>
    <ellipse class="cls-8" cx="519.46" cy="327.22" rx="11.79" ry="12.1" transform="translate(-85.75 224.1) rotate(-22.54)"/>
    <ellipse class="cls-10" cx="527.98" cy="264.08" rx="7.35" ry="7.55" transform="translate(-60.89 222.54) rotate(-22.54)"/>
    <ellipse class="cls-4" cx="499.77" cy="359.25" rx="3.41" ry="3.51" transform="translate(-99.53 219) rotate(-22.54)"/>
    <path class="cls-4" d="M462.02,272.6l.1.5c1.38,6.62,7.74,10.95,14.21,9.67l.63-.12c6.47-1.28,10.61-7.68,9.23-14.3l-.1-.5c-1.38-6.62-7.74-10.95-14.21-9.67l-.63.12c-6.47,1.28-10.61,7.68-9.23,14.3Z"/>
    <path class="cls-6" d="M442.78,381.49l4.07,11.04c1.7,4.6,6.71,6.99,11.19,5.35l10.91-4c4.48-1.64,6.74-6.7,5.05-11.3l-4.07-11.04c-1.7-4.6-6.71-6.99-11.19-5.35l-10.91,4c-4.48,1.64-6.74,6.7-5.05,11.3Z"/>
    <path class="cls-2" d="M497.02,424.45l26.22,32.56c3.68,4.57,10.25,5.31,14.67,1.64l14.48-12.01c4.42-3.67,5.02-10.35,1.34-14.92l-26.22-32.56c-3.68-4.57-10.25-5.31-14.67-1.64l-14.48,12.01c-4.42,3.67-5.02,10.35-1.34,14.92Z"/>
    <path class="cls-5" d="M596.26,401.41l-27.95-60.61c-1.9-4.12.93-8.87,5.46-9.16l48.05-3.04c4.53-.29,7.94,4.07,6.57,8.4l-20.1,63.65c-1.78,5.63-9.56,6.12-12.03.76Z"/>
    <path class="cls-7" d="M576.75,457.87l10.21,12.67c4.15,5.16,11.57,5.99,16.56,1.85l12.43-10.3c4.99-4.14,5.67-11.67,1.51-16.83l-10.21-12.67c-4.15-5.16-11.57-5.99-16.56-1.85l-12.43,10.3c-4.99,4.14-5.67,11.67-1.51,16.83Z"/>
    <path class="cls-4" d="M586.2,279.97l-18.97,1.15c-2.98.18-3.97,4.07-1.45,5.66l26.36,16.65c2.53,1.6,5.62-1,4.48-3.77l-7.39-17.81c-.5-1.21-1.72-1.97-3.02-1.89Z"/>
    <path class="cls-4" d="M633.34,487.53l-3.36-1.1c-3.18-1.04-6.02,2.3-4.47,5.27l2.35,4.5c1.55,2.97,5.93,2.55,6.88-.66l1.01-3.4c.57-1.94-.5-3.98-2.42-4.61Z"/>
    <ellipse class="cls-4" cx="574.03" cy="413.35" rx="7.66" ry="7.86" transform="translate(-114.6 251.59) rotate(-22.54)"/>
    <path class="cls-3" d="M535.16,380.3l7.45,5.84c3.07,2.41,7.44,1.86,9.75-1.22l5.68-7.59c2.31-3.09,1.69-7.54-1.38-9.95l-7.45-5.84c-3.07-2.41-7.44-1.86-9.75,1.22l-5.68,7.59c-2.31,3.09-1.69,7.54,1.38,9.95Z"/>
    <path class="cls-1" d="M636.64,420.76l-7.4-14.19c-1.59-3.06-6.23-1.82-6.09,1.62l1.18,28.82c.14,3.44,4.85,4.3,6.2,1.13l6.22-14.63c.38-.89.34-1.9-.11-2.76Z"/>
  </g>
</svg>