<?xml version="1.0" encoding="UTF-8"?>
<svg id="Layer_2" data-name="Layer 2" xmlns="http://www.w3.org/2000/svg" viewBox="0 0 706.12 391.68">
  <defs>
    <style>
      .cls-1 {
        fill: #d10089;
        opacity: .17;
      }

      .cls-1, .cls-2, .cls-3, .cls-4, .cls-5, .cls-6, .cls-7, .cls-8, .cls-9 {
        stroke-width: 0px;
      }

      .cls-2 {
        opacity: .2;
      }

      .cls-2, .cls-4, .cls-5, .cls-6, .cls-8 {
        fill: #d13389;
      }

      .cls-10 {
        stroke: #fff;
        stroke-miterlimit: 10;
      }

      .cls-10, .cls-3, .cls-7, .cls-9 {
        fill: #d7d1e7;
      }

      .cls-5, .cls-7 {
        opacity: .5;
      }

      .cls-6 {
        opacity: .4;
      }

      .cls-8, .cls-9 {
        opacity: .3;
      }
    </style>
  </defs>
  <g id="Layer_1-2" data-name="Layer 1">
    <path class="cls-7" d="M75.76,133.43l10.09,12.2c4.11,4.96,11.33,5.67,16.13,1.58l11.95-10.18c4.8-4.09,5.36-11.43,1.25-16.39l-10.09-12.2c-4.11-4.96-11.33-5.67-16.13-1.58l-11.95,10.18c-4.8,4.09-5.36,11.43-1.25,16.39Z"/>
    <ellipse class="cls-4" cx="95.07" cy="15.87" rx="14.3" ry="14.68" transform="translate(1.48 38.9) rotate(-23.3)"/>
    <path class="cls-9" d="M219.68,86.95l-21.45,22.79c-2.16,2.3-1.07,6.07,1.98,6.87l30.47,7.9c3.12.81,5.94-2.09,5.03-5.19l-9.02-30.69c-.9-3.08-4.81-4.01-7.01-1.68Z"/>
    <path class="cls-4" d="M174.28,80.74h0c2.6,1.99,6.25,1.48,8.15-1.14l.04-.05c1.9-2.61,1.33-6.34-1.27-8.32h0c-2.6-1.99-6.25-1.48-8.15,1.14l-.04.05c-1.9,2.61-1.33,6.34,1.27,8.32Z"/>
    <ellipse class="cls-8" cx="268.13" cy="110.97" rx="11.47" ry="11.77" transform="translate(-22.03 115.13) rotate(-23.3)"/>
    <ellipse class="cls-10" cx="275.59" cy="49.44" rx="7.15" ry="7.34" transform="translate(2.92 113.06) rotate(-23.3)"/>
    <ellipse class="cls-7" cx="154.05" cy="46.93" rx="10.27" ry="10.54" transform="translate(-6 64.77) rotate(-23.3)"/>
    <ellipse class="cls-4" cx="249.39" cy="142.38" rx="3.32" ry="3.41" transform="translate(-35.98 110.28) rotate(-23.3)"/>
    <ellipse class="cls-4" cx="104.49" cy="50.96" rx="5.23" ry="5.37" transform="translate(-11.64 45.49) rotate(-23.3)"/>
    <path class="cls-4" d="M211.54,58.59l.11.49c1.42,6.42,7.67,10.55,13.95,9.22l.61-.13c6.28-1.33,10.22-7.61,8.79-14.03l-.11-.49c-1.42-6.42-7.67-10.55-13.95-9.22l-.61.13c-6.28,1.33-10.22,7.61-8.79,14.03Z"/>
    <path class="cls-3" d="M38.58,42.78l7.32,5.59c3.02,2.3,7.26,1.71,9.47-1.32l5.42-7.45c2.21-3.03,1.55-7.36-1.47-9.66l-7.32-5.59c-3.02-2.3-7.26-1.71-9.47,1.32l-5.42,7.45c-2.21,3.03-1.55,7.36,1.47,9.66Z"/>
    <path class="cls-6" d="M194.25,164.76l4.1,10.68c1.71,4.45,6.61,6.71,10.95,5.06l10.56-4.03c4.34-1.66,6.47-6.61,4.76-11.06l-4.1-10.68c-1.71-4.45-6.61-6.71-10.95-5.06l-10.56,4.03c-4.34,1.66-6.47,6.61-4.76,11.06Z"/>
    <path class="cls-4" d="M80.08,67.42l-13.72,11.92c-2.25,1.95-.68,5.65,2.29,5.38l29.68-2.71c2.98-.27,3.85-4.22,1.25-5.72l-15.97-9.21c-1.13-.65-2.56-.52-3.55.34Z"/>
    <path class="cls-4" d="M4.24,20.8L.23,28.42c-.69,1.31.27,2.88,1.75,2.85l8.52-.12c1.5-.02,2.41-1.66,1.64-2.95l-4.51-7.5c-.78-1.3-2.68-1.25-3.39.09Z"/>
    <path class="cls-6" d="M133.6,110.78l15.61,27.1c2.04,3.54,7.4,2.52,7.99-1.52l7.01-47.64c.59-4-4.16-6.53-7.16-3.81l-22.62,20.55c-1.5,1.36-1.85,3.58-.84,5.34Z"/>
    <path class="cls-1" d="M171.76,190.99l1.79-31.16c.15-2.53-2.55-4.24-4.78-3.02l-28.79,15.78c-2.22,1.21-2.24,4.39-.05,5.64l27.01,15.38c2.08,1.19,4.68-.23,4.82-2.62Z"/>
    <path class="cls-2" d="M247.56,205.84l25.92,31.32c3.64,4.4,10.04,5.03,14.29,1.4l13.93-11.87c4.25-3.62,4.75-10.13,1.11-14.53l-25.92-31.32c-3.64-4.4-10.04-5.03-14.29-1.4l-13.93,11.87c-4.25,3.62-4.75,10.13-1.11,14.53Z"/>
    <path class="cls-4" d="M49.21,75.22l-2.95-.92c-3.19-1-5.98,2.38-4.4,5.33l2.11,3.91c1.59,2.95,5.96,2.47,6.87-.76l.84-2.99c.55-1.94-.55-3.97-2.48-4.57Z"/>
    <path class="cls-4" d="M36.65,10.72h0c2.6,1.99,6.25,1.48,8.15-1.14l.04-.05c1.9-2.61,1.33-6.34-1.27-8.32h0c-2.6-1.99-6.25-1.48-8.15,1.14l-.04.05c-1.9,2.61-1.33,6.34,1.27,8.32Z"/>
    <ellipse class="cls-4" cx="129.8" cy="150.99" rx="7.45" ry="7.64" transform="translate(-49.14 63.67) rotate(-23.3)"/>
    <path class="cls-7" d="M261.52,149.35l6.93,14.23c2.82,5.79,9.67,8.19,15.3,5.34l14.02-7.08c5.63-2.84,7.9-9.84,5.08-15.64l-6.93-14.23c-2.82-5.79-9.67-8.19-15.3-5.34l-14.02,7.08c-5.63,2.84-7.9,9.84-5.08,15.64Z"/>
    <path class="cls-9" d="M412.34,138.11l-26.22,17.09c-2.64,1.72-2.48,5.65.31,7.14l27.75,14.86c2.84,1.52,6.26-.64,6.11-3.86l-1.53-31.95c-.15-3.2-3.73-5.03-6.41-3.28Z"/>
    <path class="cls-4" d="M369.68,121.37h0c2.06,2.54,5.73,2.91,8.19.82l.05-.04c2.46-2.09,2.79-5.85.73-8.39h0c-2.06-2.54-5.73-2.91-8.19-.82l-.05.04c-2.46,2.09-2.79,5.85-.73,8.39Z"/>
    <ellipse class="cls-8" cx="453.76" cy="172.88" rx="11.47" ry="11.77" transform="translate(-22.59 78.65) rotate(-9.67)"/>
    <ellipse class="cls-10" cx="475.52" cy="114.84" rx="7.15" ry="7.34" transform="translate(-12.53 81.48) rotate(-9.67)"/>
    <ellipse class="cls-7" cx="357.99" cy="83.74" rx="10.27" ry="10.54" transform="translate(-8.98 61.3) rotate(-9.67)"/>
    <ellipse class="cls-4" cx="428.15" cy="198.98" rx="3.32" ry="3.41" transform="translate(-27.33 74.72) rotate(-9.67)"/>
    <path class="cls-4" d="M411.12,108.64v.5c-.14,6.58,4.96,12.06,11.37,12.25l.62.02c6.42.19,11.72-4.99,11.85-11.56v-.5c.14-6.58-4.96-12.06-11.37-12.25l-.62-.02c-6.42-.19-11.72,4.99-11.85,11.56Z"/>
    <path class="cls-6" d="M369.28,207.73l1.47,11.35c.61,4.73,4.84,8.08,9.45,7.5l11.22-1.43c4.61-.59,7.85-4.9,7.23-9.62l-1.47-11.35c-.61-4.73-4.84-8.08-9.45-7.5l-11.22,1.43c-4.61.59-7.85,4.9-7.23,9.62Z"/>
    <path class="cls-6" d="M323.07,140.98l8.78,30.02c1.15,3.92,6.59,4.19,8.12.4l18.05-44.65c1.52-3.75-2.5-7.33-6.05-5.39l-26.83,14.63c-1.78.97-2.64,3.05-2.07,4.99Z"/>
    <path class="cls-1" d="M341.24,227.92l9.08-29.86c.74-2.43-1.48-4.72-3.93-4.06l-31.7,8.55c-2.44.66-3.21,3.73-1.37,5.47l22.62,21.32c1.74,1.64,4.61.88,5.3-1.41Z"/>
    <path class="cls-2" d="M411.41,260.22l17.81,36.55c2.5,5.13,8.57,7.25,13.56,4.74l16.34-8.25c4.99-2.52,7-8.72,4.5-13.86l-17.81-36.55c-2.5-5.13-8.57-7.25-13.56-4.74l-16.34,8.25c-4.99,2.52-7,8.72-4.5,13.86Z"/>
    <ellipse class="cls-4" cx="309.9" cy="179.15" rx="7.45" ry="7.64" transform="translate(-25.68 54.58) rotate(-9.67)"/>
    <path class="cls-4" d="M527.23,142.52l-17.93-2.96c-2.94-.49-4.78,3.08-2.68,5.19l21.02,21.13c2.11,2.12,5.71.27,5.2-2.68l-3.09-18.17c-.22-1.29-1.23-2.3-2.53-2.51Z"/>
    <ellipse class="cls-4" cx="486.85" cy="266.39" rx="7.45" ry="7.64" transform="translate(-37.82 85.53) rotate(-9.67)"/>
    <path class="cls-3" d="M457.14,226.62l5.8,7.15c2.39,2.95,6.65,3.38,9.51.95l7.03-5.96c2.86-2.43,3.24-6.79.85-9.74l-5.8-7.15c-2.39-2.95-6.65-3.38-9.51-.95l-7.03,5.96c-2.86,2.43-3.24,6.79-.85,9.74Z"/>
    <path class="cls-9" d="M510.63,225.23l-18.35,26.91c-1.78,2.61-.11,6.17,3.03,6.47l32.61,3.17c3.21.31,5.54-3,4.15-5.91l-14.25-30.08c-1.37-2.9-5.38-3.21-7.18-.56Z"/>
    <ellipse class="cls-8" cx="563.57" cy="242.02" rx="11.79" ry="12.1" transform="translate(-42.15 338.41) rotate(-32.28)"/>
    <ellipse class="cls-10" cx="561.27" cy="178.34" rx="7.35" ry="7.55" transform="translate(-8.49 327.34) rotate(-32.28)"/>
    <ellipse class="cls-4" cx="549.58" cy="276.91" rx="3.41" ry="3.51" transform="translate(-62.95 336.33) rotate(-32.28)"/>
    <path class="cls-4" d="M497.71,197.91l.19.48c2.48,6.29,9.48,9.48,15.64,7.13l.6-.23c6.16-2.36,9.15-9.37,6.68-15.66l-.19-.48c-2.48-6.29-9.48-9.48-15.64-7.13l-.6.23c-6.16,2.36-9.15,9.37-6.68,15.66Z"/>
    <path class="cls-6" d="M497.18,308.48l5.88,10.19c2.45,4.24,7.79,5.76,11.93,3.38l10.08-5.79c4.14-2.38,5.51-7.75,3.06-11.99l-5.88-10.19c-2.45-4.24-7.79-5.76-11.93-3.38l-10.08,5.79c-4.14,2.38-5.51,7.75-3.06,11.99Z"/>
    <path class="cls-2" d="M557.9,341.64l31.35,27.65c4.4,3.88,11,3.5,14.74-.87l12.24-14.29c3.74-4.36,3.2-11.05-1.21-14.93l-31.35-27.65c-4.4-3.88-11-3.5-14.74.87l-12.24,14.29c-3.74,4.36-3.2,11.05,1.21,14.93Z"/>
    <path class="cls-5" d="M651.81,302.13l-37.81-55.01c-2.57-3.74-.58-8.9,3.83-9.95l46.84-11.13c4.42-1.05,8.51,2.66,7.9,7.16l-9.03,66.13c-.8,5.85-8.38,7.65-11.73,2.79Z"/>
    <path class="cls-7" d="M642.14,361.09l12.2,10.76c4.97,4.38,12.41,3.94,16.63-.98l10.5-12.26c4.22-4.92,3.61-12.46-1.36-16.85l-12.2-10.76c-4.97-4.38-12.41-3.94-16.63.98l-10.5,12.26c-4.22,4.92-3.61,12.46,1.36,16.85Z"/>
    <path class="cls-4" d="M621.35,184.15l-18.5,4.35c-2.9.68-3.23,4.68-.47,5.83l28.8,11.95c2.77,1.15,5.37-1.94,3.77-4.48l-10.3-16.3c-.7-1.11-2.02-1.65-3.3-1.35Z"/>
    <path class="cls-4" d="M702.93,380.73l-3.5-.52c-3.31-.49-5.54,3.29-3.51,5.95l3.08,4.04c2.03,2.67,6.28,1.51,6.67-1.82l.42-3.53c.24-2.01-1.16-3.84-3.16-4.13Z"/>
    <ellipse class="cls-4" cx="631.93" cy="317.67" rx="7.66" ry="7.86" transform="translate(-71.99 386.61) rotate(-32.28)"/>
    <path class="cls-3" d="M588.02,291.67l8.33,4.5c3.44,1.86,7.65.58,9.4-2.86l4.31-8.44c1.75-3.43.39-7.72-3.05-9.58l-8.33-4.5c-3.44-1.86-7.65-.58-9.4,2.86l-4.31,8.44c-1.75,3.43-.39,7.72,3.05,9.58Z"/>
    <path class="cls-1" d="M694.88,314.37l-9.7-12.73c-2.09-2.74-6.45-.74-5.73,2.63l6.04,28.2c.72,3.37,5.51,3.42,6.3.07l3.66-15.47c.22-.94.01-1.93-.57-2.7Z"/>
  </g>
</svg>