<?xml version="1.0" encoding="UTF-8"?>
<svg id="Layer_2" data-name="Layer 2" xmlns="http://www.w3.org/2000/svg" viewBox="0 0 769.63 247.74">
  <defs>
    <style>
      .cls-1 {
        fill: #d10089;
        opacity: .17;
      }

      .cls-1, .cls-2, .cls-3, .cls-4, .cls-5, .cls-6, .cls-7, .cls-8, .cls-9 {
        stroke-width: 0px;
      }

      .cls-2 {
        opacity: .2;
      }

      .cls-2, .cls-4, .cls-5, .cls-6, .cls-8 {
        fill: #d13389;
      }

      .cls-10 {
        stroke: #fff;
        stroke-miterlimit: 10;
      }

      .cls-10, .cls-3, .cls-7, .cls-9 {
        fill: #d7d1e7;
      }

      .cls-5, .cls-7 {
        opacity: .5;
      }

      .cls-6 {
        opacity: .4;
      }

      .cls-8, .cls-9 {
        opacity: .3;
      }
    </style>
  </defs>
  <g id="Layer_1-2" data-name="Layer 1">
    <path class="cls-7" d="M97.82,135.67l12.64,9.53c5.14,3.88,12.33,2.9,16.06-2.19l9.28-12.67c3.72-5.09,2.57-12.36-2.57-16.24l-12.64-9.53c-5.14-3.88-12.33-2.9-16.06,2.19l-9.28,12.67c-3.72,5.09-2.57,12.36,2.57,16.24Z"/>
    <ellipse class="cls-4" cx="89.43" cy="16.83" rx="14.3" ry="14.68" transform="translate(7.65 56.73) rotate(-36.67)"/>
    <path class="cls-9" d="M227.1,57.19l-15.61,27.13c-1.57,2.74.36,6.16,3.51,6.22l31.47.64c3.22.07,5.29-3.41,3.69-6.21l-15.86-27.78c-1.59-2.79-5.61-2.79-7.21-.01Z"/>
    <path class="cls-4" d="M181.49,61.64h0c2.99,1.33,6.42,0,7.67-2.99l.03-.06c1.25-2.98-.17-6.47-3.16-7.8h0c-2.99-1.33-6.42,0-7.67,2.99l-.03.06c-1.25,2.98.17,6.47,3.16,7.8Z"/>
    <ellipse class="cls-8" cx="279.79" cy="69.36" rx="11.47" ry="11.77" transform="translate(13.94 180.8) rotate(-36.67)"/>
    <ellipse class="cls-10" cx="272.83" cy="7.77" rx="7.15" ry="7.34" transform="translate(49.34 164.46) rotate(-36.67)"/>
    <ellipse class="cls-7" cx="154" cy="33.42" rx="10.27" ry="10.54" transform="translate(10.51 98.57) rotate(-36.67)"/>
    <ellipse class="cls-4" cx="268.82" cy="104.25" rx="3.32" ry="3.41" transform="translate(-9.06 181.16) rotate(-36.67)"/>
    <ellipse class="cls-4" cx="106.71" cy="48.79" rx="5.23" ry="5.37" transform="translate(-8.02 73.38) rotate(-36.67)"/>
    <path class="cls-4" d="M212.63,31.48l.22.45c2.87,5.92,9.9,8.49,15.7,5.75l.56-.27c5.8-2.74,8.18-9.77,5.31-15.68l-.22-.45c-2.87-5.92-9.9-8.49-15.7-5.75l-.56.27c-5.8,2.74-8.18,9.77-5.31,15.68Z"/>
    <path class="cls-3" d="M40.69,56.06l8.41,3.74c3.47,1.54,7.46,0,8.91-3.47l3.55-8.5c1.45-3.46-.2-7.52-3.67-9.06l-8.41-3.74c-3.47-1.54-7.46,0-8.91,3.47l-3.55,8.5c-1.45,3.46.2,7.52,3.67,9.06Z"/>
    <path class="cls-6" d="M220.34,138.77l6.46,9.44c2.69,3.93,7.99,5,11.83,2.39l9.34-6.36c3.84-2.61,4.77-7.92,2.08-11.86l-6.46-9.44c-2.69-3.93-7.99-5-11.83-2.39l-9.34,6.36c-3.84,2.61-4.77,7.92-2.08,11.86Z"/>
    <path class="cls-4" d="M86.77,70.45l-10.59,14.76c-1.74,2.42.65,5.65,3.47,4.7l28.25-9.5c2.84-.95,2.77-5-.1-5.85l-17.66-5.27c-1.25-.37-2.61.09-3.37,1.15Z"/>
    <path class="cls-4" d="M2.21,42.62L.06,50.96c-.37,1.43.93,2.73,2.36,2.37l8.27-2.09c1.46-.37,1.96-2.18.91-3.25l-6.12-6.25c-1.06-1.08-2.9-.59-3.28.88Z"/>
    <path class="cls-6" d="M148.86,100.27l21.45,22.76c2.8,2.97,7.78.74,7.42-3.33l-4.19-47.97c-.35-4.03-5.56-5.39-7.84-2.06l-17.26,25.22c-1.14,1.67-.97,3.91.42,5.39Z"/>
    <path class="cls-1" d="M204.52,169.48l-5.46-30.73c-.44-2.5-3.46-3.53-5.34-1.83l-24.37,22.01c-1.87,1.69-1.17,4.79,1.26,5.5l29.83,8.73c2.3.67,4.51-1.31,4.09-3.66Z"/>
    <path class="cls-2" d="M281.7,166.41l32.46,24.49c4.56,3.44,10.93,2.57,14.23-1.94l10.81-14.77c3.3-4.51,2.28-10.95-2.28-14.39l-32.46-24.49c-4.56-3.44-10.93-2.57-14.23,1.94l-10.81,14.77c-3.3,4.51-2.28,10.95,2.28,14.39Z"/>
    <path class="cls-4" d="M58.54,85.18l-3.08-.22c-3.34-.23-5.27,3.7-3.05,6.2l2.95,3.32c2.23,2.5,6.37,1.03,6.51-2.32l.13-3.1c.08-2.02-1.45-3.74-3.47-3.88Z"/>
    <path class="cls-4" d="M31.41,25.32h0c2.99,1.33,6.42,0,7.67-2.99l.03-.06c1.25-2.98-.17-6.47-3.16-7.8h0c-2.99-1.33-6.42,0-7.67,2.99l-.03.06c-1.25,2.98.17,6.47,3.16,7.8Z"/>
    <ellipse class="cls-4" cx="154.45" cy="140.26" rx="7.45" ry="7.64" transform="translate(-53.2 119.99) rotate(-36.67)"/>
    <path class="cls-7" d="M282.23,108.23l10.03,12.24c4.08,4.98,11.3,5.73,16.12,1.66l12-10.13c4.82-4.07,5.41-11.4,1.33-16.39l-10.03-12.24c-4.08-4.98-11.3-5.73-16.12-1.66l-12,10.13c-4.82,4.07-5.41,11.4-1.33,16.39Z"/>
    <path class="cls-9" d="M426.37,62.44l-21.56,22.69c-2.17,2.29-1.1,6.07,1.95,6.88l30.43,8.04c3.12.82,5.95-2.07,5.05-5.17l-8.87-30.73c-.89-3.08-4.79-4.03-7-1.71Z"/>
    <path class="cls-4" d="M381,56.01h0c2.59,2,6.24,1.51,8.16-1.1l.04-.05c1.91-2.6,1.36-6.33-1.23-8.33h0c-2.59-2-6.24-1.51-8.16,1.1l-.04.05c-1.91,2.6-1.36,6.33,1.23,8.33Z"/>
    <ellipse class="cls-8" cx="474.71" cy="86.7" rx="11.47" ry="11.77" transform="translate(3.92 192.61) rotate(-23.03)"/>
    <ellipse class="cls-10" cx="482.46" cy="25.2" rx="7.15" ry="7.34" transform="translate(28.59 190.75) rotate(-23.03)"/>
    <ellipse class="cls-7" cx="360.93" cy="22.11" rx="10.27" ry="10.54" transform="translate(20.12 142.96) rotate(-23.03)"/>
    <ellipse class="cls-4" cx="455.82" cy="118.01" rx="3.32" ry="3.41" transform="translate(-9.84 187.72) rotate(-23.03)"/>
    <path class="cls-4" d="M418.37,34.04l.11.49c1.39,6.43,7.62,10.59,13.91,9.29l.61-.13c6.29-1.3,10.25-7.56,8.86-13.99l-.11-.49c-1.39-6.43-7.62-10.59-13.91-9.29l-.61.13c-6.29,1.3-10.25,7.56-8.86,13.99Z"/>
    <path class="cls-6" d="M400.57,140.13l4.05,10.7c1.69,4.46,6.58,6.75,10.93,5.11l10.58-3.98c4.35-1.64,6.5-6.58,4.81-11.03l-4.05-10.7c-1.69-4.46-6.58-6.75-10.93-5.11l-10.58,3.98c-4.35,1.64-6.5,6.58-4.81,11.03Z"/>
    <path class="cls-6" d="M340.18,85.86l15.48,27.17c2.02,3.55,7.38,2.55,8-1.48l7.24-47.61c.61-4-4.13-6.55-7.14-3.85l-22.72,20.44c-1.51,1.35-1.86,3.57-.86,5.33Z"/>
    <path class="cls-1" d="M377.95,166.25l1.94-31.15c.16-2.53-2.53-4.25-4.76-3.04l-28.87,15.64c-2.22,1.2-2.26,4.38-.07,5.64l26.93,15.51c2.08,1.2,4.69-.21,4.83-2.6Z"/>
    <path class="cls-2" d="M453.68,181.46l25.77,31.45c3.62,4.42,10.02,5.08,14.29,1.47l13.99-11.8c4.27-3.6,4.8-10.11,1.18-14.52l-25.77-31.45c-3.62-4.42-10.02-5.08-14.29-1.47l-13.99,11.8c-4.27,3.6-4.8,10.11-1.18,14.52Z"/>
    <ellipse class="cls-4" cx="336.18" cy="126.04" rx="7.45" ry="7.64" transform="translate(-22.52 141.56) rotate(-23.03)"/>
    <path class="cls-4" d="M539.17,40.18l-18.13,1.26c-2.97.21-3.94,4.1-1.4,5.67l25.34,15.7c2.55,1.58,5.62-1.05,4.44-3.81l-7.21-16.96c-.51-1.21-1.73-1.95-3.04-1.86Z"/>
    <ellipse class="cls-4" cx="528.5" cy="170.02" rx="7.45" ry="7.64" transform="translate(-24.39 220.3) rotate(-23.03)"/>
    <path class="cls-3" d="M490.41,138.19l7.29,5.62c3.01,2.32,7.25,1.75,9.47-1.27l5.46-7.43c2.22-3.02,1.58-7.35-1.43-9.67l-7.29-5.62c-3.01-2.32-7.25-1.75-9.47,1.27l-5.46,7.43c-2.22,3.02-1.58,7.35,1.43,9.67Z"/>
    <path class="cls-9" d="M542.13,124.49l-11.64,30.43c-1.13,2.95,1.32,6.03,4.44,5.6l32.46-4.45c3.2-.44,4.69-4.19,2.68-6.71l-20.82-25.98c-2.01-2.5-5.97-1.88-7.12,1.11Z"/>
    <ellipse class="cls-8" cx="597.52" cy="128.58" rx="11.79" ry="12.1" transform="translate(87.85 465.93) rotate(-45.64)"/>
    <ellipse class="cls-10" cx="580.57" cy="67.16" rx="7.35" ry="7.55" transform="translate(126.67 435.33) rotate(-45.64)"/>
    <ellipse class="cls-4" cx="591.97" cy="165.77" rx="3.41" ry="3.51" transform="translate(59.59 473.15) rotate(-45.64)"/>
    <path class="cls-4" d="M523.24,100.89l.29.42c3.86,5.55,11.41,7.03,16.87,3.32l.53-.36c5.45-3.72,6.74-11.23,2.88-16.78l-.29-.42c-3.86-5.55-11.41-7.03-16.87-3.32l-.53.36c-5.45,3.72-6.74,11.23-2.88,16.78Z"/>
    <path class="cls-6" d="M548.28,208.6l8.08,8.55c3.36,3.56,8.91,3.8,12.39.53l8.47-7.96c3.48-3.27,3.57-8.81.21-12.37l-8.08-8.55c-3.36-3.56-8.91-3.8-12.39-.53l-8.47,7.96c-3.48,3.27-3.57,8.81-.21,12.37Z"/>
    <path class="cls-2" d="M615.03,226.82l36.89,19.66c5.18,2.76,11.51.86,14.14-4.25l8.61-16.73c2.63-5.11.56-11.49-4.62-14.25l-36.89-19.66c-5.18-2.76-11.51-.86-14.14,4.25l-8.61,16.73c-2.63,5.11-.56,11.49,4.62,14.25Z"/>
    <path class="cls-5" d="M697.27,166.68l-49.5-44.78c-3.37-3.05-2.63-8.52,1.43-10.56l43-21.65c4.06-2.04,8.9.62,9.34,5.14l6.5,66.43c.57,5.88-6.39,9.38-10.77,5.42Z"/>
    <path class="cls-7" d="M701.48,226.27l14.36,7.65c5.85,3.12,12.99.97,15.95-4.8l7.39-14.35c2.97-5.76.63-12.96-5.22-16.08l-14.36-7.65c-5.85-3.12-12.99-.97-15.95,4.8l-7.39,14.35c-2.97,5.76-.63,12.96,5.22,16.08Z"/>
    <path class="cls-4" d="M640.36,58.93l-17,8.51c-2.67,1.33-2.06,5.3.88,5.78l30.78,4.97c2.96.48,4.78-3.13,2.64-5.23l-13.79-13.48c-.94-.92-2.35-1.14-3.52-.55Z"/>
    <path class="cls-4" d="M765.16,231.34l-3.52.31c-3.33.29-4.63,4.48-2.04,6.6l3.93,3.22c2.59,2.13,6.46.02,6.07-3.31l-.41-3.53c-.23-2.01-2.02-3.46-4.03-3.29Z"/>
    <ellipse class="cls-4" cx="681.51" cy="186.39" rx="7.66" ry="7.86" transform="translate(71.79 543.38) rotate(-45.64)"/>
    <path class="cls-3" d="M632.78,171.24l9.14,2.45c3.77,1.01,7.57-1.21,8.49-4.95l2.24-9.21c.91-3.75-1.41-7.6-5.18-8.61l-9.14-2.45c-3.77-1.01-7.57,1.21-8.49,4.95l-2.24,9.21c-.91,3.75,1.41,7.6,5.18,8.61Z"/>
    <path class="cls-1" d="M742,168.63l-12.38-10.15c-2.67-2.19-6.45.77-4.96,3.88l12.39,26.04c1.48,3.11,6.15,2.05,6.14-1.39l-.02-15.9c0-.97-.43-1.88-1.18-2.49Z"/>
  </g>
</svg>