<?xml version="1.0" encoding="UTF-8"?>
<svg id="Layer_2" data-name="Layer 2" xmlns="http://www.w3.org/2000/svg" viewBox="0 0 770.15 765.13">
  <defs>
    <style>
      .cls-1, .cls-2, .cls-3, .cls-4, .cls-5, .cls-6, .cls-7, .cls-8, .cls-9 {
        stroke-width: 0px;
      }

      .cls-1, .cls-2, .cls-3, .cls-10, .cls-11, .cls-12 {
        fill: #d7d1e7;
      }

      .cls-1, .cls-3, .cls-5, .cls-6, .cls-7, .cls-8, .cls-9 {
        isolation: isolate;
      }

      .cls-1, .cls-8 {
        opacity: .5;
      }

      .cls-3, .cls-6 {
        opacity: .3;
      }

      .cls-4, .cls-5, .cls-6, .cls-8, .cls-9 {
        fill: #d13389;
      }

      .cls-5 {
        opacity: .4;
      }

      .cls-7 {
        fill: #d10089;
        opacity: .17;
      }

      .cls-10 {
        stroke-miterlimit: 10;
        stroke-width: 1px;
      }

      .cls-10, .cls-11, .cls-12 {
        stroke: #fff;
      }

      .cls-9 {
        opacity: .2;
      }

      .cls-11 {
        stroke-miterlimit: 10;
        stroke-width: 1px;
      }

      .cls-12 {
        stroke-miterlimit: 10;
        stroke-width: 1px;
      }
    </style>
  </defs>
  <g id="Layer_2-2" data-name="Layer 2">
    <g id="Layer_1-2" data-name="Layer 1-2">
      <path class="cls-1" d="M88.31,133.65l11.55,10.82c4.7,4.41,11.95,4.2,16.2-.47l10.58-11.61c4.24-4.66,3.87-12.02-.83-16.42l-11.55-10.82c-4.7-4.41-11.95-4.2-16.2.47l-10.58,11.61c-4.24,4.66-3.87,12.02.83,16.42Z"/>
      <ellipse class="cls-4" cx="92.63" cy="14.59" rx="14.3" ry="14.68" transform="translate(5.45 49.12) rotate(-30.56)"/>
      <path class="cls-3" d="M225.21,69.39l-18.41,25.31c-1.85,2.56-.3,6.16,2.83,6.56l31.22,3.99c3.19.41,5.62-2.83,4.33-5.78l-12.81-29.31c-1.28-2.94-5.28-3.37-7.17-.78h0Z"/>
      <path class="cls-4" d="M179.39,68.95h0c2.83,1.64,6.38.68,7.94-2.16l.04-.06c1.56-2.83.52-6.45-2.31-8.09h0c-2.83-1.64-6.38-.68-7.94,2.16l-.04.06c-1.56,2.83-.52,6.45,2.31,8.09Z"/>
      <ellipse class="cls-6" cx="276.3" cy="87.08" rx="11.47" ry="11.77" transform="translate(-5.9 152.56) rotate(-30.56)"/>
      <ellipse class="cls-12" cx="275.93" cy="25.1" rx="7.15" ry="7.34" transform="translate(25.56 143.77) rotate(-30.56)"/>
      <ellipse class="cls-1" cx="155.05" cy="37.95" rx="10.27" ry="10.54" transform="translate(2.24 84.1) rotate(-30.56)"/>
      <ellipse class="cls-4" cx="261.68" cy="120.61" rx="3.32" ry="3.41" transform="translate(-24.97 149.79) rotate(-30.56)"/>
      <ellipse class="cls-4" cx="106.4" cy="48.21" rx="5.23" ry="5.37" transform="translate(-9.73 60.79) rotate(-30.56)"/>
      <path class="cls-4" d="M213.56,42.28l.17.47c2.22,6.19,8.94,9.5,15,7.39l.59-.21c6.06-2.11,9.17-8.84,6.95-15.03l-.17-.47c-2.22-6.19-8.94-9.5-15-7.39l-.59.21c-6.06,2.11-9.17,8.84-6.95,15.03Z"/>
      <path class="cls-2" d="M39.98,48.41l7.96,4.61c3.29,1.9,7.42.79,9.23-2.5l4.43-8.07c1.81-3.29.6-7.5-2.68-9.4l-7.96-4.61c-3.29-1.9-7.42-.79-9.23,2.5l-4.43,8.07c-1.81,3.29-.6,7.5,2.68,9.4Z"/>
      <path class="cls-5" d="M209.8,149.78l5.42,10.07c2.26,4.19,7.41,5.82,11.51,3.64l9.96-5.33c4.1-2.19,5.59-7.37,3.33-11.57l-5.42-10.07c-2.26-4.19-7.41-5.82-11.51-3.64l-9.96,5.33c-4.1,2.19-5.59,7.37-3.33,11.57Z"/>
      <path class="cls-4" d="M84.27,67.63l-12.1,13.55c-1.99,2.22.04,5.69,2.95,5.04l29.1-6.44c2.93-.64,3.29-4.68.52-5.83l-17-7.12c-1.2-.5-2.6-.19-3.47.78h0Z"/>
      <path class="cls-4" d="M3.15,30.95L.13,39.01c-.52,1.38.63,2.81,2.09,2.61l8.45-1.2c1.49-.21,2.18-1.96,1.25-3.13l-5.42-6.87c-.94-1.19-2.82-.9-3.36.53h0Z"/>
      <path class="cls-5" d="M142.83,103.89l18.9,24.91c2.47,3.25,7.66,1.56,7.73-2.52l.94-48.14c.08-4.04-4.95-5.95-7.58-2.88l-19.85,23.24c-1.31,1.54-1.38,3.78-.16,5.4h0Z"/>
      <path class="cls-7" d="M190.8,178.63l-2.16-31.14c-.17-2.53-3.06-3.88-5.11-2.39l-26.58,19.29c-2.04,1.48-1.67,4.64.67,5.6l28.73,11.86c2.22.91,4.62-.82,4.46-3.2v-.02Z"/>
      <path class="cls-9" d="M267.87,183.8l29.67,27.81c4.17,3.91,10.59,3.72,14.36-.41l12.32-13.53c3.76-4.13,3.43-10.64-.73-14.55l-29.67-27.81c-4.17-3.91-10.59-3.72-14.36.41l-12.32,13.53c-3.76,4.13-3.43,10.64.73,14.55Z"/>
      <path class="cls-4" d="M54.63,79.27l-3.04-.55c-3.3-.58-5.63,3.12-3.69,5.84l2.58,3.62c1.95,2.72,6.22,1.7,6.72-1.61l.46-3.07c.29-2-1.04-3.87-3.04-4.23h0Z"/>
      <path class="cls-4" d="M34.03,16.86h0c2.83,1.64,6.38.68,7.94-2.16l.04-.06c1.56-2.83.52-6.45-2.31-8.09h0c-2.83-1.64-6.38-.68-7.94,2.16l-.04.06c-1.56,2.83-.52,6.45,2.31,8.09Z"/>
      <ellipse class="cls-4" cx="144.13" cy="144.24" rx="7.45" ry="7.64" transform="translate(-53.31 93.3) rotate(-30.56)"/>
      <path class="cls-1" d="M274.59,126.01l8.67,13.24c3.53,5.39,10.63,6.9,15.85,3.37l13.01-8.79c5.23-3.53,6.59-10.76,3.07-16.16l-8.67-13.24c-3.53-5.39-10.63-6.9-15.85-3.37l-13.01,8.79c-5.23,3.53-6.59,10.76-3.07,16.16Z"/>
      <path class="cls-3" d="M422.79,95.83l-23.85,20.27c-2.4,2.05-1.74,5.92,1.21,7.05l29.4,11.23c3.01,1.15,6.14-1.42,5.57-4.6l-5.55-31.5c-.56-3.16-4.33-4.52-6.78-2.45Z"/>
      <path class="cls-4" d="M378.36,84.6h0c2.36,2.26,6.04,2.17,8.23-.22l.05-.05c2.18-2.38,2.03-6.15-.34-8.41h0c-2.36-2.26-6.04-2.17-8.23.22l-.05.05c-2.18,2.38-2.03,6.15.34,8.41Z"/>
      <ellipse class="cls-6" cx="468.28" cy="125.08" rx="11.47" ry="11.77" transform="translate(-16.13 141.67) rotate(-16.92)"/>
      <ellipse class="cls-11" cx="482.52" cy="64.77" rx="7.15" ry="7.34" transform="translate(2.03 143.21) rotate(-16.92)"/>
      <ellipse class="cls-1" cx="362.02" cy="48.75" rx="10.27" ry="10.54" transform="translate(1.48 107.45) rotate(-16.92)"/>
      <ellipse class="cls-4" cx="446.15" cy="154.21" rx="3.32" ry="3.41" transform="translate(-25.57 136.5) rotate(-16.92)"/>
      <path class="cls-4" d="M417.86,66.74l.06.5c.7,6.54,6.45,11.34,12.84,10.72l.62-.06c6.39-.62,11-6.43,10.3-12.97l-.06-.5c-.7-6.54-6.45-11.34-12.84-10.72l-.62.06c-6.39.62-11,6.43-10.3,12.97Z"/>
      <path class="cls-5" d="M388.86,170.33l2.89,11.07c1.21,4.61,5.82,7.41,10.32,6.24l10.94-2.83c4.5-1.17,7.16-5.85,5.96-10.46l-2.89-11.07c-1.21-4.61-5.82-7.41-10.32-6.24l-10.94,2.83c-4.5,1.17-7.16,5.85-5.96,10.46Z"/>
      <path class="cls-5" d="M334.6,109.93l12.5,28.66c1.63,3.74,7.07,3.32,8.11-.62l12.27-46.57c1.03-3.91-3.41-6.95-6.69-4.59l-24.77,17.9c-1.65,1.18-2.23,3.35-1.42,5.21Z"/>
      <path class="cls-7" d="M363.59,193.89l5.25-30.77c.43-2.5-2.06-4.5-4.41-3.53l-30.37,12.48c-2.34.96-2.71,4.11-.67,5.6l25.13,18.29c1.94,1.41,4.69.29,5.08-2.07h0Z"/>
      <path class="cls-9" d="M437.27,217.08l22.27,34.02c3.13,4.78,9.42,6.12,14.05,2.98l15.17-10.24c4.63-3.12,5.85-9.54,2.72-14.31l-22.27-34.02c-3.13-4.78-9.42-6.12-14.05-2.98l-15.17,10.24c-4.63,3.12-5.85,9.54-2.72,14.31Z"/>
      <ellipse class="cls-4" cx="326.34" cy="149.46" rx="7.45" ry="7.64" transform="translate(-29.37 101.43) rotate(-16.92)"/>
      <path class="cls-4" d="M537.32,85.7l-18.16-.68c-2.98-.11-4.35,3.66-2,5.49l23.52,18.31c2.37,1.84,5.7-.45,4.82-3.32l-5.36-17.63c-.38-1.26-1.51-2.12-2.82-2.17Z"/>
      <ellipse class="cls-4" cx="512.89" cy="213.66" rx="7.45" ry="7.64" transform="translate(-39.98 158.49) rotate(-16.92)"/>
      <path class="cls-2" d="M478.4,177.96l6.65,6.36c2.75,2.63,7.02,2.51,9.55-.25l6.22-6.81c2.53-2.77,2.35-7.14-.39-9.77l-6.65-6.36c-2.75-2.63-7.02-2.51-9.55.25l-6.22,6.81c-2.53,2.77-2.35,7.14.39,9.77h0Z"/>
      <path class="cls-3" d="M531.28,169.85l-14.81,29.02c-1.44,2.81.67,6.14,3.82,6.04l32.75-.97c3.23-.1,5.11-3.67,3.38-6.39l-17.93-28.05c-1.73-2.7-5.74-2.51-7.2.35Z"/>
      <ellipse class="cls-6" cx="585.94" cy="179.86" rx="11.79" ry="12.1" transform="translate(19.52 414.05) rotate(-39.53)"/>
      <ellipse class="cls-10" cx="575.64" cy="116.98" rx="7.35" ry="7.55" transform="translate(57.18 393.11) rotate(-39.53)"/>
      <ellipse class="cls-4" cx="576.46" cy="216.25" rx="3.41" ry="3.51" transform="translate(-5.81 416.33) rotate(-39.53)"/>
      <path class="cls-4" d="M515.01,144.37l.24.45c3.25,5.93,10.6,8.21,16.42,5.1l.57-.3c5.82-3.12,7.9-10.45,4.65-16.38l-.24-.45c-3.25-5.93-10.6-8.21-16.42-5.1l-.57.3c-5.82,3.12-7.9,10.45-4.65,16.38Z"/>
      <path class="cls-5" d="M528.44,254.14l7.12,9.36c2.96,3.9,8.45,4.73,12.26,1.85l9.27-7.01c3.81-2.88,4.49-8.38,1.53-12.28l-7.12-9.36c-2.96-3.9-8.45-4.73-12.26-1.85l-9.27,7.01c-3.81,2.88-4.49,8.38-1.53,12.28Z"/>
      <path class="cls-9" d="M592.87,279.36l34.59,23.48c4.86,3.3,11.35,2.08,14.51-2.72l10.34-15.72c3.16-4.8,1.78-11.37-3.08-14.66l-34.59-23.48c-4.86-3.3-11.35-2.08-14.51,2.72l-10.34,15.72c-3.16,4.8-1.78,11.37,3.08,14.66Z"/>
      <path class="cls-8" d="M681.05,228.32l-44.45-49.8c-3.03-3.39-1.71-8.75,2.55-10.35l45.06-16.95c4.25-1.6,8.78,1.56,8.74,6.11l-.61,66.74c-.06,5.91-7.35,8.65-11.29,4.24Z"/>
      <path class="cls-1" d="M678.89,288.02l13.46,9.14c5.48,3.73,12.81,2.35,16.37-3.07l8.88-13.48c3.57-5.41,2.01-12.82-3.48-16.54l-13.46-9.14c-5.48-3.73-12.81-2.35-16.37,3.07l-8.88,13.48c-3.57,5.41-2.01,12.82,3.48,16.54Z"/>
      <path class="cls-4" d="M635.94,115.12l-17.81,6.65c-2.8,1.04-2.61,5.05.26,5.84l30.08,8.22c2.89.79,5.09-2.6,3.18-4.92l-12.28-14.87c-.84-1.01-2.22-1.38-3.44-.92h0Z"/>
      <path class="cls-4" d="M741.67,299.84l-3.53-.07c-3.34-.07-5.08,3.96-2.73,6.35l3.56,3.62c2.35,2.39,6.42.71,6.39-2.64l-.03-3.55c-.01-2.02-1.64-3.66-3.66-3.7h0Z"/>
      <ellipse class="cls-4" cx="663.3" cy="246.3" rx="7.66" ry="7.86" transform="translate(-5.07 478.47) rotate(-39.53)"/>
      <path class="cls-2" d="M616.44,225.99l8.83,3.41c3.64,1.41,7.66-.4,8.97-4.02l3.21-8.92c1.3-3.63-.59-7.71-4.23-9.11l-8.83-3.41c-3.64-1.41-7.66.4-8.97,4.02l-3.21,8.92c-1.3,3.63.59,7.71,4.23,9.11Z"/>
      <path class="cls-7" d="M725.32,235.02l-11.23-11.41c-2.42-2.46-6.5.08-5.35,3.33l9.55,27.21c1.14,3.25,5.9,2.69,6.25-.73l1.67-15.81c.1-.96-.23-1.92-.91-2.6h0Z"/>
    </g>
    <g id="Layer_1-2-2" data-name="Layer 1-2">
      <path class="cls-1" d="M682.67,571.49l-10.58-11.61c-4.25-4.66-11.5-4.87-16.2-.47l-11.55,10.82c-4.7,4.41-5.07,11.76-.83,16.42l10.58,11.61c4.25,4.66,11.5,4.87,16.2.47l11.55-10.82c4.7-4.41,5.07-11.76.83-16.42Z"/>
      <ellipse class="cls-4" cx="677.53" cy="468.85" rx="14.68" ry="14.3" transform="translate(-70.66 813.92) rotate(-59.44)"/>
      <path class="cls-3" d="M544.95,523.63c-1.89-2.59-5.88-2.17-7.17.78l-12.81,29.31c-1.29,2.95,1.14,6.19,4.33,5.78l31.22-3.99c3.13-.4,4.68-4,2.83-6.56l-18.41-25.31h0Z"/>
      <path class="cls-4" d="M593.07,515.12l-.04-.06c-1.56-2.84-5.11-3.8-7.94-2.16h0c-2.83,1.64-3.87,5.26-2.31,8.09l.04.06c1.56,2.84,5.11,3.8,7.94,2.16h0c2.83-1.64,3.87-5.26,2.31-8.09Z"/>
      <ellipse class="cls-6" cx="493.85" cy="541.34" rx="11.77" ry="11.47" transform="translate(-223.38 691.39) rotate(-59.44)"/>
      <ellipse class="cls-12" cx="494.22" cy="479.36" rx="7.34" ry="7.15" transform="translate(-169.83 661.24) rotate(-59.44)"/>
      <ellipse class="cls-1" cx="615.1" cy="492.21" rx="10.54" ry="10.27" transform="translate(-121.47 771.65) rotate(-59.44)"/>
      <ellipse class="cls-4" cx="508.47" cy="574.87" rx="3.41" ry="3.32" transform="translate(-245.06 720.47) rotate(-59.44)"/>
      <ellipse class="cls-4" cx="663.75" cy="502.47" rx="5.37" ry="5.23" transform="translate(-106.38 818.59) rotate(-59.44)"/>
      <path class="cls-4" d="M549.64,481.52l-.59-.21c-6.06-2.11-12.78,1.2-15,7.39l-.17.47c-2.22,6.18.89,12.92,6.95,15.03l.59.21c6.06,2.11,12.78-1.2,15-7.39l.17-.47c2.22-6.18-.89-12.92-6.95-15.03Z"/>
      <path class="cls-2" d="M732.85,493.27l-4.43-8.07c-1.81-3.3-5.94-4.4-9.23-2.5l-7.96,4.61c-3.29,1.9-4.49,6.11-2.68,9.4l4.43,8.07c1.81,3.3,5.94,4.4,9.23,2.5l7.96-4.61c3.29-1.9,4.49-6.11,2.68-9.4Z"/>
      <path class="cls-5" d="M557.02,592.47l-9.96-5.33c-4.1-2.19-9.25-.56-11.51,3.64l-5.42,10.07c-2.26,4.2-.76,9.38,3.33,11.57l9.96,5.33c4.1,2.19,9.25.56,11.51-3.64l5.42-10.07c2.26-4.2.76-9.38-3.33-11.57Z"/>
      <path class="cls-4" d="M685.88,521.88c-.87-.97-2.27-1.29-3.47-.78l-17,7.12c-2.76,1.15-2.4,5.19.52,5.83l29.1,6.44c2.91.64,4.94-2.82,2.95-5.04l-12.1-13.55h0Z"/>
      <path class="cls-4" d="M767.01,485.21c-.53-1.42-2.42-1.71-3.36-.53l-5.42,6.87c-.93,1.18-.24,2.92,1.25,3.13l8.45,1.2c1.46.21,2.61-1.23,2.09-2.61l-3.03-8.06h0Z"/>
      <path class="cls-5" d="M627.32,558.16c1.22-1.62,1.15-3.86-.16-5.4l-19.85-23.24c-2.62-3.07-7.66-1.16-7.58,2.88l.94,48.14c.08,4.09,5.26,5.77,7.73,2.52l18.9-24.91h0Z"/>
      <path class="cls-7" d="M579.34,632.91c-.17,2.38,2.24,4.11,4.46,3.2l28.73-11.86c2.34-.96,2.71-4.12.67-5.6l-26.58-19.29c-2.05-1.49-4.94-.14-5.11,2.39l-2.16,31.14v.02Z"/>
      <path class="cls-9" d="M503.02,623.51l-12.32-13.53c-3.76-4.13-10.19-4.32-14.36-.41l-29.67,27.81c-4.17,3.91-4.5,10.42-.73,14.55l12.32,13.53c3.76,4.13,10.19,4.32,14.36.41l29.67-27.81c4.17-3.91,4.5-10.42.73-14.55Z"/>
      <path class="cls-4" d="M715.53,533.52c-1.99.35-3.33,2.23-3.04,4.23l.46,3.07c.5,3.32,4.77,4.34,6.72,1.61l2.58-3.62c1.94-2.72-.4-6.42-3.69-5.84l-3.04.55h0Z"/>
      <path class="cls-4" d="M738.43,463.02l-.04-.06c-1.56-2.84-5.11-3.8-7.94-2.16h0c-2.83,1.64-3.87,5.26-2.31,8.09l.04.06c1.56,2.84,5.11,3.8,7.94,2.16h0c2.83-1.64,3.87-5.26,2.31-8.09Z"/>
      <ellipse class="cls-4" cx="626.02" cy="598.5" rx="7.64" ry="7.45" transform="translate(-207.62 833.31) rotate(-59.44)"/>
      <path class="cls-1" d="M492.49,564.11l-13.01-8.79c-5.23-3.53-12.33-2.02-15.85,3.37l-8.67,13.24c-3.53,5.4-2.16,12.62,3.07,16.16l13.01,8.79c5.23,3.53,12.33,2.02,15.85-3.37l8.67-13.24c3.53-5.4,2.16-12.62-3.07-16.16Z"/>
      <path class="cls-3" d="M340.58,552.53l-5.55,31.5c-.56,3.18,2.56,5.75,5.57,4.6l29.4-11.23c2.95-1.13,3.61-5,1.21-7.05l-23.85-20.27c-2.44-2.07-6.22-.71-6.78,2.45Z"/>
      <path class="cls-4" d="M392.12,530.45l-.05-.05c-2.19-2.39-5.87-2.49-8.23-.22h0c-2.36,2.26-2.51,6.03-.34,8.41l.05.05c2.19,2.39,5.87,2.49,8.23.22h0c2.36-2.26,2.51-6.03.34-8.41Z"/>
      <ellipse class="cls-6" cx="301.87" cy="579.34" rx="11.77" ry="11.47" transform="translate(-340.24 699.58) rotate(-73.08)"/>
      <ellipse class="cls-11" cx="287.63" cy="519.03" rx="7.34" ry="7.15" transform="translate(-292.64 643.18) rotate(-73.08)"/>
      <ellipse class="cls-1" cx="408.13" cy="503.01" rx="10.54" ry="10.27" transform="translate(-191.88 747.11) rotate(-73.08)"/>
      <ellipse class="cls-4" cx="324" cy="608.47" rx="3.41" ry="3.32" transform="translate(-352.42 741.39) rotate(-73.08)"/>
      <path class="cls-4" d="M341.99,508.03l-.62-.06c-6.39-.62-12.14,4.18-12.84,10.72l-.06.5c-.7,6.54,3.91,12.34,10.3,12.97l.62.06c6.39.62,12.14-4.18,12.84-10.72l.06-.5c.7-6.54-3.91-12.34-10.3-12.97Z"/>
      <path class="cls-5" d="M375.33,614.13l-10.94-2.83c-4.5-1.17-9.12,1.63-10.32,6.24l-2.89,11.07c-1.21,4.6,1.46,9.29,5.96,10.46l10.94,2.83c4.5,1.17,9.12-1.63,10.32-6.24l2.89-11.07c1.21-4.6-1.46-9.29-5.96-10.46Z"/>
      <path class="cls-5" d="M434.13,558.99l-24.77-17.9c-3.28-2.36-7.72.68-6.69,4.59l12.27,46.57c1.05,3.94,6.48,4.36,8.11.62l12.5-28.66c.81-1.86.22-4.03-1.42-5.21Z"/>
      <path class="cls-7" d="M406.56,648.15c.39,2.36,3.14,3.49,5.08,2.07l25.13-18.29c2.04-1.49,1.66-4.64-.67-5.6l-30.37-12.48c-2.35-.97-4.84,1.03-4.41,3.53l5.25,30.77h0Z"/>
      <path class="cls-9" d="M330.16,657.03l-15.17-10.24c-4.63-3.13-10.92-1.8-14.05,2.98l-22.27,34.02c-3.13,4.77-1.91,11.19,2.72,14.31l15.17,10.24c4.63,3.13,10.92,1.8,14.05-2.98l22.27-34.02c3.13-4.77,1.91-11.19-2.72-14.31Z"/>
      <ellipse class="cls-4" cx="443.82" cy="603.72" rx="7.64" ry="7.45" transform="translate(-262.92 852.65) rotate(-73.08)"/>
      <path class="cls-4" d="M230.01,542.14l-5.36,17.63c-.88,2.87,2.45,5.16,4.82,3.32l23.52-18.31c2.36-1.83.98-5.6-2-5.49l-18.16.68c-1.31.05-2.45.92-2.82,2.17Z"/>
      <ellipse class="cls-4" cx="257.27" cy="667.92" rx="7.64" ry="7.45" transform="translate(-456.62 719.7) rotate(-73.08)"/>
      <path class="cls-2" d="M291.75,632.22c2.75-2.63,2.92-7,.39-9.77l-6.22-6.81c-2.53-2.77-6.81-2.88-9.55-.25l-6.65,6.36c-2.75,2.63-2.92,7-.39,9.77l6.22,6.81c2.53,2.77,6.81,2.88,9.55.25l6.65-6.36h0Z"/>
      <path class="cls-3" d="M231.67,623.77l-17.93,28.05c-1.73,2.72.15,6.29,3.38,6.39l32.75.97c3.15.1,5.26-3.23,3.82-6.04l-14.81-29.02c-1.46-2.85-5.47-3.05-7.2-.35Z"/>
      <ellipse class="cls-6" cx="184.21" cy="634.12" rx="12.1" ry="11.79" transform="translate(-422.14 372.62) rotate(-50.47)"/>
      <ellipse class="cls-10" cx="194.51" cy="571.24" rx="7.55" ry="7.35" transform="translate(-369.9 357.71) rotate(-50.47)"/>
      <ellipse class="cls-4" cx="193.69" cy="670.51" rx="3.51" ry="3.41" transform="translate(-446.77 393.17) rotate(-50.47)"/>
      <path class="cls-4" d="M250.49,582.26l-.57-.3c-5.82-3.11-13.17-.83-16.42,5.1l-.24.45c-3.25,5.93-1.16,13.26,4.65,16.38l.57.3c5.82,3.11,13.17.83,16.42-5.1l.24-.45c3.25-5.93,1.16-13.26-4.65-16.38Z"/>
      <path class="cls-5" d="M240.18,696.12l-9.27-7.01c-3.81-2.88-9.3-2.05-12.26,1.85l-7.12,9.36c-2.96,3.9-2.28,9.4,1.53,12.28l9.27,7.01c3.81,2.88,9.3,2.05,12.26-1.85l7.12-9.36c2.96-3.9,2.28-9.4-1.53-12.28Z"/>
      <path class="cls-9" d="M180.36,718.96l-10.34-15.72c-3.16-4.8-9.66-6.02-14.51-2.72l-34.59,23.48c-4.86,3.3-6.24,9.86-3.08,14.66l10.34,15.72c3.16,4.8,9.66,6.02,14.51,2.72l34.59-23.48c4.86-3.3,6.24-9.86,3.08-14.66Z"/>
      <path class="cls-8" d="M77.82,678.34l-.61-66.74c-.04-4.54,4.49-7.7,8.74-6.11l45.06,16.95c4.25,1.6,5.57,6.96,2.55,10.35l-44.45,49.8c-3.93,4.4-11.23,1.67-11.29-4.24Z"/>
      <path class="cls-1" d="M94.74,725.74l-8.88-13.48c-3.56-5.42-10.89-6.8-16.37-3.07l-13.46,9.14c-5.48,3.73-7.04,11.13-3.48,16.54l8.88,13.48c3.56,5.42,10.89,6.8,16.37,3.07l13.46-9.14c5.48-3.73,7.04-11.13,3.48-16.54Z"/>
      <path class="cls-4" d="M134.22,569.38c-1.23-.46-2.6-.09-3.44.92l-12.28,14.87c-1.9,2.32.29,5.71,3.18,4.92l30.08-8.22c2.87-.79,3.06-4.8.26-5.84l-17.81-6.65h0Z"/>
      <path class="cls-4" d="M28.48,754.1c-2.02.05-3.64,1.68-3.66,3.7l-.03,3.55c-.03,3.35,4.04,5.04,6.39,2.64l3.56-3.62c2.35-2.38.61-6.41-2.73-6.35l-3.53.07h0Z"/>
      <ellipse class="cls-4" cx="106.85" cy="700.56" rx="7.86" ry="7.66" transform="translate(-501.51 337.11) rotate(-50.47)"/>
      <path class="cls-2" d="M157.94,671.14l-3.21-8.92c-1.31-3.62-5.33-5.42-8.97-4.02l-8.83,3.41c-3.64,1.41-5.54,5.48-4.23,9.11l3.21,8.92c1.31,3.62,5.33,5.42,8.97,4.02l8.83-3.41c3.64-1.41,5.54-5.48,4.23-9.11Z"/>
      <path class="cls-7" d="M44.84,689.27c-.68.69-1.01,1.64-.91,2.6l1.67,15.81c.36,3.42,5.11,3.98,6.25.73l9.55-27.21c1.15-3.25-2.92-5.79-5.35-3.33l-11.23,11.41h0Z"/>
    </g>
  </g>
</svg>