<?xml version="1.0" encoding="UTF-8"?>
<svg id="Layer_2" data-name="Layer 2" xmlns="http://www.w3.org/2000/svg" viewBox="0 0 793.21 3144.95">
  <defs>
    <style>
      .cls-1, .cls-2, .cls-3, .cls-4, .cls-5, .cls-6, .cls-7, .cls-8, .cls-9 {
        stroke-width: 0px;
      }

      .cls-1, .cls-2, .cls-3, .cls-10, .cls-11, .cls-12 {
        fill: #d7d1e7;
      }

      .cls-1, .cls-3, .cls-5, .cls-6, .cls-7, .cls-8, .cls-9 {
        isolation: isolate;
      }

      .cls-1, .cls-8 {
        opacity: .5;
      }

      .cls-3, .cls-6 {
        opacity: .3;
      }

      .cls-4, .cls-5, .cls-6, .cls-8, .cls-9 {
        fill: #d13389;
      }

      .cls-5 {
        opacity: .4;
      }

      .cls-7 {
        fill: #d10089;
        opacity: .17;
      }

      .cls-10 {
        stroke-miterlimit: 10;
        stroke-width: 1px;
      }

      .cls-10, .cls-11, .cls-12 {
        stroke: #fff;
      }

      .cls-9 {
        opacity: .2;
      }

      .cls-11 {
        stroke-miterlimit: 10;
        stroke-width: 1px;
      }

      .cls-12 {
        stroke-miterlimit: 10;
        stroke-width: 1px;
      }
    </style>
  </defs>
  <g id="Layer_2-2" data-name="Layer 2">
    <g id="Layer_1-2" data-name="Layer 1-2">
      <path class="cls-1" d="M88.31,133.65l11.55,10.82c4.7,4.41,11.95,4.2,16.2-.47l10.58-11.61c4.24-4.66,3.87-12.02-.83-16.42l-11.55-10.82c-4.7-4.41-11.95-4.2-16.2.47l-10.58,11.61c-4.24,4.66-3.87,12.02.83,16.42Z"/>
      <ellipse class="cls-4" cx="92.63" cy="14.59" rx="14.3" ry="14.68" transform="translate(5.45 49.12) rotate(-30.56)"/>
      <path class="cls-3" d="M225.21,69.39l-18.41,25.31c-1.85,2.56-.3,6.16,2.83,6.56l31.22,3.99c3.19.41,5.62-2.83,4.33-5.78l-12.81-29.31c-1.28-2.94-5.28-3.37-7.17-.78h0Z"/>
      <path class="cls-4" d="M179.39,68.95h0c2.83,1.64,6.38.68,7.94-2.16l.04-.06c1.56-2.83.52-6.45-2.31-8.09h0c-2.83-1.64-6.38-.68-7.94,2.16l-.04.06c-1.56,2.83-.52,6.45,2.31,8.09Z"/>
      <ellipse class="cls-6" cx="276.3" cy="87.08" rx="11.47" ry="11.77" transform="translate(-5.9 152.56) rotate(-30.56)"/>
      <ellipse class="cls-12" cx="275.93" cy="25.1" rx="7.15" ry="7.34" transform="translate(25.56 143.77) rotate(-30.56)"/>
      <ellipse class="cls-1" cx="155.05" cy="37.95" rx="10.27" ry="10.54" transform="translate(2.24 84.1) rotate(-30.56)"/>
      <ellipse class="cls-4" cx="261.68" cy="120.61" rx="3.32" ry="3.41" transform="translate(-24.97 149.79) rotate(-30.56)"/>
      <ellipse class="cls-4" cx="106.4" cy="48.21" rx="5.23" ry="5.37" transform="translate(-9.73 60.79) rotate(-30.56)"/>
      <path class="cls-4" d="M213.56,42.28l.17.47c2.22,6.19,8.94,9.5,15,7.39l.59-.21c6.06-2.11,9.17-8.84,6.95-15.03l-.17-.47c-2.22-6.19-8.94-9.5-15-7.39l-.59.21c-6.06,2.11-9.17,8.84-6.95,15.03Z"/>
      <path class="cls-2" d="M39.98,48.41l7.96,4.61c3.29,1.9,7.42.79,9.23-2.5l4.43-8.07c1.81-3.29.6-7.5-2.68-9.4l-7.96-4.61c-3.29-1.9-7.42-.79-9.23,2.5l-4.43,8.07c-1.81,3.29-.6,7.5,2.68,9.4Z"/>
      <path class="cls-5" d="M209.8,149.78l5.42,10.07c2.26,4.19,7.41,5.82,11.51,3.64l9.96-5.33c4.1-2.19,5.59-7.37,3.33-11.57l-5.42-10.07c-2.26-4.19-7.41-5.82-11.51-3.64l-9.96,5.33c-4.1,2.19-5.59,7.37-3.33,11.57Z"/>
      <path class="cls-4" d="M84.27,67.63l-12.1,13.55c-1.99,2.22.04,5.69,2.95,5.04l29.1-6.44c2.93-.64,3.29-4.68.52-5.83l-17-7.12c-1.2-.5-2.6-.19-3.47.78h0Z"/>
      <path class="cls-4" d="M3.15,30.95L.13,39.01c-.52,1.38.63,2.81,2.09,2.61l8.45-1.2c1.49-.21,2.18-1.96,1.25-3.13l-5.42-6.87c-.94-1.19-2.82-.9-3.36.53h0Z"/>
      <path class="cls-5" d="M142.83,103.89l18.9,24.91c2.47,3.25,7.66,1.56,7.73-2.52l.94-48.14c.08-4.04-4.95-5.95-7.58-2.88l-19.85,23.24c-1.31,1.54-1.38,3.78-.16,5.4h0Z"/>
      <path class="cls-7" d="M190.8,178.63l-2.16-31.14c-.17-2.53-3.06-3.88-5.11-2.39l-26.58,19.29c-2.04,1.48-1.67,4.64.67,5.6l28.73,11.86c2.22.91,4.62-.82,4.46-3.2v-.02Z"/>
      <path class="cls-9" d="M267.87,183.8l29.67,27.81c4.17,3.91,10.59,3.72,14.36-.41l12.32-13.53c3.76-4.13,3.43-10.64-.73-14.55l-29.67-27.81c-4.17-3.91-10.59-3.72-14.36.41l-12.32,13.53c-3.76,4.13-3.43,10.64.73,14.55Z"/>
      <path class="cls-4" d="M54.63,79.27l-3.04-.55c-3.3-.58-5.63,3.12-3.69,5.84l2.58,3.62c1.95,2.72,6.22,1.7,6.72-1.61l.46-3.07c.29-2-1.04-3.87-3.04-4.23h0Z"/>
      <path class="cls-4" d="M34.03,16.86h0c2.83,1.64,6.38.68,7.94-2.16l.04-.06c1.56-2.83.52-6.45-2.31-8.09h0c-2.83-1.64-6.38-.68-7.94,2.16l-.04.06c-1.56,2.83-.52,6.45,2.31,8.09Z"/>
      <ellipse class="cls-4" cx="144.13" cy="144.24" rx="7.45" ry="7.64" transform="translate(-53.31 93.3) rotate(-30.56)"/>
      <path class="cls-1" d="M274.59,126.01l8.67,13.24c3.53,5.39,10.63,6.9,15.85,3.37l13.01-8.79c5.23-3.53,6.59-10.76,3.07-16.16l-8.67-13.24c-3.53-5.39-10.63-6.9-15.85-3.37l-13.01,8.79c-5.23,3.53-6.59,10.76-3.07,16.16Z"/>
      <path class="cls-3" d="M422.79,95.83l-23.85,20.27c-2.4,2.05-1.74,5.92,1.21,7.05l29.4,11.23c3.01,1.15,6.14-1.42,5.57-4.6l-5.55-31.5c-.56-3.16-4.33-4.52-6.78-2.45Z"/>
      <path class="cls-4" d="M378.36,84.6h0c2.36,2.26,6.04,2.17,8.23-.22l.05-.05c2.18-2.38,2.03-6.15-.34-8.41h0c-2.36-2.26-6.04-2.17-8.23.22l-.05.05c-2.18,2.38-2.03,6.15.34,8.41Z"/>
      <ellipse class="cls-6" cx="468.28" cy="125.08" rx="11.47" ry="11.77" transform="translate(-16.13 141.67) rotate(-16.92)"/>
      <ellipse class="cls-11" cx="482.52" cy="64.77" rx="7.15" ry="7.34" transform="translate(2.03 143.21) rotate(-16.92)"/>
      <ellipse class="cls-1" cx="362.02" cy="48.75" rx="10.27" ry="10.54" transform="translate(1.48 107.45) rotate(-16.92)"/>
      <ellipse class="cls-4" cx="446.15" cy="154.21" rx="3.32" ry="3.41" transform="translate(-25.57 136.5) rotate(-16.92)"/>
      <path class="cls-4" d="M417.86,66.74l.06.5c.7,6.54,6.45,11.34,12.84,10.72l.62-.06c6.39-.62,11-6.43,10.3-12.97l-.06-.5c-.7-6.54-6.45-11.34-12.84-10.72l-.62.06c-6.39.62-11,6.43-10.3,12.97Z"/>
      <path class="cls-5" d="M388.86,170.33l2.89,11.07c1.21,4.61,5.82,7.41,10.32,6.24l10.94-2.83c4.5-1.17,7.16-5.85,5.96-10.46l-2.89-11.07c-1.21-4.61-5.82-7.41-10.32-6.24l-10.94,2.83c-4.5,1.17-7.16,5.85-5.96,10.46Z"/>
      <path class="cls-5" d="M334.6,109.93l12.5,28.66c1.63,3.74,7.07,3.32,8.11-.62l12.27-46.57c1.03-3.91-3.41-6.95-6.69-4.59l-24.77,17.9c-1.65,1.18-2.23,3.35-1.42,5.21Z"/>
      <path class="cls-7" d="M363.59,193.89l5.25-30.77c.43-2.5-2.06-4.5-4.41-3.53l-30.37,12.48c-2.34.96-2.71,4.11-.67,5.6l25.13,18.29c1.94,1.41,4.69.29,5.08-2.07h0Z"/>
      <path class="cls-9" d="M437.27,217.08l22.27,34.02c3.13,4.78,9.42,6.12,14.05,2.98l15.17-10.24c4.63-3.12,5.85-9.54,2.72-14.31l-22.27-34.02c-3.13-4.78-9.42-6.12-14.05-2.98l-15.17,10.24c-4.63,3.12-5.85,9.54-2.72,14.31Z"/>
      <ellipse class="cls-4" cx="326.34" cy="149.46" rx="7.45" ry="7.64" transform="translate(-29.37 101.43) rotate(-16.92)"/>
      <path class="cls-4" d="M537.32,85.7l-18.16-.68c-2.98-.11-4.35,3.66-2,5.49l23.52,18.31c2.37,1.84,5.7-.45,4.82-3.32l-5.36-17.63c-.38-1.26-1.51-2.12-2.82-2.17Z"/>
      <ellipse class="cls-4" cx="512.89" cy="213.66" rx="7.45" ry="7.64" transform="translate(-39.98 158.49) rotate(-16.92)"/>
      <path class="cls-2" d="M478.4,177.96l6.65,6.36c2.75,2.63,7.02,2.51,9.55-.25l6.22-6.81c2.53-2.77,2.35-7.14-.39-9.77l-6.65-6.36c-2.75-2.63-7.02-2.51-9.55.25l-6.22,6.81c-2.53,2.77-2.35,7.14.39,9.77h0Z"/>
      <path class="cls-3" d="M531.28,169.85l-14.81,29.02c-1.44,2.81.67,6.14,3.82,6.04l32.75-.97c3.23-.1,5.11-3.67,3.38-6.39l-17.93-28.05c-1.73-2.7-5.74-2.51-7.2.35Z"/>
      <ellipse class="cls-6" cx="585.94" cy="179.86" rx="11.79" ry="12.1" transform="translate(19.52 414.05) rotate(-39.53)"/>
      <ellipse class="cls-10" cx="575.64" cy="116.98" rx="7.35" ry="7.55" transform="translate(57.18 393.11) rotate(-39.53)"/>
      <ellipse class="cls-4" cx="576.46" cy="216.25" rx="3.41" ry="3.51" transform="translate(-5.81 416.33) rotate(-39.53)"/>
      <path class="cls-4" d="M515.01,144.37l.24.45c3.25,5.93,10.6,8.21,16.42,5.1l.57-.3c5.82-3.12,7.9-10.45,4.65-16.38l-.24-.45c-3.25-5.93-10.6-8.21-16.42-5.1l-.57.3c-5.82,3.12-7.9,10.45-4.65,16.38Z"/>
      <path class="cls-5" d="M528.44,254.14l7.12,9.36c2.96,3.9,8.45,4.73,12.26,1.85l9.27-7.01c3.81-2.88,4.49-8.38,1.53-12.28l-7.12-9.36c-2.96-3.9-8.45-4.73-12.26-1.85l-9.27,7.01c-3.81,2.88-4.49,8.38-1.53,12.28Z"/>
      <path class="cls-9" d="M592.87,279.36l34.59,23.48c4.86,3.3,11.35,2.08,14.51-2.72l10.34-15.72c3.16-4.8,1.78-11.37-3.08-14.66l-34.59-23.48c-4.86-3.3-11.35-2.08-14.51,2.72l-10.34,15.72c-3.16,4.8-1.78,11.37,3.08,14.66Z"/>
      <path class="cls-8" d="M681.05,228.32l-44.45-49.8c-3.03-3.39-1.71-8.75,2.55-10.35l45.06-16.95c4.25-1.6,8.78,1.56,8.74,6.11l-.61,66.74c-.06,5.91-7.35,8.65-11.29,4.24Z"/>
      <path class="cls-1" d="M678.89,288.02l13.46,9.14c5.48,3.73,12.81,2.35,16.37-3.07l8.88-13.48c3.57-5.41,2.01-12.82-3.48-16.54l-13.46-9.14c-5.48-3.73-12.81-2.35-16.37,3.07l-8.88,13.48c-3.57,5.41-2.01,12.82,3.48,16.54Z"/>
      <path class="cls-4" d="M635.94,115.12l-17.81,6.65c-2.8,1.04-2.61,5.05.26,5.84l30.08,8.22c2.89.79,5.09-2.6,3.18-4.92l-12.28-14.87c-.84-1.01-2.22-1.38-3.44-.92h0Z"/>
      <path class="cls-4" d="M741.67,299.84l-3.53-.07c-3.34-.07-5.08,3.96-2.73,6.35l3.56,3.62c2.35,2.39,6.42.71,6.39-2.64l-.03-3.55c-.01-2.02-1.64-3.66-3.66-3.7h0Z"/>
      <ellipse class="cls-4" cx="663.3" cy="246.3" rx="7.66" ry="7.86" transform="translate(-5.07 478.47) rotate(-39.53)"/>
      <path class="cls-2" d="M616.44,225.99l8.83,3.41c3.64,1.41,7.66-.4,8.97-4.02l3.21-8.92c1.3-3.63-.59-7.71-4.23-9.11l-8.83-3.41c-3.64-1.41-7.66.4-8.97,4.02l-3.21,8.92c-1.3,3.63.59,7.71,4.23,9.11Z"/>
      <path class="cls-7" d="M725.32,235.02l-11.23-11.41c-2.42-2.46-6.5.08-5.35,3.33l9.55,27.21c1.14,3.25,5.9,2.69,6.25-.73l1.67-15.81c.1-.96-.23-1.92-.91-2.6h0Z"/>
    </g>
    <g id="Layer_1-2-2" data-name="Layer 1-2">
      <path class="cls-1" d="M682.67,471.49l-10.58-11.61c-4.25-4.66-11.5-4.87-16.2-.47l-11.55,10.82c-4.7,4.41-5.07,11.76-.83,16.42l10.58,11.61c4.25,4.66,11.5,4.87,16.2.47l11.55-10.82c4.7-4.41,5.07-11.76.83-16.42Z"/>
      <ellipse class="cls-4" cx="677.53" cy="368.85" rx="14.68" ry="14.3" transform="translate(15.45 764.76) rotate(-59.44)"/>
      <path class="cls-3" d="M544.95,423.63c-1.89-2.59-5.88-2.17-7.17.78l-12.81,29.31c-1.29,2.95,1.14,6.19,4.33,5.78l31.22-3.99c3.13-.4,4.68-4,2.83-6.56l-18.41-25.31h0Z"/>
      <path class="cls-4" d="M593.07,415.12l-.04-.06c-1.56-2.84-5.11-3.8-7.94-2.16h0c-2.83,1.64-3.87,5.26-2.31,8.09l.04.06c1.56,2.84,5.11,3.8,7.94,2.16h0c2.83-1.64,3.87-5.26,2.31-8.09Z"/>
      <ellipse class="cls-6" cx="493.85" cy="441.34" rx="11.77" ry="11.47" transform="translate(-137.26 642.23) rotate(-59.44)"/>
      <ellipse class="cls-12" cx="494.22" cy="379.36" rx="7.34" ry="7.15" transform="translate(-83.72 612.08) rotate(-59.44)"/>
      <ellipse class="cls-1" cx="615.1" cy="392.21" rx="10.54" ry="10.27" transform="translate(-35.36 722.49) rotate(-59.44)"/>
      <ellipse class="cls-4" cx="508.47" cy="474.87" rx="3.41" ry="3.32" transform="translate(-158.95 671.3) rotate(-59.44)"/>
      <ellipse class="cls-4" cx="663.75" cy="402.47" rx="5.37" ry="5.23" transform="translate(-20.27 769.43) rotate(-59.44)"/>
      <path class="cls-4" d="M549.64,381.52l-.59-.21c-6.06-2.11-12.78,1.2-15,7.39l-.17.47c-2.22,6.18.89,12.92,6.95,15.03l.59.21c6.06,2.11,12.78-1.2,15-7.39l.17-.47c2.22-6.18-.89-12.92-6.95-15.03Z"/>
      <path class="cls-2" d="M732.85,393.27l-4.43-8.07c-1.81-3.3-5.94-4.4-9.23-2.5l-7.96,4.61c-3.29,1.9-4.49,6.11-2.68,9.4l4.43,8.07c1.81,3.3,5.94,4.4,9.23,2.5l7.96-4.61c3.29-1.9,4.49-6.11,2.68-9.4Z"/>
      <path class="cls-5" d="M557.02,492.47l-9.96-5.33c-4.1-2.19-9.25-.56-11.51,3.64l-5.42,10.07c-2.26,4.2-.76,9.38,3.33,11.57l9.96,5.33c4.1,2.19,9.25.56,11.51-3.64l5.42-10.07c2.26-4.2.76-9.38-3.33-11.57Z"/>
      <path class="cls-4" d="M685.88,421.88c-.87-.97-2.27-1.29-3.47-.78l-17,7.12c-2.76,1.15-2.4,5.19.52,5.83l29.1,6.44c2.91.64,4.94-2.82,2.95-5.04l-12.1-13.55h0Z"/>
      <path class="cls-4" d="M767.01,385.21c-.53-1.42-2.42-1.71-3.36-.53l-5.42,6.87c-.93,1.18-.24,2.92,1.25,3.13l8.45,1.2c1.46.21,2.61-1.23,2.09-2.61l-3.03-8.06h0Z"/>
      <path class="cls-5" d="M627.32,458.16c1.22-1.62,1.15-3.86-.16-5.4l-19.85-23.24c-2.62-3.07-7.66-1.16-7.58,2.88l.94,48.14c.08,4.09,5.26,5.77,7.73,2.52l18.9-24.91h0Z"/>
      <path class="cls-7" d="M579.34,532.91c-.17,2.38,2.24,4.11,4.46,3.2l28.73-11.86c2.34-.96,2.71-4.12.67-5.6l-26.58-19.29c-2.05-1.49-4.94-.14-5.11,2.39l-2.16,31.14v.02Z"/>
      <path class="cls-9" d="M503.02,523.51l-12.32-13.53c-3.76-4.13-10.19-4.32-14.36-.41l-29.67,27.81c-4.17,3.91-4.5,10.42-.73,14.55l12.32,13.53c3.76,4.13,10.19,4.32,14.36.41l29.67-27.81c4.17-3.91,4.5-10.42.73-14.55Z"/>
      <path class="cls-4" d="M715.53,433.52c-1.99.35-3.33,2.23-3.04,4.23l.46,3.07c.5,3.32,4.77,4.34,6.72,1.61l2.58-3.62c1.94-2.72-.4-6.42-3.69-5.84l-3.04.55h0Z"/>
      <path class="cls-4" d="M738.43,363.02l-.04-.06c-1.56-2.84-5.11-3.8-7.94-2.16h0c-2.83,1.64-3.87,5.26-2.31,8.09l.04.06c1.56,2.84,5.11,3.8,7.94,2.16h0c2.83-1.64,3.87-5.26,2.31-8.09Z"/>
      <ellipse class="cls-4" cx="626.02" cy="498.5" rx="7.64" ry="7.45" transform="translate(-121.51 784.15) rotate(-59.44)"/>
      <path class="cls-1" d="M492.49,464.11l-13.01-8.79c-5.23-3.53-12.33-2.02-15.85,3.37l-8.67,13.24c-3.53,5.4-2.16,12.62,3.07,16.16l13.01,8.79c5.23,3.53,12.33,2.02,15.85-3.37l8.67-13.24c3.53-5.4,2.16-12.62-3.07-16.16Z"/>
      <path class="cls-3" d="M340.58,452.53l-5.55,31.5c-.56,3.18,2.56,5.75,5.57,4.6l29.4-11.23c2.95-1.13,3.61-5,1.21-7.05l-23.85-20.27c-2.44-2.07-6.22-.71-6.78,2.45Z"/>
      <path class="cls-4" d="M392.12,430.45l-.05-.05c-2.19-2.39-5.87-2.49-8.23-.22h0c-2.36,2.26-2.51,6.03-.34,8.41l.05.05c2.19,2.39,5.87,2.49,8.23.22h0c2.36-2.26,2.51-6.03.34-8.41Z"/>
      <ellipse class="cls-6" cx="301.87" cy="479.34" rx="11.77" ry="11.47" transform="translate(-244.57 628.67) rotate(-73.08)"/>
      <ellipse class="cls-11" cx="287.63" cy="419.03" rx="7.34" ry="7.15" transform="translate(-196.96 572.28) rotate(-73.08)"/>
      <ellipse class="cls-1" cx="408.13" cy="403.01" rx="10.54" ry="10.27" transform="translate(-96.2 676.21) rotate(-73.08)"/>
      <ellipse class="cls-4" cx="324" cy="508.47" rx="3.41" ry="3.32" transform="translate(-256.75 670.49) rotate(-73.08)"/>
      <path class="cls-4" d="M341.99,408.03l-.62-.06c-6.39-.62-12.14,4.18-12.84,10.72l-.06.5c-.7,6.54,3.91,12.34,10.3,12.97l.62.06c6.39.62,12.14-4.18,12.84-10.72l.06-.5c.7-6.54-3.91-12.34-10.3-12.97Z"/>
      <path class="cls-5" d="M375.33,514.13l-10.94-2.83c-4.5-1.17-9.12,1.63-10.32,6.24l-2.89,11.07c-1.21,4.6,1.46,9.29,5.96,10.46l10.94,2.83c4.5,1.17,9.12-1.63,10.32-6.24l2.89-11.07c1.21-4.6-1.46-9.29-5.96-10.46Z"/>
      <path class="cls-5" d="M434.13,458.99l-24.77-17.9c-3.28-2.36-7.72.68-6.69,4.59l12.27,46.57c1.05,3.94,6.48,4.36,8.11.62l12.5-28.66c.81-1.86.22-4.03-1.42-5.21Z"/>
      <path class="cls-7" d="M406.56,548.15c.39,2.36,3.14,3.49,5.08,2.07l25.13-18.29c2.04-1.49,1.66-4.64-.67-5.6l-30.37-12.48c-2.35-.97-4.84,1.03-4.41,3.53l5.25,30.77h0Z"/>
      <path class="cls-9" d="M330.16,557.03l-15.17-10.24c-4.63-3.13-10.92-1.8-14.05,2.98l-22.27,34.02c-3.13,4.77-1.91,11.19,2.72,14.31l15.17,10.24c4.63,3.13,10.92,1.8,14.05-2.98l22.27-34.02c3.13-4.77,1.91-11.19-2.72-14.31Z"/>
      <ellipse class="cls-4" cx="443.82" cy="503.72" rx="7.64" ry="7.45" transform="translate(-167.25 781.75) rotate(-73.08)"/>
      <path class="cls-4" d="M230.01,442.14l-5.36,17.63c-.88,2.87,2.45,5.16,4.82,3.32l23.52-18.31c2.36-1.83.98-5.6-2-5.49l-18.16.68c-1.31.05-2.45.92-2.82,2.17Z"/>
      <ellipse class="cls-4" cx="257.27" cy="567.92" rx="7.64" ry="7.45" transform="translate(-360.94 648.8) rotate(-73.08)"/>
      <path class="cls-2" d="M291.75,532.22c2.75-2.63,2.92-7,.39-9.77l-6.22-6.81c-2.53-2.77-6.81-2.88-9.55-.25l-6.65,6.36c-2.75,2.63-2.92,7-.39,9.77l6.22,6.81c2.53,2.77,6.81,2.88,9.55.25l6.65-6.36h0Z"/>
      <path class="cls-3" d="M231.67,523.77l-17.93,28.05c-1.73,2.72.15,6.29,3.38,6.39l32.75.97c3.15.1,5.26-3.23,3.82-6.04l-14.81-29.02c-1.46-2.85-5.47-3.05-7.2-.35Z"/>
      <ellipse class="cls-6" cx="184.21" cy="534.12" rx="12.1" ry="11.79" transform="translate(-345.01 336.27) rotate(-50.47)"/>
      <ellipse class="cls-10" cx="194.51" cy="471.24" rx="7.55" ry="7.35" transform="translate(-292.76 321.36) rotate(-50.47)"/>
      <ellipse class="cls-4" cx="193.69" cy="570.51" rx="3.51" ry="3.41" transform="translate(-369.63 356.81) rotate(-50.47)"/>
      <path class="cls-4" d="M250.49,482.26l-.57-.3c-5.82-3.11-13.17-.83-16.42,5.1l-.24.45c-3.25,5.93-1.16,13.26,4.65,16.38l.57.3c5.82,3.11,13.17.83,16.42-5.1l.24-.45c3.25-5.93,1.16-13.26-4.65-16.38Z"/>
      <path class="cls-5" d="M240.18,596.12l-9.27-7.01c-3.81-2.88-9.3-2.05-12.26,1.85l-7.12,9.36c-2.96,3.9-2.28,9.4,1.53,12.28l9.27,7.01c3.81,2.88,9.3,2.05,12.26-1.85l7.12-9.36c2.96-3.9,2.28-9.4-1.53-12.28Z"/>
      <path class="cls-9" d="M180.36,618.96l-10.34-15.72c-3.16-4.8-9.66-6.02-14.51-2.72l-34.59,23.48c-4.86,3.3-6.24,9.86-3.08,14.66l10.34,15.72c3.16,4.8,9.66,6.02,14.51,2.72l34.59-23.48c4.86-3.3,6.24-9.86,3.08-14.66Z"/>
      <path class="cls-8" d="M77.82,578.34l-.61-66.74c-.04-4.54,4.49-7.7,8.74-6.11l45.06,16.95c4.25,1.6,5.57,6.96,2.55,10.35l-44.45,49.8c-3.93,4.4-11.23,1.67-11.29-4.24Z"/>
      <path class="cls-1" d="M94.74,625.74l-8.88-13.48c-3.56-5.42-10.89-6.8-16.37-3.07l-13.46,9.14c-5.48,3.73-7.04,11.13-3.48,16.54l8.88,13.48c3.56,5.42,10.89,6.8,16.37,3.07l13.46-9.14c5.48-3.73,7.04-11.13,3.48-16.54Z"/>
      <path class="cls-4" d="M134.22,469.38c-1.23-.46-2.6-.09-3.44.92l-12.28,14.87c-1.9,2.32.29,5.71,3.18,4.92l30.08-8.22c2.87-.79,3.06-4.8.26-5.84l-17.81-6.65h0Z"/>
      <path class="cls-4" d="M28.48,654.1c-2.02.05-3.64,1.68-3.66,3.7l-.03,3.55c-.03,3.35,4.04,5.04,6.39,2.64l3.56-3.62c2.35-2.38.61-6.41-2.73-6.35l-3.53.07h0Z"/>
      <ellipse class="cls-4" cx="106.85" cy="600.56" rx="7.86" ry="7.66" transform="translate(-424.38 300.75) rotate(-50.47)"/>
      <path class="cls-2" d="M157.94,571.14l-3.21-8.92c-1.31-3.62-5.33-5.42-8.97-4.02l-8.83,3.41c-3.64,1.41-5.54,5.48-4.23,9.11l3.21,8.92c1.31,3.62,5.33,5.42,8.97,4.02l8.83-3.41c3.64-1.41,5.54-5.48,4.23-9.11Z"/>
      <path class="cls-7" d="M44.84,589.27c-.68.69-1.01,1.64-.91,2.6l1.67,15.81c.36,3.42,5.11,3.98,6.25.73l9.55-27.21c1.15-3.25-2.92-5.79-5.35-3.33l-11.23,11.41h0Z"/>
    </g>
    <g id="Layer_1-2-3" data-name="Layer 1-2">
      <path class="cls-1" d="M111.36,842.17l11.55,10.82c4.7,4.41,11.95,4.2,16.2-.47l10.58-11.61c4.24-4.66,3.87-12.02-.83-16.42l-11.55-10.82c-4.7-4.41-11.95-4.2-16.2.47l-10.58,11.61c-4.24,4.66-3.87,12.02.83,16.42Z"/>
      <ellipse class="cls-4" cx="115.68" cy="723.11" rx="14.3" ry="14.68" transform="translate(-351.56 159.23) rotate(-30.56)"/>
      <path class="cls-3" d="M248.27,777.91l-18.41,25.31c-1.85,2.56-.3,6.16,2.83,6.56l31.22,3.99c3.19.41,5.62-2.83,4.33-5.78l-12.81-29.31c-1.28-2.94-5.28-3.37-7.17-.78h0Z"/>
      <path class="cls-4" d="M202.44,777.47h0c2.83,1.64,6.38.68,7.94-2.16l.04-.06c1.56-2.83.52-6.45-2.31-8.09h0c-2.83-1.64-6.38-.68-7.94,2.16l-.04.06c-1.56,2.83-.52,6.45,2.31,8.09Z"/>
      <ellipse class="cls-6" cx="299.35" cy="795.6" rx="11.47" ry="11.77" transform="translate(-362.9 262.68) rotate(-30.56)"/>
      <ellipse class="cls-12" cx="298.99" cy="733.62" rx="7.15" ry="7.34" transform="translate(-331.45 253.88) rotate(-30.56)"/>
      <ellipse class="cls-1" cx="178.11" cy="746.47" rx="10.27" ry="10.54" transform="translate(-354.77 194.21) rotate(-30.56)"/>
      <ellipse class="cls-4" cx="284.74" cy="829.13" rx="3.32" ry="3.41" transform="translate(-381.98 259.9) rotate(-30.56)"/>
      <ellipse class="cls-4" cx="129.46" cy="756.73" rx="5.23" ry="5.37" transform="translate(-366.74 170.9) rotate(-30.56)"/>
      <path class="cls-4" d="M236.62,750.8l.17.47c2.22,6.19,8.94,9.5,15,7.39l.59-.21c6.06-2.11,9.17-8.84,6.95-15.03l-.17-.47c-2.22-6.19-8.94-9.5-15-7.39l-.59.21c-6.06,2.11-9.17,8.84-6.95,15.03Z"/>
      <path class="cls-2" d="M63.04,756.93l7.96,4.61c3.29,1.9,7.42.79,9.23-2.5l4.43-8.07c1.81-3.29.6-7.5-2.68-9.4l-7.96-4.61c-3.29-1.9-7.42-.79-9.23,2.5l-4.43,8.07c-1.81,3.29-.6,7.5,2.68,9.4Z"/>
      <path class="cls-5" d="M232.86,858.3l5.42,10.07c2.26,4.19,7.41,5.82,11.51,3.64l9.96-5.33c4.1-2.19,5.59-7.37,3.33-11.57l-5.42-10.07c-2.26-4.19-7.41-5.82-11.51-3.64l-9.96,5.33c-4.1,2.19-5.59,7.37-3.33,11.57Z"/>
      <path class="cls-4" d="M107.32,776.15l-12.1,13.55c-1.99,2.22.04,5.69,2.95,5.04l29.1-6.44c2.93-.64,3.29-4.68.52-5.83l-17-7.12c-1.2-.5-2.6-.19-3.47.78h0Z"/>
      <path class="cls-4" d="M26.21,739.47l-3.03,8.06c-.52,1.38.63,2.81,2.09,2.61l8.45-1.2c1.49-.21,2.18-1.96,1.25-3.13l-5.42-6.87c-.94-1.19-2.82-.9-3.36.53h0Z"/>
      <path class="cls-5" d="M165.88,812.41l18.9,24.91c2.47,3.25,7.66,1.56,7.73-2.52l.94-48.14c.08-4.04-4.95-5.95-7.58-2.88l-19.85,23.24c-1.31,1.54-1.38,3.78-.16,5.4h0Z"/>
      <path class="cls-7" d="M213.86,887.15l-2.16-31.14c-.17-2.53-3.06-3.88-5.11-2.39l-26.58,19.29c-2.04,1.48-1.67,4.64.67,5.6l28.73,11.86c2.22.91,4.62-.82,4.46-3.2v-.02Z"/>
      <path class="cls-9" d="M290.93,892.32l29.67,27.81c4.17,3.91,10.59,3.72,14.36-.41l12.32-13.53c3.76-4.13,3.43-10.64-.73-14.55l-29.67-27.81c-4.17-3.91-10.59-3.72-14.36.41l-12.32,13.53c-3.76,4.13-3.43,10.64.73,14.55Z"/>
      <path class="cls-4" d="M77.68,787.79l-3.04-.55c-3.3-.58-5.63,3.12-3.69,5.84l2.58,3.62c1.95,2.72,6.22,1.7,6.72-1.61l.46-3.07c.29-2-1.04-3.87-3.04-4.23h0Z"/>
      <path class="cls-4" d="M57.08,725.38h0c2.83,1.64,6.38.68,7.94-2.16l.04-.06c1.56-2.83.52-6.45-2.31-8.09h0c-2.83-1.64-6.38-.68-7.94,2.16l-.04.06c-1.56,2.83-.52,6.45,2.31,8.09Z"/>
      <ellipse class="cls-4" cx="167.18" cy="852.76" rx="7.45" ry="7.64" transform="translate(-410.32 203.42) rotate(-30.56)"/>
      <path class="cls-1" d="M297.65,834.53l8.67,13.24c3.53,5.39,10.63,6.9,15.85,3.37l13.01-8.79c5.23-3.53,6.59-10.76,3.07-16.16l-8.67-13.24c-3.53-5.39-10.63-6.9-15.85-3.37l-13.01,8.79c-5.23,3.53-6.59,10.76-3.07,16.16Z"/>
      <path class="cls-3" d="M445.84,804.35l-23.85,20.27c-2.4,2.05-1.74,5.92,1.21,7.05l29.4,11.23c3.01,1.15,6.14-1.42,5.57-4.6l-5.55-31.5c-.56-3.16-4.33-4.52-6.78-2.45Z"/>
      <path class="cls-4" d="M401.42,793.12h0c2.36,2.26,6.04,2.17,8.23-.22l.05-.05c2.18-2.38,2.03-6.15-.34-8.41h0c-2.36-2.26-6.04-2.17-8.23.22l-.05.05c-2.18,2.38-2.03,6.15.34,8.41Z"/>
      <ellipse class="cls-6" cx="491.33" cy="833.6" rx="11.47" ry="11.77" transform="translate(-221.3 179.04) rotate(-16.92)"/>
      <ellipse class="cls-11" cx="505.58" cy="773.29" rx="7.15" ry="7.34" transform="translate(-203.14 180.58) rotate(-16.92)"/>
      <ellipse class="cls-1" cx="385.08" cy="757.27" rx="10.27" ry="10.54" transform="translate(-203.69 144.82) rotate(-16.92)"/>
      <ellipse class="cls-4" cx="469.21" cy="862.73" rx="3.32" ry="3.41" transform="translate(-230.74 173.86) rotate(-16.92)"/>
      <path class="cls-4" d="M440.91,775.26l.06.5c.7,6.54,6.45,11.34,12.84,10.72l.62-.06c6.39-.62,11-6.43,10.3-12.97l-.06-.5c-.7-6.54-6.45-11.34-12.84-10.72l-.62.06c-6.39.62-11,6.43-10.3,12.97Z"/>
      <path class="cls-5" d="M411.92,878.85l2.89,11.07c1.21,4.61,5.82,7.41,10.32,6.24l10.94-2.83c4.5-1.17,7.16-5.85,5.96-10.46l-2.89-11.07c-1.21-4.61-5.82-7.41-10.32-6.24l-10.94,2.83c-4.5,1.17-7.16,5.85-5.96,10.46Z"/>
      <path class="cls-5" d="M357.65,818.45l12.5,28.66c1.63,3.74,7.07,3.32,8.11-.62l12.27-46.57c1.03-3.91-3.41-6.95-6.69-4.59l-24.77,17.9c-1.65,1.18-2.23,3.35-1.42,5.21Z"/>
      <path class="cls-7" d="M386.65,902.41l5.25-30.77c.43-2.5-2.06-4.5-4.41-3.53l-30.37,12.48c-2.34.96-2.71,4.11-.67,5.6l25.13,18.29c1.94,1.41,4.69.29,5.08-2.07h0Z"/>
      <path class="cls-9" d="M460.32,925.6l22.27,34.02c3.13,4.78,9.42,6.12,14.05,2.98l15.17-10.24c4.63-3.12,5.85-9.54,2.72-14.31l-22.27-34.02c-3.13-4.78-9.42-6.12-14.05-2.98l-15.17,10.24c-4.63,3.12-5.85,9.54-2.72,14.31Z"/>
      <ellipse class="cls-4" cx="349.39" cy="857.98" rx="7.45" ry="7.64" transform="translate(-234.54 138.79) rotate(-16.92)"/>
      <path class="cls-4" d="M560.37,794.22l-18.16-.68c-2.98-.11-4.35,3.66-2,5.49l23.52,18.31c2.37,1.84,5.7-.45,4.82-3.32l-5.36-17.63c-.38-1.26-1.51-2.12-2.82-2.17Z"/>
      <ellipse class="cls-4" cx="535.94" cy="922.18" rx="7.45" ry="7.64" transform="translate(-245.15 195.85) rotate(-16.92)"/>
      <path class="cls-2" d="M501.45,886.48l6.65,6.36c2.75,2.63,7.02,2.51,9.55-.25l6.22-6.81c2.53-2.77,2.35-7.14-.39-9.77l-6.65-6.36c-2.75-2.63-7.02-2.51-9.55.25l-6.22,6.81c-2.53,2.77-2.35,7.14.39,9.77h0Z"/>
      <path class="cls-3" d="M554.34,878.37l-14.81,29.02c-1.44,2.81.67,6.14,3.82,6.04l32.75-.97c3.23-.1,5.11-3.67,3.38-6.39l-17.93-28.05c-1.73-2.7-5.74-2.51-7.2.35Z"/>
      <ellipse class="cls-6" cx="609" cy="888.38" rx="11.79" ry="12.1" transform="translate(-426.14 590.74) rotate(-39.53)"/>
      <ellipse class="cls-10" cx="598.69" cy="825.5" rx="7.35" ry="7.55" transform="translate(-388.48 569.8) rotate(-39.53)"/>
      <ellipse class="cls-4" cx="599.52" cy="924.77" rx="3.41" ry="3.51" transform="translate(-451.47 593.03) rotate(-39.53)"/>
      <path class="cls-4" d="M538.07,852.89l.24.45c3.25,5.93,10.6,8.21,16.42,5.1l.57-.3c5.82-3.12,7.9-10.45,4.65-16.38l-.24-.45c-3.25-5.93-10.6-8.21-16.42-5.1l-.57.3c-5.82,3.12-7.9,10.45-4.65,16.38Z"/>
      <path class="cls-5" d="M551.5,962.66l7.12,9.36c2.96,3.9,8.45,4.73,12.26,1.85l9.27-7.01c3.81-2.88,4.49-8.38,1.53-12.28l-7.12-9.36c-2.96-3.9-8.45-4.73-12.26-1.85l-9.27,7.01c-3.81,2.88-4.49,8.38-1.53,12.28Z"/>
      <path class="cls-9" d="M615.93,987.88l34.59,23.48c4.86,3.3,11.35,2.08,14.51-2.72l10.34-15.72c3.16-4.8,1.78-11.37-3.08-14.66l-34.59-23.48c-4.86-3.3-11.35-2.08-14.51,2.72l-10.34,15.72c-3.16,4.8-1.78,11.37,3.08,14.66Z"/>
      <path class="cls-8" d="M704.1,936.84l-44.45-49.8c-3.03-3.39-1.71-8.75,2.55-10.35l45.06-16.95c4.25-1.6,8.78,1.56,8.74,6.11l-.61,66.74c-.06,5.91-7.35,8.65-11.29,4.24Z"/>
      <path class="cls-1" d="M701.94,996.54l13.46,9.14c5.48,3.73,12.81,2.35,16.37-3.07l8.88-13.48c3.57-5.41,2.01-12.82-3.48-16.54l-13.46-9.14c-5.48-3.73-12.81-2.35-16.37,3.07l-8.88,13.48c-3.57,5.41-2.01,12.82,3.48,16.54Z"/>
      <path class="cls-4" d="M658.99,823.64l-17.81,6.65c-2.8,1.04-2.61,5.05.26,5.84l30.08,8.22c2.89.79,5.09-2.6,3.18-4.92l-12.28-14.87c-.84-1.01-2.22-1.38-3.44-.92h0Z"/>
      <path class="cls-4" d="M764.72,1008.36l-3.53-.07c-3.34-.07-5.08,3.96-2.73,6.35l3.56,3.62c2.35,2.39,6.42.71,6.39-2.64l-.03-3.55c-.01-2.02-1.64-3.66-3.66-3.7h0Z"/>
      <ellipse class="cls-4" cx="686.36" cy="954.82" rx="7.66" ry="7.86" transform="translate(-450.73 655.17) rotate(-39.53)"/>
      <path class="cls-2" d="M639.49,934.51l8.83,3.41c3.64,1.41,7.66-.4,8.97-4.02l3.21-8.92c1.3-3.63-.59-7.71-4.23-9.11l-8.83-3.41c-3.64-1.41-7.66.4-8.97,4.02l-3.21,8.92c-1.3,3.63.59,7.71,4.23,9.11Z"/>
      <path class="cls-7" d="M748.37,943.54l-11.23-11.41c-2.42-2.46-6.5.08-5.35,3.33l9.55,27.21c1.14,3.25,5.9,2.69,6.25-.73l1.67-15.81c.1-.96-.23-1.92-.91-2.6h0Z"/>
    </g>
    <g id="Layer_1-2-4" data-name="Layer 1-2">
      <path class="cls-1" d="M705.72,1180.01l-10.58-11.61c-4.25-4.66-11.5-4.87-16.2-.47l-11.55,10.82c-4.7,4.41-5.07,11.76-.83,16.42l10.58,11.61c4.25,4.66,11.5,4.87,16.2.47l11.55-10.82c4.7-4.41,5.07-11.76.83-16.42Z"/>
      <ellipse class="cls-4" cx="700.58" cy="1077.37" rx="14.68" ry="14.3" transform="translate(-583.34 1132.93) rotate(-59.44)"/>
      <path class="cls-3" d="M568,1132.15c-1.89-2.59-5.88-2.17-7.17.78l-12.81,29.31c-1.29,2.95,1.14,6.19,4.33,5.78l31.22-3.99c3.13-.4,4.68-4,2.83-6.56l-18.41-25.31h0Z"/>
      <path class="cls-4" d="M616.13,1123.64l-.04-.06c-1.56-2.84-5.11-3.8-7.94-2.16h0c-2.83,1.64-3.87,5.26-2.31,8.09l.04.06c1.56,2.84,5.11,3.8,7.94,2.16h0c2.83-1.64,3.87-5.26,2.31-8.09Z"/>
      <ellipse class="cls-6" cx="516.91" cy="1149.86" rx="11.77" ry="11.47" transform="translate(-736.05 1010.4) rotate(-59.44)"/>
      <ellipse class="cls-12" cx="517.28" cy="1087.88" rx="7.34" ry="7.15" transform="translate(-682.51 980.25) rotate(-59.44)"/>
      <ellipse class="cls-1" cx="638.15" cy="1100.73" rx="10.54" ry="10.27" transform="translate(-634.15 1090.66) rotate(-59.44)"/>
      <ellipse class="cls-4" cx="531.52" cy="1183.39" rx="3.41" ry="3.32" transform="translate(-757.74 1039.47) rotate(-59.44)"/>
      <ellipse class="cls-4" cx="686.81" cy="1110.99" rx="5.37" ry="5.23" transform="translate(-619.06 1137.59) rotate(-59.44)"/>
      <path class="cls-4" d="M572.69,1090.04l-.59-.21c-6.06-2.11-12.78,1.2-15,7.39l-.17.47c-2.22,6.18.89,12.92,6.95,15.03l.59.21c6.06,2.11,12.78-1.2,15-7.39l.17-.47c2.22-6.18-.89-12.92-6.95-15.03Z"/>
      <path class="cls-2" d="M755.91,1101.79l-4.43-8.07c-1.81-3.3-5.94-4.4-9.23-2.5l-7.96,4.61c-3.29,1.9-4.49,6.11-2.68,9.4l4.43,8.07c1.81,3.3,5.94,4.4,9.23,2.5l7.96-4.61c3.29-1.9,4.49-6.11,2.68-9.4Z"/>
      <path class="cls-5" d="M580.07,1200.99l-9.96-5.33c-4.1-2.19-9.25-.56-11.51,3.64l-5.42,10.07c-2.26,4.2-.76,9.38,3.33,11.57l9.96,5.33c4.1,2.19,9.25.56,11.51-3.64l5.42-10.07c2.26-4.2.76-9.38-3.33-11.57Z"/>
      <path class="cls-4" d="M708.94,1130.4c-.87-.97-2.27-1.29-3.47-.78l-17,7.12c-2.76,1.15-2.4,5.19.52,5.83l29.1,6.44c2.91.64,4.94-2.82,2.95-5.04l-12.1-13.55h0Z"/>
      <path class="cls-4" d="M790.06,1093.73c-.53-1.42-2.42-1.71-3.36-.53l-5.42,6.87c-.93,1.18-.24,2.92,1.25,3.13l8.45,1.2c1.46.21,2.61-1.23,2.09-2.61l-3.03-8.06h0Z"/>
      <path class="cls-5" d="M650.38,1166.68c1.22-1.62,1.15-3.86-.16-5.4l-19.85-23.24c-2.62-3.07-7.66-1.16-7.58,2.88l.94,48.14c.08,4.09,5.26,5.77,7.73,2.52l18.9-24.91h0Z"/>
      <path class="cls-7" d="M602.4,1241.43c-.17,2.38,2.24,4.11,4.46,3.2l28.73-11.86c2.34-.96,2.71-4.12.67-5.6l-26.58-19.29c-2.05-1.49-4.94-.14-5.11,2.39l-2.16,31.14v.02Z"/>
      <path class="cls-9" d="M526.07,1232.03l-12.32-13.53c-3.76-4.13-10.19-4.32-14.36-.41l-29.67,27.81c-4.17,3.91-4.5,10.42-.73,14.55l12.32,13.53c3.76,4.13,10.19,4.32,14.36.41l29.67-27.81c4.17-3.91,4.5-10.42.73-14.55Z"/>
      <path class="cls-4" d="M738.59,1142.04c-1.99.35-3.33,2.23-3.04,4.23l.46,3.07c.5,3.32,4.77,4.34,6.72,1.61l2.58-3.62c1.94-2.72-.4-6.42-3.69-5.84l-3.04.55h0Z"/>
      <path class="cls-4" d="M761.49,1071.54l-.04-.06c-1.56-2.84-5.11-3.8-7.94-2.16h0c-2.83,1.64-3.87,5.26-2.31,8.09l.04.06c1.56,2.84,5.11,3.8,7.94,2.16h0c2.83-1.64,3.87-5.26,2.31-8.09Z"/>
      <ellipse class="cls-4" cx="649.08" cy="1207.02" rx="7.64" ry="7.45" transform="translate(-720.3 1152.32) rotate(-59.44)"/>
      <path class="cls-1" d="M515.54,1172.63l-13.01-8.79c-5.23-3.53-12.33-2.02-15.85,3.37l-8.67,13.24c-3.53,5.4-2.16,12.62,3.07,16.16l13.01,8.79c5.23,3.53,12.33,2.02,15.85-3.37l8.67-13.24c3.53-5.4,2.16-12.62-3.07-16.16Z"/>
      <path class="cls-3" d="M363.64,1161.05l-5.55,31.5c-.56,3.18,2.56,5.75,5.57,4.6l29.4-11.23c2.95-1.13,3.61-5,1.21-7.05l-23.85-20.27c-2.44-2.07-6.22-.71-6.78,2.45Z"/>
      <path class="cls-4" d="M415.18,1138.97l-.05-.05c-2.19-2.39-5.87-2.49-8.23-.22h0c-2.36,2.26-2.51,6.03-.34,8.41l.05.05c2.19,2.39,5.87,2.49,8.23.22h0c2.36-2.26,2.51-6.03.34-8.41Z"/>
      <ellipse class="cls-6" cx="324.93" cy="1187.86" rx="11.77" ry="11.47" transform="translate(-906.08 1153.08) rotate(-73.08)"/>
      <ellipse class="cls-11" cx="310.68" cy="1127.55" rx="7.34" ry="7.15" transform="translate(-858.48 1096.69) rotate(-73.08)"/>
      <ellipse class="cls-1" cx="431.19" cy="1111.53" rx="10.54" ry="10.27" transform="translate(-757.72 1200.62) rotate(-73.08)"/>
      <ellipse class="cls-4" cx="347.05" cy="1216.99" rx="3.41" ry="3.32" transform="translate(-918.26 1194.9) rotate(-73.08)"/>
      <path class="cls-4" d="M365.05,1116.55l-.62-.06c-6.39-.62-12.14,4.18-12.84,10.72l-.06.5c-.7,6.54,3.91,12.34,10.3,12.97l.62.06c6.39.62,12.14-4.18,12.84-10.72l.06-.5c.7-6.54-3.91-12.34-10.3-12.97Z"/>
      <path class="cls-5" d="M398.39,1222.65l-10.94-2.83c-4.5-1.17-9.12,1.63-10.32,6.24l-2.89,11.07c-1.21,4.6,1.46,9.29,5.96,10.46l10.94,2.83c4.5,1.17,9.12-1.63,10.32-6.24l2.89-11.07c1.21-4.6-1.46-9.29-5.96-10.46Z"/>
      <path class="cls-5" d="M457.19,1167.51l-24.77-17.9c-3.28-2.36-7.72.68-6.69,4.59l12.27,46.57c1.05,3.94,6.48,4.36,8.11.62l12.5-28.66c.81-1.86.22-4.03-1.42-5.21Z"/>
      <path class="cls-7" d="M429.62,1256.67c.39,2.36,3.14,3.49,5.08,2.07l25.13-18.29c2.04-1.49,1.66-4.64-.67-5.6l-30.37-12.48c-2.35-.97-4.84,1.03-4.41,3.53l5.25,30.77h0Z"/>
      <path class="cls-9" d="M353.22,1265.55l-15.17-10.24c-4.63-3.13-10.92-1.8-14.05,2.98l-22.27,34.02c-3.13,4.77-1.91,11.19,2.72,14.31l15.17,10.24c4.63,3.13,10.92,1.8,14.05-2.98l22.27-34.02c3.13-4.77,1.91-11.19-2.72-14.31Z"/>
      <ellipse class="cls-4" cx="466.87" cy="1212.24" rx="7.64" ry="7.45" transform="translate(-828.76 1306.16) rotate(-73.08)"/>
      <path class="cls-4" d="M253.06,1150.66l-5.36,17.63c-.88,2.87,2.45,5.16,4.82,3.32l23.52-18.31c2.36-1.83.98-5.6-2-5.49l-18.16.68c-1.31.05-2.45.92-2.82,2.17Z"/>
      <ellipse class="cls-4" cx="280.32" cy="1276.44" rx="7.64" ry="7.45" transform="translate(-1022.46 1173.21) rotate(-73.08)"/>
      <path class="cls-2" d="M314.81,1240.74c2.75-2.63,2.92-7,.39-9.77l-6.22-6.81c-2.53-2.77-6.81-2.88-9.55-.25l-6.65,6.36c-2.75,2.63-2.92,7-.39,9.77l6.22,6.81c2.53,2.77,6.81,2.88,9.55.25l6.65-6.36h0Z"/>
      <path class="cls-3" d="M254.72,1232.29l-17.93,28.05c-1.73,2.72.15,6.29,3.38,6.39l32.75.97c3.15.1,5.26-3.23,3.82-6.04l-14.81-29.02c-1.46-2.85-5.47-3.05-7.2-.35Z"/>
      <ellipse class="cls-6" cx="207.26" cy="1242.64" rx="12.1" ry="11.79" transform="translate(-883.13 611.64) rotate(-50.47)"/>
      <ellipse class="cls-10" cx="217.57" cy="1179.76" rx="7.55" ry="7.35" transform="translate(-830.88 596.73) rotate(-50.47)"/>
      <ellipse class="cls-4" cx="216.74" cy="1279.03" rx="3.51" ry="3.41" transform="translate(-907.75 632.18) rotate(-50.47)"/>
      <path class="cls-4" d="M273.54,1190.78l-.57-.3c-5.82-3.11-13.17-.83-16.42,5.1l-.24.45c-3.25,5.93-1.16,13.26,4.65,16.38l.57.3c5.82,3.11,13.17.83,16.42-5.1l.24-.45c3.25-5.93,1.16-13.26-4.65-16.38Z"/>
      <path class="cls-5" d="M263.24,1304.64l-9.27-7.01c-3.81-2.88-9.3-2.05-12.26,1.85l-7.12,9.36c-2.96,3.9-2.28,9.4,1.53,12.28l9.27,7.01c3.81,2.88,9.3,2.05,12.26-1.85l7.12-9.36c2.96-3.9,2.28-9.4-1.53-12.28Z"/>
      <path class="cls-9" d="M203.41,1327.48l-10.34-15.72c-3.16-4.8-9.66-6.02-14.51-2.72l-34.59,23.48c-4.86,3.3-6.24,9.86-3.08,14.66l10.34,15.72c3.16,4.8,9.66,6.02,14.51,2.72l34.59-23.48c4.86-3.3,6.24-9.86,3.08-14.66Z"/>
      <path class="cls-8" d="M100.87,1286.86l-.61-66.74c-.04-4.54,4.49-7.7,8.74-6.11l45.06,16.95c4.25,1.6,5.57,6.96,2.55,10.35l-44.45,49.8c-3.93,4.4-11.23,1.67-11.29-4.24Z"/>
      <path class="cls-1" d="M117.79,1334.26l-8.88-13.48c-3.56-5.42-10.89-6.8-16.37-3.07l-13.46,9.14c-5.48,3.73-7.04,11.13-3.48,16.54l8.88,13.48c3.56,5.42,10.89,6.8,16.37,3.07l13.46-9.14c5.48-3.73,7.04-11.13,3.48-16.54Z"/>
      <path class="cls-4" d="M157.28,1177.9c-1.23-.46-2.6-.09-3.44.92l-12.28,14.87c-1.9,2.32.29,5.71,3.18,4.92l30.08-8.22c2.87-.79,3.06-4.8.26-5.84l-17.81-6.65h0Z"/>
      <path class="cls-4" d="M51.54,1362.62c-2.02.05-3.64,1.68-3.66,3.7l-.03,3.55c-.03,3.35,4.04,5.04,6.39,2.64l3.56-3.62c2.35-2.38.61-6.41-2.73-6.35l-3.53.07h0Z"/>
      <ellipse class="cls-4" cx="129.9" cy="1309.08" rx="7.86" ry="7.66" transform="translate(-962.5 576.13) rotate(-50.47)"/>
      <path class="cls-2" d="M181,1279.66l-3.21-8.92c-1.31-3.62-5.33-5.42-8.97-4.02l-8.83,3.41c-3.64,1.41-5.54,5.48-4.23,9.11l3.21,8.92c1.31,3.62,5.33,5.42,8.97,4.02l8.83-3.41c3.64-1.41,5.54-5.48,4.23-9.11Z"/>
      <path class="cls-7" d="M67.9,1297.79c-.68.69-1.01,1.64-.91,2.6l1.67,15.81c.36,3.42,5.11,3.98,6.25.73l9.55-27.21c1.15-3.25-2.92-5.79-5.35-3.33l-11.23,11.41h0Z"/>
    </g>
    <g id="Layer_1-2-5" data-name="Layer 1-2">
      <path class="cls-1" d="M104.5,1550.69l11.55,10.82c4.7,4.41,11.95,4.2,16.2-.47l10.58-11.61c4.24-4.66,3.87-12.02-.83-16.42l-11.55-10.82c-4.7-4.41-11.95-4.2-16.2.47l-10.58,11.61c-4.24,4.66-3.87,12.02.83,16.42Z"/>
      <ellipse class="cls-4" cx="108.82" cy="1431.63" rx="14.3" ry="14.68" transform="translate(-712.72 254.14) rotate(-30.56)"/>
      <path class="cls-3" d="M241.4,1486.43l-18.41,25.31c-1.85,2.56-.3,6.16,2.83,6.56l31.22,3.99c3.19.41,5.62-2.83,4.33-5.78l-12.81-29.31c-1.28-2.94-5.28-3.37-7.17-.78h0Z"/>
      <path class="cls-4" d="M195.58,1485.99h0c2.83,1.64,6.38.68,7.94-2.16l.04-.06c1.56-2.83.52-6.45-2.31-8.09h0c-2.83-1.64-6.38-.68-7.94,2.16l-.04.06c-1.56,2.83-.52,6.45,2.31,8.09Z"/>
      <ellipse class="cls-6" cx="292.49" cy="1504.12" rx="11.47" ry="11.77" transform="translate(-724.06 357.58) rotate(-30.56)"/>
      <ellipse class="cls-12" cx="292.12" cy="1442.14" rx="7.15" ry="7.34" transform="translate(-692.61 348.79) rotate(-30.56)"/>
      <ellipse class="cls-1" cx="171.24" cy="1454.99" rx="10.27" ry="10.54" transform="translate(-715.93 289.12) rotate(-30.56)"/>
      <ellipse class="cls-4" cx="277.87" cy="1537.65" rx="3.32" ry="3.41" transform="translate(-743.14 354.81) rotate(-30.56)"/>
      <ellipse class="cls-4" cx="122.59" cy="1465.25" rx="5.23" ry="5.37" transform="translate(-727.9 265.81) rotate(-30.56)"/>
      <path class="cls-4" d="M229.75,1459.32l.17.47c2.22,6.19,8.94,9.5,15,7.39l.59-.21c6.06-2.11,9.17-8.84,6.95-15.03l-.17-.47c-2.22-6.19-8.94-9.5-15-7.39l-.59.21c-6.06,2.11-9.17,8.84-6.95,15.03Z"/>
      <path class="cls-2" d="M56.17,1465.45l7.96,4.61c3.29,1.9,7.42.79,9.23-2.5l4.43-8.07c1.81-3.29.6-7.5-2.68-9.4l-7.96-4.61c-3.29-1.9-7.42-.79-9.23,2.5l-4.43,8.07c-1.81,3.29-.6,7.5,2.68,9.4Z"/>
      <path class="cls-5" d="M225.99,1566.82l5.42,10.07c2.26,4.19,7.41,5.82,11.51,3.64l9.96-5.33c4.1-2.19,5.59-7.37,3.33-11.57l-5.42-10.07c-2.26-4.19-7.41-5.82-11.51-3.64l-9.96,5.33c-4.1,2.19-5.59,7.37-3.33,11.57Z"/>
      <path class="cls-4" d="M100.46,1484.67l-12.1,13.55c-1.99,2.22.04,5.69,2.95,5.04l29.1-6.44c2.93-.64,3.29-4.68.52-5.83l-17-7.12c-1.2-.5-2.6-.19-3.47.78h0Z"/>
      <path class="cls-4" d="M19.34,1447.99l-3.03,8.06c-.52,1.38.63,2.81,2.09,2.61l8.45-1.2c1.49-.21,2.18-1.96,1.25-3.13l-5.42-6.87c-.94-1.19-2.82-.9-3.36.53h0Z"/>
      <path class="cls-5" d="M159.02,1520.93l18.9,24.91c2.47,3.25,7.66,1.56,7.73-2.52l.94-48.14c.08-4.04-4.95-5.95-7.58-2.88l-19.85,23.24c-1.31,1.54-1.38,3.78-.16,5.4h0Z"/>
      <path class="cls-7" d="M206.99,1595.67l-2.16-31.14c-.17-2.53-3.06-3.88-5.11-2.39l-26.58,19.29c-2.04,1.48-1.67,4.64.67,5.6l28.73,11.86c2.22.91,4.62-.82,4.46-3.2v-.02Z"/>
      <path class="cls-9" d="M284.06,1600.84l29.67,27.81c4.17,3.91,10.59,3.72,14.36-.41l12.32-13.53c3.76-4.13,3.43-10.64-.73-14.55l-29.67-27.81c-4.17-3.91-10.59-3.72-14.36.41l-12.32,13.53c-3.76,4.13-3.43,10.64.73,14.55Z"/>
      <path class="cls-4" d="M70.82,1496.31l-3.04-.55c-3.3-.58-5.63,3.12-3.69,5.84l2.58,3.62c1.95,2.72,6.22,1.7,6.72-1.61l.46-3.07c.29-2-1.04-3.87-3.04-4.23h0Z"/>
      <path class="cls-4" d="M50.22,1433.9h0c2.83,1.64,6.38.68,7.94-2.16l.04-.06c1.56-2.83.52-6.45-2.31-8.09h0c-2.83-1.64-6.38-.68-7.94,2.16l-.04.06c-1.56,2.83-.52,6.45,2.31,8.09Z"/>
      <ellipse class="cls-4" cx="160.32" cy="1561.28" rx="7.45" ry="7.64" transform="translate(-771.48 298.33) rotate(-30.56)"/>
      <path class="cls-1" d="M290.78,1543.05l8.67,13.24c3.53,5.39,10.63,6.9,15.85,3.37l13.01-8.79c5.23-3.53,6.59-10.76,3.07-16.16l-8.67-13.24c-3.53-5.39-10.63-6.9-15.85-3.37l-13.01,8.79c-5.23,3.53-6.59,10.76-3.07,16.16Z"/>
      <path class="cls-3" d="M438.98,1512.87l-23.85,20.27c-2.4,2.05-1.74,5.92,1.21,7.05l29.4,11.23c3.01,1.15,6.14-1.42,5.57-4.6l-5.55-31.5c-.56-3.16-4.33-4.52-6.78-2.45Z"/>
      <path class="cls-4" d="M394.55,1501.64h0c2.36,2.26,6.04,2.17,8.23-.22l.05-.05c2.18-2.38,2.03-6.15-.34-8.41h0c-2.36-2.26-6.04-2.17-8.23.22l-.05.05c-2.18,2.38-2.03,6.15.34,8.41Z"/>
      <ellipse class="cls-6" cx="484.47" cy="1542.12" rx="11.47" ry="11.77" transform="translate(-427.77 207.7) rotate(-16.92)"/>
      <ellipse class="cls-11" cx="498.71" cy="1481.81" rx="7.15" ry="7.34" transform="translate(-409.6 209.24) rotate(-16.92)"/>
      <ellipse class="cls-1" cx="378.21" cy="1465.79" rx="10.27" ry="10.54" transform="translate(-410.16 173.48) rotate(-16.92)"/>
      <ellipse class="cls-4" cx="462.34" cy="1571.25" rx="3.32" ry="3.41" transform="translate(-437.2 202.53) rotate(-16.92)"/>
      <path class="cls-4" d="M434.05,1483.78l.06.5c.7,6.54,6.45,11.34,12.84,10.72l.62-.06c6.39-.62,11-6.43,10.3-12.97l-.06-.5c-.7-6.54-6.45-11.34-12.84-10.72l-.62.06c-6.39.62-11,6.43-10.3,12.97Z"/>
      <path class="cls-5" d="M405.05,1587.37l2.89,11.07c1.21,4.61,5.82,7.41,10.32,6.24l10.94-2.83c4.5-1.17,7.16-5.85,5.96-10.46l-2.89-11.07c-1.21-4.61-5.82-7.41-10.32-6.24l-10.94,2.83c-4.5,1.17-7.16,5.85-5.96,10.46Z"/>
      <path class="cls-5" d="M350.79,1526.97l12.5,28.66c1.63,3.74,7.07,3.32,8.11-.62l12.27-46.57c1.03-3.91-3.41-6.95-6.69-4.59l-24.77,17.9c-1.65,1.18-2.23,3.35-1.42,5.21Z"/>
      <path class="cls-7" d="M379.78,1610.93l5.25-30.77c.43-2.5-2.06-4.5-4.41-3.53l-30.37,12.48c-2.34.96-2.71,4.11-.67,5.6l25.13,18.29c1.94,1.41,4.69.29,5.08-2.07h0Z"/>
      <path class="cls-9" d="M453.46,1634.12l22.27,34.02c3.13,4.78,9.42,6.12,14.05,2.98l15.17-10.24c4.63-3.12,5.85-9.54,2.72-14.31l-22.27-34.02c-3.13-4.78-9.42-6.12-14.05-2.98l-15.17,10.24c-4.63,3.12-5.85,9.54-2.72,14.31Z"/>
      <ellipse class="cls-4" cx="342.53" cy="1566.5" rx="7.45" ry="7.64" transform="translate(-441 167.45) rotate(-16.92)"/>
      <path class="cls-4" d="M553.51,1502.74l-18.16-.68c-2.98-.11-4.35,3.66-2,5.49l23.52,18.31c2.37,1.84,5.7-.45,4.82-3.32l-5.36-17.63c-.38-1.26-1.51-2.12-2.82-2.17Z"/>
      <ellipse class="cls-4" cx="529.08" cy="1630.7" rx="7.45" ry="7.64" transform="translate(-451.61 224.52) rotate(-16.92)"/>
      <path class="cls-2" d="M494.59,1595l6.65,6.36c2.75,2.63,7.02,2.51,9.55-.25l6.22-6.81c2.53-2.77,2.35-7.14-.39-9.77l-6.65-6.36c-2.75-2.63-7.02-2.51-9.55.25l-6.22,6.81c-2.53,2.77-2.35,7.14.39,9.77h0Z"/>
      <path class="cls-3" d="M547.47,1586.89l-14.81,29.02c-1.44,2.81.67,6.14,3.82,6.04l32.75-.97c3.23-.1,5.11-3.67,3.38-6.39l-17.93-28.05c-1.73-2.7-5.74-2.51-7.2.35Z"/>
      <ellipse class="cls-6" cx="602.13" cy="1596.9" rx="11.79" ry="12.1" transform="translate(-878.64 748.39) rotate(-39.53)"/>
      <ellipse class="cls-10" cx="591.83" cy="1534.02" rx="7.35" ry="7.55" transform="translate(-840.98 727.45) rotate(-39.53)"/>
      <ellipse class="cls-4" cx="592.65" cy="1633.29" rx="3.41" ry="3.51" transform="translate(-903.97 750.68) rotate(-39.53)"/>
      <path class="cls-4" d="M531.21,1561.41l.24.45c3.25,5.93,10.6,8.21,16.42,5.1l.57-.3c5.82-3.12,7.9-10.45,4.65-16.38l-.24-.45c-3.25-5.93-10.6-8.21-16.42-5.1l-.57.3c-5.82,3.12-7.9,10.45-4.65,16.38Z"/>
      <path class="cls-5" d="M544.63,1671.18l7.12,9.36c2.96,3.9,8.45,4.73,12.26,1.85l9.27-7.01c3.81-2.88,4.49-8.38,1.53-12.28l-7.12-9.36c-2.96-3.9-8.45-4.73-12.26-1.85l-9.27,7.01c-3.81,2.88-4.49,8.38-1.53,12.28Z"/>
      <path class="cls-9" d="M609.06,1696.4l34.59,23.48c4.86,3.3,11.35,2.08,14.51-2.72l10.34-15.72c3.16-4.8,1.78-11.37-3.08-14.66l-34.59-23.48c-4.86-3.3-11.35-2.08-14.51,2.72l-10.34,15.72c-3.16,4.8-1.78,11.37,3.08,14.66Z"/>
      <path class="cls-8" d="M697.24,1645.36l-44.45-49.8c-3.03-3.39-1.71-8.75,2.55-10.35l45.06-16.95c4.25-1.6,8.78,1.56,8.74,6.11l-.61,66.74c-.06,5.91-7.35,8.65-11.29,4.24Z"/>
      <path class="cls-1" d="M695.08,1705.06l13.46,9.14c5.48,3.73,12.81,2.35,16.37-3.07l8.88-13.48c3.57-5.41,2.01-12.82-3.48-16.54l-13.46-9.14c-5.48-3.73-12.81-2.35-16.37,3.07l-8.88,13.48c-3.57,5.41-2.01,12.82,3.48,16.54Z"/>
      <path class="cls-4" d="M652.13,1532.16l-17.81,6.65c-2.8,1.04-2.61,5.05.26,5.84l30.08,8.22c2.89.79,5.09-2.6,3.18-4.92l-12.28-14.87c-.84-1.01-2.22-1.38-3.44-.92h0Z"/>
      <path class="cls-4" d="M757.86,1716.88l-3.53-.07c-3.34-.07-5.08,3.96-2.73,6.35l3.56,3.62c2.35,2.39,6.42.71,6.39-2.64l-.03-3.55c-.01-2.02-1.64-3.66-3.66-3.7h0Z"/>
      <ellipse class="cls-4" cx="679.49" cy="1663.34" rx="7.66" ry="7.86" transform="translate(-903.23 812.82) rotate(-39.53)"/>
      <path class="cls-2" d="M632.63,1643.03l8.83,3.41c3.64,1.41,7.66-.4,8.97-4.02l3.21-8.92c1.3-3.63-.59-7.71-4.23-9.11l-8.83-3.41c-3.64-1.41-7.66.4-8.97,4.02l-3.21,8.92c-1.3,3.63.59,7.71,4.23,9.11Z"/>
      <path class="cls-7" d="M741.51,1652.06l-11.23-11.41c-2.42-2.46-6.5.08-5.35,3.33l9.55,27.21c1.14,3.25,5.9,2.69,6.25-.73l1.67-15.81c.1-.96-.23-1.92-.91-2.6h0Z"/>
    </g>
    <g id="Layer_1-2-6" data-name="Layer 1-2">
      <path class="cls-1" d="M698.86,1888.53l-10.58-11.61c-4.25-4.66-11.5-4.87-16.2-.47l-11.55,10.82c-4.7,4.41-5.07,11.76-.83,16.42l10.58,11.61c4.25,4.66,11.5,4.87,16.2.47l11.55-10.82c4.7-4.41,5.07-11.76.83-16.42Z"/>
      <ellipse class="cls-4" cx="693.72" cy="1785.89" rx="14.68" ry="14.3" transform="translate(-1196.84 1475.33) rotate(-59.44)"/>
      <path class="cls-3" d="M561.14,1840.67c-1.89-2.59-5.88-2.17-7.17.78l-12.81,29.31c-1.29,2.95,1.14,6.19,4.33,5.78l31.22-3.99c3.13-.4,4.68-4,2.83-6.56l-18.41-25.31h0Z"/>
      <path class="cls-4" d="M609.27,1832.16l-.04-.06c-1.56-2.84-5.11-3.8-7.94-2.16h0c-2.83,1.64-3.87,5.26-2.31,8.09l.04.06c1.56,2.84,5.11,3.8,7.94,2.16h0c2.83-1.64,3.87-5.26,2.31-8.09Z"/>
      <ellipse class="cls-6" cx="510.04" cy="1858.38" rx="11.77" ry="11.47" transform="translate(-1349.55 1352.8) rotate(-59.44)"/>
      <ellipse class="cls-12" cx="510.41" cy="1796.4" rx="7.34" ry="7.15" transform="translate(-1296 1322.65) rotate(-59.44)"/>
      <ellipse class="cls-1" cx="631.29" cy="1809.25" rx="10.54" ry="10.27" transform="translate(-1247.64 1433.06) rotate(-59.44)"/>
      <ellipse class="cls-4" cx="524.66" cy="1891.91" rx="3.41" ry="3.32" transform="translate(-1371.24 1381.87) rotate(-59.44)"/>
      <ellipse class="cls-4" cx="679.94" cy="1819.51" rx="5.37" ry="5.23" transform="translate(-1232.56 1480) rotate(-59.44)"/>
      <path class="cls-4" d="M565.83,1798.56l-.59-.21c-6.06-2.11-12.78,1.2-15,7.39l-.17.47c-2.22,6.18.89,12.92,6.95,15.03l.59.21c6.06,2.11,12.78-1.2,15-7.39l.17-.47c2.22-6.18-.89-12.92-6.95-15.03Z"/>
      <path class="cls-2" d="M749.04,1810.31l-4.43-8.07c-1.81-3.3-5.94-4.4-9.23-2.5l-7.96,4.61c-3.29,1.9-4.49,6.11-2.68,9.4l4.43,8.07c1.81,3.3,5.94,4.4,9.23,2.5l7.96-4.61c3.29-1.9,4.49-6.11,2.68-9.4Z"/>
      <path class="cls-5" d="M573.21,1909.51l-9.96-5.33c-4.1-2.19-9.25-.56-11.51,3.64l-5.42,10.07c-2.26,4.2-.76,9.38,3.33,11.57l9.96,5.33c4.1,2.19,9.25.56,11.51-3.64l5.42-10.07c2.26-4.2.76-9.38-3.33-11.57Z"/>
      <path class="cls-4" d="M702.07,1838.92c-.87-.97-2.27-1.29-3.47-.78l-17,7.12c-2.76,1.15-2.4,5.19.52,5.83l29.1,6.44c2.91.64,4.94-2.82,2.95-5.04l-12.1-13.55h0Z"/>
      <path class="cls-4" d="M783.2,1802.25c-.53-1.42-2.42-1.71-3.36-.53l-5.42,6.87c-.93,1.18-.24,2.92,1.25,3.13l8.45,1.2c1.46.21,2.61-1.23,2.09-2.61l-3.03-8.06h0Z"/>
      <path class="cls-5" d="M643.51,1875.2c1.22-1.62,1.15-3.86-.16-5.4l-19.85-23.24c-2.62-3.07-7.66-1.16-7.58,2.88l.94,48.14c.08,4.09,5.26,5.77,7.73,2.52l18.9-24.91h0Z"/>
      <path class="cls-7" d="M595.53,1949.95c-.17,2.38,2.24,4.11,4.46,3.2l28.73-11.86c2.34-.96,2.71-4.12.67-5.6l-26.58-19.29c-2.05-1.49-4.94-.14-5.11,2.39l-2.16,31.14v.02Z"/>
      <path class="cls-9" d="M519.21,1940.55l-12.32-13.53c-3.76-4.13-10.19-4.32-14.36-.41l-29.67,27.81c-4.17,3.91-4.5,10.42-.73,14.55l12.32,13.53c3.76,4.13,10.19,4.32,14.36.41l29.67-27.81c4.17-3.91,4.5-10.42.73-14.55Z"/>
      <path class="cls-4" d="M731.72,1850.56c-1.99.35-3.33,2.23-3.04,4.23l.46,3.07c.5,3.32,4.77,4.34,6.72,1.61l2.58-3.62c1.94-2.72-.4-6.42-3.69-5.84l-3.04.55h0Z"/>
      <path class="cls-4" d="M754.62,1780.06l-.04-.06c-1.56-2.84-5.11-3.8-7.94-2.16h0c-2.83,1.64-3.87,5.26-2.31,8.09l.04.06c1.56,2.84,5.11,3.8,7.94,2.16h0c2.83-1.64,3.87-5.26,2.31-8.09Z"/>
      <ellipse class="cls-4" cx="642.22" cy="1915.54" rx="7.64" ry="7.45" transform="translate(-1333.8 1494.72) rotate(-59.44)"/>
      <path class="cls-1" d="M508.68,1881.15l-13.01-8.79c-5.23-3.53-12.33-2.02-15.85,3.37l-8.67,13.24c-3.53,5.4-2.16,12.62,3.07,16.16l13.01,8.79c5.23,3.53,12.33,2.02,15.85-3.37l8.67-13.24c3.53-5.4,2.16-12.62-3.07-16.16Z"/>
      <path class="cls-3" d="M356.77,1869.57l-5.55,31.5c-.56,3.18,2.56,5.75,5.57,4.6l29.4-11.23c2.95-1.13,3.61-5,1.21-7.05l-23.85-20.27c-2.44-2.07-6.22-.71-6.78,2.45Z"/>
      <path class="cls-4" d="M408.31,1847.49l-.05-.05c-2.19-2.39-5.87-2.49-8.23-.22h0c-2.36,2.26-2.51,6.03-.34,8.41l.05.05c2.19,2.39,5.87,2.49,8.23.22h0c2.36-2.26,2.51-6.03.34-8.41Z"/>
      <ellipse class="cls-6" cx="318.06" cy="1896.38" rx="11.77" ry="11.47" transform="translate(-1588.81 1648.87) rotate(-73.08)"/>
      <ellipse class="cls-11" cx="303.82" cy="1836.07" rx="7.34" ry="7.15" transform="translate(-1541.21 1592.47) rotate(-73.08)"/>
      <ellipse class="cls-1" cx="424.32" cy="1820.05" rx="10.54" ry="10.27" transform="translate(-1440.45 1696.41) rotate(-73.08)"/>
      <ellipse class="cls-4" cx="340.19" cy="1925.51" rx="3.41" ry="3.32" transform="translate(-1600.99 1690.68) rotate(-73.08)"/>
      <path class="cls-4" d="M358.18,1825.07l-.62-.06c-6.39-.62-12.14,4.18-12.84,10.72l-.06.5c-.7,6.54,3.91,12.34,10.3,12.97l.62.06c6.39.62,12.14-4.18,12.84-10.72l.06-.5c.7-6.54-3.91-12.34-10.3-12.97Z"/>
      <path class="cls-5" d="M391.52,1931.17l-10.94-2.83c-4.5-1.17-9.12,1.63-10.32,6.24l-2.89,11.07c-1.21,4.6,1.46,9.29,5.96,10.46l10.94,2.83c4.5,1.17,9.12-1.63,10.32-6.24l2.89-11.07c1.21-4.6-1.46-9.29-5.96-10.46Z"/>
      <path class="cls-5" d="M450.32,1876.03l-24.77-17.9c-3.28-2.36-7.72.68-6.69,4.59l12.27,46.57c1.05,3.94,6.48,4.36,8.11.62l12.5-28.66c.81-1.86.22-4.03-1.42-5.21Z"/>
      <path class="cls-7" d="M422.75,1965.19c.39,2.36,3.14,3.49,5.08,2.07l25.13-18.29c2.04-1.49,1.66-4.64-.67-5.6l-30.37-12.48c-2.35-.97-4.84,1.03-4.41,3.53l5.25,30.77h0Z"/>
      <path class="cls-9" d="M346.35,1974.07l-15.17-10.24c-4.63-3.13-10.92-1.8-14.05,2.98l-22.27,34.02c-3.13,4.77-1.91,11.19,2.72,14.31l15.17,10.24c4.63,3.13,10.92,1.8,14.05-2.98l22.27-34.02c3.13-4.77,1.91-11.19-2.72-14.31Z"/>
      <ellipse class="cls-4" cx="460.01" cy="1920.76" rx="7.64" ry="7.45" transform="translate(-1511.49 1801.94) rotate(-73.08)"/>
      <path class="cls-4" d="M246.2,1859.18l-5.36,17.63c-.88,2.87,2.45,5.16,4.82,3.32l23.52-18.31c2.36-1.83.98-5.6-2-5.49l-18.16.68c-1.31.05-2.45.92-2.82,2.17Z"/>
      <ellipse class="cls-4" cx="273.46" cy="1984.96" rx="7.64" ry="7.45" transform="translate(-1705.19 1668.99) rotate(-73.08)"/>
      <path class="cls-2" d="M307.94,1949.26c2.75-2.63,2.92-7,.39-9.77l-6.22-6.81c-2.53-2.77-6.81-2.88-9.55-.25l-6.65,6.36c-2.75,2.63-2.92,7-.39,9.77l6.22,6.81c2.53,2.77,6.81,2.88,9.55.25l6.65-6.36h0Z"/>
      <path class="cls-3" d="M247.86,1940.81l-17.93,28.05c-1.73,2.72.15,6.29,3.38,6.39l32.75.97c3.15.1,5.26-3.23,3.82-6.04l-14.81-29.02c-1.46-2.85-5.47-3.05-7.2-.35Z"/>
      <ellipse class="cls-6" cx="200.4" cy="1951.16" rx="12.1" ry="11.79" transform="translate(-1432.12 863.93) rotate(-50.47)"/>
      <ellipse class="cls-10" cx="210.71" cy="1888.28" rx="7.55" ry="7.35" transform="translate(-1379.88 849.02) rotate(-50.47)"/>
      <ellipse class="cls-4" cx="209.88" cy="1987.55" rx="3.51" ry="3.41" transform="translate(-1456.75 884.48) rotate(-50.47)"/>
      <path class="cls-4" d="M266.68,1899.3l-.57-.3c-5.82-3.11-13.17-.83-16.42,5.1l-.24.45c-3.25,5.93-1.16,13.26,4.65,16.38l.57.3c5.82,3.11,13.17.83,16.42-5.1l.24-.45c3.25-5.93,1.16-13.26-4.65-16.38Z"/>
      <path class="cls-5" d="M256.37,2013.16l-9.27-7.01c-3.81-2.88-9.3-2.05-12.26,1.85l-7.12,9.36c-2.96,3.9-2.28,9.4,1.53,12.28l9.27,7.01c3.81,2.88,9.3,2.05,12.26-1.85l7.12-9.36c2.96-3.9,2.28-9.4-1.53-12.28Z"/>
      <path class="cls-9" d="M196.55,2036l-10.34-15.72c-3.16-4.8-9.66-6.02-14.51-2.72l-34.59,23.48c-4.86,3.3-6.24,9.86-3.08,14.66l10.34,15.72c3.16,4.8,9.66,6.02,14.51,2.72l34.59-23.48c4.86-3.3,6.24-9.86,3.08-14.66Z"/>
      <path class="cls-8" d="M94.01,1995.38l-.61-66.74c-.04-4.54,4.49-7.7,8.74-6.11l45.06,16.95c4.25,1.6,5.57,6.96,2.55,10.35l-44.45,49.8c-3.93,4.4-11.23,1.67-11.29-4.24Z"/>
      <path class="cls-1" d="M110.93,2042.78l-8.88-13.48c-3.56-5.42-10.89-6.8-16.37-3.07l-13.46,9.14c-5.48,3.73-7.04,11.13-3.48,16.54l8.88,13.48c3.56,5.42,10.89,6.8,16.37,3.07l13.46-9.14c5.48-3.73,7.04-11.13,3.48-16.54Z"/>
      <path class="cls-4" d="M150.41,1886.42c-1.23-.46-2.6-.09-3.44.92l-12.28,14.87c-1.9,2.32.29,5.71,3.18,4.92l30.08-8.22c2.87-.79,3.06-4.8.26-5.84l-17.81-6.65h0Z"/>
      <path class="cls-4" d="M44.67,2071.14c-2.02.05-3.64,1.68-3.66,3.7l-.03,3.55c-.03,3.35,4.04,5.04,6.39,2.64l3.56-3.62c2.35-2.38.61-6.41-2.73-6.35l-3.53.07h0Z"/>
      <ellipse class="cls-4" cx="123.04" cy="2017.6" rx="7.86" ry="7.66" transform="translate(-1511.49 828.42) rotate(-50.47)"/>
      <path class="cls-2" d="M174.14,1988.18l-3.21-8.92c-1.31-3.62-5.33-5.42-8.97-4.02l-8.83,3.41c-3.64,1.41-5.54,5.48-4.23,9.11l3.21,8.92c1.31,3.62,5.33,5.42,8.97,4.02l8.83-3.41c3.64-1.41,5.54-5.48,4.23-9.11Z"/>
      <path class="cls-7" d="M61.03,2006.31c-.68.69-1.01,1.64-.91,2.6l1.67,15.81c.36,3.42,5.11,3.98,6.25.73l9.55-27.21c1.15-3.25-2.92-5.79-5.35-3.33l-11.23,11.41h0Z"/>
    </g>
    <g id="Layer_1-2-7" data-name="Layer 1-2">
      <path class="cls-1" d="M101.4,2259.21l11.55,10.82c4.7,4.41,11.95,4.2,16.2-.47l10.58-11.61c4.24-4.66,3.87-12.02-.83-16.42l-11.55-10.82c-4.7-4.41-11.95-4.2-16.2.47l-10.58,11.61c-4.24,4.66-3.87,12.02.83,16.42Z"/>
      <ellipse class="cls-4" cx="105.71" cy="2140.15" rx="14.3" ry="14.68" transform="translate(-1073.35 350.96) rotate(-30.56)"/>
      <path class="cls-3" d="M238.3,2194.95l-18.41,25.31c-1.85,2.56-.3,6.16,2.83,6.56l31.22,3.99c3.19.41,5.62-2.83,4.33-5.78l-12.81-29.31c-1.28-2.94-5.28-3.37-7.17-.78h0Z"/>
      <path class="cls-4" d="M192.48,2194.51h0c2.83,1.64,6.38.68,7.94-2.16l.04-.06c1.56-2.83.52-6.45-2.31-8.09h0c-2.83-1.64-6.38-.68-7.94,2.16l-.04.06c-1.56,2.83-.52,6.45,2.31,8.09Z"/>
      <ellipse class="cls-6" cx="289.39" cy="2212.64" rx="11.47" ry="11.77" transform="translate(-1084.7 454.4) rotate(-30.56)"/>
      <ellipse class="cls-12" cx="289.02" cy="2150.66" rx="7.15" ry="7.34" transform="translate(-1053.24 445.61) rotate(-30.56)"/>
      <ellipse class="cls-1" cx="168.14" cy="2163.51" rx="10.27" ry="10.54" transform="translate(-1076.56 385.94) rotate(-30.56)"/>
      <ellipse class="cls-4" cx="274.77" cy="2246.17" rx="3.32" ry="3.41" transform="translate(-1103.78 451.63) rotate(-30.56)"/>
      <ellipse class="cls-4" cx="119.49" cy="2173.77" rx="5.23" ry="5.37" transform="translate(-1088.53 362.63) rotate(-30.56)"/>
      <path class="cls-4" d="M226.65,2167.84l.17.47c2.22,6.19,8.94,9.5,15,7.39l.59-.21c6.06-2.11,9.17-8.84,6.95-15.03l-.17-.47c-2.22-6.19-8.94-9.5-15-7.39l-.59.21c-6.06,2.11-9.17,8.84-6.95,15.03Z"/>
      <path class="cls-2" d="M53.07,2173.97l7.96,4.61c3.29,1.9,7.42.79,9.23-2.5l4.43-8.07c1.81-3.29.6-7.5-2.68-9.4l-7.96-4.61c-3.29-1.9-7.42-.79-9.23,2.5l-4.43,8.07c-1.81,3.29-.6,7.5,2.68,9.4Z"/>
      <path class="cls-5" d="M222.89,2275.34l5.42,10.07c2.26,4.19,7.41,5.82,11.51,3.64l9.96-5.33c4.1-2.19,5.59-7.37,3.33-11.57l-5.42-10.07c-2.26-4.19-7.41-5.82-11.51-3.64l-9.96,5.33c-4.1,2.19-5.59,7.37-3.33,11.57Z"/>
      <path class="cls-4" d="M97.36,2193.19l-12.1,13.55c-1.99,2.22.04,5.69,2.95,5.04l29.1-6.44c2.93-.64,3.29-4.68.52-5.83l-17-7.12c-1.2-.5-2.6-.19-3.47.78h0Z"/>
      <path class="cls-4" d="M16.24,2156.51l-3.03,8.06c-.52,1.38.63,2.81,2.09,2.61l8.45-1.2c1.49-.21,2.18-1.96,1.25-3.13l-5.42-6.87c-.94-1.19-2.82-.9-3.36.53h0Z"/>
      <path class="cls-5" d="M155.92,2229.45l18.9,24.91c2.47,3.25,7.66,1.56,7.73-2.52l.94-48.14c.08-4.04-4.95-5.95-7.58-2.88l-19.85,23.24c-1.31,1.54-1.38,3.78-.16,5.4h0Z"/>
      <path class="cls-7" d="M203.89,2304.19l-2.16-31.14c-.17-2.53-3.06-3.88-5.11-2.39l-26.58,19.29c-2.04,1.48-1.67,4.64.67,5.6l28.73,11.86c2.22.91,4.62-.82,4.46-3.2v-.02Z"/>
      <path class="cls-9" d="M280.96,2309.36l29.67,27.81c4.17,3.91,10.59,3.72,14.36-.41l12.32-13.53c3.76-4.13,3.43-10.64-.73-14.55l-29.67-27.81c-4.17-3.91-10.59-3.72-14.36.41l-12.32,13.53c-3.76,4.13-3.43,10.64.73,14.55Z"/>
      <path class="cls-4" d="M67.72,2204.83l-3.04-.55c-3.3-.58-5.63,3.12-3.69,5.84l2.58,3.62c1.95,2.72,6.22,1.7,6.72-1.61l.46-3.07c.29-2-1.04-3.87-3.04-4.23h0Z"/>
      <path class="cls-4" d="M47.12,2142.42h0c2.83,1.64,6.38.68,7.94-2.16l.04-.06c1.56-2.83.52-6.45-2.31-8.09h0c-2.83-1.64-6.38-.68-7.94,2.16l-.04.06c-1.56,2.83-.52,6.45,2.31,8.09Z"/>
      <ellipse class="cls-4" cx="157.22" cy="2269.8" rx="7.45" ry="7.64" transform="translate(-1132.12 395.15) rotate(-30.56)"/>
      <path class="cls-1" d="M287.68,2251.57l8.67,13.24c3.53,5.39,10.63,6.9,15.85,3.37l13.01-8.79c5.23-3.53,6.59-10.76,3.07-16.16l-8.67-13.24c-3.53-5.39-10.63-6.9-15.85-3.37l-13.01,8.79c-5.23,3.53-6.59,10.76-3.07,16.16Z"/>
      <path class="cls-3" d="M435.88,2221.39l-23.85,20.27c-2.4,2.05-1.74,5.92,1.21,7.05l29.4,11.23c3.01,1.15,6.14-1.42,5.57-4.6l-5.55-31.5c-.56-3.16-4.33-4.52-6.78-2.45Z"/>
      <path class="cls-4" d="M391.45,2210.16h0c2.36,2.26,6.04,2.17,8.23-.22l.05-.05c2.18-2.38,2.03-6.15-.34-8.41h0c-2.36-2.26-6.04-2.17-8.23.22l-.05.05c-2.18,2.38-2.03,6.15.34,8.41Z"/>
      <ellipse class="cls-6" cx="481.37" cy="2250.64" rx="11.47" ry="11.77" transform="translate(-634.07 237.46) rotate(-16.92)"/>
      <ellipse class="cls-11" cx="495.61" cy="2190.33" rx="7.15" ry="7.34" transform="translate(-615.9 239) rotate(-16.92)"/>
      <ellipse class="cls-1" cx="375.11" cy="2174.31" rx="10.27" ry="10.54" transform="translate(-616.46 203.24) rotate(-16.92)"/>
      <ellipse class="cls-4" cx="459.24" cy="2279.77" rx="3.32" ry="3.41" transform="translate(-643.5 232.28) rotate(-16.92)"/>
      <path class="cls-4" d="M430.95,2192.3l.06.5c.7,6.54,6.45,11.34,12.84,10.72l.62-.06c6.39-.62,11-6.43,10.3-12.97l-.06-.5c-.7-6.54-6.45-11.34-12.84-10.72l-.62.06c-6.39.62-11,6.43-10.3,12.97Z"/>
      <path class="cls-5" d="M401.95,2295.89l2.89,11.07c1.21,4.61,5.82,7.41,10.32,6.24l10.94-2.83c4.5-1.17,7.16-5.85,5.96-10.46l-2.89-11.07c-1.21-4.61-5.82-7.41-10.32-6.24l-10.94,2.83c-4.5,1.17-7.16,5.85-5.96,10.46Z"/>
      <path class="cls-5" d="M347.68,2235.49l12.5,28.66c1.63,3.74,7.07,3.32,8.11-.62l12.27-46.57c1.03-3.91-3.41-6.95-6.69-4.59l-24.77,17.9c-1.65,1.18-2.23,3.35-1.42,5.21Z"/>
      <path class="cls-7" d="M376.68,2319.45l5.25-30.77c.43-2.5-2.06-4.5-4.41-3.53l-30.37,12.48c-2.34.96-2.71,4.11-.67,5.6l25.13,18.29c1.94,1.41,4.69.29,5.08-2.07h0Z"/>
      <path class="cls-9" d="M450.36,2342.64l22.27,34.02c3.13,4.78,9.42,6.12,14.05,2.98l15.17-10.24c4.63-3.12,5.85-9.54,2.72-14.31l-22.27-34.02c-3.13-4.78-9.42-6.12-14.05-2.98l-15.17,10.24c-4.63,3.12-5.85,9.54-2.72,14.31Z"/>
      <ellipse class="cls-4" cx="339.42" cy="2275.02" rx="7.45" ry="7.64" transform="translate(-647.31 197.21) rotate(-16.92)"/>
      <path class="cls-4" d="M550.41,2211.26l-18.16-.68c-2.98-.11-4.35,3.66-2,5.49l23.52,18.31c2.37,1.84,5.7-.45,4.82-3.32l-5.36-17.63c-.38-1.26-1.51-2.12-2.82-2.17Z"/>
      <ellipse class="cls-4" cx="525.97" cy="2339.22" rx="7.45" ry="7.64" transform="translate(-657.92 254.27) rotate(-16.92)"/>
      <path class="cls-2" d="M491.49,2303.52l6.65,6.36c2.75,2.63,7.02,2.51,9.55-.25l6.22-6.81c2.53-2.77,2.35-7.14-.39-9.77l-6.65-6.36c-2.75-2.63-7.02-2.51-9.55.25l-6.22,6.81c-2.53,2.77-2.35,7.14.39,9.77h0Z"/>
      <path class="cls-3" d="M544.37,2295.41l-14.81,29.02c-1.44,2.81.67,6.14,3.82,6.04l32.75-.97c3.23-.1,5.11-3.67,3.38-6.39l-17.93-28.05c-1.73-2.7-5.74-2.51-7.2.35Z"/>
      <ellipse class="cls-6" cx="599.03" cy="2305.42" rx="11.79" ry="12.1" transform="translate(-1330.28 908.44) rotate(-39.53)"/>
      <ellipse class="cls-10" cx="588.73" cy="2242.54" rx="7.35" ry="7.55" transform="translate(-1292.62 887.5) rotate(-39.53)"/>
      <ellipse class="cls-4" cx="589.55" cy="2341.81" rx="3.41" ry="3.51" transform="translate(-1355.61 910.72) rotate(-39.53)"/>
      <path class="cls-4" d="M528.1,2269.93l.24.45c3.25,5.93,10.6,8.21,16.42,5.1l.57-.3c5.82-3.12,7.9-10.45,4.65-16.38l-.24-.45c-3.25-5.93-10.6-8.21-16.42-5.1l-.57.3c-5.82,3.12-7.9,10.45-4.65,16.38Z"/>
      <path class="cls-5" d="M541.53,2379.7l7.12,9.36c2.96,3.9,8.45,4.73,12.26,1.85l9.27-7.01c3.81-2.88,4.49-8.38,1.53-12.28l-7.12-9.36c-2.96-3.9-8.45-4.73-12.26-1.85l-9.27,7.01c-3.81,2.88-4.49,8.38-1.53,12.28Z"/>
      <path class="cls-9" d="M605.96,2404.92l34.59,23.48c4.86,3.3,11.35,2.08,14.51-2.72l10.34-15.72c3.16-4.8,1.78-11.37-3.08-14.66l-34.59-23.48c-4.86-3.3-11.35-2.08-14.51,2.72l-10.34,15.72c-3.16,4.8-1.78,11.37,3.08,14.66Z"/>
      <path class="cls-8" d="M694.14,2353.88l-44.45-49.8c-3.03-3.39-1.71-8.75,2.55-10.35l45.06-16.95c4.25-1.6,8.78,1.56,8.74,6.11l-.61,66.74c-.06,5.91-7.35,8.65-11.29,4.24Z"/>
      <path class="cls-1" d="M691.98,2413.58l13.46,9.14c5.48,3.73,12.81,2.35,16.37-3.07l8.88-13.48c3.57-5.41,2.01-12.82-3.48-16.54l-13.46-9.14c-5.48-3.73-12.81-2.35-16.37,3.07l-8.88,13.48c-3.57,5.41-2.01,12.82,3.48,16.54Z"/>
      <path class="cls-4" d="M649.03,2240.68l-17.81,6.65c-2.8,1.04-2.61,5.05.26,5.84l30.08,8.22c2.89.79,5.09-2.6,3.18-4.92l-12.28-14.87c-.84-1.01-2.22-1.38-3.44-.92h0Z"/>
      <path class="cls-4" d="M754.76,2425.4l-3.53-.07c-3.34-.07-5.08,3.96-2.73,6.35l3.56,3.62c2.35,2.39,6.42.71,6.39-2.64l-.03-3.55c-.01-2.02-1.64-3.66-3.66-3.7h0Z"/>
      <ellipse class="cls-4" cx="676.39" cy="2371.86" rx="7.66" ry="7.86" transform="translate(-1354.87 972.86) rotate(-39.53)"/>
      <path class="cls-2" d="M629.53,2351.55l8.83,3.41c3.64,1.41,7.66-.4,8.97-4.02l3.21-8.92c1.3-3.63-.59-7.71-4.23-9.11l-8.83-3.41c-3.64-1.41-7.66.4-8.97,4.02l-3.21,8.92c-1.3,3.63.59,7.71,4.23,9.11Z"/>
      <path class="cls-7" d="M738.41,2360.58l-11.23-11.41c-2.42-2.46-6.5.08-5.35,3.33l9.55,27.21c1.14,3.25,5.9,2.69,6.25-.73l1.67-15.81c.1-.96-.23-1.92-.91-2.6h0Z"/>
    </g>
    <g id="Layer_1-2-8" data-name="Layer 1-2">
      <path class="cls-1" d="M695.76,2597.05l-10.58-11.61c-4.25-4.66-11.5-4.87-16.2-.47l-11.55,10.82c-4.7,4.41-5.07,11.76-.83,16.42l10.58,11.61c4.25,4.66,11.5,4.87,16.2.47l11.55-10.82c4.7-4.41,5.07-11.76.83-16.42Z"/>
      <ellipse class="cls-4" cx="690.61" cy="2494.41" rx="14.68" ry="14.3" transform="translate(-1808.48 1820.97) rotate(-59.44)"/>
      <path class="cls-3" d="M558.04,2549.19c-1.89-2.59-5.88-2.17-7.17.78l-12.81,29.31c-1.29,2.95,1.14,6.19,4.33,5.78l31.22-3.99c3.13-.4,4.68-4,2.83-6.56l-18.41-25.31h0Z"/>
      <path class="cls-4" d="M606.16,2540.68l-.04-.06c-1.56-2.84-5.11-3.8-7.94-2.16h0c-2.83,1.64-3.87,5.26-2.31,8.09l.04.06c1.56,2.84,5.11,3.8,7.94,2.16h0c2.83-1.64,3.87-5.26,2.31-8.09Z"/>
      <ellipse class="cls-6" cx="506.94" cy="2566.9" rx="11.77" ry="11.47" transform="translate(-1961.2 1698.44) rotate(-59.44)"/>
      <ellipse class="cls-12" cx="507.31" cy="2504.92" rx="7.34" ry="7.15" transform="translate(-1907.65 1668.29) rotate(-59.44)"/>
      <ellipse class="cls-1" cx="628.19" cy="2517.77" rx="10.54" ry="10.27" transform="translate(-1859.29 1778.7) rotate(-59.44)"/>
      <ellipse class="cls-4" cx="521.56" cy="2600.43" rx="3.41" ry="3.32" transform="translate(-1982.89 1727.52) rotate(-59.44)"/>
      <ellipse class="cls-4" cx="676.84" cy="2528.03" rx="5.37" ry="5.23" transform="translate(-1844.21 1825.64) rotate(-59.44)"/>
      <path class="cls-4" d="M562.73,2507.07l-.59-.21c-6.06-2.11-12.78,1.2-15,7.39l-.17.47c-2.22,6.18.89,12.92,6.95,15.03l.59.21c6.06,2.11,12.78-1.2,15-7.39l.17-.47c2.22-6.18-.89-12.92-6.95-15.03Z"/>
      <path class="cls-2" d="M745.94,2518.83l-4.43-8.07c-1.81-3.3-5.94-4.4-9.23-2.5l-7.96,4.61c-3.29,1.9-4.49,6.11-2.68,9.4l4.43,8.07c1.81,3.3,5.94,4.4,9.23,2.5l7.96-4.61c3.29-1.9,4.49-6.11,2.68-9.4Z"/>
      <path class="cls-5" d="M570.11,2618.03l-9.96-5.33c-4.1-2.19-9.25-.56-11.51,3.64l-5.42,10.07c-2.26,4.2-.76,9.38,3.33,11.57l9.96,5.33c4.1,2.19,9.25.56,11.51-3.64l5.42-10.07c2.26-4.2.76-9.38-3.33-11.57Z"/>
      <path class="cls-4" d="M698.97,2547.44c-.87-.97-2.27-1.29-3.47-.78l-17,7.12c-2.76,1.15-2.4,5.19.52,5.83l29.1,6.44c2.91.64,4.94-2.82,2.95-5.04l-12.1-13.55h0Z"/>
      <path class="cls-4" d="M780.1,2510.77c-.53-1.42-2.42-1.71-3.36-.53l-5.42,6.87c-.93,1.18-.24,2.92,1.25,3.13l8.45,1.2c1.46.21,2.61-1.23,2.09-2.61l-3.03-8.06h0Z"/>
      <path class="cls-5" d="M640.41,2583.72c1.22-1.62,1.15-3.86-.16-5.4l-19.85-23.24c-2.62-3.07-7.66-1.16-7.58,2.88l.94,48.14c.08,4.09,5.26,5.77,7.73,2.52l18.9-24.91h0Z"/>
      <path class="cls-7" d="M592.43,2658.47c-.17,2.38,2.24,4.11,4.46,3.2l28.73-11.86c2.34-.96,2.71-4.12.67-5.6l-26.58-19.29c-2.05-1.49-4.94-.14-5.11,2.39l-2.16,31.14v.02Z"/>
      <path class="cls-9" d="M516.1,2649.07l-12.32-13.53c-3.76-4.13-10.19-4.32-14.36-.41l-29.67,27.81c-4.17,3.91-4.5,10.42-.73,14.55l12.32,13.53c3.76,4.13,10.19,4.32,14.36.41l29.67-27.81c4.17-3.91,4.5-10.42.73-14.55Z"/>
      <path class="cls-4" d="M728.62,2559.08c-1.99.35-3.33,2.23-3.04,4.23l.46,3.07c.5,3.32,4.77,4.34,6.72,1.61l2.58-3.62c1.94-2.72-.4-6.42-3.69-5.84l-3.04.55h0Z"/>
      <path class="cls-4" d="M751.52,2488.58l-.04-.06c-1.56-2.84-5.11-3.8-7.94-2.16h0c-2.83,1.64-3.87,5.26-2.31,8.09l.04.06c1.56,2.84,5.11,3.8,7.94,2.16h0c2.83-1.64,3.87-5.26,2.31-8.09Z"/>
      <ellipse class="cls-4" cx="639.11" cy="2624.06" rx="7.64" ry="7.45" transform="translate(-1945.45 1840.36) rotate(-59.44)"/>
      <path class="cls-1" d="M505.58,2589.67l-13.01-8.79c-5.23-3.53-12.33-2.02-15.85,3.37l-8.67,13.24c-3.53,5.4-2.16,12.62,3.07,16.16l13.01,8.79c5.23,3.53,12.33,2.02,15.85-3.37l8.67-13.24c3.53-5.4,2.16-12.62-3.07-16.16Z"/>
      <path class="cls-3" d="M353.67,2578.09l-5.55,31.5c-.56,3.18,2.56,5.75,5.57,4.6l29.4-11.23c2.95-1.13,3.61-5,1.21-7.05l-23.85-20.27c-2.44-2.07-6.22-.71-6.78,2.45Z"/>
      <path class="cls-4" d="M405.21,2556.01l-.05-.05c-2.19-2.39-5.87-2.49-8.23-.22h0c-2.36,2.26-2.51,6.03-.34,8.41l.05.05c2.19,2.39,5.87,2.49,8.23.22h0c2.36-2.26,2.51-6.03.34-8.41Z"/>
      <ellipse class="cls-6" cx="314.96" cy="2604.9" rx="11.77" ry="11.47" transform="translate(-2268.87 2148.25) rotate(-73.08)"/>
      <ellipse class="cls-11" cx="300.72" cy="2544.59" rx="7.34" ry="7.15" transform="translate(-2221.27 2091.86) rotate(-73.08)"/>
      <ellipse class="cls-1" cx="421.22" cy="2528.57" rx="10.54" ry="10.27" transform="translate(-2120.51 2195.79) rotate(-73.08)"/>
      <ellipse class="cls-4" cx="337.09" cy="2634.03" rx="3.41" ry="3.32" transform="translate(-2281.05 2190.07) rotate(-73.08)"/>
      <path class="cls-4" d="M355.08,2533.59l-.62-.06c-6.39-.62-12.14,4.18-12.84,10.72l-.06.5c-.7,6.54,3.91,12.34,10.3,12.97l.62.06c6.39.62,12.14-4.18,12.84-10.72l.06-.5c.7-6.54-3.91-12.34-10.3-12.97Z"/>
      <path class="cls-5" d="M388.42,2639.69l-10.94-2.83c-4.5-1.17-9.12,1.63-10.32,6.24l-2.89,11.07c-1.21,4.6,1.46,9.29,5.96,10.46l10.94,2.83c4.5,1.17,9.12-1.63,10.32-6.24l2.89-11.07c1.21-4.6-1.46-9.29-5.96-10.46Z"/>
      <path class="cls-5" d="M447.22,2584.55l-24.77-17.9c-3.28-2.36-7.72.68-6.69,4.59l12.27,46.57c1.05,3.94,6.48,4.36,8.11.62l12.5-28.66c.81-1.86.22-4.03-1.42-5.21Z"/>
      <path class="cls-7" d="M419.65,2673.71c.39,2.36,3.14,3.49,5.08,2.07l25.13-18.29c2.04-1.49,1.66-4.64-.67-5.6l-30.37-12.48c-2.35-.97-4.84,1.03-4.41,3.53l5.25,30.77h0Z"/>
      <path class="cls-9" d="M343.25,2682.59l-15.17-10.24c-4.63-3.13-10.92-1.8-14.05,2.98l-22.27,34.02c-3.13,4.77-1.91,11.19,2.72,14.31l15.17,10.24c4.63,3.13,10.92,1.8,14.05-2.98l22.27-34.02c3.13-4.77,1.91-11.19-2.72-14.31Z"/>
      <ellipse class="cls-4" cx="456.9" cy="2629.28" rx="7.64" ry="7.45" transform="translate(-2191.55 2301.32) rotate(-73.08)"/>
      <path class="cls-4" d="M243.1,2567.7l-5.36,17.63c-.88,2.87,2.45,5.16,4.82,3.32l23.52-18.31c2.36-1.83.98-5.6-2-5.49l-18.16.68c-1.31.05-2.45.92-2.82,2.17Z"/>
      <ellipse class="cls-4" cx="270.35" cy="2693.48" rx="7.64" ry="7.45" transform="translate(-2385.25 2168.38) rotate(-73.08)"/>
      <path class="cls-2" d="M304.84,2657.78c2.75-2.63,2.92-7,.39-9.77l-6.22-6.81c-2.53-2.77-6.81-2.88-9.55-.25l-6.65,6.36c-2.75,2.63-2.92,7-.39,9.77l6.22,6.81c2.53,2.77,6.81,2.88,9.55.25l6.65-6.36h0Z"/>
      <path class="cls-3" d="M244.76,2649.33l-17.93,28.05c-1.73,2.72.15,6.29,3.38,6.39l32.75.97c3.15.1,5.26-3.23,3.82-6.04l-14.81-29.02c-1.46-2.85-5.47-3.05-7.2-.35Z"/>
      <ellipse class="cls-6" cx="197.3" cy="2659.68" rx="12.1" ry="11.79" transform="translate(-1979.75 1119.13) rotate(-50.47)"/>
      <ellipse class="cls-10" cx="207.6" cy="2596.8" rx="7.55" ry="7.35" transform="translate(-1927.5 1104.22) rotate(-50.47)"/>
      <ellipse class="cls-4" cx="206.78" cy="2696.07" rx="3.51" ry="3.41" transform="translate(-2004.37 1139.68) rotate(-50.47)"/>
      <path class="cls-4" d="M263.57,2607.82l-.57-.3c-5.82-3.11-13.17-.83-16.42,5.1l-.24.45c-3.25,5.93-1.16,13.26,4.65,16.38l.57.3c5.82,3.11,13.17.83,16.42-5.1l.24-.45c3.25-5.93,1.16-13.26-4.65-16.38Z"/>
      <path class="cls-5" d="M253.27,2721.68l-9.27-7.01c-3.81-2.88-9.3-2.05-12.26,1.85l-7.12,9.36c-2.96,3.9-2.28,9.4,1.53,12.28l9.27,7.01c3.81,2.88,9.3,2.05,12.26-1.85l7.12-9.36c2.96-3.9,2.28-9.4-1.53-12.28Z"/>
      <path class="cls-9" d="M193.44,2744.52l-10.34-15.72c-3.16-4.8-9.66-6.02-14.51-2.72l-34.59,23.48c-4.86,3.3-6.24,9.86-3.08,14.66l10.34,15.72c3.16,4.8,9.66,6.02,14.51,2.72l34.59-23.48c4.86-3.3,6.24-9.86,3.08-14.66Z"/>
      <path class="cls-8" d="M90.91,2703.9l-.61-66.74c-.04-4.54,4.49-7.7,8.74-6.11l45.06,16.95c4.25,1.6,5.57,6.96,2.55,10.35l-44.45,49.8c-3.93,4.4-11.23,1.67-11.29-4.24Z"/>
      <path class="cls-1" d="M107.83,2751.3l-8.88-13.48c-3.56-5.42-10.89-6.8-16.37-3.07l-13.46,9.14c-5.48,3.73-7.04,11.13-3.48,16.54l8.88,13.48c3.56,5.42,10.89,6.8,16.37,3.07l13.46-9.14c5.48-3.73,7.04-11.13,3.48-16.54Z"/>
      <path class="cls-4" d="M147.31,2594.94c-1.23-.46-2.6-.09-3.44.92l-12.28,14.87c-1.9,2.32.29,5.71,3.18,4.92l30.08-8.22c2.87-.79,3.06-4.8.26-5.84l-17.81-6.65h0Z"/>
      <path class="cls-4" d="M41.57,2779.66c-2.02.05-3.64,1.68-3.66,3.7l-.03,3.55c-.03,3.35,4.04,5.04,6.39,2.64l3.56-3.62c2.35-2.38.61-6.41-2.73-6.35l-3.53.07h0Z"/>
      <ellipse class="cls-4" cx="119.94" cy="2726.12" rx="7.86" ry="7.66" transform="translate(-2059.12 1083.62) rotate(-50.47)"/>
      <path class="cls-2" d="M171.03,2696.7l-3.21-8.92c-1.31-3.62-5.33-5.42-8.97-4.02l-8.83,3.41c-3.64,1.41-5.54,5.48-4.23,9.11l3.21,8.92c1.31,3.62,5.33,5.42,8.97,4.02l8.83-3.41c3.64-1.41,5.54-5.48,4.23-9.11Z"/>
      <path class="cls-7" d="M57.93,2714.83c-.68.69-1.01,1.64-.91,2.6l1.67,15.81c.36,3.42,5.11,3.98,6.25.73l9.55-27.21c1.15-3.25-2.92-5.79-5.35-3.33l-11.23,11.41h0Z"/>
    </g>
    <g id="Layer_1-2-9" data-name="Layer 1-2">
      <path class="cls-1" d="M116.9,2967.73l11.55,10.82c4.7,4.41,11.95,4.2,16.2-.47l10.58-11.61c4.24-4.66,3.87-12.02-.83-16.42l-11.55-10.82c-4.7-4.41-11.95-4.2-16.2.47l-10.58,11.61c-4.24,4.66-3.87,12.02.83,16.42Z"/>
      <ellipse class="cls-4" cx="121.21" cy="2848.67" rx="14.3" ry="14.68" transform="translate(-1431.41 457.23) rotate(-30.56)"/>
      <path class="cls-3" d="M253.8,2903.47l-18.41,25.31c-1.85,2.56-.3,6.16,2.83,6.56l31.22,3.99c3.19.41,5.62-2.83,4.33-5.78l-12.81-29.31c-1.28-2.94-5.28-3.37-7.17-.78h0Z"/>
      <path class="cls-4" d="M207.98,2903.03h0c2.83,1.64,6.38.68,7.94-2.16l.04-.06c1.56-2.83.52-6.45-2.31-8.09h0c-2.83-1.64-6.38-.68-7.94,2.16l-.04.06c-1.56,2.83-.52,6.45,2.31,8.09Z"/>
      <ellipse class="cls-6" cx="304.89" cy="2921.16" rx="11.47" ry="11.77" transform="translate(-1442.76 560.68) rotate(-30.56)"/>
      <ellipse class="cls-12" cx="304.52" cy="2859.18" rx="7.15" ry="7.34" transform="translate(-1411.3 551.88) rotate(-30.56)"/>
      <ellipse class="cls-1" cx="183.64" cy="2872.03" rx="10.27" ry="10.54" transform="translate(-1434.62 492.21) rotate(-30.56)"/>
      <ellipse class="cls-4" cx="290.27" cy="2954.69" rx="3.32" ry="3.41" transform="translate(-1461.83 557.9) rotate(-30.56)"/>
      <ellipse class="cls-4" cx="134.99" cy="2882.29" rx="5.23" ry="5.37" transform="translate(-1446.59 468.9) rotate(-30.56)"/>
      <path class="cls-4" d="M242.15,2876.36l.17.47c2.22,6.19,8.94,9.5,15,7.39l.59-.21c6.06-2.11,9.17-8.84,6.95-15.03l-.17-.47c-2.22-6.19-8.94-9.5-15-7.39l-.59.21c-6.06,2.11-9.17,8.84-6.95,15.03Z"/>
      <path class="cls-2" d="M68.57,2882.49l7.96,4.61c3.29,1.9,7.42.79,9.23-2.5l4.43-8.07c1.81-3.29.6-7.5-2.68-9.4l-7.96-4.61c-3.29-1.9-7.42-.79-9.23,2.5l-4.43,8.07c-1.81,3.29-.6,7.5,2.68,9.4Z"/>
      <path class="cls-5" d="M238.39,2983.86l5.42,10.07c2.26,4.19,7.41,5.82,11.51,3.64l9.96-5.33c4.1-2.19,5.59-7.37,3.33-11.57l-5.42-10.07c-2.26-4.19-7.41-5.82-11.51-3.64l-9.96,5.33c-4.1,2.19-5.59,7.37-3.33,11.57Z"/>
      <path class="cls-4" d="M112.86,2901.71l-12.1,13.55c-1.99,2.22.04,5.69,2.95,5.04l29.1-6.44c2.93-.64,3.29-4.68.52-5.83l-17-7.12c-1.2-.5-2.6-.19-3.47.78h0Z"/>
      <path class="cls-4" d="M31.74,2865.03l-3.03,8.06c-.52,1.38.63,2.81,2.09,2.61l8.45-1.2c1.49-.21,2.18-1.96,1.25-3.13l-5.42-6.87c-.94-1.19-2.82-.9-3.36.53h0Z"/>
      <path class="cls-5" d="M171.42,2937.97l18.9,24.91c2.47,3.25,7.66,1.56,7.73-2.52l.94-48.14c.08-4.04-4.95-5.95-7.58-2.88l-19.85,23.24c-1.31,1.54-1.38,3.78-.16,5.4h0Z"/>
      <path class="cls-7" d="M219.39,3012.71l-2.16-31.14c-.17-2.53-3.06-3.88-5.11-2.39l-26.58,19.29c-2.04,1.48-1.67,4.64.67,5.6l28.73,11.86c2.22.91,4.62-.82,4.46-3.2v-.02Z"/>
      <path class="cls-9" d="M296.46,3017.88l29.67,27.81c4.17,3.91,10.59,3.72,14.36-.41l12.32-13.53c3.76-4.13,3.43-10.64-.73-14.55l-29.67-27.81c-4.17-3.91-10.59-3.72-14.36.41l-12.32,13.53c-3.76,4.13-3.43,10.64.73,14.55Z"/>
      <path class="cls-4" d="M83.22,2913.35l-3.04-.55c-3.3-.58-5.63,3.12-3.69,5.84l2.58,3.62c1.95,2.72,6.22,1.7,6.72-1.61l.46-3.07c.29-2-1.04-3.87-3.04-4.23h0Z"/>
      <path class="cls-4" d="M62.62,2850.94h0c2.83,1.64,6.38.68,7.94-2.16l.04-.06c1.56-2.83.52-6.45-2.31-8.09h0c-2.83-1.64-6.38-.68-7.94,2.16l-.04.06c-1.56,2.83-.52,6.45,2.31,8.09Z"/>
      <ellipse class="cls-4" cx="172.71" cy="2978.32" rx="7.45" ry="7.64" transform="translate(-1490.17 501.42) rotate(-30.56)"/>
      <path class="cls-1" d="M303.18,2960.09l8.67,13.24c3.53,5.39,10.63,6.9,15.85,3.37l13.01-8.79c5.23-3.53,6.59-10.76,3.07-16.16l-8.67-13.24c-3.53-5.39-10.63-6.9-15.85-3.37l-13.01,8.79c-5.23,3.53-6.59,10.76-3.07,16.16Z"/>
      <path class="cls-3" d="M451.38,2929.91l-23.85,20.27c-2.4,2.05-1.74,5.92,1.21,7.05l29.4,11.23c3.01,1.15,6.14-1.42,5.57-4.6l-5.55-31.5c-.56-3.16-4.33-4.52-6.78-2.45Z"/>
      <path class="cls-4" d="M406.95,2918.68h0c2.36,2.26,6.04,2.17,8.23-.22l.05-.05c2.18-2.38,2.03-6.15-.34-8.41h0c-2.36-2.26-6.04-2.17-8.23.22l-.05.05c-2.18,2.38-2.03,6.15.34,8.41Z"/>
      <ellipse class="cls-6" cx="496.87" cy="2959.16" rx="11.47" ry="11.77" transform="translate(-839.57 272.63) rotate(-16.92)"/>
      <ellipse class="cls-11" cx="511.11" cy="2898.85" rx="7.15" ry="7.34" transform="translate(-821.4 274.16) rotate(-16.92)"/>
      <ellipse class="cls-1" cx="390.61" cy="2882.83" rx="10.27" ry="10.54" transform="translate(-821.96 238.41) rotate(-16.92)"/>
      <ellipse class="cls-4" cx="474.74" cy="2988.29" rx="3.32" ry="3.41" transform="translate(-849 267.45) rotate(-16.92)"/>
      <path class="cls-4" d="M446.45,2900.82l.06.5c.7,6.54,6.45,11.34,12.84,10.72l.62-.06c6.39-.62,11-6.43,10.3-12.97l-.06-.5c-.7-6.54-6.45-11.34-12.84-10.72l-.62.06c-6.39.62-11,6.43-10.3,12.97Z"/>
      <path class="cls-5" d="M417.45,3004.41l2.89,11.07c1.21,4.61,5.82,7.41,10.32,6.24l10.94-2.83c4.5-1.17,7.16-5.85,5.96-10.46l-2.89-11.07c-1.21-4.61-5.82-7.41-10.32-6.24l-10.94,2.83c-4.5,1.17-7.16,5.85-5.96,10.46Z"/>
      <path class="cls-5" d="M363.18,2944.01l12.5,28.66c1.63,3.74,7.07,3.32,8.11-.62l12.27-46.57c1.03-3.91-3.41-6.95-6.69-4.59l-24.77,17.9c-1.65,1.18-2.23,3.35-1.42,5.21Z"/>
      <path class="cls-7" d="M392.18,3027.97l5.25-30.77c.43-2.5-2.06-4.5-4.41-3.53l-30.37,12.48c-2.34.96-2.71,4.11-.67,5.6l25.13,18.29c1.94,1.41,4.69.29,5.08-2.07h0Z"/>
      <path class="cls-9" d="M465.86,3051.16l22.27,34.02c3.13,4.78,9.42,6.12,14.05,2.98l15.17-10.24c4.63-3.12,5.85-9.54,2.72-14.31l-22.27-34.02c-3.13-4.78-9.42-6.12-14.05-2.98l-15.17,10.24c-4.63,3.12-5.85,9.54-2.72,14.31Z"/>
      <ellipse class="cls-4" cx="354.92" cy="2983.54" rx="7.45" ry="7.64" transform="translate(-852.8 232.38) rotate(-16.92)"/>
      <path class="cls-4" d="M565.91,2919.78l-18.16-.68c-2.98-.11-4.35,3.66-2,5.49l23.52,18.31c2.37,1.84,5.7-.45,4.82-3.32l-5.36-17.63c-.38-1.26-1.51-2.12-2.82-2.17Z"/>
      <ellipse class="cls-4" cx="541.47" cy="3047.74" rx="7.45" ry="7.64" transform="translate(-863.41 289.44) rotate(-16.92)"/>
      <path class="cls-2" d="M506.99,3012.04l6.65,6.36c2.75,2.63,7.02,2.51,9.55-.25l6.22-6.81c2.53-2.77,2.35-7.14-.39-9.77l-6.65-6.36c-2.75-2.63-7.02-2.51-9.55.25l-6.22,6.81c-2.53,2.77-2.35,7.14.39,9.77h0Z"/>
      <path class="cls-3" d="M559.87,3003.93l-14.81,29.02c-1.44,2.81.67,6.14,3.82,6.04l32.75-.97c3.23-.1,5.11-3.67,3.38-6.39l-17.93-28.05c-1.73-2.7-5.74-2.51-7.2.35Z"/>
      <ellipse class="cls-6" cx="614.53" cy="3013.94" rx="11.79" ry="12.1" transform="translate(-1777.67 1080.32) rotate(-39.53)"/>
      <ellipse class="cls-10" cx="604.23" cy="2951.06" rx="7.35" ry="7.55" transform="translate(-1740 1059.38) rotate(-39.53)"/>
      <ellipse class="cls-4" cx="605.05" cy="3050.33" rx="3.41" ry="3.51" transform="translate(-1802.99 1082.61) rotate(-39.53)"/>
      <path class="cls-4" d="M543.6,2978.45l.24.45c3.25,5.93,10.6,8.21,16.42,5.1l.57-.3c5.82-3.12,7.9-10.45,4.65-16.38l-.24-.45c-3.25-5.93-10.6-8.21-16.42-5.1l-.57.3c-5.82,3.12-7.9,10.45-4.65,16.38Z"/>
      <path class="cls-5" d="M557.03,3088.22l7.12,9.36c2.96,3.9,8.45,4.73,12.26,1.85l9.27-7.01c3.81-2.88,4.49-8.38,1.53-12.28l-7.12-9.36c-2.96-3.9-8.45-4.73-12.26-1.85l-9.27,7.01c-3.81,2.88-4.49,8.38-1.53,12.28Z"/>
      <path class="cls-9" d="M621.46,3113.44l34.59,23.48c4.86,3.3,11.35,2.08,14.51-2.72l10.34-15.72c3.16-4.8,1.78-11.37-3.08-14.66l-34.59-23.48c-4.86-3.3-11.35-2.08-14.51,2.72l-10.34,15.72c-3.16,4.8-1.78,11.37,3.08,14.66Z"/>
      <path class="cls-8" d="M709.64,3062.4l-44.45-49.8c-3.03-3.39-1.71-8.75,2.55-10.35l45.06-16.95c4.25-1.6,8.78,1.56,8.74,6.11l-.61,66.74c-.06,5.91-7.35,8.65-11.29,4.24Z"/>
      <path class="cls-1" d="M707.48,3122.1l13.46,9.14c5.48,3.73,12.81,2.35,16.37-3.07l8.88-13.48c3.57-5.41,2.01-12.82-3.48-16.54l-13.46-9.14c-5.48-3.73-12.81-2.35-16.37,3.07l-8.88,13.48c-3.57,5.41-2.01,12.82,3.48,16.54Z"/>
      <path class="cls-4" d="M664.53,2949.2l-17.81,6.65c-2.8,1.04-2.61,5.05.26,5.84l30.08,8.22c2.89.79,5.09-2.6,3.18-4.92l-12.28-14.87c-.84-1.01-2.22-1.38-3.44-.92h0Z"/>
      <path class="cls-4" d="M770.26,3133.92l-3.53-.07c-3.34-.07-5.08,3.96-2.73,6.35l3.56,3.62c2.35,2.39,6.42.71,6.39-2.64l-.03-3.55c-.01-2.02-1.64-3.66-3.66-3.7h0Z"/>
      <ellipse class="cls-4" cx="691.89" cy="3080.38" rx="7.66" ry="7.86" transform="translate(-1802.26 1144.75) rotate(-39.53)"/>
      <path class="cls-2" d="M645.03,3060.07l8.83,3.41c3.64,1.41,7.66-.4,8.97-4.02l3.21-8.92c1.3-3.63-.59-7.71-4.23-9.11l-8.83-3.41c-3.64-1.41-7.66.4-8.97,4.02l-3.21,8.92c-1.3,3.63.59,7.71,4.23,9.11Z"/>
      <path class="cls-7" d="M753.91,3069.1l-11.23-11.41c-2.42-2.46-6.5.08-5.35,3.33l9.55,27.21c1.14,3.25,5.9,2.69,6.25-.73l1.67-15.81c.1-.96-.23-1.92-.91-2.6h0Z"/>
    </g>
  </g>
</svg>