<?xml version="1.0" encoding="UTF-8"?>
<svg id="Layer_2" data-name="Layer 2" xmlns="http://www.w3.org/2000/svg" viewBox="0 0 203.17 270.22">
  <defs>
    <style>
      .cls-1 {
        fill: none;
        stroke: #e11d2b;
        stroke-miterlimit: 10;
      }

      .cls-2 {
        fill: #e11d2b;
      }

      .cls-2, .cls-3 {
        stroke-width: 0px;
      }

      .cls-3 {
        fill: #eff3e8;
      }
    </style>
  </defs>
  <g id="Layer_7" data-name="Layer 7">
    <path class="cls-1" d="M35.81.5h166.86v235.3c0,18.72-15.2,33.92-33.92,33.92H.5V35.81C.5,16.32,16.32.5,35.81.5Z"/>
    <path class="cls-2" d="M.5,202.67h202.17v32.13c0,19.46-15.8,35.26-35.26,35.26H.5v-67.39h0Z"/>
    <g>
      <path class="cls-3" d="M86.33,234.32c.53.47.8,1.13.8,1.98,0,.49-.1.94-.29,1.37-.2.42-.51.77-.95,1.03-.44.26-.99.4-1.65.4h-1.28v3.19h-1.16v-8.68h2.33c.94,0,1.68.24,2.21.71ZM85.25,237.71c.26-.18.45-.39.56-.64.11-.25.17-.5.17-.74,0-.42-.14-.79-.41-1.11s-.7-.49-1.27-.49h-1.34v3.24h1.28c.42,0,.75-.09,1.01-.26Z"/>
      <path class="cls-3" d="M90.28,237.78c.24-.21.49-.37.75-.48.26-.11.5-.17.7-.18l-.05,1.12c-.36-.02-.69.06-.98.22s-.52.38-.68.67-.25.59-.25.91v2.27h-1.12v-4.97h1l.08,1.18c.13-.27.31-.51.55-.72Z"/>
      <path class="cls-3" d="M93.28,235.09c.14-.12.29-.18.47-.18s.33.06.46.18.2.27.2.44-.07.32-.2.44c-.13.12-.29.18-.46.18s-.33-.06-.47-.18c-.14-.12-.2-.27-.2-.44s.07-.32.2-.44ZM94.28,237.32v4.97h-1.12v-4.97h1.12Z"/>
      <path class="cls-3" d="M103.74,237.53c.28.27.43.63.45,1.08v3.68h-1.12v-3.28c-.02-.58-.29-.89-.79-.92-.29,0-.55.09-.77.26-.23.17-.41.4-.53.68-.13.28-.2.58-.2.9v2.36h-1.13v-3.28c-.02-.58-.3-.89-.82-.92-.28,0-.53.09-.76.26-.23.17-.41.4-.53.68s-.19.59-.19.91v2.35h-1.12v-4.97h1.01l.08.94c.19-.36.45-.64.79-.84.33-.2.71-.3,1.13-.3.4,0,.74.09,1.01.28.27.19.45.45.53.77.21-.33.47-.59.79-.77.32-.19.66-.28,1.03-.28.48,0,.86.14,1.15.41Z"/>
      <path class="cls-3" d="M111.22,237.32v4.97h-1.12v-.82c-.18.23-.43.45-.77.64-.34.2-.72.29-1.14.29-.47,0-.9-.1-1.28-.31-.38-.2-.68-.5-.9-.89-.22-.39-.33-.86-.33-1.4s.11-1.02.34-1.42c.23-.4.54-.72.92-.94.39-.22.82-.33,1.29-.33.42,0,.79.09,1.1.28.31.18.56.42.76.72l.08-.79h1.03ZM109.55,241.14c.29-.23.48-.54.56-.93v-.98c-.1-.35-.3-.64-.6-.86s-.65-.33-1.04-.33c-.3,0-.57.07-.82.22-.25.14-.45.35-.6.61-.15.26-.22.55-.22.88s.08.61.23.88.36.47.61.63c.26.16.54.23.84.23.41,0,.76-.11,1.05-.34Z"/>
      <path class="cls-3" d="M114.79,237.78c.24-.21.49-.37.75-.48.26-.11.5-.17.7-.18l-.05,1.12c-.36-.02-.69.06-.98.22s-.52.38-.68.67-.25.59-.25.91v2.27h-1.12v-4.97h1l.08,1.18c.13-.27.31-.51.55-.72Z"/>
      <path class="cls-3" d="M122.41,237.32l-3.2,7.36h-1.1l1.14-2.56-2.3-4.8h1.26l1.61,3.54,1.57-3.54h1.03Z"/>
    </g>
    <g>
      <path class="cls-2" d="M84.1,85.72v17.35h-2.33v-17.35h2.33Z"/>
      <path class="cls-2" d="M95.01,103c-.62.21-1.24.31-1.88.31-1.07,0-2.02-.22-2.84-.65-.82-.43-1.46-1.04-1.92-1.84s-.68-1.71-.68-2.75.24-1.93.72-2.72,1.12-1.4,1.92-1.84c.8-.43,1.66-.65,2.59-.65,1.52,0,2.78.42,3.77,1.25l-1.13,1.46c-.32-.24-.69-.44-1.1-.61-.42-.17-.86-.25-1.34-.25-.59,0-1.13.15-1.62.44-.49.3-.87.7-1.15,1.21-.28.51-.42,1.08-.42,1.7s.15,1.19.44,1.7c.3.51.7.92,1.21,1.22.51.3,1.1.46,1.75.46.82,0,1.53-.24,2.14-.72l1.15,1.39c-.45.37-.98.66-1.6.86Z"/>
      <path class="cls-2" d="M99.33,95.33c.47-.81,1.13-1.44,1.97-1.91.84-.46,1.79-.7,2.84-.7s2,.23,2.82.7c.82.46,1.46,1.1,1.92,1.9.46.8.68,1.7.68,2.69s-.23,1.89-.68,2.7-1.1,1.44-1.93,1.91c-.83.46-1.78.7-2.86.7s-1.98-.22-2.81-.66c-.83-.44-1.48-1.06-1.96-1.86-.47-.8-.71-1.73-.71-2.78,0-.98.24-1.87.71-2.68ZM101.3,99.76c.28.53.66.94,1.15,1.25.49.3,1.03.46,1.62.46.93,0,1.7-.33,2.3-.98.61-.66.91-1.47.91-2.45s-.3-1.8-.91-2.46c-.61-.66-1.38-1-2.3-1-.61,0-1.15.16-1.63.47s-.86.73-1.14,1.26-.42,1.1-.42,1.73.14,1.2.42,1.73Z"/>
      <path class="cls-2" d="M121.04,93.57c.61.55.92,1.27.94,2.15v7.34h-2.26v-6.58c-.03-.56-.2-1-.5-1.32-.3-.32-.76-.49-1.37-.5-.88,0-1.61.35-2.18,1.06-.58.7-.86,1.6-.86,2.69v4.66h-2.23v-9.94h2.02l.14,1.92c.35-.72.88-1.28,1.58-1.69s1.51-.61,2.42-.61,1.7.28,2.3.83Z"/>
    </g>
  </g>
</svg>