<?xml version="1.0" encoding="UTF-8"?>
<svg id="Layer_2" data-name="Layer 2" xmlns="http://www.w3.org/2000/svg" viewBox="0 0 725.84 427.57">
  <defs>
    <style>
      .cls-1 {
        fill: #d13389;
        opacity: .7;
        stroke: #fff;
        stroke-miterlimit: 10;
      }
    </style>
  </defs>
  <g id="Layer_12" data-name="Layer 12">
    <path class="cls-1" d="m.5,418.52c24.86,3.24,62.7,6.59,108.35,4,89.65-5.09,109-27.4,176.42-33.18,92.11-7.9,98.15,30.13,224.75,36.03,65.9,3.07,140.29,6.54,183.67-34.02,35.04-32.76,31.77-84.78,31.42-102.07-1.09-53.44-27.38-90.13-36.61-102.64-34.19-46.34-83.28-66.96-91.92-70.47-20.85-8.46-33.9-9.65-54.13-23.49-26.18-17.91-38.6-39.38-43.91-46.98C449.87-23.95,254.76,6.46,225.86,10.97,172.93,19.22,91.67,38.44.5,88.59v329.93Z"/>
  </g>
</svg>