<?xml version="1.0" encoding="UTF-8"?>
<svg id="Layer_2" data-name="Layer 2" xmlns="http://www.w3.org/2000/svg" viewBox="0 0 579.95 178.76">
  <defs>
    <style>
      .cls-1, .cls-2, .cls-3, .cls-4, .cls-5, .cls-6, .cls-7, .cls-8, .cls-9 {
        stroke-width: 0px;
      }

      .cls-1, .cls-2, .cls-3, .cls-10 {
        fill: #d7d1e7;
      }

      .cls-1, .cls-3, .cls-5, .cls-6, .cls-7, .cls-8, .cls-9 {
        isolation: isolate;
      }

      .cls-1, .cls-8 {
        opacity: .5;
      }

      .cls-3, .cls-6 {
        opacity: .3;
      }

      .cls-4, .cls-5, .cls-6, .cls-8, .cls-9 {
        fill: #d13389;
      }

      .cls-5 {
        opacity: .4;
      }

      .cls-7 {
        fill: #d10089;
        opacity: .17;
      }

      .cls-9 {
        opacity: .2;
      }

      .cls-10 {
        stroke: #fff;
        stroke-miterlimit: 10;
        stroke-width: 1px;
      }
    </style>
  </defs>
  <g id="Layer_2-2" data-name="Layer 2">
    <g id="Layer_9" data-name="Layer 9">
      <path class="cls-1" d="M188.44,165.07l1.67-9.99c.67-4.01-2.12-7.77-6.23-8.4l-10.1-1.53c-4.1-.62-7.98,2.12-8.65,6.14l-1.67,9.99c-.67,4.01,2.12,7.77,6.23,8.4l10.1,1.53c4.1.62,7.98-2.12,8.65-6.14Z"/>
      <ellipse class="cls-4" cx="238.42" cy="121.49" rx="9.47" ry="9.23" transform="translate(-14.08 32.91) rotate(-7.67)"/>
      <path class="cls-3" d="M154.58,72.8l-20.22,5.27c-1.96.51-2.61,2.96-1.17,4.38l14.67,14.41c1.41,1.39,3.79.75,4.33-1.15l5.55-19.68c.55-1.93-1.22-3.74-3.16-3.23Z"/>
      <path class="cls-4" d="M181.25,97.15v-.04c.83-1.92-.1-4.11-2.06-4.89h0c-1.96-.78-4.21.14-5.02,2.06v.04c-.83,1.92.1,4.11,2.06,4.89h0c1.96.78,4.21-.14,5.02-2.06Z"/>
      <ellipse class="cls-6" cx="128.34" cy="57.32" rx="7.59" ry="7.4" transform="translate(-6.5 17.65) rotate(-7.67)"/>
      <ellipse class="cls-10" cx="159.9" cy="32.76" rx="4.74" ry="4.61" transform="translate(-2.94 21.64) rotate(-7.67)"/>
      <ellipse class="cls-1" cx="201.65" cy="99.17" rx="6.8" ry="6.63" transform="translate(-11.43 27.81) rotate(-7.67)"/>
      <ellipse class="cls-4" cx="117.19" cy="78.12" rx="2.2" ry="2.14" transform="translate(-9.38 16.34) rotate(-7.67)"/>
      <ellipse class="cls-4" cx="215.88" cy="127.92" rx="3.46" ry="3.37" transform="translate(-15.14 29.96) rotate(-7.67)"/>
      <path class="cls-4" d="M180.94,61.71l-.13-.38c-1.35-3.92-5.71-6-9.74-4.66l-.3.1c-4.03,1.34-6.19,5.61-4.84,9.52l.13.38c1.35,3.92,5.71,6,9.74,4.66l.3-.1c4.03-1.34,6.19-5.61,4.84-9.52Z"/>
      <path class="cls-2" d="M248.12,159.28l2.32-5.48c.95-2.23-.14-4.77-2.41-5.68l-5.52-2.2c-2.28-.9-4.89.17-5.83,2.39l-2.32,5.48c-.95,2.23.14,4.77,2.41,5.68l5.52,2.2c2.28.9,4.89-.17,5.83-2.39Z"/>
      <path class="cls-5" d="M127.65,109.75l-1.28-7.18c-.53-2.95-3.4-4.91-6.44-4.38l-7.27,1.28c-3.03.53-5.06,3.36-4.54,6.3l1.28,7.18c.53,2.95,3.4,4.91,6.44,4.38l7.27-1.28c3.03-.53,5.06-3.36,4.54-6.3Z"/>
      <path class="cls-4" d="M214.87,146.85c.15-.81-.24-1.62-.96-2.02l-10.58-5.87c-1.64-.92-3.49.83-2.67,2.52l8.5,17.63c.81,1.68,3.31,1.34,3.64-.51l2.07-11.75h0Z"/>
      <path class="cls-4" d="M265.87,173.31c.49-.81-.09-1.86-1.04-1.85h-5.76c-.95,0-1.53,1.02-1.06,1.83l2.83,4.85c.47.8,1.62.81,2.1.02l2.94-4.85h0Z"/>
      <path class="cls-5" d="M173.17,131.68c1.27-.03,2.36-.93,2.6-2.18l3.91-19.61c.5-2.48-2.4-4.22-4.36-2.62l-24.36,19.97c-1.98,1.63-.8,4.84,1.76,4.79l20.45-.36h0Z"/>
      <path class="cls-7" d="M116,137.26c-1.24.85-1.16,2.7.15,3.44l17.64,9.93c1.38.78,3.09-.26,3.02-1.85l-.84-21.37c-.06-1.59-1.85-2.49-3.17-1.6l-16.81,11.45h0Z"/>
      <path class="cls-9" d="M90.35,94.77l1.94-11.65c.59-3.55-1.88-6.89-5.52-7.44l-25.94-3.94c-3.64-.55-7.07,1.88-7.67,5.44l-1.94,11.65c-.59,3.55,1.88,6.89,5.52,7.44l25.94,3.94c3.64.55,7.07-1.88,7.67-5.44Z"/>
      <path class="cls-4" d="M220.76,166.52c-.95-.84-2.39-.78-3.26.14l-1.52,1.62c-1.45,1.53-.29,4.04,1.81,3.94l3.18-.15c2.09-.09,3.01-2.69,1.45-4.09l-1.66-1.47h0Z"/>
      <path class="cls-4" d="M265.68,150.03v-.04c.83-1.92-.1-4.11-2.06-4.89h0c-1.96-.78-4.21.14-5.02,2.06v.04c-.83,1.92.1,4.11,2.06,4.89h0c1.96.78,4.21-.14,5.02-2.06Z"/>
      <ellipse class="cls-4" cx="152.14" cy="147.14" rx="4.93" ry="4.81" transform="translate(-18.28 21.63) rotate(-7.67)"/>
      <path class="cls-8" d="M63.86,39.09c-3.69.36-5.88-4.02-3.39-6.76L88.64,1.33c1.92-2.11,5.35-1.64,6.63.91l13.53,27.02c1.27,2.55-.41,5.58-3.24,5.85l-41.71,3.98h.01Z"/>
      <path class="cls-1" d="M48.03,61.38l1.67-9.99c.67-4.01-2.12-7.77-6.23-8.4l-10.1-1.53c-4.1-.62-7.98,2.12-8.65,6.14l-1.67,9.99c-.67,4.01,2.12,7.77,6.23,8.4l10.1,1.53c4.1.62,7.98-2.12,8.65-6.14Z"/>
      <path class="cls-4" d="M130.91,5.16l-11.99,1.62c-1.86.25-2.3,2.75-.63,3.62l17.36,9.04c1.66.86,3.46-.9,2.61-2.57l-5.36-10.65c-.37-.73-1.16-1.15-1.98-1.04Z"/>
      <path class="cls-4" d="M5.43,46.18c-.95-.84-2.39-.78-3.26.14l-1.52,1.62c-1.45,1.53-.29,4.04,1.81,3.94l3.18-.15c2.09-.09,3.01-2.69,1.45-4.09l-1.66-1.47h0Z"/>
      <ellipse class="cls-4" cx="64.39" cy="54.93" rx="4.93" ry="4.81" transform="translate(-6.76 9.09) rotate(-7.67)"/>
      <path class="cls-2" d="M100.42,63.18l2.32-5.48c.95-2.23-.14-4.77-2.41-5.68l-5.52-2.2c-2.28-.9-4.89.17-5.83,2.39l-2.32,5.48c-.95,2.23.14,4.77,2.41,5.68l5.52,2.2c2.28.9,4.89-.17,5.83-2.39Z"/>
      <path class="cls-7" d="M40.6,23.31c-.61.03-1.17.33-1.53.81l-5.97,8c-1.29,1.73.66,4.02,2.57,3.01l16-8.46c1.92-1.01,1.13-3.92-1.04-3.82l-10.03.47h0Z"/>
    </g>
    <g id="Layer_9-2" data-name="Layer 9">
      <path class="cls-1" d="M400.16,171.2l10.1-1.53c4.11-.63,6.9-4.38,6.23-8.4l-1.67-9.99c-.67-4.01-4.55-6.76-8.65-6.14l-10.1,1.53c-4.11.63-6.9,4.38-6.23,8.4l1.67,9.99c.67,4.01,4.55,6.76,8.65,6.14Z"/>
      <ellipse class="cls-4" cx="341.53" cy="121.49" rx="9.23" ry="9.47" transform="translate(175.54 443.74) rotate(-82.33)"/>
      <path class="cls-3" d="M422.2,76.03l5.55,19.68c.54,1.9,2.92,2.54,4.33,1.15l14.67-14.41c1.44-1.42.79-3.87-1.17-4.38l-20.22-5.27c-1.95-.51-3.71,1.3-3.16,3.23Z"/>
      <path class="cls-4" d="M403.72,99.21h0c1.97-.78,2.89-2.97,2.08-4.89v-.04c-.83-1.92-3.08-2.85-5.04-2.06h0c-1.97.78-2.89,2.97-2.08,4.89v.04c.83,1.92,3.08,2.85,5.04,2.06Z"/>
      <ellipse class="cls-6" cx="451.61" cy="57.32" rx="7.4" ry="7.59" transform="translate(334.51 497.24) rotate(-82.33)"/>
      <ellipse class="cls-10" cx="420.05" cy="32.76" rx="4.61" ry="4.74" transform="translate(331.51 444.68) rotate(-82.33)"/>
      <ellipse class="cls-1" cx="378.3" cy="99.17" rx="6.63" ry="6.8" transform="translate(229.51 460.85) rotate(-82.33)"/>
      <ellipse class="cls-4" cx="462.76" cy="78.12" rx="2.14" ry="2.2" transform="translate(323.56 526.31) rotate(-82.33)"/>
      <ellipse class="cls-4" cx="364.07" cy="127.92" rx="3.37" ry="3.46" transform="translate(188.69 471.66) rotate(-82.33)"/>
      <path class="cls-4" d="M403.85,71.24l.3.1c4.03,1.34,8.38-.74,9.74-4.66l.13-.38c1.35-3.91-.81-8.18-4.84-9.52l-.3-.1c-4.03-1.34-8.38.74-9.74,4.66l-.13.38c-1.35,3.91.81,8.18,4.84,9.52Z"/>
      <path class="cls-2" d="M337.66,161.67l5.52-2.2c2.28-.9,3.36-3.45,2.41-5.68l-2.32-5.48c-.95-2.23-3.56-3.3-5.83-2.39l-5.52,2.2c-2.28.9-3.36,3.45-2.41,5.68l2.32,5.48c.95,2.23,3.56,3.3,5.83,2.39Z"/>
      <path class="cls-5" d="M456.83,116.05l7.27,1.28c3.03.53,5.91-1.43,6.44-4.38l1.28-7.18c.53-2.95-1.5-5.77-4.54-6.3l-7.27-1.28c-3.03-.53-5.91,1.43-6.44,4.38l-1.28,7.18c-.53,2.95,1.5,5.77,4.54,6.3Z"/>
      <path class="cls-4" d="M365.07,146.86l2.07,11.75c.33,1.85,2.82,2.19,3.64.51l8.5-17.63c.82-1.69-1.03-3.44-2.67-2.52l-10.58,5.87c-.72.4-1.1,1.21-.96,2.02h0Z"/>
      <path class="cls-4" d="M314.08,173.31l2.94,4.85c.48.8,1.63.79,2.1-.02l2.83-4.85c.47-.82-.12-1.84-1.06-1.84h-5.76c-.95,0-1.54,1.05-1.04,1.86h0Z"/>
      <path class="cls-5" d="M406.78,131.68l20.45.36c2.56.05,3.74-3.17,1.76-4.79l-24.36-19.97c-1.96-1.61-4.86.13-4.36,2.62l3.91,19.61c.25,1.25,1.33,2.15,2.6,2.18h0Z"/>
      <path class="cls-7" d="M463.95,137.26l-16.81-11.45c-1.32-.9-3.11,0-3.17,1.6l-.84,21.37c-.06,1.58,1.64,2.62,3.02,1.85l17.64-9.93c1.31-.74,1.39-2.6.15-3.44h0Z"/>
      <path class="cls-9" d="M497.26,100.21l25.94-3.94c3.64-.55,6.11-3.88,5.52-7.44l-1.94-11.65c-.59-3.56-4.03-5.99-7.67-5.44l-25.94,3.94c-3.64.55-6.11,3.88-5.52,7.44l1.94,11.65c.59,3.56,4.03,5.99,7.67,5.44Z"/>
      <path class="cls-4" d="M359.19,166.52l-1.66,1.47c-1.57,1.4-.65,3.99,1.45,4.09l3.18.15c2.1.1,3.26-2.41,1.81-3.94l-1.52-1.62c-.87-.92-2.32-.99-3.26-.14h0Z"/>
      <path class="cls-4" d="M319.29,152.09h0c1.97-.78,2.89-2.97,2.08-4.89v-.04c-.83-1.92-3.08-2.85-5.04-2.06h0c-1.97.78-2.89,2.97-2.08,4.89v.04c.83,1.92,3.08,2.85,5.04,2.06Z"/>
      <ellipse class="cls-4" cx="427.81" cy="147.14" rx="4.81" ry="4.93" transform="translate(224.87 551.47) rotate(-82.33)"/>
      <path class="cls-8" d="M516.1,39.1l-41.71-3.98c-2.83-.27-4.52-3.31-3.24-5.85l13.53-27.02c1.27-2.55,4.71-3.02,6.63-.91l28.18,31c2.49,2.74.3,7.12-3.39,6.76h.01Z"/>
      <path class="cls-1" d="M540.57,67.51l10.1-1.53c4.11-.63,6.9-4.38,6.23-8.4l-1.67-9.99c-.67-4.01-4.55-6.76-8.65-6.14l-10.1,1.53c-4.11.63-6.9,4.38-6.23,8.4l1.67,9.99c.67,4.01,4.55,6.76,8.65,6.14Z"/>
      <path class="cls-4" d="M447.05,6.21l-5.36,10.65c-.84,1.67.95,3.44,2.61,2.57l17.36-9.04c1.67-.87,1.23-3.37-.63-3.62l-11.99-1.62c-.81-.11-1.61.31-1.98,1.04Z"/>
      <path class="cls-4" d="M574.52,46.18l-1.66,1.47c-1.57,1.4-.65,3.99,1.45,4.09l3.18.15c2.1.1,3.26-2.41,1.81-3.94l-1.52-1.62c-.87-.92-2.32-.99-3.26-.14h0Z"/>
      <ellipse class="cls-4" cx="515.56" cy="54.93" rx="4.81" ry="4.93" transform="translate(392.3 558.54) rotate(-82.33)"/>
      <path class="cls-2" d="M485.36,65.58l5.52-2.2c2.28-.9,3.36-3.45,2.41-5.68l-2.32-5.48c-.95-2.23-3.56-3.3-5.83-2.39l-5.52,2.2c-2.28.9-3.36,3.45-2.41,5.68l2.32,5.48c.95,2.23,3.56,3.3,5.83,2.39Z"/>
      <path class="cls-7" d="M539.35,23.31l-10.03-.47c-2.16-.1-2.96,2.8-1.04,3.82l16,8.46c1.91,1.01,3.86-1.27,2.57-3.01l-5.97-8c-.36-.49-.92-.78-1.53-.81h0Z"/>
    </g>
  </g>
</svg>