<?xml version="1.0" encoding="UTF-8"?>
<svg id="Layer_2" data-name="Layer 2" xmlns="http://www.w3.org/2000/svg" viewBox="0 0 1241.69 224.15">
  <defs>
    <style>
      .cls-1 {
        fill: #fff;
        opacity: .2;
        stroke-width: 0px;
      }
    </style>
  </defs>
  <g id="Layer_2-2" data-name="Layer 2">
    <path class="cls-1" d="m0,36.37c-.08,1.99,4.94,6.21,7.63,17.11,3.27,13.26-.1,23.51-2.16,33.76-4.08,20.35-2.7,39.2-1.09,47.21,5.93,29.46,41.85,46,53.14,51.2,60.18,27.71,128.25-23.92,245.49-61.07,66.45-21.05,201.95-63.84,333.98-18.36,52.38,18.04,40.31,28.08,113.88,60.22,54.54,23.83,172.78,75.5,294.94,51.49,85.82-16.86,201.56-76.44,195.65-122.46C1222.83-49.73,1.23,5.8,0,36.37Z"/>
  </g>
</svg>