<?xml version="1.0" encoding="UTF-8"?>
<svg id="Layer_2" data-name="Layer 2" xmlns="http://www.w3.org/2000/svg" viewBox="0 0 288.11 392.11">
  <defs>
    <style>
      .cls-1 {
        fill: #d10089;
        opacity: .17;
      }

      .cls-1, .cls-2, .cls-3, .cls-4, .cls-5, .cls-6, .cls-7, .cls-8, .cls-9 {
        stroke-width: 0px;
      }

      .cls-2 {
        opacity: .2;
      }

      .cls-2, .cls-4, .cls-5, .cls-6, .cls-8 {
        fill: #d13389;
      }

      .cls-10 {
        stroke: #fff;
        stroke-miterlimit: 10;
      }

      .cls-10, .cls-3, .cls-7, .cls-9 {
        fill: #d7d1e7;
      }

      .cls-5, .cls-7 {
        opacity: .5;
      }

      .cls-6 {
        opacity: .4;
      }

      .cls-8, .cls-9 {
        opacity: .3;
      }
    </style>
  </defs>
  <g id="Layer_9" data-name="Layer 9">
    <path class="cls-7" d="M137.64,315.61l12.67-10.21c5.16-4.16,5.99-11.57,1.85-16.56l-10.31-12.42c-4.14-4.99-11.68-5.66-16.83-1.51l-12.67,10.21c-5.16,4.16-5.99,11.57-1.85,16.56l10.31,12.42c4.14,4.99,11.68,5.66,16.83,1.51Z"/>
    <ellipse class="cls-4" cx="17.05" cy="294.18" rx="15.09" ry="14.7" transform="translate(-111.51 29.03) rotate(-22.55)"/>
    <path class="cls-9" d="M91.66,166.9l23.42,22.64c2.27,2.19,6.06,1.15,6.89-1.89l8.64-31.6c.85-3.11-2.02-5.96-5.12-5.09l-32.06,8.96c-3.09.86-4.07,4.76-1.77,6.98Z"/>
    <path class="cls-4" d="M84.81,213.63h0c2.08-2.65,1.6-6.41-1.06-8.4l-.05-.04c-2.66-1.99-6.5-1.46-8.57,1.19h0c-2.08,2.65-1.6,6.41,1.06,8.4l.05.04c2.66,1.99,6.5,1.46,8.57-1.19Z"/>
    <ellipse class="cls-8" cx="117.15" cy="117.56" rx="12.1" ry="11.79" transform="translate(-36.13 53.92) rotate(-22.55)"/>
    <ellipse class="cls-10" cx="54.01" cy="109.06" rx="7.55" ry="7.35" transform="translate(-37.7 29.05) rotate(-22.55)"/>
    <ellipse class="cls-7" cx="49.78" cy="233.97" rx="10.83" ry="10.56" transform="translate(-85.92 36.98) rotate(-22.55)"/>
    <ellipse class="cls-4" cx="149.18" cy="137.25" rx="3.51" ry="3.41" transform="translate(-41.23 67.71) rotate(-22.55)"/>
    <ellipse class="cls-4" cx="53.25" cy="284.96" rx="5.52" ry="5.37" transform="translate(-105.21 42.21) rotate(-22.55)"/>
    <path class="cls-4" d="M62.55,175.02l.5-.1c6.62-1.38,10.95-7.74,9.67-14.22l-.12-.63c-1.28-6.47-7.68-10.61-14.3-9.23l-.5.1c-6.62,1.38-10.95,7.74-9.67,14.22l.12.63c1.28,6.47,7.68,10.61,14.3,9.23Z"/>
    <path class="cls-3" d="M43.95,352.61l5.84-7.45c2.41-3.07,1.86-7.44-1.23-9.75l-7.59-5.68c-3.09-2.31-7.54-1.69-9.95,1.38l-5.84,7.45c-2.41,3.07-1.86,7.44,1.23,9.75l7.59,5.68c3.09,2.31,7.54,1.69,9.95-1.38Z"/>
    <path class="cls-6" d="M171.44,194.23l11.04-4.07c4.6-1.7,6.99-6.71,5.35-11.19l-4-10.91c-1.64-4.48-6.7-6.74-11.3-5.04l-11.04,4.07c-4.6,1.7-6.99,6.71-5.35,11.19l4,10.91c1.64,4.48,6.7,6.74,11.3,5.04Z"/>
    <path class="cls-4" d="M69.81,310.23l12.27,14.51c1.93,2.28,5.64.75,5.41-2.22l-2.43-31.09c-.23-2.99-4.17-3.91-5.7-1.33l-9.85,16.57c-.67,1.13-.55,2.55.3,3.55Z"/>
    <path class="cls-4" d="M20.82,387.55l7.94,4.32c1.3.71,2.88-.23,2.88-1.71v-8.95c-.01-1.5-1.64-2.44-2.94-1.68l-7.93,4.63c-1.31.76-1.28,2.67.05,3.39Z"/>
    <path class="cls-6" d="M115.06,255.89l28.45-15.9c3.56-1.99,2.61-7.36-1.42-8.01l-49.56-7.96c-3.99-.64-6.59,4.08-3.91,7.1l21.1,23.86c1.34,1.52,3.56,1.89,5.33.91Z"/>
    <path class="cls-1" d="M198.24,217.72l-32.32-2.28c-2.53-.18-4.27,2.5-3.08,4.74l15.98,30.1c1.18,2.23,4.36,2.3,5.64.12l16.33-27.82c1.21-2.07-.17-4.69-2.56-4.86Z"/>
    <path class="cls-2" d="M214.39,139.99l32.55-26.22c4.57-3.68,5.3-10.25,1.64-14.67l-12.01-14.48c-3.67-4.42-10.35-5.02-14.92-1.34l-32.55,26.22c-4.57,3.68-5.3,10.25-1.64,14.67l12.01,14.48c3.67,4.42,10.35,5.02,14.92,1.34Z"/>
    <path class="cls-4" d="M77.48,342.01l-1.1,3.36c-1.04,3.18,2.31,6.02,5.27,4.47l4.5-2.35c2.97-1.55,2.55-5.93-.67-6.88l-3.4-1.01c-1.94-.57-3.98.5-4.61,2.42Z"/>
    <path class="cls-4" d="M10.98,354.15h0c2.08-2.65,1.6-6.41-1.06-8.4l-.05-.04c-2.66-1.99-6.5-1.46-8.57,1.19h0c-2.08,2.65-1.6,6.41,1.06,8.4l.05.04c2.66,1.99,6.5,1.46,8.57-1.19Z"/>
    <ellipse class="cls-4" cx="156.41" cy="260.3" rx="7.86" ry="7.66" transform="translate(-87.87 79.89) rotate(-22.55)"/>
    <path class="cls-5" d="M191.32,40.75l-60.61,27.97c-4.12,1.9-8.87-.93-9.16-5.46l-3.05-48.05c-.29-4.53,4.06-7.94,8.39-6.57l63.65,20.08c5.63,1.78,6.13,9.56.76,12.03Z"/>
    <path class="cls-7" d="M247.79,60.25l12.67-10.21c5.16-4.16,5.99-11.57,1.85-16.56l-10.31-12.42c-4.14-4.99-11.68-5.66-16.83-1.51l-12.67,10.21c-5.16,4.16-5.99,11.57-1.85,16.56l10.31,12.42c4.14,4.99,11.68,5.66,16.83,1.51Z"/>
    <path class="cls-4" d="M69.88,50.84l1.16,18.97c.18,2.98,4.07,3.97,5.66,1.45l16.65-26.36c1.6-2.53-1.01-5.62-3.77-4.47l-17.81,7.39c-1.21.5-1.97,1.72-1.89,3.02Z"/>
    <path class="cls-4" d="M277.43,3.65l-1.1,3.36c-1.04,3.18,2.31,6.02,5.27,4.47l4.5-2.35c2.97-1.55,2.55-5.93-.67-6.88l-3.4-1.01c-1.94-.57-3.98.5-4.61,2.42Z"/>
    <ellipse class="cls-4" cx="203.27" cy="62.98" rx="7.86" ry="7.66" transform="translate(-8.61 82.77) rotate(-22.55)"/>
    <path class="cls-3" d="M170.23,101.86l5.84-7.45c2.41-3.07,1.86-7.44-1.23-9.75l-7.59-5.68c-3.09-2.31-7.54-1.69-9.95,1.38l-5.84,7.45c-2.41,3.07-1.86,7.44,1.23,9.75l7.59,5.68c3.09,2.31,7.54,1.69,9.95-1.38Z"/>
    <path class="cls-1" d="M210.66.37l-14.19,7.4c-3.06,1.6-1.82,6.23,1.63,6.09l28.82-1.18c3.44-.14,4.3-4.85,1.13-6.2l-14.63-6.22c-.89-.38-1.9-.34-2.76.11Z"/>
  </g>
</svg>