<?xml version="1.0" encoding="UTF-8"?>
<svg id="Layer_2" data-name="Layer 2" xmlns="http://www.w3.org/2000/svg" viewBox="0 0 684.32 206.91">
  <defs>
    <style>
      .cls-1, .cls-2, .cls-3, .cls-4, .cls-5, .cls-6, .cls-7, .cls-8, .cls-9 {
        stroke-width: 0px;
      }

      .cls-1, .cls-2, .cls-3, .cls-10 {
        fill: #d7d1e7;
      }

      .cls-1, .cls-3, .cls-5, .cls-6, .cls-7, .cls-8, .cls-9 {
        isolation: isolate;
      }

      .cls-1, .cls-8 {
        opacity: .5;
      }

      .cls-3, .cls-6 {
        opacity: .3;
      }

      .cls-4, .cls-5, .cls-6, .cls-8, .cls-9 {
        fill: #d13389;
      }

      .cls-5 {
        opacity: .4;
      }

      .cls-7 {
        fill: #d10089;
        opacity: .17;
      }

      .cls-9 {
        opacity: .2;
      }

      .cls-10 {
        stroke: #fff;
        stroke-miterlimit: 10;
        stroke-width: 1px;
      }
    </style>
  </defs>
  <g id="Layer_2-2" data-name="Layer 2">
    <g id="Layer_9" data-name="Layer 9">
      <path class="cls-1" d="M164.23,180.03l3.46-9.52c1.39-3.82-.67-8.03-4.6-9.39l-9.65-3.35c-3.92-1.36-8.23.63-9.62,4.45l-3.46,9.52c-1.39,3.82.67,8.03,4.6,9.39l9.65,3.35c3.92,1.36,8.23-.63,9.62-4.45Z"/>
      <ellipse class="cls-4" cx="221.32" cy="146.3" rx="9.23" ry="9.47" transform="translate(64.22 360.09) rotate(-87.16)"/>
      <path class="cls-3" d="M147.78,83.14l-20.84,1.49c-2.02.14-3.11,2.43-1.95,4.09l11.79,16.84c1.13,1.62,3.59,1.43,4.47-.34l9.05-18.33c.89-1.8-.52-3.9-2.52-3.75Z"/>
      <path class="cls-4" d="M169.55,111.94l.02-.03c1.15-1.74.64-4.06-1.15-5.19h0c-1.78-1.13-4.17-.63-5.32,1.11l-.02.03c-1.15,1.74-.64,4.06,1.15,5.19h0c1.78,1.13,4.17.63,5.32-1.11Z"/>
      <ellipse class="cls-6" cx="124.8" cy="63.13" rx="7.4" ry="7.59" transform="translate(55.56 184.64) rotate(-87.16)"/>
      <ellipse class="cls-10" cx="160.31" cy="44.74" rx="4.61" ry="4.74" transform="translate(107.67 202.63) rotate(-87.16)"/>
      <ellipse class="cls-1" cx="189.24" cy="117.65" rx="6.63" ry="6.8" transform="translate(62.34 300.82) rotate(-87.16)"/>
      <ellipse class="cls-4" cx="110.04" cy="81.54" rx="2.14" ry="2.2" transform="translate(23.14 187.4) rotate(-87.16)"/>
      <ellipse class="cls-4" cx="197.98" cy="148.52" rx="3.37" ry="3.46" transform="translate(39.83 338.89) rotate(-87.16)"/>
      <path class="cls-4" d="M175.72,77.04l-.06-.4c-.62-4.1-4.52-6.94-8.72-6.36l-.32.05c-4.2.59-7.11,4.39-6.5,8.48l.06.4c.62,4.1,4.52,6.94,8.72,6.36l.32-.05c4.2-.59,7.11-4.39,6.5-8.48Z"/>
      <path class="cls-2" d="M223.96,185.23l3.28-4.96c1.34-2.02.74-4.72-1.34-6.02l-5.03-3.17c-2.07-1.3-4.83-.73-6.17,1.29l-3.28,4.96c-1.34,2.02-.74,4.72,1.34,6.02l5.03,3.17c2.07,1.3,4.83.73,6.17-1.29Z"/>
      <path class="cls-5" d="M114.56,114.55l.05-7.29c.02-2.99-2.45-5.45-5.53-5.48l-7.38-.07c-3.08-.03-5.59,2.38-5.61,5.37l-.05,7.29c-.02,2.99,2.45,5.45,5.53,5.48l7.38.07c3.08.03,5.59-2.38,5.61-5.37Z"/>
      <path class="cls-4" d="M193.54,166.95c.29-.77.06-1.64-.57-2.16l-9.33-7.71c-1.45-1.2-3.58.18-3.09,1.99l5.14,18.88c.49,1.8,3.01,1.92,3.67.17l4.18-11.17h0Z"/>
      <path class="cls-4" d="M238.85,202.27c.63-.71.25-1.84-.69-2.01l-5.67-1.06c-.93-.17-1.69.73-1.38,1.61l1.89,5.29c.31.87,1.45,1.1,2.06.4l3.78-4.23h0Z"/>
      <path class="cls-5" d="M155.31,144.42c1.25.2,2.49-.48,2.96-1.67l7.42-18.56c.94-2.35-1.59-4.59-3.81-3.37l-27.6,15.19c-2.24,1.24-1.67,4.61.86,5.03l20.18,3.37h0Z"/>
      <path class="cls-7" d="M98.09,139.47c-1.38.61-1.64,2.45-.48,3.41l15.54,12.98c1.22,1.02,3.08.3,3.31-1.26l3.07-21.17c.23-1.58-1.37-2.79-2.82-2.15l-18.61,8.19h0Z"/>
      <path class="cls-9" d="M80.62,93.01l4.03-11.1c1.23-3.39-.59-7.11-4.07-8.32l-24.78-8.6c-3.48-1.21-7.3.56-8.53,3.95l-4.03,11.1c-1.23,3.39.59,7.11,4.07,8.32l24.78,8.6c3.48,1.21,7.3-.56,8.53-3.95Z"/>
      <path class="cls-4" d="M195.75,187.36c-.78-1-2.21-1.2-3.24-.45l-1.8,1.32c-1.7,1.24-1.02,3.92,1.06,4.21l3.16.44c2.08.29,3.46-2.1,2.17-3.76l-1.36-1.75h0Z"/>
      <path class="cls-4" d="M242.92,179.34l.02-.03c1.15-1.74.64-4.06-1.15-5.19h0c-1.78-1.13-4.17-.63-5.32,1.11l-.02.03c-1.15,1.74-.64,4.06,1.15,5.19h0c1.78,1.13,4.17.63,5.32-1.11Z"/>
      <ellipse class="cls-4" cx="131.81" cy="155.78" rx="4.81" ry="4.93" transform="translate(-30.31 279.7) rotate(-87.16)"/>
      <path class="cls-8" d="M64.73,33.43c-3.7-.32-5.05-5.03-2.1-7.27L95.99.83c2.27-1.73,5.56-.63,6.35,2.11l8.37,29.04c.79,2.74-1.42,5.42-4.26,5.16l-41.73-3.7h.01Z"/>
      <path class="cls-1" d="M45.1,52.46l3.46-9.52c1.39-3.82-.67-8.03-4.6-9.39l-9.65-3.35c-3.92-1.36-8.23.63-9.62,4.45l-3.46,9.52c-1.39,3.82.67,8.03,4.6,9.39l9.65,3.35c3.92,1.36,8.23-.63,9.62-4.45Z"/>
      <path class="cls-4" d="M136.85,12.31l-12.09-.6c-1.87-.1-2.76,2.28-1.28,3.44l15.42,12.05c1.47,1.15,3.56-.26,3.04-2.05l-3.33-11.45c-.23-.79-.94-1.35-1.76-1.38Z"/>
      <path class="cls-4" d="M5.99,29.74c-.78-1-2.21-1.2-3.24-.45l-1.8,1.32c-1.7,1.24-1.02,3.92,1.06,4.21l3.16.44c2.08.29,3.46-2.1,2.17-3.76l-1.36-1.75h0Z"/>
      <ellipse class="cls-4" cx="62.36" cy="49.1" rx="4.81" ry="4.93" transform="translate(10.22 108.95) rotate(-87.16)"/>
      <path class="cls-2" d="M96.28,63.79l3.28-4.96c1.34-2.02.74-4.72-1.34-6.02l-5.03-3.17c-2.07-1.3-4.83-.73-6.17,1.29l-3.28,4.96c-1.34,2.02-.74,4.72,1.34,6.02l5.03,3.17c2.07,1.3,4.83.73,6.17-1.29Z"/>
      <path class="cls-7" d="M44.74,13.67c-.6-.08-1.21.11-1.65.52l-7.33,6.77c-1.59,1.47-.08,4.07,1.98,3.42l17.28-5.4c2.07-.65,1.82-3.65-.33-3.94l-9.95-1.37h0Z"/>
    </g>
    <g id="Layer_9-2" data-name="Layer 9">
      <path class="cls-1" d="M528.92,184.9l9.66-3.3c3.94-1.35,6.02-5.54,4.65-9.37l-3.41-9.54c-1.37-3.83-5.67-5.85-9.6-4.5l-9.66,3.3c-3.94,1.35-6.02,5.54-4.65,9.37l3.41,9.54c1.37,3.83,5.67,5.85,9.6,4.5Z"/>
      <ellipse class="cls-4" cx="462.41" cy="146.37" rx="9.47" ry="9.23" transform="translate(-6.04 20.66) rotate(-2.54)"/>
      <path class="cls-3" d="M533.74,87.33l8.95,18.38c.87,1.78,3.33,1.98,4.47.36l11.88-16.78c1.17-1.65.09-3.95-1.93-4.1l-20.83-1.6c-2.01-.16-3.42,1.93-2.54,3.74Z"/>
      <path class="cls-4" d="M519.66,113.42h0c1.8-1.12,2.32-3.44,1.18-5.18l-.02-.03c-1.14-1.74-3.52-2.26-5.31-1.14h0c-1.8,1.12-2.32,3.44-1.18,5.18l.02.03c1.14,1.74,3.52,2.26,5.31,1.14Z"/>
      <ellipse class="cls-6" cx="559.36" cy="63.71" rx="7.59" ry="7.4" transform="translate(-2.28 24.88) rotate(-2.54)"/>
      <ellipse class="cls-10" cx="523.95" cy="45.13" rx="4.74" ry="4.61" transform="translate(-1.49 23.29) rotate(-2.54)"/>
      <ellipse class="cls-1" cx="494.64" cy="117.89" rx="6.8" ry="6.63" transform="translate(-4.74 22.06) rotate(-2.54)"/>
      <ellipse class="cls-4" cx="574.02" cy="82.2" rx="2.2" ry="2.14" transform="translate(-3.08 25.55) rotate(-2.54)"/>
      <ellipse class="cls-4" cx="485.73" cy="148.71" rx="3.46" ry="3.37" transform="translate(-6.12 21.7) rotate(-2.54)"/>
      <path class="cls-4" d="M514.83,85.87l.32.05c4.2.61,8.12-2.21,8.76-6.31l.06-.4c.63-4.09-2.25-7.91-6.45-8.51l-.32-.05c-4.2-.61-8.12,2.21-8.76,6.31l-.06.4c-.63,4.09,2.25,7.91,6.45,8.51Z"/>
      <path class="cls-2" d="M465.72,186.61l5.04-3.14c2.08-1.29,2.69-3.99,1.37-6.01l-3.26-4.98c-1.33-2.03-4.08-2.62-6.16-1.32l-5.04,3.14c-2.08,1.29-2.69,3.99-1.37,6.01l3.26,4.98c1.33,2.03,4.08,2.62,6.16,1.32Z"/>
      <path class="cls-5" d="M574.92,120.58l7.38-.03c3.08-.01,5.56-2.46,5.56-5.45l-.02-7.29c0-2.99-2.5-5.41-5.58-5.4l-7.38.03c-3.08.01-5.56,2.46-5.56,5.45l.02,7.29c0,2.99,2.5,5.41,5.58,5.4Z"/>
      <path class="cls-4" d="M490.07,167.17l4.12,11.19c.65,1.76,3.17,1.65,3.67-.15l5.24-18.86c.51-1.81-1.62-3.2-3.08-2.01l-9.37,7.66c-.64.52-.87,1.39-.59,2.16h0Z"/>
      <path class="cls-4" d="M444.58,202.25l3.75,4.25c.61.7,1.75.48,2.07-.39l1.92-5.28c.32-.89-.44-1.79-1.37-1.62l-5.67,1.03c-.94.17-1.33,1.3-.7,2.01h0Z"/>
      <path class="cls-5" d="M528.43,144.83l20.19-3.27c2.53-.41,3.12-3.78.88-5.03l-27.52-15.34c-2.22-1.23-4.76.99-3.83,3.35l7.32,18.6c.46,1.18,1.69,1.88,2.95,1.68h0Z"/>
      <path class="cls-7" d="M585.68,140.19l-18.57-8.28c-1.45-.65-3.06.56-2.83,2.13l2.96,21.18c.22,1.57,2.08,2.29,3.3,1.28l15.6-12.9c1.16-.96.91-2.8-.47-3.42h0Z"/>
      <path class="cls-9" d="M611.9,97.81l24.83-8.47c3.49-1.19,5.33-4.91,4.12-8.3l-3.97-11.12c-1.22-3.39-5.03-5.18-8.51-3.99l-24.83,8.47c-3.49,1.19-5.33,4.91-4.12,8.3l3.97,11.12c1.22,3.39,5.03,5.18,8.51,3.99Z"/>
      <path class="cls-4" d="M487.77,187.55l-1.37,1.75c-1.3,1.65.07,4.05,2.15,3.77l3.16-.42c2.08-.28,2.78-2.95,1.08-4.2l-1.79-1.33c-1.02-.75-2.45-.56-3.24.44h0Z"/>
      <path class="cls-4" d="M445.95,180.43h0c1.8-1.12,2.32-3.44,1.18-5.18l-.02-.03c-1.14-1.74-3.52-2.26-5.31-1.14h0c-1.8,1.12-2.32,3.44-1.18,5.18l.02.03c1.14,1.74,3.52,2.26,5.31,1.14Z"/>
      <ellipse class="cls-4" cx="551.86" cy="156.32" rx="4.93" ry="4.81" transform="translate(-6.39 24.64) rotate(-2.54)"/>
      <path class="cls-8" d="M619.6,34.33l-41.75,3.48c-2.84.24-5.03-2.45-4.23-5.19l8.52-28.99c.8-2.73,4.1-3.81,6.36-2.07l33.23,25.51c2.94,2.26,1.56,6.95-2.14,7.26h.01Z"/>
      <path class="cls-1" d="M648.72,57.96l9.66-3.3c3.94-1.35,6.02-5.54,4.65-9.37l-3.41-9.54c-1.37-3.83-5.67-5.85-9.6-4.5l-9.66,3.3c-3.94,1.35-6.02,5.54-4.65,9.37l3.41,9.54c1.37,3.83,5.67,5.85,9.6,4.5Z"/>
      <path class="cls-4" d="M545.81,14.2l-3.39,11.44c-.53,1.8,1.55,3.22,3.03,2.07l15.48-11.97c1.49-1.15.61-3.53-1.26-3.45l-12.09.53c-.82.04-1.53.59-1.76,1.38Z"/>
      <path class="cls-4" d="M678.35,30.94l-1.37,1.75c-1.3,1.65.07,4.05,2.15,3.77l3.16-.42c2.08-.28,2.78-2.95,1.08-4.2l-1.79-1.33c-1.02-.75-2.45-.56-3.24.44h0Z"/>
      <ellipse class="cls-4" cx="621.87" cy="50.01" rx="4.93" ry="4.81" transform="translate(-1.61 27.64) rotate(-2.54)"/>
      <path class="cls-2" d="M594.04,65.84l5.04-3.14c2.08-1.29,2.69-3.99,1.37-6.01l-3.26-4.98c-1.33-2.03-4.08-2.62-6.16-1.32l-5.04,3.14c-2.08,1.29-2.69,3.99-1.37,6.01l3.26,4.98c1.33,2.03,4.08,2.62,6.16,1.32Z"/>
      <path class="cls-7" d="M639.68,14.67l-9.96,1.32c-2.15.29-2.41,3.28-.35,3.94l17.25,5.49c2.06.66,3.58-1.94,2-3.41l-7.29-6.81c-.44-.42-1.05-.61-1.65-.53h0Z"/>
    </g>
  </g>
</svg>