<?xml version="1.0" encoding="UTF-8"?>
<svg id="Layer_2" data-name="Layer 2" xmlns="http://www.w3.org/2000/svg" viewBox="0 0 1290.93 343.12">
  <defs>
    <style>
      .cls-1 {
        fill: #fff;
        stroke: #fff;
        stroke-miterlimit: 10;
      }
    </style>
  </defs>
  <g id="Layer_1-2" data-name="Layer 1">
    <g>
      <path class="cls-1" d="M.62,342.62c-.28-10.95,0,0,0-21,16.84-13.6,44.76-33.05,80.56-49.15,132.28-59.51,243.2-10.19,408.86,3.06,47.79,3.82,160.39,11.99,297.08-18.38,171.37-38.08,370.51-137.01,443.16-212.94,19.28-20.15,24.68-29.72,45.94-41,3.12-1.66,8.15-3.97,11.35-1.9,5.38,3.49,1.53,19.93,1.53,19.91,0,0,.75,94.14-.69,185.58-.82,51.81-6.98,116.59-7.79,135.81"/>
      <line class="cls-1" x1=".62" y1="342.62" x2="1280.62" y2="342.62"/>
    </g>
  </g>
</svg>