<?xml version="1.0" encoding="UTF-8"?>
<svg id="Layer_2" data-name="Layer 2" xmlns="http://www.w3.org/2000/svg" viewBox="0 0 710.38 208.22">
  <defs>
    <style>
      .cls-1, .cls-2, .cls-3, .cls-4, .cls-5, .cls-6, .cls-7, .cls-8, .cls-9 {
        stroke-width: 0px;
      }

      .cls-1, .cls-2, .cls-3, .cls-10 {
        fill: #d7d1e7;
      }

      .cls-1, .cls-3, .cls-5, .cls-6, .cls-7, .cls-8, .cls-9 {
        isolation: isolate;
      }

      .cls-1, .cls-8 {
        opacity: .5;
      }

      .cls-3, .cls-6 {
        opacity: .3;
      }

      .cls-4, .cls-5, .cls-6, .cls-8, .cls-9 {
        fill: #d13389;
      }

      .cls-5 {
        opacity: .4;
      }

      .cls-7 {
        fill: #d10089;
        opacity: .17;
      }

      .cls-9 {
        opacity: .2;
      }

      .cls-10 {
        stroke: #fff;
        stroke-miterlimit: 10;
        stroke-width: 1px;
      }
    </style>
  </defs>
  <g id="Layer_2-2" data-name="Layer 2">
    <g id="Layer_9" data-name="Layer 9">
      <path class="cls-1" d="M188.44,179.8l1.67-9.99c.67-4.01-2.12-7.77-6.23-8.4l-10.1-1.53c-4.1-.62-7.98,2.12-8.65,6.14l-1.67,9.99c-.67,4.01,2.12,7.77,6.23,8.4l10.1,1.53c4.1.62,7.98-2.12,8.65-6.14Z"/>
      <ellipse class="cls-4" cx="238.42" cy="136.22" rx="9.47" ry="9.23" transform="translate(-16.05 33.05) rotate(-7.67)"/>
      <path class="cls-3" d="M154.58,87.54l-20.22,5.27c-1.96.51-2.61,2.96-1.17,4.38l14.67,14.41c1.41,1.39,3.79.75,4.33-1.15l5.55-19.68c.55-1.93-1.22-3.74-3.16-3.23Z"/>
      <path class="cls-4" d="M181.25,111.88v-.04c.83-1.92-.1-4.11-2.06-4.89h0c-1.96-.78-4.21.14-5.02,2.06v.04c-.83,1.92.1,4.11,2.06,4.89h0c1.96.78,4.21-.14,5.02-2.06Z"/>
      <ellipse class="cls-6" cx="128.34" cy="72.06" rx="7.59" ry="7.4" transform="translate(-8.47 17.78) rotate(-7.67)"/>
      <ellipse class="cls-10" cx="159.9" cy="47.5" rx="4.74" ry="4.61" transform="translate(-4.91 21.77) rotate(-7.67)"/>
      <ellipse class="cls-1" cx="201.65" cy="113.91" rx="6.8" ry="6.63" transform="translate(-13.4 27.94) rotate(-7.67)"/>
      <ellipse class="cls-4" cx="117.19" cy="92.86" rx="2.2" ry="2.14" transform="translate(-11.35 16.47) rotate(-7.67)"/>
      <ellipse class="cls-4" cx="215.88" cy="142.66" rx="3.46" ry="3.37" transform="translate(-17.11 30.09) rotate(-7.67)"/>
      <path class="cls-4" d="M180.94,76.45l-.13-.38c-1.35-3.92-5.71-6-9.74-4.66l-.3.1c-4.03,1.34-6.19,5.61-4.84,9.52l.13.38c1.35,3.92,5.71,6,9.74,4.66l.3-.1c4.03-1.34,6.19-5.61,4.84-9.52Z"/>
      <path class="cls-2" d="M248.12,174.01l2.32-5.48c.95-2.23-.14-4.77-2.41-5.68l-5.52-2.2c-2.28-.9-4.89.17-5.83,2.39l-2.32,5.48c-.95,2.23.14,4.77,2.41,5.68l5.52,2.2c2.28.9,4.89-.17,5.83-2.39Z"/>
      <path class="cls-5" d="M127.65,124.49l-1.28-7.18c-.53-2.95-3.4-4.91-6.44-4.38l-7.27,1.28c-3.03.53-5.06,3.36-4.54,6.3l1.28,7.18c.53,2.95,3.4,4.91,6.44,4.38l7.27-1.28c3.03-.53,5.06-3.36,4.54-6.3Z"/>
      <path class="cls-4" d="M214.87,161.59c.15-.81-.24-1.62-.96-2.02l-10.58-5.87c-1.64-.92-3.49.83-2.67,2.52l8.5,17.63c.81,1.68,3.31,1.34,3.64-.51l2.07-11.75h0Z"/>
      <path class="cls-4" d="M265.87,188.05c.49-.81-.09-1.86-1.04-1.85h-5.76c-.95,0-1.53,1.02-1.06,1.83l2.83,4.85c.47.8,1.62.81,2.1.02l2.94-4.85h0Z"/>
      <path class="cls-5" d="M173.17,146.41c1.27-.03,2.36-.93,2.6-2.18l3.91-19.61c.5-2.48-2.4-4.22-4.36-2.62l-24.36,19.97c-1.98,1.63-.8,4.84,1.76,4.79l20.45-.36h0Z"/>
      <path class="cls-7" d="M116,151.99c-1.24.85-1.16,2.7.15,3.44l17.64,9.93c1.38.78,3.09-.26,3.02-1.85l-.84-21.37c-.06-1.59-1.85-2.49-3.17-1.6l-16.81,11.45h0Z"/>
      <path class="cls-9" d="M90.35,109.5l1.94-11.65c.59-3.55-1.88-6.89-5.52-7.44l-25.94-3.94c-3.64-.55-7.07,1.88-7.67,5.44l-1.94,11.65c-.59,3.55,1.88,6.89,5.52,7.44l25.94,3.94c3.64.55,7.07-1.88,7.67-5.44Z"/>
      <path class="cls-4" d="M220.76,181.25c-.95-.84-2.39-.78-3.26.14l-1.52,1.62c-1.45,1.53-.29,4.04,1.81,3.94l3.18-.15c2.09-.09,3.01-2.69,1.45-4.09l-1.66-1.47h0Z"/>
      <path class="cls-4" d="M265.68,164.76v-.04c.83-1.92-.1-4.11-2.06-4.89h0c-1.96-.78-4.21.14-5.02,2.06v.04c-.83,1.92.1,4.11,2.06,4.89h0c1.96.78,4.21-.14,5.02-2.06Z"/>
      <ellipse class="cls-4" cx="152.14" cy="161.87" rx="4.93" ry="4.81" transform="translate(-20.25 21.76) rotate(-7.67)"/>
      <path class="cls-8" d="M63.86,53.83c-3.69.36-5.88-4.02-3.39-6.76l28.18-31c1.92-2.11,5.35-1.64,6.63.91l13.53,27.02c1.27,2.55-.41,5.58-3.24,5.85l-41.71,3.98h.01Z"/>
      <path class="cls-1" d="M48.03,76.11l1.67-9.99c.67-4.01-2.12-7.77-6.23-8.4l-10.1-1.53c-4.1-.62-7.98,2.12-8.65,6.14l-1.67,9.99c-.67,4.01,2.12,7.77,6.23,8.4l10.1,1.53c4.1.62,7.98-2.12,8.65-6.14Z"/>
      <path class="cls-4" d="M130.91,19.9l-11.99,1.62c-1.86.25-2.3,2.75-.63,3.62l17.36,9.04c1.66.86,3.46-.9,2.61-2.57l-5.36-10.65c-.37-.73-1.16-1.15-1.98-1.04Z"/>
      <path class="cls-4" d="M5.43,60.92c-.95-.84-2.39-.78-3.26.14l-1.52,1.62c-1.45,1.53-.29,4.04,1.81,3.94l3.18-.15c2.09-.09,3.01-2.69,1.45-4.09l-1.66-1.47h0Z"/>
      <ellipse class="cls-4" cx="64.39" cy="69.67" rx="4.93" ry="4.81" transform="translate(-8.72 9.22) rotate(-7.67)"/>
      <path class="cls-2" d="M100.42,77.92l2.32-5.48c.95-2.23-.14-4.77-2.41-5.68l-5.52-2.2c-2.28-.9-4.89.17-5.83,2.39l-2.32,5.48c-.95,2.23.14,4.77,2.41,5.68l5.52,2.2c2.28.9,4.89-.17,5.83-2.39Z"/>
      <path class="cls-7" d="M40.6,38.04c-.61.03-1.17.33-1.53.81l-5.97,8c-1.29,1.73.66,4.02,2.57,3.01l16-8.46c1.92-1.01,1.13-3.92-1.04-3.82l-10.03.47h0Z"/>
    </g>
    <g id="Layer_9-2" data-name="Layer 9">
      <path class="cls-1" d="M686.94,68.08l-8.15-3.02c-3.27-1.21-6.89.53-8.08,3.9l-2.93,8.26c-1.19,3.36.5,7.07,3.77,8.28l8.15,3.02c3.27,1.21,6.89-.53,8.08-3.9l2.93-8.26c1.19-3.36-.5-7.07-3.77-8.28Z"/>
      <ellipse class="cls-4" cx="658.3" cy="18.91" rx="8.13" ry="7.92" transform="translate(602.71 675.13) rotate(-86.8)"/>
      <path class="cls-3" d="M603.71,81.68l1.17,17.89c.11,1.73,2.07,2.68,3.5,1.69l14.52-10.03c1.4-.96,1.25-3.08-.27-3.84l-15.68-7.86c-1.54-.77-3.35.42-3.23,2.15Z"/>
      <path class="cls-4" d="M628.54,63.15l-.03-.02c-1.49-1-3.48-.57-4.46.96h0c-.98,1.52-.56,3.57.92,4.57l.03.02c1.49,1,3.48.57,4.46-.96h0c.98-1.52.56-3.57-.92-4.57Z"/>
      <ellipse class="cls-6" cx="586.42" cy="101.3" rx="6.52" ry="6.35" transform="translate(452.58 681.15) rotate(-86.8)"/>
      <ellipse class="cls-10" cx="570.83" cy="70.73" rx="4.07" ry="3.96" transform="translate(468.38 636.72) rotate(-86.8)"/>
      <ellipse class="cls-1" cx="633.55" cy="46.29" rx="5.83" ry="5.69" transform="translate(552 676.27) rotate(-86.8)"/>
      <ellipse class="cls-4" cx="602.14" cy="114.06" rx="1.89" ry="1.84" transform="translate(454.68 708.9) rotate(-86.8)"/>
      <ellipse class="cls-4" cx="660.08" cy="38.95" rx="2.97" ry="2.89" transform="translate(584.38 695.83) rotate(-86.8)"/>
      <path class="cls-4" d="M598.63,57.68l-.34.05c-3.52.51-5.98,3.84-5.5,7.45l.04.27c.48,3.61,3.73,6.12,7.24,5.62l.34-.05c3.52-.51,5.98-3.84,5.5-7.45l-.04-.27c-.48-3.61-3.73-6.12-7.24-5.62Z"/>
      <path class="cls-2" d="M691.72,16.85l-4.24-2.84c-1.73-1.16-4.04-.66-5.17,1.12l-2.74,4.3c-1.13,1.77-.65,4.14,1.07,5.3l4.24,2.84c1.73,1.16,4.04.66,5.17-1.12l2.74-4.3c1.13-1.77.65-4.14-1.07-5.3Z"/>
      <path class="cls-5" d="M630.49,110.36l-6.26-.09c-2.57-.03-4.69,2.07-4.73,4.72l-.1,6.34c-.04,2.64,2.01,4.81,4.58,4.84l6.26.09c2.57.03,4.69-2.07,4.73-4.72l.1-6.34c.04-2.64-2.01-4.81-4.58-4.84Z"/>
      <path class="cls-4" d="M675.87,42.86c-.66-.25-1.4-.06-1.86.48l-6.66,7.96c-1.04,1.24.13,3.08,1.69,2.66l16.23-4.31c1.55-.41,1.67-2.57.16-3.15l-9.56-3.65h0Z"/>
      <path class="cls-4" d="M706.42,4.16c-.6-.55-1.58-.22-1.73.58l-.94,4.86c-.15.8.61,1.46,1.38,1.19l4.55-1.6c.75-.26.95-1.23.35-1.77l-3.61-3.26h0Z"/>
      <path class="cls-5" d="M656.34,75.54c.18-1.07-.4-2.14-1.41-2.55l-15.89-6.46c-2.01-.82-3.95,1.34-2.91,3.25l12.89,23.76c1.05,1.93,3.95,1.46,4.32-.71l3-17.29h0Z"/>
      <path class="cls-7" d="M651.79,124.62c.51,1.18,2.09,1.42,2.93.43l11.22-13.26c.88-1.04.28-2.64-1.07-2.84l-18.15-2.75c-1.35-.2-2.4,1.16-1.86,2.41l6.93,16.02h0Z"/>
      <path class="cls-9" d="M611.83,139.36l-9.5-3.52c-2.9-1.07-6.11.47-7.16,3.45l-7.51,21.22c-1.05,2.98.44,6.27,3.34,7.34l9.5,3.52c2.9,1.07,6.11-.47,7.16-3.45l7.51-21.22c1.05-2.98-.44-6.27-3.34-7.34Z"/>
      <path class="cls-4" d="M693.4,41.07c-.86.66-1.04,1.89-.41,2.77l1.12,1.55c1.06,1.47,3.36.9,3.62-.89l.39-2.71c.26-1.78-1.78-2.98-3.21-1.88l-1.51,1.16h0Z"/>
      <path class="cls-4" d="M686.77.56l-.03-.02c-1.49-1-3.48-.57-4.46.96h0c-.98,1.52-.56,3.57.92,4.57l.03.02c1.49,1,3.48.57,4.46-.96h0c.98-1.52.56-3.57-.92-4.57Z"/>
      <ellipse class="cls-4" cx="665.96" cy="95.77" rx="4.23" ry="4.13" transform="translate(533.2 755.35) rotate(-86.8)"/>
      <path class="cls-8" d="M560.62,152.69c-.3,3.17-4.34,4.3-6.25,1.76l-21.56-28.76c-1.47-1.96-.51-4.77,1.84-5.44l24.96-7.03c2.35-.66,4.64,1.25,4.41,3.68l-3.4,35.79h0Z"/>
      <path class="cls-1" d="M576.84,169.63l-8.15-3.02c-3.27-1.21-6.89.53-8.08,3.9l-2.93,8.26c-1.19,3.36.5,7.07,3.77,8.28l8.15,3.02c3.27,1.21,6.89-.53,8.08-3.9l2.93-8.26c1.19-3.36-.5-7.07-3.77-8.28Z"/>
      <path class="cls-4" d="M542.88,90.69l-.58,10.37c-.09,1.61,1.94,2.38,2.94,1.12l10.42-13.17c1-1.26-.2-3.06-1.75-2.62l-9.85,2.8c-.67.19-1.16.8-1.2,1.5Z"/>
      <path class="cls-4" d="M557.15,203.07c-.86.66-1.04,1.89-.41,2.77l1.12,1.55c1.06,1.47,3.36.9,3.62-.89l.39-2.71c.26-1.78-1.78-2.98-3.21-1.88l-1.51,1.16h0Z"/>
      <ellipse class="cls-4" cx="574.06" cy="154.8" rx="4.23" ry="4.13" transform="translate(387.48 719.33) rotate(-86.8)"/>
      <path class="cls-2" d="M586.84,125.77l-4.24-2.84c-1.73-1.16-4.04-.66-5.17,1.12l-2.74,4.3c-1.13,1.77-.65,4.14,1.07,5.3l4.24,2.84c1.73,1.16,4.04.66,5.17-1.12l2.74-4.3c1.13-1.77.65-4.14-1.07-5.3Z"/>
      <path class="cls-7" d="M543.56,169.73c-.08.52.08,1.04.44,1.42l5.77,6.32c1.25,1.37,3.49.09,2.95-1.68l-4.54-14.86c-.54-1.78-3.12-1.58-3.39.26l-1.23,8.53h0Z"/>
    </g>
  </g>
</svg>