<?xml version="1.0" encoding="UTF-8"?>
<svg id="Layer_2" data-name="Layer 2" xmlns="http://www.w3.org/2000/svg" viewBox="0 0 1289.68 1413.87">
  <defs>
    <style>
      .cls-1 {
        fill: #fff;
        stroke: #fff;
        stroke-miterlimit: 10;
      }
    </style>
  </defs>
  <g id="Layer_2-2" data-name="Layer 2">
    <path class="cls-1" d="m.51,321.49c16.84-13.6,43.62-32.91,79.42-49.02,132.28-59.51,243.2-10.19,408.86,3.06,47.79,3.82,160.39,11.99,297.08-18.38,171.37-38.08,370.51-137.01,443.16-212.94,19.28-20.15,24.68-29.72,45.94-41,3.12-1.66,8.15-3.97,11.35-1.9,5.38,3.49,1.53,19.93,1.53,19.91h0s.75,94.14-.69,185.58c-.82,51.81-1.91,87.79-2.71,107.01-4.78,114.21-.11,167.42,2.8,477.35.74,78.52,1.36,173.14.21,292.6-1.41,146.96-2.23,220.62-7.87,229.78-145.33,236.2-1169.26-23.71-1239.32-3.11-2.51.74-26.49,8.51-33.12-.31-2.88-3.83-.95-8.74-.02-18.02,1.7-16.95-1.97-28.02-2.88-34.74-5.56-41.25,5.81-565.27-2.28-885.94-.28-10.95-.74-28.38-1.46-49.95Z"/>
  </g>
</svg>