<?xml version="1.0" encoding="UTF-8"?>
<svg id="header-wave-homepage" data-name="header-wave-homepage" xmlns="http://www.w3.org/2000/svg" viewBox="0 0 1440 320">
    <defs>
        <style>
            .cls-1 {
            fill: transpant;
            stroke-width: 0px;
            }
        </style>
    </defs>
    <g id="header-wave-homepage" data-name="header-wave-homepage">
        <path
            fill="#fff"
            fill-opacity="1"
            d="M0,96L80,133.3C160,171,320,245,480,282.7C640,320,800,320,960,304C1120,288,1280,256,1360,240L1440,224L1440,320L1360,320C1280,320,1120,320,960,320C800,320,640,320,480,320C320,320,160,320,80,320L0,320Z"
        ></path>
        <path
            fill="#fff"
            fill-opacity="0.5"
            d="M0,320L48,272C96,224,192,128,288,122.7C384,117,480,203,576,213.3C672,224,768,160,864,160C960,160,1056,224,1152,229.3C1248,235,1344,181,1392,154.7L1440,128L1440,320L1392,320C1344,320,1248,320,1152,320C1056,320,960,320,864,320C768,320,672,320,576,320C480,320,384,320,288,320C192,320,96,320,48,320L0,320Z"
        ></path>
        <path
            fill="#fff"
            fill-opacity="0.5"
            d="M0,32L48,58.7C96,85,192,139,288,176C384,213,480,235,576,224C672,213,768,171,864,165.3C960,160,1056,192,1152,202.7C1248,213,1344,203,1392,197.3L1440,192L1440,320L1392,320C1344,320,1248,320,1152,320C1056,320,960,320,864,320C768,320,672,320,576,320C480,320,384,320,288,320C192,320,96,320,48,320L0,320Z"
        ></path>
    </g>
</svg>