<?xml version="1.0" encoding="UTF-8"?>
<svg id="Layer_2" data-name="Layer 2" xmlns="http://www.w3.org/2000/svg" viewBox="0 0 404.38 241.01">
  <defs>
    <style>
      .cls-1 {
        fill: #d13389;
        opacity: .7;
      }

      .cls-1, .cls-2 {
        stroke-width: 0px;
      }

      .cls-2 {
        fill: #eff3e8;
      }
    </style>
  </defs>
  <g id="Layer_1-2" data-name="Layer 1">
    <g>
      <path class="cls-1" d="M5.42,52.89C7.26,20.81,35.63-3.22,67.56.35c.25.03.5.06.75.08,49.23,5.63,59.19,18.53,96.15,23.84,50.5,7.25,55.03-13.51,124.96-12.77,36.41.38,77.5.82,100.12,24.53,18.28,19.16,14.83,47.71,14.09,57.23-2.29,29.41-17.92,48.79-23.4,55.4-20.3,24.46-47.99,34.27-52.86,35.93-11.75,4-18.98,4.25-30.56,11.24-14.99,9.04-22.51,20.48-25.67,24.5-29.01,36.84-135.55,13.93-151.33,10.54-22.26-4.79-53.57-13.68-89.01-31.45C10.86,189.41-1.18,168.44.09,146.15L5.42,52.89Z"/>
      <g>
        <path class="cls-2" d="M97.7,110.26l-.64,11.19-3.48-.2.64-11.19,3.48.2Z"/>
        <path class="cls-2" d="M103.08,114.51h.06c.27-.29.62-.54,1.08-.72.56-.23,1.09-.26,1.58-.23.72.04,1.56.2,2.19.88.69.74.74,1.65.67,2.78l-.28,4.87-3.36-.19.25-4.35c.04-.75-.11-1.08-.19-1.21-.16-.3-.41-.44-.74-.46-.29-.02-.65.06-.92.41-.35.43-.38,1.07-.39,1.16l-.25,4.31-3.36-.19.46-8.12,3.21.18-.05.86Z"/>
        <path class="cls-2" d="M121.95,121.99c-1.18,1.02-2.67,1.02-3.74.96-1.15-.07-2.41-.25-3.33-1.2-.56-.56-1.11-1.57-1.02-3.23s.79-2.58,1.4-3.16c1.17-1.07,2.53-1.15,3.64-1.09.99.06,2.41.27,3.43,1.37.62.66,1.12,1.7,1.03,3.23s-.79,2.58-1.41,3.13ZM117.94,116.65c-.2.2-.55.66-.62,1.89-.04.67.06,1.54.39,1.95.21.27.48.35.75.36.3.02.58-.05.82-.27.56-.53.63-1.74.64-1.89.03-.56,0-1.47-.4-1.96-.21-.25-.45-.33-.73-.35-.34-.02-.6.05-.83.27Z"/>
        <path class="cls-2" d="M131.49,117.68c-.27-.06-.62-.12-.87-.13-.97-.06-1.51.31-1.73.51-.59.54-.67,1.39-.72,2.16l-.17,3-3.36-.19.46-8.12,3.21.18-.07,1.15c.38-.52.83-.8,1.16-.96.56-.26,1.15-.29,1.68-.26.19.01.35.04.54.08l-.15,2.57Z"/>
        <path class="cls-2" d="M138.27,123.8l.04-.78h-.06c-.84.89-1.93.96-2.62.92-.78-.04-1.8-.25-2.59-1.17-.56-.66-1.03-1.71-.94-3.2.08-1.41.62-2.66,1.38-3.38.8-.76,1.72-.99,2.78-.93,1.39.08,1.97.67,2.28,1.11l.21-3.75,3.36.19-.64,11.19-3.2-.18ZM138.08,118.05c-.18-.22-.49-.44-.98-.47-.32-.02-.65.06-.93.32-.49.45-.59,1.31-.61,1.76-.06.97.2,1.52.47,1.82.2.2.47.4.89.42.38.02.71-.09.97-.34.44-.46.55-1.2.59-1.83.03-.56,0-1.2-.39-1.67Z"/>
        <path class="cls-2" d="M152.38,122.26c-.26.67-.74,1.43-1.73,1.94-1.06.53-2.14.49-2.99.44-1.26-.07-2.58-.26-3.53-1.32-.59-.66-1.01-1.69-.93-3.05s.59-2.45,1.4-3.21c1.05-.98,2.34-1.18,3.59-1.11,1.85.11,2.89.73,3.48,1.4,1.04,1.2.97,2.73.91,3.69v.19s-5.97-.34-5.97-.34c-.04.43.04.95.23,1.25.19.28.5.49,1,.52.24.01.58,0,.81-.11.26-.13.39-.32.44-.47l3.29.19ZM149.21,119.43c.02-.35-.08-.85-.29-1.11-.22-.29-.54-.37-.81-.38-.34-.02-.68.04-.93.3-.27.26-.43.71-.46,1.05l2.49.14Z"/>
        <path class="cls-2" d="M157.79,116.78l7.3.42-.13,2.24-4.43,3.43,4.43.24-.13,2.22-7.86-.45.13-2.24,4.49-3.43-3.93-.22.13-2.2Z"/>
        <path class="cls-2" d="M166.91,114.22l3.36.19-.12,2.11-3.36-.19.12-2.11ZM170.09,117.48l-.46,8.12-3.36-.19.46-8.12,3.36.19Z"/>
        <path class="cls-2" d="M175.65,117.8l-.46,8.1c-.04.75-.14,1.64-.83,2.26s-1.77.62-2.39.58c-.85-.05-1.4-.16-1.78-.26l.13-2.27c.17.04.33.07.51.08.16,0,.51.03.73-.17.24-.21.27-.56.29-.86l.44-7.65,3.37.19ZM172.45,114.54l3.39.19-.13,2.22-3.39-.19.13-2.22Z"/>
        <path class="cls-2" d="M180.9,118.96h.06c.27-.29.62-.54,1.08-.72.56-.23,1.09-.26,1.58-.23.72.04,1.56.2,2.19.88.69.74.74,1.65.67,2.78l-.28,4.87-3.36-.19.25-4.35c.04-.75-.11-1.08-.19-1.21-.16-.3-.41-.44-.74-.46-.29-.02-.65.06-.92.41-.35.43-.38,1.07-.39,1.16l-.25,4.31-3.36-.19.46-8.12,3.21.18-.05.86Z"/>
        <path class="cls-2" d="M195.5,118.93l-.06,1.12h.1c.28-.38.63-.7.98-.9.41-.23.97-.38,1.59-.34.51.03,1.13.22,1.53.5.31.23.65.61.83,1.17.31-.45.7-.76,1.1-.98.66-.38,1.28-.42,1.9-.39.5.03,1.45.15,2.12.86.79.83.81,2.11.76,2.9l-.28,4.81-3.28-.19.26-4.52c.01-.24.03-.78-.21-1.13-.13-.22-.36-.39-.68-.41-.26-.01-.58.05-.86.42-.21.28-.34.67-.37,1.13l-.25,4.39-3.28-.19.26-4.59c0-.13.03-.8-.24-1.15-.13-.17-.38-.31-.67-.33-.24-.01-.55.06-.83.4-.23.29-.36.72-.38,1.1l-.25,4.44-3.28-.19.46-8.12,3.02.17Z"/>
        <path class="cls-2" d="M216.98,125.95c-.26.67-.74,1.43-1.73,1.94-1.06.53-2.14.49-2.99.44-1.26-.07-2.58-.26-3.53-1.32-.59-.66-1.01-1.69-.93-3.05s.59-2.45,1.4-3.21c1.05-.98,2.34-1.18,3.59-1.11,1.85.11,2.89.73,3.48,1.4,1.04,1.2.97,2.73.91,3.69v.19s-5.97-.34-5.97-.34c-.04.43.04.95.23,1.25.19.28.5.49,1,.52.24.01.58,0,.81-.11.26-.13.39-.32.44-.47l3.29.19ZM213.8,123.12c.02-.35-.08-.85-.29-1.11-.22-.29-.54-.37-.81-.38-.34-.02-.68.04-.93.3-.27.26-.43.71-.46,1.05l2.49.14Z"/>
        <path class="cls-2" d="M217.99,120.22l1.47.08.14-2.4,3.36.19-.14,2.4,1.73.1-.13,2.2-1.73-.1-.15,2.69c-.01.24-.04.64.17.89.11.12.31.24.74.27.24.01.51-.02.76-.07l-.13,2.25c-.73.12-1.37.15-2.07.11s-1.79-.17-2.36-.81c-.51-.57-.54-1.46-.51-2.03l.2-3.48-1.47-.08.13-2.2Z"/>
        <path class="cls-2" d="M232.74,121.06l-.06,1.12h.1c.28-.38.63-.7.98-.9.41-.23.97-.38,1.59-.34.51.03,1.13.22,1.53.5.31.23.65.61.83,1.17.31-.45.7-.76,1.1-.98.66-.38,1.28-.42,1.9-.39.5.03,1.45.15,2.12.86.79.83.81,2.11.76,2.9l-.28,4.81-3.28-.19.26-4.52c.01-.24.03-.78-.21-1.13-.13-.22-.36-.39-.68-.41-.26-.01-.58.05-.86.42-.21.28-.34.67-.37,1.13l-.25,4.39-3.28-.19.26-4.59c0-.13.03-.8-.24-1.15-.13-.17-.38-.31-.67-.33-.24-.01-.55.06-.83.4-.23.29-.36.72-.38,1.1l-.25,4.44-3.28-.19.46-8.12,3.02.17Z"/>
        <path class="cls-2" d="M245.47,124.56c.11-.78.47-1.42.92-1.84.96-.89,2.41-.95,3.48-.89.78.04,2.43.17,3.3,1.14.71.76.74,1.71.7,2.36l-.21,3.66c-.03.58-.01.78.06.93.07.16.24.32.43.39v.11s-3.62-.21-3.62-.21l-.16-.89h-.03c-.27.29-.64.55-1.04.72-.61.27-1.28.31-1.84.28-.64-.04-1.45-.16-2.01-.74-.3-.32-.64-.89-.59-1.8.03-.61.22-1.13.7-1.55.68-.6,1.58-.71,2.24-.75l.97-.06c.92-.06,1.27-.07,1.51-.27.12-.1.26-.29.27-.59.02-.27-.09-.45-.18-.54-.21-.22-.59-.26-.69-.26-.37-.02-.61.08-.77.21-.17.15-.3.45-.3.75l-3.15-.18ZM250.44,126.53c-.37.24-.64.27-.98.3-.27.03-.69.06-.98.33-.15.15-.21.31-.22.5-.01.24.07.42.18.54.17.19.37.23.55.24.37.02.66-.06.93-.32.42-.39.49-.95.51-1.38v-.21Z"/>
        <path class="cls-2" d="M255,122.33l1.47.08.14-2.4,3.36.19-.14,2.4,1.73.1-.13,2.2-1.73-.1-.15,2.69c-.01.24-.04.64.17.89.11.12.31.24.74.27.24.01.51-.02.76-.07l-.13,2.25c-.73.12-1.37.15-2.07.11s-1.79-.17-2.36-.81c-.51-.57-.54-1.46-.51-2.03l.2-3.48-1.47-.08.13-2.2Z"/>
        <path class="cls-2" d="M271.39,129.06c-.26.67-.74,1.43-1.73,1.94-1.06.53-2.14.49-2.99.44-1.26-.07-2.58-.26-3.53-1.32-.59-.66-1.01-1.69-.93-3.05s.59-2.45,1.4-3.21c1.05-.98,2.34-1.18,3.59-1.11,1.85.11,2.89.73,3.48,1.4,1.04,1.2.97,2.73.91,3.69v.19s-5.97-.34-5.97-.34c-.04.43.04.95.23,1.25.19.28.5.49,1,.52.24.01.58,0,.81-.11.26-.13.39-.32.44-.47l3.29.19ZM268.21,126.23c.02-.35-.08-.85-.29-1.11-.22-.29-.54-.37-.81-.38-.34-.02-.68.04-.93.3-.27.26-.43.71-.46,1.05l2.49.14Z"/>
        <path class="cls-2" d="M279.74,126.15c-.27-.06-.62-.12-.87-.13-.97-.06-1.51.31-1.73.51-.59.54-.67,1.39-.72,2.16l-.17,3-3.36-.19.46-8.12,3.21.18-.07,1.15c.38-.52.83-.8,1.16-.96.56-.26,1.15-.29,1.68-.26.19.01.35.04.54.08l-.15,2.57Z"/>
        <path class="cls-2" d="M281.33,120.76l3.36.19-.12,2.11-3.36-.19.12-2.11ZM284.51,124.02l-.46,8.12-3.36-.19.46-8.12,3.36.19Z"/>
        <path class="cls-2" d="M286.22,126.89c.11-.78.47-1.42.92-1.84.96-.89,2.41-.95,3.48-.89.78.04,2.43.17,3.3,1.14.71.76.74,1.71.7,2.36l-.21,3.66c-.03.58-.01.78.06.93.07.16.24.32.43.39v.11s-3.62-.21-3.62-.21l-.16-.89h-.03c-.27.29-.64.55-1.04.72-.61.27-1.28.31-1.84.28-.64-.04-1.45-.16-2.01-.74-.3-.32-.64-.89-.59-1.8.03-.61.22-1.13.7-1.55.68-.6,1.58-.71,2.24-.75l.97-.06c.92-.06,1.27-.07,1.51-.27.12-.1.26-.29.27-.59.02-.27-.09-.45-.18-.54-.21-.22-.59-.26-.69-.26-.37-.02-.61.08-.77.21-.17.15-.3.45-.3.75l-3.15-.18ZM291.19,128.86c-.37.24-.64.27-.98.3-.27.03-.69.06-.98.33-.15.15-.21.31-.22.5-.01.24.07.42.18.54.17.19.37.23.55.24.37.02.66-.06.93-.32.42-.39.49-.95.51-1.38v-.21Z"/>
        <path class="cls-2" d="M296.34,127.47c.11-.78.47-1.42.92-1.84.96-.89,2.41-.95,3.48-.89.78.04,2.43.17,3.3,1.14.71.76.74,1.71.7,2.36l-.21,3.66c-.03.58-.01.78.06.93.07.16.24.32.43.39v.11s-3.62-.21-3.62-.21l-.16-.89h-.03c-.27.29-.64.55-1.04.72-.61.27-1.28.31-1.84.28-.64-.04-1.45-.16-2.01-.74-.3-.32-.64-.89-.59-1.8.03-.61.22-1.13.7-1.55.68-.6,1.58-.71,2.24-.75l.97-.06c.92-.06,1.27-.07,1.51-.27.12-.1.26-.29.27-.59.02-.27-.09-.45-.18-.54-.21-.22-.59-.26-.69-.26-.37-.02-.61.08-.77.21-.17.15-.3.45-.3.75l-3.15-.18ZM301.31,129.44c-.37.24-.64.27-.98.3-.27.03-.69.06-.98.33-.15.15-.21.31-.22.5-.01.24.07.42.18.54.17.19.37.23.55.24.37.02.66-.06.93-.32.42-.39.49-.95.51-1.38v-.21Z"/>
        <path class="cls-2" d="M310.37,122.42l-.64,11.19-3.36-.19.64-11.19,3.36.19Z"/>
      </g>
    </g>
  </g>
</svg>