<?xml version="1.0" encoding="UTF-8"?>
<svg id="Layer_2" data-name="Layer 2" xmlns="http://www.w3.org/2000/svg" viewBox="0 0 398.16 238.9">
  <defs>
    <style>
      .cls-1 {
        fill: #d13389;
        opacity: .7;
      }

      .cls-1, .cls-2 {
        stroke-width: 0px;
      }

      .cls-2 {
        fill: #eff3e8;
      }
    </style>
  </defs>
  <g id="Layer_1-2" data-name="Layer 1">
    <g>
      <path class="cls-1" d="M373.96,190.78c-37.23,17.74-83.62,29.62-134.36,32.58-63.88,3.73-164.78,28.12-208.01,7.12C-11.64,209.47,2.8,143.06.71,107.29-1,77.96,14.83,49.89,42.9,26.46,52.28,18.63,107.43-3.62,159.55.51c54.94,4.35,97.06,26.55,127.47,34.11,51.6,12.83,70.31-5.27,93.63,27.01,29.8,41.24,17.47,117.64-6.7,129.15Z"/>
      <g>
        <path class="cls-2" d="M41.81,106.95l6.31-.37c.7-.04,1.89-.01,2.82.75.81.67,1.06,1.61,1.11,2.5.04.7-.06,1.43-.62,2.06-.24.25-.56.5-.97.63v.08c.49.1.91.36,1.18.68.45.54.5,1.09.55,1.72l.09.91c.05.59.11,1.04.5,1.62l-3.56.21c-.38-.51-.42-.87-.46-1.35l-.07-.67c-.04-.46-.05-1.1-.49-1.46-.34-.29-.87-.29-1.25-.26l-1.21.07.23,3.87-3.48.2-.65-11.19ZM45.58,111.67l1.97-.11c.24-.01.64-.05.91-.33.17-.15.33-.44.3-.88-.01-.24-.08-.54-.35-.77-.32-.25-.75-.24-1.01-.23l-1.95.11.13,2.21Z"/>
        <path class="cls-2" d="M63.01,114.58c-.18.7-.57,1.51-1.5,2.12-.99.65-2.07.73-2.92.78-1.26.07-2.59.04-3.66-.91-.66-.59-1.2-1.57-1.28-2.92s.3-2.5,1.02-3.35c.93-1.1,2.19-1.44,3.44-1.52,1.85-.11,2.96.39,3.62.99,1.17,1.07,1.27,2.6,1.33,3.56v.19s-5.95.35-5.95.35c0,.43.15.94.37,1.21.22.26.55.43,1.05.4.24-.01.57-.07.79-.21.25-.16.35-.36.39-.52l3.29-.19ZM59.53,112.14c-.02-.35-.18-.84-.41-1.07-.26-.26-.58-.3-.85-.29-.34.02-.67.12-.89.41-.24.29-.34.76-.34,1.09l2.49-.15Z"/>
        <path class="cls-2" d="M67.27,114.01c-.03.29.07.65.29.85.17.15.46.25.83.22.29-.02.54-.05.8-.22.19-.12.34-.29.32-.58-.02-.27-.15-.46-.43-.57s-.63-.14-1.08-.18l-.84-.08c-.77-.07-1.68-.19-2.27-.65-.32-.25-.71-.71-.76-1.54-.07-1.13.49-1.82.99-2.21.84-.64,2.02-.81,2.95-.86,1.37-.08,2.24.11,2.8.45.42.25,1.09.83,1.22,1.95l-2.86.17c0-.22-.1-.54-.28-.7-.2-.18-.57-.22-.85-.21-.43.03-.65.18-.71.23-.17.14-.27.35-.26.56.02.3.2.41.38.47.38.17.68.17,1.02.2l1.13.09c.56.05,1.52.17,2.16.71.39.33.74.89.79,1.69.06,1.05-.44,1.82-.96,2.24-.52.42-1.43.79-3.16.89-1.47.09-2.72.02-3.61-.8-.39-.36-.83-.99-.9-1.92l3.28-.19Z"/>
        <path class="cls-2" d="M76.92,107.98l.05.89h.06c.69-1.1,1.77-1.29,2.55-1.34.69-.04,1.73-.02,2.61.73.27.22,1.22,1.15,1.35,3.26.07,1.28-.2,2.66-1,3.57-.75.88-1.7,1.09-2.61,1.15-.72.04-1.65-.02-2.42-.74l.21,3.55-3.36.2-.65-11.07,3.2-.19ZM77.69,113.74c.31.35.68.47,1.07.45.43-.03.73-.2.95-.47.43-.54.42-1.32.39-1.75-.03-.48-.12-1.26-.6-1.73-.19-.2-.52-.39-1-.36-.34.02-.68.15-.93.47-.42.51-.43,1.23-.39,1.79.03.45.1,1.13.51,1.61Z"/>
        <path class="cls-2" d="M93.87,112.78c-.18.7-.57,1.51-1.5,2.12-.99.65-2.07.73-2.92.78-1.26.07-2.59.04-3.66-.91-.66-.59-1.2-1.57-1.28-2.92s.3-2.5,1.02-3.35c.93-1.1,2.19-1.44,3.44-1.52,1.85-.11,2.96.39,3.62.99,1.17,1.07,1.27,2.6,1.33,3.56v.19s-5.95.35-5.95.35c0,.43.15.94.38,1.21.22.26.55.43,1.05.4.24-.01.57-.07.79-.21.25-.16.35-.36.39-.52l3.29-.19ZM90.39,110.34c-.02-.35-.18-.84-.42-1.07-.26-.26-.58-.3-.85-.29-.34.02-.67.12-.89.41-.24.29-.34.76-.34,1.09l2.49-.15Z"/>
        <path class="cls-2" d="M103.95,111.34c-.05,1.06-.48,1.87-.95,2.4-.99,1.12-2.36,1.29-3.4,1.35s-2.34,0-3.39-.88c-.59-.49-1.25-1.43-1.35-3.02s.45-2.7,1.11-3.45c.95-1.03,2.23-1.35,3.33-1.41,1.71-.1,2.73.42,3.34.96.53.48,1,1.26,1.13,2.28l-3.08.18c-.02-.32-.13-.78-.45-1.06-.22-.2-.5-.26-.78-.24-.34.02-.59.13-.79.38-.39.47-.41,1.26-.37,1.9.03.45.1,1.47.61,1.95.26.26.53.31.83.29.24-.01.53-.06.75-.32.24-.29.34-.79.32-1.12l3.13-.18Z"/>
        <path class="cls-2" d="M104.22,106.39l1.47-.09-.14-2.4,3.36-.2.14,2.4,1.73-.1.13,2.2-1.73.1.16,2.68c.01.24.04.64.27.87.12.1.33.2.76.18.24-.01.51-.08.74-.16l.13,2.25c-.71.2-1.34.3-2.05.34s-1.79.04-2.44-.53c-.57-.51-.71-1.39-.74-1.96l-.2-3.48-1.47.09-.13-2.2Z"/>
        <path class="cls-2" d="M117.49,105.62l3.31-.19-2.5,8.29-3.61.21-3.35-7.95,3.37-.2,1.6,4.86,1.18-5.02Z"/>
        <path class="cls-2" d="M129.8,112.16c-1.05,1.15-2.54,1.32-3.61,1.38-1.15.07-2.42.03-3.45-.81-.62-.49-1.29-1.43-1.38-3.09s.49-2.66,1.03-3.3c1.04-1.2,2.39-1.44,3.49-1.5.99-.06,2.42-.01,3.57.96.69.58,1.31,1.56,1.4,3.09s-.49,2.66-1.04,3.27ZM125.2,107.31c-.18.22-.47.72-.4,1.95.04.67.23,1.53.61,1.89.24.24.51.29.79.27.3-.02.57-.11.78-.37.49-.59.42-1.81.42-1.95-.03-.56-.17-1.47-.62-1.9-.24-.23-.48-.28-.77-.26-.34.02-.59.11-.8.37Z"/>
        <path class="cls-2" d="M135.3,101.5l.65,11.19-3.36.2-.65-11.19,3.36-.2Z"/>
        <path class="cls-2" d="M140.73,101.18l.65,11.19-3.36.2-.65-11.19,3.36-.2Z"/>
        <path class="cls-2" d="M152.03,109.39c-.18.7-.57,1.51-1.5,2.12-.99.65-2.07.73-2.92.78-1.26.07-2.59.04-3.66-.91-.66-.59-1.2-1.57-1.28-2.92s.3-2.5,1.02-3.35c.93-1.1,2.19-1.44,3.44-1.52,1.85-.11,2.96.39,3.62.99,1.17,1.07,1.27,2.6,1.33,3.56v.19s-5.95.35-5.95.35c0,.43.15.94.38,1.21.22.26.55.43,1.05.4.24-.01.57-.07.79-.21.25-.16.35-.36.39-.52l3.29-.19ZM148.55,106.95c-.02-.35-.18-.84-.42-1.07-.26-.26-.58-.3-.85-.29-.34.02-.67.12-.89.41-.24.29-.34.76-.34,1.09l2.49-.15Z"/>
        <path class="cls-2" d="M165.18,110.1c-1.05,1.15-2.54,1.32-3.61,1.38-1.15.07-2.42.03-3.45-.81-.62-.49-1.29-1.43-1.38-3.09s.49-2.66,1.03-3.3c1.04-1.2,2.39-1.44,3.49-1.5.99-.06,2.42-.01,3.57.96.69.58,1.31,1.56,1.4,3.09s-.49,2.66-1.04,3.27ZM160.58,105.25c-.18.22-.47.72-.4,1.95.04.67.23,1.53.61,1.89.24.24.51.29.79.27.3-.02.57-.11.78-.37.49-.59.42-1.81.42-1.95-.03-.56-.17-1.47-.62-1.9-.24-.23-.48-.28-.77-.26-.34.02-.59.11-.8.37Z"/>
        <path class="cls-2" d="M170.52,102.52l.07,1.12h.1c.23-.42.55-.78.87-1.02.38-.28.92-.49,1.54-.52.51-.03,1.14.09,1.57.32.33.19.72.54.96,1.07.26-.48.61-.84.98-1.1.62-.45,1.22-.57,1.84-.6.5-.03,1.46-.02,2.2.61.88.73,1.05,2.01,1.09,2.79l.28,4.81-3.28.19-.26-4.52c-.01-.24-.06-.78-.34-1.1-.16-.2-.41-.35-.72-.33-.26.01-.57.11-.8.51-.17.3-.26.7-.24,1.17l.26,4.39-3.28.19-.27-4.59c0-.13-.06-.8-.37-1.12-.15-.15-.42-.26-.7-.25-.24.01-.54.13-.77.49-.19.32-.28.75-.25,1.14l.26,4.44-3.28.19-.47-8.12,3.02-.18Z"/>
        <path class="cls-2" d="M187.39,110.09c.02.3.2.47.3.53.18.12.48.16.75.15.46-.03.73-.2.88-.36.27-.3.28-.67.26-.98l-.05-.89h-.08c-.67.64-1.41.79-2.24.84s-1.84.01-2.7-.74c-.52-.45-1.12-1.3-1.21-2.82-.1-1.63.42-2.64.92-3.23.66-.81,1.52-1.18,2.54-1.24.85-.05,1.8.12,2.53.83h.08s-.04-.76-.04-.76l3.15-.18.4,6.9c.07,1.13-.02,2.36-.93,3.34-.97,1.03-2.32,1.18-3.42,1.24-.89.05-2.11.04-3.01-.51-.96-.59-1.16-1.46-1.22-1.95l3.1-.18ZM187.22,106.82c.26.31.59.43.97.41.46-.03.76-.22.94-.45.37-.49.36-1.27.34-1.51-.05-.78-.29-1.2-.55-1.44-.24-.21-.55-.35-.92-.33-.34.02-.65.17-.86.42-.42.47-.41,1.24-.39,1.53.03.43.1.97.47,1.38Z"/>
        <path class="cls-2" d="M194.5,103.9c.02-.79.3-1.46.71-1.93.86-1,2.29-1.22,3.36-1.29.78-.05,2.43-.11,3.41.75.79.67.93,1.61.97,2.27l.21,3.66c.03.58.08.78.17.92.09.16.27.29.47.34v.11s-3.61.21-3.61.21l-.26-.87h-.03c-.24.32-.57.63-.94.84-.57.34-1.24.46-1.8.49-.64.04-1.46,0-2.08-.5-.34-.29-.74-.81-.79-1.72-.04-.61.09-1.14.52-1.62.6-.68,1.49-.89,2.14-1.01l.95-.17c.9-.17,1.25-.22,1.47-.44.11-.12.22-.32.2-.62-.02-.27-.14-.44-.24-.52-.24-.19-.62-.19-.72-.18-.37.02-.6.15-.74.3-.15.17-.24.48-.21.78l-3.15.18ZM199.66,105.28c-.34.28-.61.34-.94.41-.27.06-.68.14-.94.44-.13.17-.17.33-.16.52.01.24.12.41.24.52.19.17.4.19.57.18.37-.02.65-.13.89-.42.38-.44.38-1,.35-1.43v-.21Z"/>
        <path class="cls-2" d="M207.93,101.21h.06c.24-.32.56-.61.99-.85.53-.29,1.05-.38,1.55-.41.72-.04,1.57.02,2.28.62.78.66.92,1.55.99,2.68l.28,4.87-3.36.2-.25-4.35c-.04-.75-.24-1.06-.33-1.18-.19-.28-.46-.39-.79-.37-.29.02-.63.13-.87.52-.29.47-.26,1.1-.25,1.2l.25,4.31-3.36.2-.47-8.12,3.21-.19.05.86Z"/>
        <path class="cls-2" d="M219.46,108.21c.02.3.2.47.3.53.18.12.47.17.75.15.46-.03.73-.2.88-.36.27-.3.28-.67.26-.98l-.05-.89h-.08c-.67.64-1.41.79-2.24.84s-1.84.01-2.7-.74c-.52-.45-1.12-1.3-1.21-2.82-.1-1.63.42-2.64.92-3.23.66-.81,1.52-1.18,2.54-1.24.85-.05,1.8.12,2.53.83h.08s-.04-.76-.04-.76l3.15-.18.4,6.9c.07,1.13-.02,2.36-.93,3.34-.97,1.03-2.32,1.18-3.42,1.24-.89.05-2.11.04-3.01-.51-.96-.59-1.16-1.46-1.22-1.95l3.1-.18ZM219.29,104.95c.26.31.59.43.97.41.46-.03.76-.22.94-.45.37-.49.36-1.27.35-1.51-.05-.78-.3-1.2-.55-1.44-.24-.21-.55-.35-.92-.33-.34.02-.65.17-.86.42-.42.47-.41,1.24-.39,1.53.03.43.1.97.47,1.38Z"/>
        <path class="cls-2" d="M233.36,98.86l.07,1.12h.1c.23-.42.55-.78.87-1.02.38-.28.92-.49,1.54-.52.51-.03,1.14.09,1.57.32.33.19.72.54.96,1.07.26-.48.61-.84.98-1.1.62-.45,1.22-.57,1.84-.6.5-.03,1.46-.02,2.2.61.88.73,1.05,2.01,1.09,2.79l.28,4.81-3.28.19-.26-4.52c-.01-.24-.06-.78-.34-1.1-.16-.2-.41-.35-.72-.33-.26.01-.57.11-.8.51-.17.3-.26.7-.24,1.17l.26,4.39-3.28.19-.27-4.59c0-.13-.06-.8-.37-1.12-.15-.15-.42-.26-.7-.25-.24.01-.54.13-.77.49-.19.32-.28.75-.25,1.14l.26,4.44-3.28.19-.47-8.12,3.02-.18Z"/>
        <path class="cls-2" d="M255.5,103.36c-.18.7-.57,1.51-1.5,2.12-.99.65-2.07.73-2.92.78-1.26.07-2.59.04-3.66-.91-.66-.59-1.2-1.57-1.28-2.92s.3-2.5,1.02-3.35c.93-1.1,2.19-1.44,3.44-1.52,1.85-.11,2.96.39,3.62.99,1.17,1.07,1.27,2.6,1.33,3.56v.19s-5.95.35-5.95.35c0,.43.15.94.38,1.21.22.26.55.43,1.05.4.24-.01.57-.07.79-.21.25-.16.35-.36.39-.52l3.29-.19ZM252.02,100.91c-.02-.35-.18-.84-.42-1.07-.26-.26-.58-.3-.85-.29-.34.02-.67.12-.89.41-.24.29-.34.76-.34,1.09l2.49-.15Z"/>
        <path class="cls-2" d="M255.85,97.55l1.47-.09-.14-2.4,3.36-.2.14,2.4,1.73-.1.13,2.2-1.73.1.16,2.68c.01.24.04.64.27.87.12.1.33.2.76.18.24-.01.51-.08.74-.16l.13,2.25c-.71.2-1.34.3-2.05.34s-1.79.04-2.44-.53c-.57-.51-.71-1.39-.74-1.96l-.2-3.48-1.47.09-.13-2.2Z"/>
        <path class="cls-2" d="M270.59,96.69l.07,1.12h.1c.23-.42.55-.78.87-1.02.38-.28.92-.49,1.54-.52.51-.03,1.14.09,1.57.32.33.19.72.54.96,1.07.26-.48.61-.84.98-1.1.62-.45,1.22-.57,1.84-.6.5-.03,1.46-.02,2.2.61.88.73,1.05,2.01,1.09,2.79l.28,4.81-3.28.19-.26-4.52c-.01-.24-.06-.78-.34-1.1-.16-.2-.41-.35-.72-.33-.26.01-.57.11-.8.51-.17.3-.26.7-.24,1.17l.26,4.39-3.28.19-.27-4.59c0-.13-.06-.8-.37-1.12-.15-.15-.42-.26-.7-.25-.24.01-.54.13-.77.49-.19.32-.28.75-.25,1.14l.26,4.44-3.28.19-.47-8.12,3.02-.18Z"/>
        <path class="cls-2" d="M283.64,98.7c.02-.79.3-1.46.7-1.93.86-1,2.29-1.22,3.36-1.29.78-.05,2.43-.11,3.41.75.79.67.93,1.61.97,2.27l.21,3.66c.03.58.08.78.17.92.09.16.27.29.47.34v.11s-3.6.21-3.6.21l-.26-.87h-.03c-.24.32-.57.63-.94.84-.57.34-1.24.46-1.8.49-.64.04-1.46,0-2.08-.5-.34-.29-.74-.81-.79-1.72-.04-.61.09-1.14.52-1.62.6-.68,1.49-.89,2.14-1.01l.95-.17c.9-.17,1.25-.22,1.47-.44.1-.12.22-.32.2-.62-.02-.27-.14-.44-.24-.52-.24-.19-.62-.19-.72-.18-.37.02-.6.15-.74.3-.15.17-.24.48-.21.78l-3.15.18ZM288.8,100.08c-.34.28-.61.34-.94.41-.27.06-.68.14-.94.44-.13.17-.17.33-.16.52.01.24.12.41.24.52.19.17.4.19.57.18.37-.02.65-.13.89-.42.38-.44.37-1,.35-1.43v-.21Z"/>
        <path class="cls-2" d="M292.85,95.39l1.47-.09-.14-2.4,3.36-.2.14,2.4,1.73-.1.13,2.2-1.73.1.16,2.68c.01.24.04.64.27.87.12.1.33.2.76.18.24-.01.51-.08.74-.16l.13,2.25c-.71.2-1.34.3-2.05.34s-1.79.04-2.44-.53c-.57-.51-.71-1.39-.74-1.96l-.2-3.48-1.47.09-.13-2.2Z"/>
        <path class="cls-2" d="M309.9,100.18c-.18.7-.57,1.51-1.5,2.12-.99.65-2.07.73-2.92.78-1.26.07-2.59.04-3.66-.91-.66-.59-1.2-1.57-1.28-2.92s.3-2.5,1.02-3.35c.93-1.1,2.19-1.44,3.44-1.52,1.85-.11,2.96.39,3.62.99,1.17,1.07,1.27,2.6,1.33,3.56v.19s-5.95.35-5.95.35c0,.43.15.94.38,1.21.22.26.55.43,1.05.4.24-.01.57-.07.79-.21.25-.16.35-.36.39-.52l3.29-.19ZM306.42,97.74c-.02-.35-.18-.84-.42-1.07-.26-.26-.58-.3-.85-.29-.34.02-.67.12-.89.41-.24.29-.34.76-.34,1.09l2.49-.15Z"/>
        <path class="cls-2" d="M317.87,96.34c-.27-.03-.63-.04-.88-.03-.97.06-1.46.49-1.66.71-.53.61-.51,1.46-.46,2.22l.18,3-3.36.2-.47-8.12,3.21-.19.07,1.15c.32-.56.73-.89,1.04-1.09.53-.32,1.11-.42,1.64-.45.19-.01.35,0,.55.02l.15,2.57Z"/>
        <path class="cls-2" d="M318.82,90.8l3.36-.2.12,2.11-3.36.2-.12-2.11ZM322.36,93.67l.47,8.12-3.36.2-.47-8.12,3.36-.2Z"/>
        <path class="cls-2" d="M324.39,96.32c.02-.79.3-1.46.7-1.93.86-1,2.29-1.22,3.36-1.29.78-.05,2.43-.11,3.41.75.79.67.93,1.61.97,2.27l.21,3.66c.03.58.08.78.17.92.09.16.27.29.47.34v.11s-3.6.21-3.6.21l-.26-.87h-.03c-.24.32-.57.63-.94.84-.57.34-1.24.46-1.8.49-.64.04-1.46,0-2.08-.5-.34-.29-.74-.81-.79-1.72-.04-.61.09-1.14.52-1.62.6-.68,1.49-.89,2.14-1.01l.95-.17c.9-.17,1.25-.22,1.47-.44.1-.12.22-.32.2-.62-.02-.27-.14-.44-.24-.52-.24-.19-.62-.19-.72-.18-.37.02-.6.15-.74.3-.15.17-.24.48-.21.78l-3.15.18ZM329.55,97.71c-.34.28-.61.34-.94.41-.27.06-.68.14-.94.44-.13.17-.17.33-.16.52.01.24.12.41.24.52.19.17.4.19.57.18.37-.02.65-.13.89-.42.38-.44.37-1,.35-1.43v-.21Z"/>
        <path class="cls-2" d="M334.51,95.73c.02-.79.3-1.46.71-1.93.86-1,2.29-1.22,3.36-1.29.78-.05,2.43-.11,3.41.75.79.67.93,1.61.97,2.27l.21,3.66c.03.58.08.78.17.92.09.16.27.29.47.34v.11s-3.61.21-3.61.21l-.26-.87h-.03c-.24.32-.57.63-.94.84-.57.34-1.24.46-1.8.49-.64.04-1.46,0-2.08-.5-.34-.29-.74-.81-.79-1.72-.04-.61.09-1.14.52-1.62.6-.68,1.49-.89,2.14-1.01l.95-.17c.9-.17,1.25-.22,1.47-.44.11-.12.22-.32.2-.62-.02-.27-.14-.44-.24-.52-.24-.19-.62-.19-.72-.18-.37.02-.6.15-.74.3-.15.17-.24.48-.21.78l-3.15.18ZM339.68,97.12c-.34.28-.61.34-.94.41-.27.06-.68.14-.94.44-.13.17-.17.33-.16.52.01.24.12.41.24.52.19.17.4.19.57.18.37-.02.65-.13.89-.42.38-.44.38-1,.35-1.43v-.21Z"/>
        <path class="cls-2" d="M347.86,89.1l.65,11.19-3.36.2-.65-11.19,3.36-.2Z"/>
        <path class="cls-2" d="M93.88,123.15l1.36-.08-5.04,14.48-1.36.08,5.04-14.48Z"/>
        <path class="cls-2" d="M103.95,134.18c.02.3.2.47.3.53.18.12.47.17.75.15.46-.03.73-.2.88-.36.27-.3.28-.67.26-.98l-.05-.89h-.08c-.67.64-1.41.79-2.24.84s-1.84.01-2.7-.74c-.52-.45-1.12-1.3-1.21-2.82-.1-1.63.42-2.64.92-3.23.66-.81,1.52-1.18,2.54-1.24.85-.05,1.8.12,2.53.83h.08s-.04-.76-.04-.76l3.15-.18.4,6.9c.07,1.13-.02,2.36-.93,3.34-.97,1.03-2.32,1.18-3.42,1.24-.89.05-2.11.04-3.01-.51-.96-.59-1.16-1.46-1.22-1.95l3.1-.18ZM103.77,130.92c.26.31.59.43.97.41.46-.03.76-.22.94-.45.37-.49.36-1.27.35-1.51-.05-.78-.3-1.2-.55-1.44-.24-.21-.55-.35-.92-.33-.34.02-.65.17-.86.42-.42.47-.41,1.24-.39,1.53.03.43.1.97.47,1.38Z"/>
        <path class="cls-2" d="M120.15,130.48c-.18.7-.57,1.51-1.5,2.12-.99.65-2.07.73-2.92.78-1.26.07-2.59.04-3.66-.91-.66-.59-1.2-1.57-1.28-2.92s.3-2.5,1.02-3.35c.93-1.1,2.19-1.44,3.44-1.52,1.85-.11,2.96.39,3.62.99,1.17,1.07,1.27,2.6,1.33,3.56v.19s-5.95.35-5.95.35c0,.43.15.94.38,1.21.22.26.55.43,1.05.4.24-.01.57-.07.79-.21.25-.16.35-.36.39-.52l3.29-.19ZM116.67,128.04c-.02-.35-.18-.84-.42-1.07-.26-.26-.58-.3-.85-.29-.34.02-.67.12-.89.41-.24.29-.34.76-.34,1.09l2.49-.15Z"/>
        <path class="cls-2" d="M125.12,132.55l-3.2.19-.65-11.19,3.36-.2.22,3.75c.78-.93,1.75-1.08,2.4-1.12.89-.05,1.84.13,2.67.89.39.36,1.25,1.32,1.36,3.24s-.54,2.9-1.03,3.44c-.74.83-1.62,1.07-2.63,1.13-.78.05-1.73-.06-2.48-.93h-.06s.05.79.05.79ZM125.53,130.3c.24.23.57.37.92.35.46-.03.76-.24.92-.44.38-.44.49-1.23.45-1.89s-.24-1.33-.63-1.68c-.25-.23-.55-.34-.93-.31s-.71.17-.95.46c-.37.45-.44,1.18-.41,1.8.05.78.27,1.38.63,1.71Z"/>
        <path class="cls-2" d="M140.67,130.76c-1.05,1.15-2.54,1.32-3.61,1.38-1.15.07-2.42.03-3.45-.81-.62-.49-1.29-1.43-1.38-3.09s.49-2.66,1.03-3.3c1.04-1.2,2.39-1.44,3.49-1.5.99-.06,2.42-.01,3.57.96.69.58,1.31,1.56,1.4,3.09s-.49,2.66-1.04,3.27ZM136.08,125.91c-.18.22-.47.72-.4,1.95.04.67.23,1.53.61,1.89.24.24.51.29.79.27.3-.02.57-.11.78-.37.49-.59.42-1.81.42-1.95-.03-.56-.17-1.47-.62-1.9-.24-.23-.48-.28-.77-.26-.34.02-.59.11-.8.37Z"/>
        <path class="cls-2" d="M149.23,130.24h-.08c-.82,1-1.85,1.23-2.7,1.28-.69.04-1.51-.02-2.17-.59-.88-.77-.97-2.04-1.01-2.72l-.28-4.86,3.36-.2.25,4.36c.04.72.21,1.05.34,1.21.22.28.53.32.82.31.37-.02.6-.15.79-.45.28-.42.28-.95.26-1.25l-.25-4.31,3.36-.2.47,8.12-3.12.18-.05-.89Z"/>
        <path class="cls-2" d="M159.17,130.56l-3.13.18-3.28-7.95,3.2-.19,1.52,4.34.83-4.47,2.88-.17,1.33,4.35.96-4.48,3.23-.19-2.24,8.28-3.07.18-1.36-4.27-.85,4.39Z"/>
        <path class="cls-2" d="M175.93,118.36l1.36-.08-5.04,14.48-1.36.08,5.04-14.48Z"/>
        <path class="cls-2" d="M187.4,128.92l-3.13.18-3.28-7.95,3.2-.19,1.52,4.34.83-4.47,2.88-.17,1.33,4.35.96-4.48,3.23-.19-2.24,8.28-3.07.18-1.36-4.27-.85,4.39Z"/>
        <path class="cls-2" d="M204.83,125.54c-.18.7-.57,1.51-1.5,2.12-.99.65-2.07.73-2.92.78-1.26.07-2.59.04-3.66-.91-.66-.59-1.2-1.57-1.28-2.92s.3-2.5,1.02-3.35c.93-1.1,2.19-1.44,3.44-1.52,1.85-.11,2.96.39,3.62.99,1.17,1.07,1.27,2.6,1.33,3.56v.19s-5.95.35-5.95.35c0,.43.15.94.38,1.21.22.26.55.43,1.05.4.24-.01.57-.07.79-.21.25-.16.35-.36.39-.52l3.29-.19ZM201.36,123.1c-.02-.35-.18-.84-.42-1.07-.26-.26-.58-.3-.85-.29-.34.02-.67.12-.89.41-.24.29-.34.76-.34,1.09l2.49-.15Z"/>
        <path class="cls-2" d="M212.8,121.7c-.27-.03-.63-.04-.88-.03-.97.06-1.46.49-1.66.71-.53.61-.51,1.46-.46,2.22l.18,3-3.36.2-.47-8.12,3.21-.19.07,1.15c.32-.56.73-.89,1.04-1.09.53-.32,1.11-.42,1.64-.45.19-.01.35,0,.55.02l.15,2.57Z"/>
        <path class="cls-2" d="M219.48,118.9l3.72-.22-3.05,3.46,3.61,4.65-3.72.22-1.85-2.78-.56.64.13,2.27-3.36.2-.65-11.19,3.36-.2.33,5.59,2.04-2.65Z"/>
        <path class="cls-2" d="M232.28,125.42c-1.05,1.15-2.54,1.32-3.61,1.38-1.15.07-2.42.03-3.45-.81-.62-.49-1.29-1.43-1.38-3.09s.49-2.66,1.03-3.3c1.04-1.2,2.39-1.44,3.49-1.5.99-.06,2.42-.01,3.57.96.69.58,1.31,1.56,1.4,3.09s-.49,2.66-1.04,3.27ZM227.68,120.57c-.18.22-.47.72-.4,1.95.04.67.23,1.53.61,1.89.24.24.51.29.79.27.3-.02.57-.11.78-.37.49-.59.42-1.81.42-1.95-.03-.56-.17-1.47-.62-1.9-.24-.23-.48-.28-.77-.26-.34.02-.59.11-.8.37Z"/>
        <path class="cls-2" d="M237.62,117.84l.07,1.12h.1c.23-.42.55-.78.87-1.02.38-.28.92-.49,1.54-.52.51-.03,1.14.09,1.57.32.33.19.72.54.96,1.07.26-.48.61-.84.98-1.1.62-.45,1.22-.57,1.84-.6.5-.03,1.46-.02,2.2.61.88.73,1.05,2.01,1.09,2.79l.28,4.81-3.28.19-.26-4.52c-.01-.24-.06-.78-.34-1.1-.16-.2-.4-.35-.72-.33-.26.01-.57.11-.8.51-.18.3-.26.71-.24,1.17l.26,4.39-3.28.19-.27-4.59c0-.13-.06-.8-.37-1.12-.15-.15-.42-.26-.7-.25-.24.01-.54.13-.77.49-.19.32-.28.75-.25,1.14l.26,4.44-3.28.19-.47-8.12,3.02-.18Z"/>
        <path class="cls-2" d="M254.49,125.41c.02.3.2.47.3.53.18.12.47.17.75.15.46-.03.73-.2.88-.36.27-.3.28-.67.26-.98l-.05-.89h-.08c-.67.64-1.41.79-2.24.84s-1.84.01-2.7-.74c-.52-.45-1.12-1.3-1.21-2.82-.1-1.63.42-2.64.92-3.23.66-.81,1.52-1.18,2.54-1.24.85-.05,1.8.12,2.53.83h.08s-.04-.76-.04-.76l3.15-.18.4,6.9c.07,1.13-.02,2.36-.93,3.34-.97,1.03-2.32,1.18-3.42,1.24-.89.05-2.11.04-3.01-.51-.96-.59-1.16-1.46-1.22-1.95l3.1-.18ZM254.32,122.14c.26.31.59.43.97.41.46-.03.76-.22.94-.45.37-.49.36-1.27.35-1.51-.05-.78-.3-1.2-.55-1.44-.24-.21-.55-.35-.92-.33-.34.02-.65.17-.86.42-.42.47-.41,1.24-.39,1.53.03.43.1.97.47,1.38Z"/>
        <path class="cls-2" d="M270.69,121.7c-.18.7-.57,1.51-1.5,2.12-.99.65-2.07.73-2.92.78-1.26.07-2.59.04-3.66-.91-.66-.59-1.2-1.57-1.28-2.92s.3-2.5,1.02-3.35c.93-1.1,2.19-1.44,3.44-1.52,1.85-.11,2.96.39,3.62.99,1.17,1.07,1.27,2.6,1.33,3.56v.19s-5.95.35-5.95.35c0,.43.15.94.38,1.21.22.26.55.43,1.05.4.24-.01.57-.07.79-.21.25-.16.35-.36.39-.52l3.29-.19ZM267.21,119.26c-.02-.35-.18-.84-.42-1.07-.26-.26-.58-.3-.85-.29-.34.02-.67.12-.89.41-.24.29-.34.76-.34,1.09l2.49-.15Z"/>
        <path class="cls-2" d="M276.95,115.55l3.31-.19-2.5,8.29-3.61.21-3.35-7.95,3.37-.2,1.6,4.86,1.18-5.02Z"/>
        <path class="cls-2" d="M280.95,112.24l3.36-.2.12,2.11-3.36.2-.12-2.11ZM284.49,115.11l.47,8.12-3.36.2-.47-8.12,3.36-.2Z"/>
        <path class="cls-2" d="M289.82,115.66h.06c.24-.32.56-.61.99-.85.53-.29,1.05-.38,1.55-.41.72-.04,1.57.02,2.28.62.78.66.92,1.55.99,2.68l.28,4.87-3.36.2-.25-4.35c-.04-.75-.24-1.06-.33-1.18-.19-.28-.46-.39-.79-.37-.29.02-.63.13-.87.52-.29.47-.26,1.1-.25,1.2l.25,4.31-3.36.2-.47-8.12,3.21-.19.05.86Z"/>
        <path class="cls-2" d="M301.35,122.67c.02.3.2.47.3.53.18.12.47.17.75.15.46-.03.73-.2.88-.36.27-.3.28-.67.26-.98l-.05-.89h-.08c-.67.64-1.41.79-2.24.84s-1.84.01-2.7-.74c-.52-.45-1.12-1.3-1.21-2.82-.1-1.63.42-2.64.92-3.23.66-.81,1.52-1.18,2.54-1.24.85-.05,1.8.12,2.53.83h.08s-.04-.76-.04-.76l3.15-.18.4,6.9c.07,1.13-.02,2.36-.93,3.34-.97,1.03-2.32,1.18-3.42,1.24-.89.05-2.11.04-3.01-.51-.96-.59-1.16-1.46-1.22-1.95l3.1-.18ZM301.18,119.41c.26.31.59.43.97.41.46-.03.76-.22.94-.45.37-.49.36-1.27.35-1.51-.05-.78-.3-1.2-.55-1.44-.24-.21-.55-.35-.92-.33-.34.02-.65.17-.86.42-.42.47-.41,1.24-.39,1.53.03.43.1.97.47,1.38Z"/>
      </g>
    </g>
  </g>
</svg>