<?xml version="1.0" encoding="UTF-8"?>
<svg id="Layer_2" data-name="Layer 2" xmlns="http://www.w3.org/2000/svg" viewBox="0 0 405.71 243.81">
  <defs>
    <style>
      .cls-1 {
        fill: #d13389;
        opacity: .7;
      }

      .cls-1, .cls-2 {
        stroke-width: 0px;
      }

      .cls-2 {
        fill: #eff3e8;
      }
    </style>
  </defs>
  <g id="Layer_1-2" data-name="Layer 1">
    <g>
      <path class="cls-1" d="M7.33,51.79C9.79,19.75,38.63-3.71,70.49.49c.25.03.5.07.75.1,49.11,6.59,58.81,19.69,95.67,25.72,50.35,8.24,55.28-12.42,125.19-10.31,36.39,1.1,77.46,2.34,99.62,26.49,17.9,19.51,13.89,47.99,12.97,57.49-2.86,29.36-18.88,48.43-24.49,54.93-20.77,24.05-48.65,33.32-53.56,34.88-11.83,3.77-19.06,3.87-30.78,10.63-15.16,8.75-22.91,20.03-26.15,23.99-29.73,36.26-135.8,11.27-151.5,7.57-22.16-5.22-53.29-14.73-88.37-33.19C10.08,188.39-1.55,167.19.17,144.94L7.33,51.79Z"/>
      <g>
        <path class="cls-2" d="M122.13,114.06c1.43-1.29,3.02-1.34,4.35-1.24,1.44.11,3.17.48,4.36,1.93,1.16,1.39,1.26,3.1,1.16,4.33-.17,2.15-.93,3.48-1.79,4.28-1.4,1.29-3.06,1.37-4.51,1.26s-3.17-.47-4.38-1.97c-.47-.58-1.29-1.96-1.11-4.34.16-2.06,1.02-3.42,1.92-4.24ZM124.44,120.96c.38.46.88.66,1.44.71s1.09-.05,1.54-.48c.55-.52.81-1.5.87-2.31s.02-1.76-.5-2.41c-.38-.46-.85-.66-1.39-.7s-1.1.06-1.56.47c-.69.62-.87,1.7-.92,2.31s-.05,1.7.52,2.42Z"/>
        <path class="cls-2" d="M137.05,117.02l-.07.89h.06c.83-.99,1.93-1.03,2.71-.97.69.05,1.72.21,2.49,1.07.24.26,1.06,1.3.89,3.41-.1,1.28-.55,2.61-1.47,3.4-.86.77-1.83.85-2.74.78-.72-.06-1.63-.24-2.29-1.06l-.27,3.54-3.35-.26.85-11.06,3.19.25ZM137.04,122.83c.26.39.62.56,1,.59.43.03.75-.1,1.01-.34.5-.47.59-1.25.63-1.69.04-.48.05-1.26-.36-1.79-.16-.22-.46-.45-.94-.49-.33-.03-.7.06-.99.34-.48.44-.59,1.16-.63,1.72-.03.45-.06,1.14.29,1.66Z"/>
        <path class="cls-2" d="M147.7,117.84l1.47.11.18-2.39,3.35.26-.18,2.39,1.72.13-.17,2.2-1.72-.13-.21,2.68c-.02.24-.05.64.16.9.1.12.3.25.73.28.24.02.51,0,.76-.05l-.17,2.25c-.73.1-1.37.12-2.08.07s-1.78-.2-2.34-.85c-.5-.58-.51-1.47-.47-2.04l.27-3.48-1.47-.11.17-2.2Z"/>
        <path class="cls-2" d="M155.93,115.39l3.35.26-.16,2.11-3.35-.26.16-2.11ZM159.05,118.71l-.62,8.11-3.35-.26.62-8.11,3.35.26Z"/>
        <path class="cls-2" d="M164.6,119.14l-.62,8.09c-.06.75-.17,1.64-.88,2.24-.72.62-1.78.58-2.4.54-.85-.07-1.4-.19-1.78-.3l.17-2.27c.17.05.33.07.51.09.16.01.51.04.73-.15.24-.21.28-.56.31-.86l.59-7.64,3.37.26ZM161.47,115.81l3.38.26-.17,2.22-3.38-.26.17-2.22Z"/>
        <path class="cls-2" d="M171.89,127.85l.06-.78h-.06c-.85.88-1.95.92-2.64.87-.78-.06-1.79-.28-2.57-1.23-.54-.67-.99-1.73-.88-3.21.11-1.4.67-2.64,1.45-3.36.81-.74,1.74-.96,2.8-.88,1.39.11,1.95.71,2.26,1.15l.29-3.75,3.35.26-.86,11.17-3.19-.25ZM171.82,122.1c-.18-.22-.48-.45-.97-.49-.32-.02-.65.05-.94.3-.5.44-.61,1.3-.65,1.75-.07.97.17,1.52.44,1.83.19.21.47.41.88.44.38.03.71-.07.97-.33.45-.45.57-1.19.62-1.82.04-.56.03-1.2-.35-1.68Z"/>
        <path class="cls-2" d="M181.2,120.41l7.29.56-.17,2.23-4.5,3.35,4.42.32-.17,2.22-7.85-.6.17-2.23,4.56-3.34-3.93-.3.17-2.2Z"/>
        <path class="cls-2" d="M190.37,118.04l3.35.26-.16,2.11-3.35-.26.16-2.11ZM193.49,121.36l-.62,8.11-3.35-.26.62-8.11,3.35.26Z"/>
        <path class="cls-2" d="M199.04,121.79l-.62,8.09c-.06.75-.17,1.64-.88,2.24-.72.62-1.78.58-2.4.54-.85-.07-1.4-.19-1.78-.3l.17-2.27c.17.05.33.07.51.09.16.01.51.04.73-.15.24-.21.28-.56.31-.86l.59-7.64,3.37.26ZM195.91,118.46l3.38.26-.17,2.22-3.38-.26.17-2.22Z"/>
        <path class="cls-2" d="M204.27,123.05h.06c.28-.28.63-.52,1.1-.7.56-.21,1.09-.24,1.59-.2.72.06,1.56.23,2.18.92.68.76.71,1.66.62,2.79l-.37,4.87-3.35-.26.33-4.34c.06-.75-.09-1.08-.16-1.22-.15-.3-.4-.45-.73-.47-.29-.02-.65.05-.93.39-.35.42-.4,1.06-.41,1.16l-.33,4.31-3.35-.26.62-8.11,3.21.25-.07.86Z"/>
        <path class="cls-2" d="M216.09,120.01l3.35.26-.16,2.11-3.35-.26.16-2.11ZM219.21,123.34l-.62,8.11-3.35-.26.62-8.11,3.35.26Z"/>
        <path class="cls-2" d="M224.42,124.6h.06c.28-.28.63-.52,1.1-.7.56-.21,1.09-.24,1.59-.2.72.06,1.56.23,2.18.92.68.76.71,1.66.62,2.79l-.37,4.87-3.35-.26.33-4.34c.06-.75-.09-1.08-.16-1.22-.15-.3-.4-.45-.73-.47-.29-.02-.65.05-.93.39-.35.42-.4,1.06-.41,1.16l-.33,4.31-3.35-.26.62-8.11,3.21.25-.07.86Z"/>
        <path class="cls-2" d="M241.2,133.18l.06-.78h-.06c-.85.88-1.95.92-2.64.87-.78-.06-1.79-.28-2.57-1.23-.54-.67-.99-1.73-.88-3.21.11-1.4.67-2.64,1.45-3.36.81-.74,1.74-.96,2.8-.88,1.39.11,1.95.71,2.26,1.15l.29-3.75,3.35.26-.86,11.17-3.19-.25ZM241.13,127.43c-.18-.22-.48-.45-.97-.49-.32-.02-.65.05-.94.3-.5.44-.61,1.3-.65,1.75-.07.97.17,1.52.44,1.83.19.21.47.41.88.44.38.03.71-.07.97-.33.45-.45.57-1.19.62-1.82.04-.56.03-1.2-.35-1.68Z"/>
        <path class="cls-2" d="M255.34,131.91c-.28.67-.77,1.42-1.77,1.9-1.07.51-2.15.44-3,.38-1.26-.1-2.58-.31-3.51-1.39-.57-.67-.98-1.71-.87-3.07s.64-2.44,1.46-3.18c1.07-.96,2.37-1.13,3.61-1.04,1.85.14,2.88.78,3.45,1.47,1.01,1.22.91,2.75.84,3.71v.19s-5.97-.46-5.97-.46c-.05.43.02.95.21,1.25.19.29.49.5.99.54.24.02.58.01.81-.1.27-.12.39-.31.45-.46l3.29.25ZM252.23,129.02c.03-.35-.06-.86-.27-1.11-.22-.29-.53-.38-.8-.4-.33-.03-.68.03-.94.28-.28.25-.44.7-.48,1.04l2.49.19Z"/>
        <path class="cls-2" d="M264.73,123.76l-.86,11.17-3.35-.26.86-11.17,3.35.26Z"/>
        <path class="cls-2" d="M274.82,133.41c-.28.67-.77,1.42-1.77,1.9-1.07.51-2.15.44-3,.38-1.26-.1-2.58-.31-3.51-1.39-.57-.67-.98-1.71-.87-3.07s.64-2.44,1.46-3.18c1.07-.96,2.37-1.13,3.61-1.04,1.85.14,2.88.78,3.45,1.47,1.01,1.22.91,2.75.84,3.71v.19s-5.97-.46-5.97-.46c-.05.43.02.95.21,1.25.19.29.49.5.99.54.24.02.58.01.81-.1.27-.12.39-.31.45-.46l3.29.25ZM271.7,130.52c.03-.35-.06-.86-.27-1.11-.22-.29-.53-.38-.8-.4-.33-.03-.68.03-.94.28-.28.25-.44.7-.48,1.04l2.49.19Z"/>
        <path class="cls-2" d="M279.12,133.42c-.07.28-.02.66.17.88.15.17.43.31.79.33.29.02.54.03.83-.11.2-.1.37-.24.39-.53.02-.27-.09-.47-.35-.62-.26-.15-.61-.22-1.05-.32l-.82-.19c-.76-.17-1.64-.41-2.16-.95-.28-.3-.61-.8-.55-1.63.09-1.13.73-1.74,1.28-2.05.92-.52,2.11-.53,3.04-.46,1.37.11,2.2.41,2.71.82.38.3.97.97.95,2.1l-2.86-.22c.03-.22-.02-.55-.18-.74-.18-.21-.54-.3-.81-.32-.43-.03-.67.09-.73.14-.19.11-.31.31-.33.52-.02.3.14.43.31.52.35.22.65.26.99.33l1.1.25c.55.12,1.48.37,2.04.99.34.38.62.98.55,1.78-.08,1.05-.68,1.75-1.25,2.09-.57.34-1.52.59-3.25.46-1.47-.11-2.7-.35-3.47-1.28-.34-.41-.69-1.1-.63-2.02l3.27.25Z"/>
      </g>
    </g>
  </g>
</svg>