<?xml version="1.0" encoding="UTF-8"?>
<svg id="Layer_2" data-name="Layer 2" xmlns="http://www.w3.org/2000/svg" viewBox="0 0 400.35 241.41">
  <defs>
    <style>
      .cls-1 {
        fill: #d13389;
        opacity: .7;
      }

      .cls-1, .cls-2 {
        stroke-width: 0px;
      }

      .cls-2 {
        fill: #eff3e8;
      }
    </style>
  </defs>
  <g id="Layer_1-2" data-name="Layer 1">
    <g>
      <path class="cls-1" d="M.06,168.07c-1.51,32.1,24.21,58.94,56.34,58.71.25,0,.5,0,.76,0,49.55-.48,60.79-12.27,98.11-13.71,50.98-1.97,53.32,19.15,122.96,25.69,36.25,3.4,77.16,7.24,102.13-13.99,20.17-17.15,19.71-45.91,19.97-55.45.78-29.49-12.75-50.39-17.52-57.53-17.65-26.43-44.17-39.07-48.84-41.23-11.27-5.2-18.44-6.2-29.23-14.35-13.96-10.55-20.26-22.71-22.99-27.04C256.72-10.5,148.38,1.21,132.33,2.94c-22.64,2.45-54.7,8.04-91.8,22.03C19.65,32.85,5.5,52.46,4.45,74.75L.06,168.07Z"/>
      <g>
        <path class="cls-2" d="M109.07,102.05l.04.85-.25,5.36-3.49-.16.53-11.19,3.49.16,3.13,6.36h.08s-.04-.85-.04-.85l.25-5.36,3.49.16-.53,11.19-3.49-.16-3.13-6.36h-.08Z"/>
        <path class="cls-2" d="M126.98,106.76c-.26.68-.72,1.44-1.71,1.95-1.05.54-2.14.51-2.99.47-1.26-.06-2.58-.23-3.54-1.29-.59-.65-1.03-1.68-.96-3.04s.56-2.46,1.37-3.22c1.04-.99,2.33-1.2,3.58-1.15,1.85.09,2.9.7,3.49,1.37,1.05,1.19.99,2.72.95,3.68v.19s-5.97-.28-5.97-.28c-.04.43.05.95.25,1.25.19.28.51.49,1,.51.24.01.58,0,.81-.12.26-.13.38-.32.44-.48l3.29.15ZM123.78,103.96c.02-.35-.09-.85-.3-1.1-.23-.28-.54-.36-.82-.37-.34-.02-.68.05-.93.31-.27.26-.42.72-.45,1.05l2.49.12Z"/>
        <path class="cls-2" d="M134.35,109.46l.04-.78h-.06c-.83.9-1.92.98-2.61.95-.78-.04-1.8-.23-2.61-1.15-.56-.65-1.04-1.7-.97-3.19.07-1.41.59-2.66,1.35-3.4.79-.76,1.71-1.01,2.77-.96,1.39.07,1.97.65,2.29,1.09l.18-3.76,3.36.16-.53,11.19-3.2-.15ZM134.1,103.71c-.18-.22-.49-.44-.99-.46-.32-.02-.64.07-.93.32-.49.46-.57,1.32-.6,1.77-.05.98.22,1.52.49,1.82.2.2.48.39.89.41.38.02.71-.09.96-.36.44-.46.54-1.21.57-1.83.03-.56,0-1.2-.4-1.67Z"/>
        <path class="cls-2" d="M148.44,107.77c-.26.68-.72,1.44-1.71,1.95-1.05.54-2.14.51-2.99.47-1.26-.06-2.58-.23-3.54-1.29-.59-.65-1.03-1.68-.96-3.04s.56-2.46,1.37-3.22c1.04-.99,2.33-1.2,3.58-1.15,1.85.09,2.9.7,3.49,1.37,1.05,1.19.99,2.72.95,3.68v.19s-5.97-.28-5.97-.28c-.04.43.05.95.25,1.25.19.28.51.49,1,.51.24.01.58,0,.81-.12.26-.13.38-.32.44-.48l3.29.15ZM145.24,104.97c.02-.35-.09-.85-.3-1.1-.23-.28-.54-.36-.82-.37-.34-.02-.68.05-.93.31-.27.26-.42.72-.45,1.05l2.49.12Z"/>
        <path class="cls-2" d="M156.77,104.78c-.27-.06-.62-.11-.88-.12-.98-.05-1.51.33-1.72.53-.59.55-.66,1.4-.69,2.16l-.14,3.01-3.36-.16.38-8.12,3.21.15-.05,1.15c.38-.53.82-.81,1.15-.97.56-.26,1.15-.3,1.68-.27.19,0,.35.03.54.07l-.12,2.57Z"/>
        <path class="cls-2" d="M161.66,99.53l-.53,11.19-3.36-.16.53-11.19,3.36.16Z"/>
        <path class="cls-2" d="M163.25,105.45c.1-.78.45-1.42.9-1.85.96-.9,2.4-.98,3.47-.93.78.04,2.43.15,3.31,1.1.72.75.75,1.7.72,2.36l-.17,3.66c-.03.58,0,.79.07.93.07.16.24.32.43.39v.11s-3.62-.17-3.62-.17l-.17-.89h-.03c-.27.29-.64.56-1.03.74-.61.28-1.28.32-1.84.3-.64-.03-1.45-.15-2.02-.72-.31-.32-.65-.88-.6-1.79.03-.61.21-1.13.68-1.55.67-.61,1.57-.73,2.23-.78l.96-.07c.92-.07,1.27-.08,1.5-.28.12-.11.25-.29.27-.6.01-.27-.09-.45-.18-.54-.21-.22-.6-.25-.69-.26-.37-.02-.61.08-.76.22-.17.15-.29.45-.29.76l-3.15-.15ZM168.24,107.37c-.36.24-.64.27-.98.31-.27.04-.69.06-.98.34-.15.15-.21.31-.22.5-.01.24.08.42.18.54.17.18.37.23.55.23.37.02.66-.07.93-.32.42-.4.48-.95.5-1.39v-.21Z"/>
        <path class="cls-2" d="M176.9,104.19h.06c.27-.29.62-.54,1.08-.73.56-.23,1.09-.27,1.58-.25.72.03,1.56.19,2.2.86.7.74.76,1.64.7,2.77l-.23,4.88-3.36-.16.2-4.35c.04-.75-.13-1.08-.2-1.21-.16-.3-.41-.44-.75-.45-.29-.01-.64.07-.92.42-.34.43-.37,1.07-.38,1.17l-.2,4.32-3.36-.16.38-8.12,3.21.15-.04.86Z"/>
        <path class="cls-2" d="M190.2,112.09l.04-.78h-.06c-.83.9-1.92.98-2.61.95-.78-.04-1.8-.23-2.61-1.15-.56-.65-1.04-1.7-.97-3.19.07-1.41.59-2.66,1.35-3.4.79-.76,1.71-1.01,2.77-.96,1.39.07,1.97.65,2.29,1.09l.18-3.76,3.36.16-.53,11.19-3.2-.15ZM189.96,106.34c-.18-.22-.49-.44-.99-.46-.32-.02-.64.07-.93.32-.49.46-.57,1.32-.6,1.77-.05.98.22,1.52.49,1.82.2.2.48.39.89.41.38.02.71-.09.96-.36.44-.46.54-1.21.57-1.83.03-.56,0-1.2-.4-1.67Z"/>
        <path class="cls-2" d="M198.24,109.79c-.06.29,0,.66.2.87.15.17.43.29.8.31.29.01.54,0,.82-.14.2-.1.36-.26.38-.54.01-.27-.11-.47-.37-.61-.27-.14-.62-.2-1.06-.29l-.83-.17c-.76-.15-1.65-.37-2.19-.89-.29-.29-.64-.78-.6-1.61.05-1.14.68-1.76,1.22-2.09.91-.55,2.1-.59,3.02-.55,1.37.06,2.21.34,2.74.74.39.29,1,.94,1.01,2.07l-2.86-.13c.03-.22-.04-.55-.21-.73-.18-.2-.55-.28-.82-.29-.43-.02-.66.11-.73.16-.18.12-.3.32-.31.53-.01.3.16.42.33.51.36.21.66.24,1,.3l1.11.21c.56.11,1.49.33,2.07.93.35.37.64.96.61,1.76-.05,1.06-.63,1.77-1.19,2.12-.56.36-1.5.63-3.23.55-1.47-.07-2.71-.27-3.5-1.17-.35-.4-.72-1.08-.69-2l3.28.15Z"/>
        <path class="cls-2" d="M211.38,110.41c-.06.29,0,.66.2.87.15.17.43.29.8.31.29.01.54,0,.82-.14.2-.1.36-.26.38-.54.01-.27-.11-.47-.37-.61-.27-.14-.62-.2-1.06-.29l-.83-.17c-.76-.15-1.65-.37-2.19-.89-.29-.29-.64-.78-.6-1.61.05-1.14.68-1.76,1.22-2.09.91-.55,2.1-.59,3.02-.55,1.37.06,2.21.34,2.74.74.39.29,1,.94,1.01,2.07l-2.86-.13c.03-.22-.04-.55-.21-.73-.18-.2-.55-.28-.82-.29-.43-.02-.66.11-.73.16-.18.12-.3.32-.31.53-.01.3.16.42.33.51.36.21.66.24,1,.3l1.11.21c.56.11,1.49.33,2.07.93.35.37.64.96.61,1.76-.05,1.06-.63,1.77-1.19,2.12-.56.36-1.5.63-3.23.55-1.47-.07-2.71-.27-3.5-1.17-.35-.4-.72-1.08-.69-2l3.28.15Z"/>
        <path class="cls-2" d="M221.61,105.43l-.04.9h.06c.8-1.02,1.89-1.09,2.68-1.06.69.03,1.72.16,2.52,1,.24.25,1.09,1.27,1,3.38-.06,1.28-.48,2.62-1.36,3.45-.84.79-1.81.91-2.72.87-.72-.03-1.64-.19-2.32-.99l-.17,3.55-3.36-.16.52-11.08,3.2.15ZM221.77,111.23c.27.38.63.54,1.02.56.43.02.74-.13,1-.37.49-.49.56-1.27.58-1.7.02-.48.01-1.27-.41-1.78-.17-.22-.48-.44-.96-.46-.34-.02-.69.08-.98.37-.47.46-.55,1.18-.58,1.74-.02.45-.02,1.14.34,1.65Z"/>
        <path class="cls-2" d="M235.93,108.5c-.27-.06-.62-.11-.88-.12-.98-.05-1.51.33-1.72.53-.59.55-.66,1.4-.69,2.16l-.14,3.01-3.36-.16.38-8.12,3.21.15-.05,1.15c.38-.53.82-.81,1.15-.97.56-.26,1.15-.3,1.68-.27.19,0,.35.03.54.07l-.12,2.57Z"/>
        <path class="cls-2" d="M245.76,112.35c-.26.68-.72,1.44-1.71,1.95-1.05.54-2.14.51-2.99.47-1.26-.06-2.58-.23-3.54-1.29-.59-.65-1.03-1.68-.96-3.04s.56-2.46,1.37-3.22c1.04-.99,2.33-1.2,3.58-1.15,1.85.09,2.9.7,3.49,1.37,1.05,1.19.99,2.72.95,3.68v.19s-5.97-.28-5.97-.28c-.04.43.05.95.25,1.25.19.28.51.49,1,.51.24.01.58,0,.81-.12.26-.13.38-.32.44-.48l3.29.15ZM242.56,109.55c.02-.35-.09-.85-.3-1.1-.23-.28-.54-.36-.82-.37-.34-.02-.68.05-.93.31-.27.26-.42.72-.45,1.05l2.49.12Z"/>
        <path class="cls-2" d="M253.22,106.91l3.73.18-3.4,3.12,3.1,5-3.73-.18-1.54-2.96-.62.58-.11,2.27-3.36-.16.53-11.19,3.36.16-.26,5.6,2.31-2.42Z"/>
        <path class="cls-2" d="M266.34,113.32c-.26.68-.72,1.44-1.71,1.95-1.05.54-2.14.51-2.99.47-1.26-.06-2.58-.23-3.54-1.29-.59-.65-1.03-1.68-.96-3.04s.56-2.46,1.37-3.22c1.04-.99,2.33-1.2,3.58-1.15,1.85.09,2.9.7,3.49,1.37,1.05,1.19.99,2.72.95,3.68v.19s-5.97-.28-5.97-.28c-.04.43.05.95.25,1.25.19.28.51.49,1,.51.24.01.58,0,.81-.12.26-.13.38-.32.44-.48l3.29.15ZM263.14,110.52c.02-.35-.09-.85-.3-1.1-.23-.28-.54-.36-.82-.37-.34-.02-.68.05-.93.31-.27.26-.42.72-.45,1.05l2.49.12Z"/>
        <path class="cls-2" d="M271.43,108.64h.06c.27-.29.62-.54,1.08-.73.56-.23,1.09-.27,1.58-.25.72.03,1.56.19,2.2.86.7.74.76,1.64.7,2.77l-.23,4.88-3.36-.16.2-4.35c.04-.75-.13-1.08-.2-1.21-.16-.3-.41-.44-.75-.45-.29-.01-.64.07-.92.42-.34.43-.37,1.07-.38,1.17l-.2,4.32-3.36-.16.38-8.12,3.21.15-.04.86Z"/>
        <path class="cls-2" d="M283.15,105.24l3.36.16-.1,2.11-3.36-.16.1-2.11ZM286.37,108.47l-.38,8.12-3.36-.16.38-8.12,3.36.16Z"/>
        <path class="cls-2" d="M291.61,109.58h.06c.27-.29.62-.54,1.08-.73.56-.23,1.09-.27,1.58-.25.72.03,1.56.19,2.2.86.7.74.76,1.64.7,2.77l-.23,4.88-3.36-.16.2-4.35c.04-.75-.13-1.08-.2-1.21-.16-.3-.41-.44-.75-.45-.29-.01-.64.07-.92.42-.34.43-.37,1.07-.38,1.17l-.2,4.32-3.36-.16.38-8.12,3.21.15-.04.86Z"/>
        <path class="cls-2" d="M128.55,120.96c.47-.38,1.29-.87,2.6-.81,1.09.05,1.76.45,2.14.85.72.74.78,1.75.73,2.77l-.23,4.88-3.36-.16.2-4.35c.01-.26.02-.85-.2-1.21-.15-.25-.38-.43-.76-.45s-.66.11-.9.42c-.22.29-.35.74-.38,1.17l-.2,4.32-3.36-.16.53-11.19,3.36.16-.18,3.76Z"/>
        <path class="cls-2" d="M144.69,126.81c-.26.68-.72,1.44-1.71,1.95-1.05.54-2.14.51-2.99.47-1.26-.06-2.58-.23-3.54-1.29-.59-.65-1.03-1.68-.96-3.04s.56-2.46,1.37-3.22c1.04-.99,2.33-1.2,3.58-1.15,1.85.09,2.9.7,3.49,1.37,1.05,1.19.99,2.72.95,3.68v.19s-5.97-.28-5.97-.28c-.04.43.05.95.25,1.25.19.28.51.49,1,.51.24.01.58,0,.81-.12.26-.13.38-.32.44-.48l3.29.15ZM141.49,124.02c.02-.35-.09-.85-.3-1.1-.23-.28-.54-.36-.82-.37-.34-.02-.68.05-.93.31-.27.26-.42.72-.45,1.05l2.49.12Z"/>
        <path class="cls-2" d="M145.65,121.07l1.47.07.11-2.4,3.36.16-.11,2.4,1.73.08-.1,2.21-1.73-.08-.13,2.69c-.01.24-.03.64.18.89.11.12.31.24.74.26.24.01.51-.02.76-.08l-.11,2.25c-.73.13-1.37.16-2.07.13s-1.79-.15-2.37-.78c-.52-.57-.56-1.45-.53-2.03l.16-3.49-1.47-.07.1-2.21Z"/>
        <path class="cls-2" d="M159.76,127.2c-.06.29,0,.66.2.87.15.17.43.29.8.31.29.01.54,0,.82-.14.2-.1.36-.26.38-.54.01-.27-.11-.47-.37-.61-.27-.14-.62-.2-1.06-.29l-.83-.17c-.76-.15-1.65-.37-2.19-.89-.29-.29-.64-.78-.6-1.61.05-1.14.68-1.76,1.22-2.09.91-.55,2.1-.59,3.02-.55,1.37.06,2.21.34,2.74.74.39.29,1,.94,1.01,2.07l-2.86-.13c.03-.22-.04-.55-.21-.73-.18-.2-.55-.28-.82-.29-.43-.02-.66.11-.73.16-.18.12-.3.32-.31.53-.01.3.16.42.33.51.36.21.66.24,1,.3l1.11.21c.56.11,1.49.33,2.07.93.35.37.64.96.61,1.76-.05,1.06-.63,1.77-1.19,2.12-.56.36-1.5.63-3.23.55-1.47-.07-2.71-.27-3.5-1.17-.35-.4-.72-1.08-.69-2l3.28.15Z"/>
        <path class="cls-2" d="M175.05,127.39c-.16,1.05-.68,1.81-1.2,2.28-1.11,1.01-2.48,1.04-3.52.99s-2.33-.24-3.28-1.23c-.53-.55-1.1-1.56-1.02-3.14s.73-2.64,1.47-3.31c1.05-.93,2.36-1.11,3.46-1.05,1.71.08,2.68.7,3.22,1.31.47.53.87,1.35.88,2.38l-3.09-.15c.02-.32-.04-.79-.33-1.11-.2-.22-.47-.31-.75-.32-.34-.02-.6.07-.83.3-.44.43-.54,1.21-.57,1.85-.02.45-.05,1.47.4,2.01.23.28.5.36.8.37.24.01.53,0,.78-.24.27-.26.42-.75.44-1.09l3.13.15Z"/>
        <path class="cls-2" d="M180.12,123.39c.47-.38,1.29-.87,2.6-.81,1.09.05,1.76.45,2.14.85.72.74.78,1.75.73,2.77l-.23,4.88-3.36-.16.2-4.35c.01-.26.02-.85-.2-1.21-.15-.25-.38-.43-.76-.45s-.66.11-.9.42c-.22.29-.35.74-.38,1.17l-.2,4.32-3.36-.16.53-11.19,3.36.16-.18,3.76Z"/>
        <path class="cls-2" d="M195.19,130.66c-1.17,1.03-2.66,1.04-3.73.99-1.15-.05-2.41-.23-3.34-1.17-.57-.56-1.13-1.56-1.05-3.22s.76-2.59,1.37-3.17c1.16-1.08,2.52-1.18,3.63-1.13.99.05,2.41.24,3.45,1.33.63.65,1.14,1.69,1.07,3.22s-.76,2.59-1.38,3.14ZM191.13,125.36c-.2.2-.54.66-.6,1.89-.03.67.07,1.54.41,1.94.21.27.48.34.75.36.3.01.58-.05.81-.28.55-.53.61-1.75.62-1.89.03-.56-.01-1.47-.42-1.96-.21-.25-.45-.33-.74-.34-.34-.02-.6.05-.83.28Z"/>
        <path class="cls-2" d="M205.64,131.16c-1.17,1.03-2.66,1.04-3.73.99-1.15-.05-2.41-.23-3.34-1.17-.57-.56-1.13-1.56-1.05-3.22s.76-2.59,1.37-3.17c1.16-1.08,2.52-1.18,3.63-1.13.99.05,2.41.24,3.45,1.33.63.65,1.14,1.69,1.07,3.22s-.76,2.59-1.38,3.14ZM201.58,125.85c-.2.2-.54.66-.6,1.89-.03.67.07,1.54.41,1.94.21.27.48.34.75.36.3.01.58-.05.81-.28.55-.53.61-1.75.62-1.89.03-.56-.01-1.47-.42-1.96-.21-.25-.45-.33-.74-.34-.34-.02-.6.05-.83.28Z"/>
        <path class="cls-2" d="M212.23,121.13l-.53,11.19-3.36-.16.53-11.19,3.36.16Z"/>
        <path class="cls-2" d="M217.04,132.97c-.01.3.15.49.25.56.17.14.45.21.73.23.46.02.74-.12.91-.26.3-.27.35-.64.37-.94l.04-.9h-.08c-.73.55-1.49.63-2.32.59s-1.83-.18-2.61-1.02c-.47-.5-.98-1.41-.9-2.93.08-1.63.7-2.58,1.25-3.11.74-.73,1.63-1.01,2.66-.96.85.04,1.78.31,2.43,1.09h.08s.04-.75.04-.75l3.15.15-.32,6.91c-.05,1.13-.27,2.34-1.27,3.22-1.07.93-2.43.93-3.53.88-.9-.04-2.11-.18-2.94-.83-.9-.68-1-1.57-1.01-2.07l3.1.15ZM217.21,129.71c.22.33.54.49.92.51.46.02.78-.14.98-.35.42-.44.49-1.23.5-1.47.04-.78-.17-1.23-.39-1.49-.21-.23-.51-.41-.88-.43-.34-.02-.66.1-.9.33-.47.43-.54,1.19-.55,1.48-.02.43,0,.98.32,1.43Z"/>
        <path class="cls-2" d="M233.54,130.99c-.26.68-.72,1.44-1.71,1.95-1.05.54-2.14.51-2.99.47-1.26-.06-2.58-.23-3.54-1.29-.59-.65-1.03-1.68-.96-3.04s.56-2.46,1.37-3.22c1.04-.99,2.33-1.2,3.58-1.15,1.85.09,2.9.7,3.49,1.37,1.05,1.19.99,2.72.95,3.68v.19s-5.97-.28-5.97-.28c-.04.43.05.95.25,1.25.19.28.51.49,1,.51.24.01.58,0,.81-.12.26-.13.38-.32.44-.48l3.29.15ZM230.34,128.2c.02-.35-.09-.85-.3-1.1-.23-.28-.54-.36-.82-.37-.34-.02-.68.05-.93.31-.27.26-.42.72-.45,1.05l2.49.12Z"/>
        <path class="cls-2" d="M238.27,133.57l-3.2-.15.53-11.19,3.36.16-.18,3.76c.87-.84,1.85-.89,2.51-.86.9.04,1.81.33,2.56,1.16.35.4,1.1,1.45,1.01,3.36s-.84,2.83-1.39,3.32c-.82.75-1.72.9-2.73.85-.78-.04-1.72-.24-2.36-1.18h-.06s-.04.78-.04.78ZM238.92,131.37c.21.25.52.43.88.44.46.02.78-.16.96-.34.42-.4.62-1.17.65-1.83s-.1-1.35-.45-1.74c-.23-.25-.51-.39-.89-.41s-.73.09-.99.35c-.42.41-.57,1.13-.6,1.75-.04.78.13,1.4.45,1.77Z"/>
        <path class="cls-2" d="M253.93,133.43c-1.17,1.03-2.66,1.04-3.73.99-1.15-.05-2.41-.23-3.34-1.17-.57-.56-1.13-1.56-1.05-3.22s.76-2.59,1.37-3.17c1.16-1.08,2.52-1.18,3.63-1.13.99.05,2.41.24,3.45,1.33.63.65,1.14,1.69,1.07,3.22s-.76,2.59-1.38,3.14ZM249.87,128.12c-.2.2-.54.66-.6,1.89-.03.67.07,1.54.41,1.94.21.27.48.34.75.36.3.01.58-.05.81-.28.55-.53.61-1.75.62-1.89.03-.56-.01-1.47-.42-1.96-.21-.25-.45-.33-.74-.34-.34-.02-.6.05-.83.28Z"/>
        <path class="cls-2" d="M262.49,133.81h-.08c-.92.9-1.97,1.03-2.82.99-.69-.03-1.5-.18-2.09-.82-.79-.85-.75-2.13-.72-2.81l.23-4.86,3.36.16-.21,4.36c-.03.72.09,1.06.21,1.24.19.3.5.38.78.39.37.02.61-.08.83-.36.32-.39.38-.91.39-1.22l.2-4.32,3.36.16-.38,8.12-3.12-.15.04-.9Z"/>
        <path class="cls-2" d="M272.34,135.17l-3.13-.15-2.43-8.25,3.2.15,1.06,4.47,1.29-4.36,2.88.14.86,4.46,1.42-4.36,3.23.15-3.1,7.99-3.07-.14-.9-4.39-1.31,4.28Z"/>
      </g>
    </g>
  </g>
</svg>