<?xml version="1.0" encoding="UTF-8"?>
<svg id="Layer_2" data-name="Layer 2" xmlns="http://www.w3.org/2000/svg" viewBox="0 0 400 235.4">
  <defs>
    <style>
      .cls-1 {
        fill: #d13389;
        opacity: .7;
      }

      .cls-1, .cls-2 {
        stroke-width: 0px;
      }

      .cls-2 {
        fill: #eff3e8;
      }
    </style>
  </defs>
  <g id="Layer_1-2" data-name="Layer 1">
    <path class="cls-1" d="M0,58.46C0,26.33,26.95.72,59.04,2.47c.25.01.5.03.75.04,49.47,2.81,60.15,15.12,97.36,18.31,50.83,4.36,54.16-16.62,124.03-19.88,36.37-1.69,77.42-3.61,101.36,18.78,19.34,18.08,17.53,46.78,17.34,56.33-.6,29.49-15.11,49.74-20.2,56.64-18.87,25.57-45.96,36.95-50.72,38.89-11.51,4.67-18.71,5.32-29.87,12.96-14.44,9.88-21.3,21.73-24.23,25.92-26.86,38.43-134.53,21.65-150.48,19.16-22.5-3.51-54.26-10.6-90.66-26.32C13.21,194.45,0,174.2,0,151.88V58.46Z"/>
    <g>
      <path class="cls-2" d="M119.23,111.74c1.33-1.39,2.91-1.57,4.24-1.57,1.44,0,3.2.24,4.5,1.58,1.26,1.3,1.49,2.99,1.49,4.23,0,2.16-.66,3.54-1.46,4.4-1.3,1.39-2.95,1.6-4.4,1.6s-3.2-.22-4.51-1.63c-.51-.54-1.44-1.86-1.44-4.24,0-2.06.75-3.49,1.58-4.37ZM122.07,118.45c.42.43.93.59,1.49.59s1.09-.13,1.5-.59c.51-.56.69-1.55.69-2.37s-.11-1.76-.69-2.37c-.42-.43-.9-.59-1.44-.59s-1.09.14-1.52.59c-.64.67-.74,1.76-.74,2.37s.08,1.7.7,2.37Z"/>
      <path class="cls-2" d="M134.34,113.55v.9h.06c.75-1.06,1.84-1.18,2.62-1.18.69,0,1.73.08,2.56.88.26.24,1.15,1.22,1.15,3.33,0,1.28-.35,2.64-1.2,3.51-.8.83-1.76.99-2.67.99-.72,0-1.65-.11-2.37-.88v3.55h-3.36v-11.09h3.2ZM134.77,119.35c.29.37.66.51,1.04.51.43,0,.74-.16.98-.42.46-.51.5-1.3.5-1.73,0-.48-.05-1.26-.5-1.76-.18-.21-.5-.42-.98-.42-.34,0-.69.11-.96.42-.45.48-.5,1.2-.5,1.76,0,.45.03,1.14.42,1.63Z"/>
      <path class="cls-2" d="M145.03,113.55h1.47v-2.4h3.36v2.4h1.73v2.21h-1.73v2.69c0,.24,0,.64.22.88.11.11.32.22.75.22.24,0,.51-.05.75-.11v2.26c-.72.16-1.36.22-2.07.22s-1.79-.06-2.4-.67c-.54-.54-.62-1.42-.62-2v-3.49h-1.47v-2.21Z"/>
      <path class="cls-2" d="M153.04,110.48h3.36v2.11h-3.36v-2.11ZM156.4,113.55v8.13h-3.36v-8.13h3.36Z"/>
      <path class="cls-2" d="M161.97,113.55v8.12c0,.75-.05,1.65-.7,2.3-.67.67-1.73.72-2.35.72-.85,0-1.41-.08-1.79-.16v-2.27c.18.03.34.05.51.05.16,0,.51,0,.72-.21.22-.22.24-.58.24-.88v-7.67h3.38ZM158.59,110.48h3.39v2.22h-3.39v-2.22Z"/>
      <path class="cls-2" d="M169.91,121.68v-.78h-.06c-.78.94-1.87,1.07-2.56,1.07-.78,0-1.81-.14-2.66-1.02-.59-.62-1.12-1.65-1.12-3.14,0-1.41.46-2.69,1.18-3.46.75-.8,1.66-1.09,2.72-1.09,1.39,0,2,.56,2.34.98v-3.76h3.36v11.2h-3.2ZM169.4,115.95c-.19-.21-.51-.42-1.01-.42-.32,0-.64.1-.91.37-.46.48-.51,1.34-.51,1.79,0,.98.29,1.5.58,1.79.21.19.5.37.91.37.38,0,.7-.13.94-.4.42-.48.48-1.23.48-1.86,0-.56-.06-1.2-.48-1.65Z"/>
      <path class="cls-2" d="M178.63,113.55h7.31v2.24l-4.23,3.68,4.43-.02v2.22h-7.88v-2.24l4.29-3.68h-3.94v-2.21Z"/>
      <path class="cls-2" d="M187.58,110.48h3.36v2.11h-3.36v-2.11ZM190.95,113.55v8.13h-3.36v-8.13h3.36Z"/>
      <path class="cls-2" d="M196.51,113.55v8.12c0,.75-.05,1.65-.7,2.3-.67.67-1.73.72-2.35.72-.85,0-1.41-.08-1.79-.16v-2.27c.18.03.34.05.51.05.16,0,.51,0,.72-.21.22-.22.24-.58.24-.88v-7.67h3.38ZM193.14,110.48h3.39v2.22h-3.39v-2.22Z"/>
      <path class="cls-2" d="M201.83,114.42h.06c.26-.3.59-.58,1.04-.78.54-.26,1.07-.32,1.57-.32.72,0,1.57.11,2.24.75.74.7.83,1.6.83,2.74v4.88h-3.36v-4.35c0-.75-.18-1.07-.26-1.2-.18-.29-.43-.42-.77-.42-.29,0-.64.1-.9.46-.32.45-.32,1.09-.32,1.18v4.32h-3.36v-8.13h3.22v.86Z"/>
      <path class="cls-2" d="M213.38,110.48h3.36v2.11h-3.36v-2.11ZM216.74,113.55v8.13h-3.36v-8.13h3.36Z"/>
      <path class="cls-2" d="M222.03,114.42h.06c.26-.3.59-.58,1.04-.78.54-.26,1.07-.32,1.57-.32.72,0,1.57.11,2.24.75.74.7.83,1.6.83,2.74v4.88h-3.36v-4.35c0-.75-.18-1.07-.26-1.2-.18-.29-.43-.42-.77-.42-.29,0-.64.1-.9.46-.32.45-.32,1.09-.32,1.18v4.32h-3.36v-8.13h3.22v.86Z"/>
      <path class="cls-2" d="M239.43,121.68v-.78h-.06c-.78.94-1.87,1.07-2.56,1.07-.78,0-1.81-.14-2.66-1.02-.59-.62-1.12-1.65-1.12-3.14,0-1.41.46-2.69,1.18-3.46.75-.8,1.66-1.09,2.72-1.09,1.39,0,2,.56,2.34.98v-3.76h3.36v11.2h-3.2ZM238.91,115.95c-.19-.21-.51-.42-1.01-.42-.32,0-.64.1-.91.37-.46.48-.51,1.34-.51,1.79,0,.98.29,1.5.58,1.79.21.19.5.37.91.37.38,0,.7-.13.94-.4.42-.48.48-1.23.48-1.86,0-.56-.06-1.2-.48-1.65Z"/>
      <path class="cls-2" d="M253.43,119.33c-.22.69-.66,1.47-1.62,2.03-1.02.59-2.11.61-2.96.61-1.26,0-2.59-.11-3.6-1.12-.62-.62-1.1-1.63-1.1-2.99s.45-2.48,1.22-3.28c.99-1.04,2.27-1.31,3.52-1.31,1.86,0,2.93.56,3.55,1.2,1.1,1.14,1.12,2.67,1.12,3.63v.19h-5.97c-.02.43.1.94.3,1.23.21.27.53.46,1.02.46.24,0,.58-.03.8-.16.26-.14.37-.34.42-.5h3.3ZM250.1,116.69c0-.35-.13-.85-.35-1.09-.24-.27-.56-.34-.83-.34-.34,0-.67.08-.91.35-.26.27-.38.74-.4,1.07h2.5Z"/>
      <path class="cls-2" d="M262.16,110.48v11.2h-3.36v-11.2h3.36Z"/>
      <path class="cls-2" d="M272.96,119.33c-.22.69-.66,1.47-1.62,2.03-1.02.59-2.11.61-2.96.61-1.26,0-2.59-.11-3.6-1.12-.62-.62-1.1-1.63-1.1-2.99s.45-2.48,1.22-3.28c.99-1.04,2.27-1.31,3.52-1.31,1.86,0,2.93.56,3.55,1.2,1.1,1.14,1.12,2.67,1.12,3.63v.19h-5.97c-.02.43.1.94.3,1.23.21.27.53.46,1.02.46.24,0,.58-.03.8-.16.26-.14.37-.34.42-.5h3.3ZM269.63,116.69c0-.35-.13-.85-.35-1.09-.24-.27-.56-.34-.83-.34-.34,0-.67.08-.91.35-.26.27-.38.74-.4,1.07h2.5Z"/>
      <path class="cls-2" d="M277.25,119.01c-.05.29.03.66.24.86.16.16.45.27.82.27.29,0,.54-.02.82-.18.19-.11.35-.27.35-.56,0-.27-.13-.46-.4-.59-.27-.13-.62-.18-1.07-.24l-.83-.13c-.77-.11-1.66-.29-2.22-.78-.3-.27-.67-.75-.67-1.58,0-1.14.59-1.79,1.12-2.14.88-.59,2.06-.69,2.99-.69,1.38,0,2.22.24,2.77.61.4.27,1.04.9,1.1,2.02h-2.87c.02-.22-.06-.54-.24-.72-.19-.19-.56-.26-.83-.26-.43,0-.66.14-.72.19-.18.13-.29.34-.29.54,0,.3.18.42.35.5.37.19.67.21,1.01.26l1.12.16c.56.08,1.5.26,2.11.83.37.35.69.93.69,1.73,0,1.06-.54,1.79-1.09,2.18-.54.38-1.47.7-3.2.7-1.47,0-2.72-.14-3.55-1.01-.37-.38-.77-1.04-.78-1.97h3.28Z"/>
    </g>
  </g>
</svg>