<?xml version="1.0" encoding="UTF-8"?>
<svg id="Layer_2" data-name="Layer 2" xmlns="http://www.w3.org/2000/svg" viewBox="0 0 401.46 233.97">
  <defs>
    <style>
      .cls-1 {
        fill: #d13389;
        opacity: .7;
      }

      .cls-1, .cls-2 {
        stroke-width: 0px;
      }

      .cls-2 {
        fill: #eff3e8;
      }
    </style>
  </defs>
  <g id="Layer_1-2" data-name="Layer 1">
    <g>
      <path class="cls-1" d="M369.22,215.8c-38.96,13.53-86.37,20.25-137.13,17.61-63.9-3.32-166.87,9.83-207.53-15.8C-16.1,191.98,5.55,127.57,7.41,91.78c1.52-29.34,20.34-55.5,50.82-75.7,10.19-6.75,67.44-22.81,118.8-12.97,54.13,10.37,93.56,37.06,122.95,47.92,49.88,18.42,70.46,2.49,90.1,37.14,25.09,44.26,4.43,118.85-20.86,127.63Z"/>
      <g>
        <path class="cls-2" d="M121.67,109.2l-.32,6.17-2.56-.13-.16-.95c-.66.73-1.55,1.2-3.36,1.11-1.13-.06-2.58-.28-3.69-1.43-.93-.96-1.49-2.53-1.39-4.5.12-2.37,1.14-3.76,1.93-4.48,1.35-1.23,2.88-1.44,4.22-1.37,1.29.07,2.83.42,3.78,1.25.71.61,1.38,1.74,1.49,3.17l-3.6-.19c-.03-.39-.17-.73-.37-.95-.39-.45-.98-.53-1.29-.55-.74-.04-1.21.23-1.52.51-.57.55-.82,1.61-.87,2.5-.05.88.09,2.06.72,2.71.43.45.93.56,1.46.59.45.02.87-.03,1.3-.33.43-.31.66-.75.72-.86l-1.54-.08.13-2.46,4.89.25Z"/>
        <path class="cls-2" d="M131.94,113.56c-.26.68-.73,1.44-1.72,1.95-1.05.54-2.14.5-2.99.45-1.26-.07-2.58-.25-3.54-1.31-.59-.66-1.02-1.69-.95-3.05.07-1.29.58-2.45,1.38-3.21,1.05-.99,2.34-1.19,3.59-1.13,1.85.1,2.9.71,3.49,1.38,1.04,1.19.98,2.73.93,3.69v.19s-5.97-.31-5.97-.31c-.04.43.05.95.24,1.25.19.28.5.49,1,.52.24.01.58,0,.81-.12.26-.13.38-.32.44-.47l3.29.17ZM128.75,110.75c.02-.35-.08-.85-.3-1.11-.23-.28-.54-.36-.81-.38-.34-.02-.68.05-.93.3-.27.26-.42.72-.45,1.05l2.49.13Z"/>
        <path class="cls-2" d="M142.29,114.1c-.26.68-.73,1.44-1.72,1.95-1.05.54-2.14.5-2.99.45-1.26-.07-2.58-.25-3.54-1.31-.59-.66-1.02-1.69-.95-3.05.07-1.29.58-2.45,1.38-3.21,1.05-.99,2.34-1.19,3.59-1.13,1.85.1,2.9.71,3.49,1.38,1.04,1.19.98,2.73.93,3.69v.19s-5.97-.31-5.97-.31c-.04.43.05.95.24,1.25.19.28.5.49,1,.52.24.01.58,0,.81-.12.26-.13.38-.32.44-.47l3.29.17ZM139.1,111.29c.02-.35-.08-.85-.3-1.11-.23-.28-.54-.36-.81-.38-.34-.02-.68.05-.93.3-.27.26-.42.72-.45,1.05l2.49.13Z"/>
        <path class="cls-2" d="M147.4,109.45h.06c.27-.29.62-.54,1.08-.73.56-.23,1.09-.26,1.58-.24.72.04,1.56.19,2.2.87.7.74.75,1.64.69,2.78l-.25,4.87-3.36-.17.23-4.35c.04-.75-.12-1.08-.19-1.21-.16-.3-.41-.44-.75-.45-.29-.01-.64.06-.92.42-.34.43-.38,1.07-.38,1.17l-.22,4.32-3.36-.17.42-8.12,3.21.17-.04.86Z"/>
        <path class="cls-2" d="M162.3,110.04c.47-.38,1.3-.86,2.61-.79,1.09.06,1.75.46,2.13.86.71.74.77,1.76.72,2.78l-.25,4.87-3.36-.17.23-4.35c.01-.26.03-.85-.19-1.21-.15-.25-.38-.44-.76-.46-.37-.02-.66.11-.9.42-.22.29-.36.73-.38,1.17l-.22,4.32-3.36-.17.58-11.19,3.36.17-.2,3.76Z"/>
        <path class="cls-2" d="M177.33,117.4c-1.18,1.03-2.67,1.03-3.74.98-1.15-.06-2.41-.24-3.34-1.18-.56-.56-1.12-1.56-1.03-3.23.08-1.63.78-2.59,1.38-3.17,1.16-1.08,2.53-1.17,3.63-1.11.99.05,2.41.25,3.44,1.35.62.66,1.13,1.69,1.05,3.23-.08,1.6-.78,2.59-1.4,3.13ZM173.3,112.07c-.2.2-.55.66-.61,1.89-.03.67.07,1.54.4,1.94.21.27.48.35.75.36.3.02.58-.05.81-.28.56-.53.62-1.75.63-1.89.03-.56,0-1.48-.41-1.96-.21-.25-.45-.33-.74-.34-.34-.02-.6.05-.83.28Z"/>
        <path class="cls-2" d="M187.78,117.94c-1.18,1.03-2.67,1.03-3.74.98-1.15-.06-2.41-.24-3.34-1.18-.56-.56-1.12-1.56-1.03-3.23.08-1.63.78-2.59,1.38-3.17,1.16-1.08,2.53-1.17,3.63-1.11.99.05,2.41.25,3.44,1.35.62.66,1.13,1.69,1.05,3.23-.08,1.6-.78,2.59-1.4,3.13ZM183.75,112.62c-.2.2-.55.66-.61,1.89-.03.67.07,1.54.4,1.94.21.27.48.35.75.36.3.02.58-.05.82-.28.56-.53.62-1.75.63-1.89.03-.56,0-1.47-.41-1.96-.21-.25-.45-.33-.74-.34-.34-.02-.6.05-.83.28Z"/>
        <path class="cls-2" d="M196.59,113.35l-1.89-.1-.31,5.91-3.39-.18.31-5.91-1.49-.08.12-2.21,1.49.08v-.13c.05-.75.18-1.58.87-2.17.77-.66,1.91-.64,2.48-.61.59.03,1.45.16,2.07.27l-.11,2.03c-.27-.08-.65-.16-.87-.17-.29-.01-.56.03-.75.17-.32.21-.3.45-.31.72v.06s1.88.1,1.88.1l-.12,2.21Z"/>
        <path class="cls-2" d="M203.24,119.62l.04-.78h-.06c-.83.9-1.93.97-2.61.93-.78-.04-1.8-.24-2.6-1.16-.56-.65-1.03-1.7-.96-3.19.07-1.41.6-2.66,1.36-3.39.79-.76,1.72-1,2.77-.95,1.39.07,1.97.66,2.28,1.1l.2-3.76,3.36.17-.58,11.19-3.2-.17ZM203.02,113.88c-.18-.22-.49-.44-.98-.47-.32-.02-.64.06-.93.32-.49.46-.58,1.32-.61,1.76-.05.98.21,1.52.48,1.82.2.2.48.39.89.42.38.02.71-.09.96-.35.44-.46.54-1.21.58-1.83.03-.56,0-1.2-.4-1.67Z"/>
        <path class="cls-2" d="M214.34,120.2l.04-.78h-.06c-.83.9-1.93.97-2.61.93-.78-.04-1.8-.24-2.6-1.16-.56-.65-1.03-1.7-.96-3.19.07-1.41.6-2.66,1.36-3.39.79-.76,1.72-1,2.77-.95,1.39.07,1.97.66,2.28,1.1l.2-3.76,3.36.17-.58,11.19-3.2-.17ZM214.13,114.45c-.18-.22-.49-.44-.98-.47-.32-.02-.64.06-.93.32-.49.46-.58,1.32-.61,1.76-.05.98.21,1.52.48,1.82.2.2.48.39.89.42.38.02.71-.09.96-.35.44-.46.54-1.21.58-1.83.03-.56,0-1.2-.4-1.67Z"/>
        <path class="cls-2" d="M228.44,118.58c-.26.68-.73,1.44-1.72,1.95-1.05.54-2.14.5-2.99.45-1.26-.07-2.58-.25-3.54-1.31-.59-.66-1.02-1.69-.95-3.05.07-1.29.58-2.45,1.38-3.21,1.05-.99,2.34-1.19,3.59-1.13,1.85.1,2.9.71,3.49,1.38,1.04,1.19.98,2.73.93,3.69v.19s-5.97-.31-5.97-.31c-.04.43.05.95.24,1.25.19.28.5.49,1,.52.24.01.58,0,.81-.12.26-.13.38-.32.44-.47l3.29.17ZM225.26,115.77c.02-.35-.08-.85-.3-1.11-.23-.28-.54-.36-.81-.38-.34-.02-.68.05-.93.3-.27.26-.42.72-.45,1.05l2.49.13Z"/>
        <path class="cls-2" d="M235.94,113.18l3.72.19-3.42,3.11,3.07,5.02-3.72-.19-1.53-2.96-.62.58-.12,2.27-3.36-.17.58-11.19,3.36.17-.29,5.6,2.32-2.41Z"/>
        <path class="cls-2" d="M242.97,119.01c-.06.29,0,.66.2.88.15.17.43.3.8.31.29.02.54.01.82-.13.2-.1.36-.25.38-.54.01-.27-.1-.47-.37-.61-.26-.14-.62-.21-1.06-.3l-.82-.17c-.76-.15-1.65-.37-2.18-.9-.29-.29-.63-.79-.59-1.62.06-1.14.69-1.76,1.23-2.08.91-.55,2.1-.58,3.02-.53,1.37.07,2.21.35,2.73.75.39.29.99.95,1,2.07l-2.86-.15c.03-.22-.04-.55-.2-.73-.18-.2-.55-.28-.82-.3-.43-.02-.66.11-.73.15-.18.12-.3.32-.32.53-.02.3.16.42.33.51.36.21.66.24.99.31l1.11.22c.56.11,1.49.33,2.07.94.35.37.64.96.6,1.76-.05,1.06-.64,1.76-1.2,2.12-.56.35-1.51.63-3.23.54-1.47-.08-2.71-.28-3.5-1.19-.35-.4-.71-1.08-.68-2.01l3.28.17Z"/>
        <path class="cls-2" d="M258.44,120.14c-.26.68-.73,1.44-1.72,1.95-1.05.54-2.14.5-2.99.45-1.26-.07-2.58-.25-3.54-1.31-.59-.66-1.02-1.69-.95-3.05.07-1.29.58-2.45,1.38-3.21,1.05-.99,2.34-1.19,3.59-1.13,1.86.1,2.9.71,3.49,1.38,1.04,1.19.98,2.73.93,3.69v.19s-5.97-.31-5.97-.31c-.04.43.05.95.24,1.25.19.28.5.49,1,.52.24.01.58,0,.81-.12.26-.13.39-.32.44-.47l3.29.17ZM255.25,117.33c.02-.35-.08-.85-.3-1.11-.23-.28-.54-.36-.81-.38-.33-.02-.68.05-.93.3-.27.26-.42.72-.46,1.05l2.49.13Z"/>
        <path class="cls-2" d="M263.89,111.56l-.58,11.19-3.36-.17.58-11.19,3.36.17Z"/>
        <path class="cls-2" d="M268.17,120.32c-.06.29,0,.66.19.88.15.17.43.29.8.31.29.02.54.01.82-.13.2-.1.37-.25.38-.54.01-.27-.1-.47-.37-.61s-.61-.21-1.06-.3l-.82-.17c-.76-.15-1.65-.37-2.18-.9-.29-.29-.63-.79-.59-1.62.06-1.14.69-1.76,1.23-2.08.91-.55,2.1-.58,3.02-.53,1.37.07,2.21.36,2.73.75.39.29.99.95,1,2.07l-2.86-.15c.03-.22-.04-.55-.2-.73-.18-.2-.55-.28-.82-.3-.43-.02-.66.11-.73.15-.18.12-.3.32-.32.53-.02.3.15.42.33.51.36.21.66.24.99.31l1.11.22c.56.11,1.49.33,2.07.94.35.37.64.96.6,1.76-.05,1.06-.64,1.76-1.2,2.12s-1.51.63-3.23.54c-1.47-.08-2.71-.28-3.5-1.19-.35-.4-.71-1.08-.68-2.01l3.28.17Z"/>
        <path class="cls-2" d="M282.83,112.54l3.36.17-.11,2.11-3.36-.17.11-2.11ZM286.02,115.78l-.42,8.12-3.36-.17.42-8.12,3.36.17Z"/>
        <path class="cls-2" d="M291.27,116.92h.06c.27-.29.62-.54,1.08-.73.56-.23,1.09-.26,1.58-.24.72.04,1.56.19,2.2.87.7.74.75,1.64.69,2.78l-.25,4.87-3.36-.17.23-4.35c.04-.75-.12-1.08-.19-1.21-.16-.3-.41-.44-.75-.45-.29-.02-.64.06-.92.42-.34.43-.38,1.07-.38,1.17l-.22,4.32-3.36-.17.42-8.12,3.21.17-.04.86Z"/>
        <path class="cls-2" d="M157.48,129.02c.47-.38,1.3-.86,2.61-.79,1.09.06,1.75.46,2.13.86.71.74.77,1.76.72,2.78l-.25,4.88-3.36-.17.23-4.35c.01-.26.03-.85-.19-1.21-.15-.25-.38-.44-.76-.46-.37-.02-.66.11-.9.42-.22.29-.36.73-.38,1.17l-.22,4.32-3.36-.17.58-11.19,3.36.17-.2,3.76Z"/>
        <path class="cls-2" d="M173.59,134.95c-.26.68-.73,1.44-1.72,1.95-1.05.54-2.14.5-2.99.45-1.26-.07-2.58-.25-3.54-1.31-.59-.66-1.02-1.69-.95-3.05.07-1.29.58-2.45,1.38-3.21,1.05-.99,2.34-1.19,3.58-1.13,1.85.1,2.9.71,3.49,1.38,1.04,1.19.98,2.73.93,3.69v.19s-5.97-.31-5.97-.31c-.04.43.05.95.24,1.25.19.28.5.49,1,.52.24.01.58,0,.81-.12.26-.13.38-.32.44-.47l3.29.17ZM170.41,132.14c.02-.35-.08-.85-.3-1.11-.22-.28-.54-.36-.81-.38-.33-.02-.68.05-.93.3-.27.26-.42.72-.45,1.05l2.49.13Z"/>
        <path class="cls-2" d="M174.58,129.22l1.47.08.12-2.4,3.36.17-.12,2.4,1.73.09-.12,2.21-1.73-.09-.14,2.69c-.01.24-.03.64.18.89.11.12.31.24.74.26.24.01.51-.02.76-.07l-.12,2.25c-.73.12-1.37.15-2.07.12-.69-.04-1.79-.16-2.36-.8-.51-.57-.55-1.46-.52-2.03l.18-3.48-1.47-.08.12-2.21Z"/>
        <path class="cls-2" d="M189.14,138.52c-.02.3.15.49.24.56.17.14.45.22.73.23.46.02.74-.12.91-.26.3-.27.35-.64.37-.94l.05-.9h-.08c-.73.55-1.49.62-2.32.58-.83-.04-1.83-.19-2.61-1.03-.47-.51-.97-1.41-.89-2.93.08-1.63.71-2.58,1.27-3.11.74-.73,1.64-1,2.66-.95.85.04,1.78.32,2.43,1.1h.08s.04-.75.04-.75l3.15.16-.36,6.91c-.06,1.13-.28,2.34-1.29,3.22-1.07.92-2.43.92-3.54.86-.89-.05-2.1-.19-2.94-.84-.89-.69-.99-1.57-1-2.07l3.1.16ZM189.33,135.26c.22.33.54.49.92.51.46.02.78-.14.98-.35.42-.44.5-1.22.51-1.46.04-.78-.16-1.23-.39-1.5-.21-.24-.51-.41-.88-.43-.34-.02-.66.09-.9.32-.47.42-.54,1.19-.56,1.48-.02.43,0,.98.31,1.43Z"/>
        <path class="cls-2" d="M205.65,136.62c-.26.68-.73,1.44-1.72,1.95-1.05.54-2.14.5-2.99.45-1.26-.07-2.59-.25-3.54-1.31-.59-.66-1.02-1.69-.95-3.05.07-1.29.58-2.45,1.39-3.21,1.05-.99,2.34-1.19,3.58-1.13,1.85.1,2.9.71,3.49,1.38,1.04,1.19.98,2.73.93,3.69v.19s-5.97-.31-5.97-.31c-.04.43.05.95.24,1.25.19.28.5.49,1,.52.24.01.58,0,.81-.12.26-.13.38-.32.44-.47l3.29.17ZM202.46,133.81c.02-.35-.08-.85-.3-1.11-.22-.28-.54-.36-.81-.38-.34-.02-.68.04-.93.3-.27.26-.42.72-.46,1.05l2.49.13Z"/>
        <path class="cls-2" d="M210.36,139.22l-3.2-.17.58-11.19,3.36.17-.2,3.76c.88-.84,1.86-.88,2.51-.85.89.05,1.81.33,2.55,1.17.35.4,1.1,1.45,1,3.37-.09,1.82-.85,2.82-1.41,3.31-.82.74-1.73.89-2.74.84-.78-.04-1.72-.25-2.36-1.2h-.06s-.04.78-.04.78ZM211.02,137.03c.21.25.52.43.87.45.46.02.78-.15.96-.33.42-.39.62-1.17.66-1.83.04-.67-.09-1.35-.44-1.74-.23-.25-.51-.39-.89-.41-.4-.02-.73.09-1,.35-.42.41-.57,1.12-.6,1.75-.04.78.12,1.4.44,1.77Z"/>
        <path class="cls-2" d="M226.02,139.15c-1.18,1.03-2.67,1.03-3.74.98-1.15-.06-2.41-.24-3.34-1.18-.56-.56-1.12-1.57-1.04-3.23.08-1.63.77-2.59,1.38-3.17,1.16-1.08,2.53-1.17,3.63-1.11.99.05,2.41.25,3.44,1.35.62.66,1.13,1.69,1.05,3.23-.08,1.6-.78,2.59-1.4,3.13ZM221.99,133.83c-.2.2-.55.66-.61,1.89-.03.67.07,1.54.4,1.94.21.27.48.35.75.36.3.02.58-.05.82-.28.56-.53.62-1.75.63-1.89.03-.56,0-1.47-.41-1.96-.21-.25-.45-.33-.74-.34-.34-.02-.6.05-.83.28Z"/>
        <path class="cls-2" d="M234.59,139.58h-.08c-.93.89-1.98,1.02-2.82.97-.69-.04-1.5-.19-2.09-.83-.79-.86-.74-2.14-.7-2.81l.25-4.86,3.36.17-.23,4.36c-.04.72.09,1.06.21,1.25.19.3.49.38.78.39.37.02.61-.08.84-.36.32-.38.38-.91.4-1.21l.22-4.32,3.36.17-.42,8.12-3.12-.16.05-.9Z"/>
        <path class="cls-2" d="M244.43,140.99l-3.13-.16-2.39-8.27,3.2.17,1.03,4.48,1.32-4.36,2.88.15.84,4.47,1.45-4.35,3.23.17-3.14,7.98-3.07-.16-.88-4.39-1.33,4.27Z"/>
      </g>
    </g>
  </g>
</svg>