<?xml version="1.0" encoding="UTF-8"?>
<svg id="Layer_2" data-name="Layer 2" xmlns="http://www.w3.org/2000/svg" viewBox="0 0 400 235.4">
  <defs>
    <style>
      .cls-1 {
        fill: #d13389;
        opacity: .7;
      }

      .cls-1, .cls-2 {
        stroke-width: 0px;
      }

      .cls-2 {
        fill: #eff3e8;
      }
    </style>
  </defs>
  <g id="Layer_1-2" data-name="Layer 1">
    <path class="cls-1" d="M0,58.46C0,26.33,26.95.72,59.04,2.47c.25.01.5.03.75.04,49.47,2.81,60.15,15.12,97.36,18.31,50.83,4.36,54.16-16.62,124.03-19.88,36.37-1.69,77.42-3.61,101.36,18.78,19.34,18.08,17.53,46.78,17.34,56.33-.6,29.49-15.11,49.74-20.2,56.64-18.87,25.57-45.96,36.95-50.72,38.89-11.51,4.67-18.71,5.32-29.87,12.96-14.44,9.88-21.3,21.73-24.23,25.92-26.86,38.43-134.53,21.65-150.48,19.16-22.5-3.51-54.26-10.6-90.66-26.32C13.21,194.45,0,174.2,0,151.88V58.46Z"/>
    <g>
      <path class="cls-2" d="M95.4,110.48v11.2h-3.49v-11.2h3.49Z"/>
      <path class="cls-2" d="M101.01,114.42h.06c.26-.3.59-.58,1.04-.78.54-.26,1.07-.32,1.57-.32.72,0,1.57.11,2.24.75.74.7.83,1.6.83,2.74v4.88h-3.36v-4.35c0-.75-.18-1.07-.26-1.2-.18-.29-.43-.42-.77-.42-.29,0-.64.1-.9.46-.32.45-.32,1.09-.32,1.18v4.32h-3.36v-8.13h3.22v.86Z"/>
      <path class="cls-2" d="M120.28,120.8c-1.12,1.09-2.61,1.17-3.68,1.17-1.15,0-2.42-.11-3.39-1.01-.59-.53-1.2-1.5-1.2-3.17s.64-2.62,1.22-3.23c1.1-1.14,2.46-1.3,3.57-1.3.99,0,2.42.13,3.51,1.17.66.62,1.22,1.63,1.22,3.17s-.64,2.62-1.23,3.2ZM115.97,115.7c-.19.21-.51.69-.51,1.92,0,.67.14,1.54.5,1.92.22.26.5.32.77.32.3,0,.58-.08.8-.32.53-.56.53-1.78.53-1.92,0-.56-.08-1.47-.51-1.94-.22-.24-.46-.3-.75-.3-.34,0-.59.08-.82.32Z"/>
      <path class="cls-2" d="M129.56,115.95c-.27-.05-.62-.08-.88-.08-.98,0-1.49.4-1.7.61-.56.58-.59,1.42-.59,2.19v3.01h-3.36v-8.13h3.22v1.15c.35-.54.78-.85,1.1-1.02.54-.29,1.14-.35,1.66-.35.19,0,.35.02.54.05v2.58Z"/>
      <path class="cls-2" d="M136.68,121.68v-.78h-.06c-.78.94-1.87,1.07-2.56,1.07-.78,0-1.81-.14-2.66-1.02-.59-.62-1.12-1.65-1.12-3.14,0-1.41.46-2.69,1.18-3.46.75-.8,1.67-1.09,2.72-1.09,1.39,0,2,.56,2.34.98v-3.76h3.36v11.2h-3.2ZM136.16,115.95c-.19-.21-.51-.42-1.01-.42-.32,0-.64.1-.91.37-.46.48-.51,1.34-.51,1.79,0,.98.29,1.5.58,1.79.21.19.5.37.91.37.38,0,.7-.13.94-.4.42-.48.48-1.23.48-1.86,0-.56-.06-1.2-.48-1.65Z"/>
      <path class="cls-2" d="M150.68,119.33c-.22.69-.66,1.47-1.62,2.03-1.02.59-2.11.61-2.96.61-1.26,0-2.59-.11-3.6-1.12-.62-.62-1.1-1.63-1.1-2.99s.45-2.48,1.22-3.28c.99-1.04,2.27-1.31,3.52-1.31,1.86,0,2.93.56,3.55,1.2,1.1,1.14,1.12,2.67,1.12,3.63v.19h-5.97c-.02.43.1.94.3,1.23.21.27.53.46,1.02.46.24,0,.58-.03.8-.16.26-.14.37-.34.42-.5h3.3ZM147.35,116.69c0-.35-.13-.85-.35-1.09-.24-.27-.56-.34-.83-.34-.34,0-.67.08-.91.35-.26.27-.38.74-.4,1.07h2.5Z"/>
      <path class="cls-2" d="M155.76,113.55h7.32v2.24l-4.23,3.68,4.43-.02v2.22h-7.88v-2.24l4.29-3.68h-3.94v-2.21Z"/>
      <path class="cls-2" d="M164.72,110.48h3.36v2.11h-3.36v-2.11ZM168.08,113.55v8.13h-3.36v-8.13h3.36Z"/>
      <path class="cls-2" d="M173.65,113.55v8.12c0,.75-.05,1.65-.7,2.3s-1.73.72-2.35.72c-.85,0-1.41-.08-1.79-.16v-2.27c.18.03.34.05.51.05.16,0,.51,0,.72-.21.22-.22.24-.58.24-.88v-7.67h3.38ZM170.27,110.48h3.39v2.22h-3.39v-2.22Z"/>
      <path class="cls-2" d="M178.96,114.42h.06c.26-.3.59-.58,1.04-.78.54-.26,1.07-.32,1.57-.32.72,0,1.57.11,2.24.75.74.7.83,1.6.83,2.74v4.88h-3.36v-4.35c0-.75-.18-1.07-.26-1.2-.18-.29-.43-.42-.77-.42-.29,0-.64.1-.9.46-.32.45-.32,1.09-.32,1.18v4.32h-3.36v-8.13h3.22v.86Z"/>
      <path class="cls-2" d="M193.54,113.55v1.12h.1c.26-.4.59-.74.93-.96.4-.26.94-.43,1.57-.43.51,0,1.14.16,1.55.42.32.21.69.58.9,1.12.29-.46.66-.8,1.04-1.04.64-.42,1.25-.5,1.87-.5.5,0,1.46.06,2.16.74.83.78.93,2.06.93,2.85v4.82h-3.28v-4.53c0-.24-.02-.78-.27-1.12-.14-.21-.38-.37-.7-.37-.26,0-.58.08-.83.46-.19.29-.3.69-.3,1.15v4.4h-3.28v-4.59c0-.13-.02-.8-.3-1.14-.14-.16-.4-.29-.69-.29-.24,0-.54.1-.8.45-.21.3-.32.74-.32,1.12v4.45h-3.28v-8.13h3.03Z"/>
      <path class="cls-2" d="M215.38,119.33c-.22.69-.66,1.47-1.62,2.03-1.02.59-2.11.61-2.96.61-1.26,0-2.59-.11-3.6-1.12-.62-.62-1.1-1.63-1.1-2.99s.45-2.48,1.22-3.28c.99-1.04,2.27-1.31,3.52-1.31,1.86,0,2.93.56,3.55,1.2,1.1,1.14,1.12,2.67,1.12,3.63v.19h-5.97c-.02.43.1.94.3,1.23.21.27.53.46,1.02.46.24,0,.58-.03.8-.16.26-.14.37-.34.42-.5h3.3ZM212.05,116.69c0-.35-.13-.85-.35-1.09-.24-.27-.56-.34-.83-.34-.34,0-.67.08-.91.35-.26.27-.38.74-.4,1.07h2.5Z"/>
      <path class="cls-2" d="M216.06,113.55h1.47v-2.4h3.36v2.4h1.73v2.21h-1.73v2.69c0,.24,0,.64.22.88.11.11.32.22.75.22.24,0,.51-.05.75-.11v2.26c-.72.16-1.36.22-2.07.22s-1.79-.06-2.4-.67c-.54-.54-.62-1.42-.62-2v-3.49h-1.47v-2.21Z"/>
      <path class="cls-2" d="M230.83,113.55v1.12h.1c.26-.4.59-.74.93-.96.4-.26.94-.43,1.57-.43.51,0,1.14.16,1.55.42.32.21.69.58.9,1.12.29-.46.66-.8,1.04-1.04.64-.42,1.25-.5,1.87-.5.5,0,1.46.06,2.16.74.83.78.93,2.06.93,2.85v4.82h-3.28v-4.53c0-.24-.02-.78-.27-1.12-.14-.21-.38-.37-.7-.37-.26,0-.58.08-.83.46-.19.29-.3.69-.3,1.15v4.4h-3.28v-4.59c0-.13-.02-.8-.3-1.14-.14-.16-.4-.29-.69-.29-.24,0-.54.1-.8.45-.21.3-.32.74-.32,1.12v4.45h-3.28v-8.13h3.03Z"/>
      <path class="cls-2" d="M243.74,116.32c.06-.78.38-1.44.82-1.89.91-.94,2.35-1.09,3.43-1.09.78,0,2.43.03,3.36.95.75.72.83,1.66.83,2.32v3.67c0,.58.03.78.11.93.08.16.26.3.45.37v.11h-3.62l-.21-.88h-.03c-.26.3-.61.59-.99.78-.59.3-1.26.38-1.82.38-.64,0-1.46-.08-2.05-.62-.32-.3-.69-.85-.69-1.76,0-.61.16-1.14.61-1.58.64-.64,1.54-.8,2.19-.88l.96-.11c.91-.11,1.26-.14,1.49-.35.11-.11.24-.3.24-.61,0-.27-.11-.45-.21-.53-.22-.21-.61-.22-.7-.22-.37,0-.61.11-.75.26-.16.16-.27.46-.26.77h-3.15ZM248.82,118c-.35.26-.62.3-.96.35-.27.05-.69.1-.96.38-.14.16-.19.32-.19.51,0,.24.1.42.21.53.18.18.38.21.56.21.37,0,.66-.1.91-.37.4-.42.43-.98.43-1.41v-.21Z"/>
      <path class="cls-2" d="M253.13,113.55h1.47v-2.4h3.36v2.4h1.73v2.21h-1.73v2.69c0,.24,0,.64.22.88.11.11.32.22.75.22.24,0,.51-.05.75-.11v2.26c-.72.16-1.36.22-2.07.22s-1.79-.06-2.4-.67c-.54-.54-.62-1.42-.62-2v-3.49h-1.47v-2.21Z"/>
      <path class="cls-2" d="M269.88,119.33c-.22.69-.66,1.47-1.62,2.03-1.02.59-2.11.61-2.96.61-1.26,0-2.59-.11-3.6-1.12-.62-.62-1.1-1.63-1.1-2.99s.45-2.48,1.22-3.28c.99-1.04,2.27-1.31,3.52-1.31,1.86,0,2.93.56,3.55,1.2,1.1,1.14,1.12,2.67,1.12,3.63v.19h-5.97c-.02.43.1.94.3,1.23.21.27.53.46,1.02.46.24,0,.58-.03.8-.16.26-.14.37-.34.42-.5h3.3ZM266.54,116.69c0-.35-.13-.85-.35-1.09-.24-.27-.56-.34-.83-.34-.34,0-.67.08-.91.35-.26.27-.38.74-.4,1.07h2.5Z"/>
      <path class="cls-2" d="M278.05,115.95c-.27-.05-.62-.08-.88-.08-.98,0-1.49.4-1.7.61-.56.58-.59,1.42-.59,2.19v3.01h-3.36v-8.13h3.22v1.15c.35-.54.78-.85,1.1-1.02.54-.29,1.14-.35,1.66-.35.19,0,.35.02.54.05v2.58Z"/>
      <path class="cls-2" d="M279.33,110.48h3.36v2.11h-3.36v-2.11ZM282.69,113.55v8.13h-3.36v-8.13h3.36Z"/>
      <path class="cls-2" d="M284.56,116.32c.06-.78.38-1.44.82-1.89.91-.94,2.35-1.09,3.43-1.09.78,0,2.43.03,3.36.95.75.72.83,1.66.83,2.32v3.67c0,.58.03.78.11.93.08.16.26.3.45.37v.11h-3.62l-.21-.88h-.03c-.26.3-.61.59-.99.78-.59.3-1.26.38-1.82.38-.64,0-1.46-.08-2.05-.62-.32-.3-.69-.85-.69-1.76,0-.61.16-1.14.61-1.58.64-.64,1.54-.8,2.19-.88l.96-.11c.91-.11,1.26-.14,1.49-.35.11-.11.24-.3.24-.61,0-.27-.11-.45-.21-.53-.22-.21-.61-.22-.7-.22-.37,0-.61.11-.75.26-.16.16-.27.46-.26.77h-3.15ZM289.63,118c-.35.26-.62.3-.96.35-.27.05-.69.1-.96.38-.14.16-.19.32-.19.51,0,.24.1.42.21.53.18.18.38.21.56.21.37,0,.66-.1.91-.37.4-.42.43-.98.43-1.41v-.21Z"/>
      <path class="cls-2" d="M294.7,116.32c.06-.78.38-1.44.82-1.89.91-.94,2.35-1.09,3.43-1.09.78,0,2.43.03,3.36.95.75.72.83,1.66.83,2.32v3.67c0,.58.03.78.11.93.08.16.26.3.45.37v.11h-3.62l-.21-.88h-.03c-.26.3-.61.59-.99.78-.59.3-1.26.38-1.82.38-.64,0-1.46-.08-2.05-.62-.32-.3-.69-.85-.69-1.76,0-.61.16-1.14.61-1.58.64-.64,1.54-.8,2.19-.88l.96-.11c.91-.11,1.26-.14,1.49-.35.11-.11.24-.3.24-.61,0-.27-.11-.45-.21-.53-.22-.21-.61-.22-.7-.22-.37,0-.61.11-.75.26-.16.16-.27.46-.26.77h-3.15ZM299.78,118c-.35.26-.62.3-.96.35-.27.05-.69.1-.96.38-.14.16-.19.32-.19.51,0,.24.1.42.21.53.18.18.38.21.56.21.37,0,.66-.1.91-.37.4-.42.43-.98.43-1.41v-.21Z"/>
      <path class="cls-2" d="M308.42,110.48v11.2h-3.36v-11.2h3.36Z"/>
    </g>
  </g>
</svg>