<?xml version="1.0" encoding="UTF-8"?>
<svg id="Layer_2" data-name="Layer 2" xmlns="http://www.w3.org/2000/svg" viewBox="0 0 400 235.4">
  <defs>
    <style>
      .cls-1 {
        fill: #d13389;
        opacity: .7;
      }

      .cls-1, .cls-2 {
        stroke-width: 0px;
      }

      .cls-2 {
        fill: #eff3e8;
      }
    </style>
  </defs>
  <g id="Layer_1-2" data-name="Layer 1">
    <path class="cls-1" d="M0,176.94c0,32.13,26.95,57.74,59.04,55.99.25-.01.5-.03.75-.04,49.47-2.81,60.15-15.12,97.36-18.31,50.83-4.36,54.16,16.62,124.03,19.88,36.37,1.69,77.42,3.61,101.36-18.78,19.34-18.08,17.53-46.78,17.34-56.33-.6-29.49-15.11-49.74-20.2-56.64-18.87-25.57-45.96-36.95-50.72-38.89-11.51-4.67-18.71-5.32-29.87-12.96-14.44-9.88-21.3-21.73-24.23-25.92C247.98-13.49,140.31,3.29,124.36,5.78c-22.5,3.51-54.26,10.6-90.66,26.32C13.21,40.95,0,61.2,0,83.52v93.42Z"/>
    <g>
      <path class="cls-2" d="M60.09,102.14c1.33-1.39,2.91-1.57,4.24-1.57,1.44,0,3.2.24,4.5,1.58,1.26,1.3,1.49,2.99,1.49,4.23,0,2.16-.66,3.54-1.46,4.4-1.3,1.39-2.95,1.6-4.4,1.6s-3.2-.22-4.51-1.63c-.51-.54-1.44-1.86-1.44-4.24,0-2.06.75-3.49,1.58-4.37ZM62.92,108.85c.42.43.93.59,1.49.59s1.09-.13,1.5-.59c.51-.56.69-1.55.69-2.37s-.11-1.76-.69-2.37c-.42-.43-.9-.59-1.44-.59s-1.09.14-1.52.59c-.64.67-.74,1.76-.74,2.37s.08,1.7.7,2.37Z"/>
      <path class="cls-2" d="M75.21,104.82h.06c.26-.3.59-.58,1.04-.78.54-.26,1.07-.32,1.57-.32.72,0,1.57.11,2.24.75.74.7.83,1.6.83,2.74v4.88h-3.36v-4.35c0-.75-.18-1.07-.26-1.2-.18-.29-.43-.42-.77-.42-.29,0-.64.1-.9.46-.32.45-.32,1.09-.32,1.18v4.32h-3.36v-8.13h3.22v.86Z"/>
      <path class="cls-2" d="M88.88,112.08v-.78h-.06c-.78.94-1.87,1.07-2.56,1.07-.78,0-1.81-.14-2.66-1.02-.59-.62-1.12-1.65-1.12-3.14,0-1.41.46-2.69,1.18-3.46.75-.8,1.67-1.09,2.72-1.09,1.39,0,2,.56,2.34.98v-3.76h3.36v11.2h-3.2ZM88.36,106.35c-.19-.21-.51-.42-1.01-.42-.32,0-.64.1-.91.37-.46.48-.51,1.34-.51,1.79,0,.98.29,1.5.58,1.79.21.19.5.37.91.37.38,0,.7-.13.94-.4.42-.48.48-1.23.48-1.86,0-.56-.06-1.2-.48-1.65Z"/>
      <path class="cls-2" d="M102.88,109.73c-.22.69-.66,1.47-1.62,2.03-1.02.59-2.11.61-2.96.61-1.26,0-2.59-.11-3.6-1.12-.62-.62-1.1-1.63-1.1-2.99s.45-2.48,1.22-3.28c.99-1.04,2.27-1.31,3.52-1.31,1.86,0,2.93.56,3.55,1.2,1.1,1.14,1.12,2.67,1.12,3.63v.19h-5.97c-.02.43.1.94.3,1.23.21.27.53.46,1.02.46.24,0,.58-.03.8-.16.26-.14.37-.34.42-.5h3.3ZM99.55,107.09c0-.35-.13-.85-.35-1.09-.24-.27-.56-.34-.83-.34-.34,0-.67.08-.91.35-.26.27-.38.74-.4,1.07h2.5Z"/>
      <path class="cls-2" d="M111.05,106.35c-.27-.05-.62-.08-.88-.08-.98,0-1.49.4-1.7.61-.56.58-.59,1.42-.59,2.19v3.01h-3.36v-8.13h3.22v1.15c.35-.54.78-.85,1.1-1.02.54-.29,1.14-.35,1.66-.35.19,0,.35.02.54.05v2.58Z"/>
      <path class="cls-2" d="M117.87,112.08h-3.14l-2.82-8.13h3.2l1.26,4.42,1.09-4.42h2.88l1.07,4.42,1.22-4.42h3.23l-2.72,8.13h-3.07l-1.1-4.34-1.1,4.34Z"/>
      <path class="cls-2" d="M126.75,100.88h3.36v2.11h-3.36v-2.11ZM130.11,103.95v8.13h-3.36v-8.13h3.36Z"/>
      <path class="cls-2" d="M135.67,103.95v8.12c0,.75-.05,1.65-.7,2.3s-1.73.72-2.35.72c-.85,0-1.41-.08-1.79-.16v-2.27c.18.03.34.05.51.05.16,0,.51,0,.72-.21.22-.22.24-.58.24-.88v-7.67h3.38ZM132.3,100.88h3.39v2.22h-3.39v-2.22Z"/>
      <path class="cls-2" d="M140.41,109.41c-.05.29.03.66.24.86.16.16.45.27.82.27.29,0,.54-.02.82-.18.19-.11.35-.27.35-.56,0-.27-.13-.46-.4-.59s-.62-.18-1.07-.24l-.83-.13c-.77-.11-1.67-.29-2.23-.78-.3-.27-.67-.75-.67-1.58,0-1.14.59-1.79,1.12-2.14.88-.59,2.07-.69,2.99-.69,1.38,0,2.23.24,2.77.61.4.27,1.04.9,1.1,2.02h-2.87c.02-.22-.06-.54-.24-.72-.19-.19-.56-.26-.83-.26-.43,0-.66.14-.72.19-.18.13-.29.34-.29.54,0,.3.18.42.35.5.37.19.67.21,1.01.26l1.12.16c.56.08,1.5.26,2.11.83.37.35.69.93.69,1.73,0,1.06-.54,1.79-1.09,2.18-.54.38-1.47.7-3.2.7-1.47,0-2.72-.14-3.55-1.01-.37-.38-.77-1.04-.78-1.97h3.28Z"/>
      <path class="cls-2" d="M152.75,103.95h3.73l-3.25,3.28,3.33,4.85h-3.73l-1.68-2.88-.59.61v2.27h-3.36v-11.2h3.36v5.6l2.19-2.53Z"/>
      <path class="cls-2" d="M157.23,106.72c.06-.78.38-1.44.82-1.89.91-.94,2.35-1.09,3.43-1.09.78,0,2.43.03,3.36.95.75.72.83,1.66.83,2.32v3.67c0,.58.03.78.11.93.08.16.26.3.45.37v.11h-3.62l-.21-.88h-.03c-.26.3-.61.59-.99.78-.59.3-1.26.38-1.83.38-.64,0-1.46-.08-2.05-.62-.32-.3-.69-.85-.69-1.76,0-.61.16-1.14.61-1.58.64-.64,1.54-.8,2.19-.88l.96-.11c.91-.11,1.26-.14,1.49-.35.11-.11.24-.3.24-.61,0-.27-.11-.45-.21-.53-.22-.21-.61-.22-.7-.22-.37,0-.61.11-.75.26-.16.16-.27.46-.26.77h-3.15ZM162.3,108.4c-.35.26-.62.3-.96.35-.27.05-.69.1-.96.38-.14.16-.19.32-.19.51,0,.24.1.42.21.53.18.18.38.21.56.21.37,0,.66-.1.91-.37.4-.42.43-.98.43-1.41v-.21Z"/>
      <path class="cls-2" d="M170.79,104.82h.06c.26-.3.59-.58,1.04-.78.54-.26,1.07-.32,1.57-.32.72,0,1.57.11,2.24.75.74.7.83,1.6.83,2.74v4.88h-3.36v-4.35c0-.75-.18-1.07-.26-1.2-.18-.29-.43-.42-.77-.42-.29,0-.64.1-.9.46-.32.45-.32,1.09-.32,1.18v4.32h-3.36v-8.13h3.22v.86Z"/>
      <path class="cls-2" d="M181.26,109.41c-.05.29.03.66.24.86.16.16.45.27.82.27.29,0,.54-.02.82-.18.19-.11.35-.27.35-.56,0-.27-.13-.46-.4-.59-.27-.13-.62-.18-1.07-.24l-.83-.13c-.77-.11-1.66-.29-2.22-.78-.3-.27-.67-.75-.67-1.58,0-1.14.59-1.79,1.12-2.14.88-.59,2.06-.69,2.99-.69,1.38,0,2.22.24,2.77.61.4.27,1.04.9,1.1,2.02h-2.87c.02-.22-.06-.54-.24-.72-.19-.19-.56-.26-.83-.26-.43,0-.66.14-.72.19-.18.13-.29.34-.29.54,0,.3.18.42.35.5.37.19.67.21,1.01.26l1.12.16c.56.08,1.5.26,2.11.83.37.35.69.93.69,1.73,0,1.06-.54,1.79-1.09,2.18-.54.38-1.47.7-3.2.7-1.47,0-2.72-.14-3.55-1.01-.37-.38-.77-1.04-.78-1.97h3.28Z"/>
      <path class="cls-2" d="M196.76,109.73c-.22.69-.66,1.47-1.62,2.03-1.02.59-2.11.61-2.96.61-1.26,0-2.59-.11-3.6-1.12-.62-.62-1.1-1.63-1.1-2.99s.45-2.48,1.22-3.28c.99-1.04,2.27-1.31,3.52-1.31,1.86,0,2.93.56,3.55,1.2,1.1,1.14,1.12,2.67,1.12,3.63v.19h-5.97c-.02.43.1.94.3,1.23.21.27.53.46,1.02.46.24,0,.58-.03.8-.16.26-.14.37-.34.42-.5h3.3ZM193.43,107.09c0-.35-.13-.85-.35-1.09-.24-.27-.56-.34-.83-.34-.34,0-.67.08-.91.35-.26.27-.38.74-.4,1.07h2.5Z"/>
      <path class="cls-2" d="M201.63,104.82h.06c.26-.3.59-.58,1.04-.78.54-.26,1.07-.32,1.57-.32.72,0,1.57.11,2.24.75.74.7.83,1.6.83,2.74v4.88h-3.36v-4.35c0-.75-.18-1.07-.26-1.2-.18-.29-.43-.42-.77-.42-.29,0-.64.1-.9.46-.32.45-.32,1.09-.32,1.18v4.32h-3.36v-8.13h3.22v.86Z"/>
      <path class="cls-2" d="M218.14,103.95h3.31l-2.98,8.13h-3.62l-2.88-8.13h3.38l1.31,4.95,1.47-4.95Z"/>
      <path class="cls-2" d="M222.12,106.72c.06-.78.38-1.44.82-1.89.91-.94,2.35-1.09,3.43-1.09.78,0,2.43.03,3.36.95.75.72.83,1.66.83,2.32v3.67c0,.58.03.78.11.93.08.16.26.3.45.37v.11h-3.62l-.21-.88h-.03c-.26.3-.61.59-.99.78-.59.3-1.26.38-1.82.38-.64,0-1.46-.08-2.05-.62-.32-.3-.69-.85-.69-1.76,0-.61.16-1.14.61-1.58.64-.64,1.54-.8,2.19-.88l.96-.11c.91-.11,1.26-.14,1.49-.35.11-.11.24-.3.24-.61,0-.27-.11-.45-.21-.53-.22-.21-.61-.22-.7-.22-.37,0-.61.11-.75.26-.16.16-.27.46-.26.77h-3.15ZM227.19,108.4c-.35.26-.62.3-.96.35-.27.05-.69.1-.96.38-.14.16-.19.32-.19.51,0,.24.1.42.21.53.18.18.38.21.56.21.37,0,.66-.1.91-.37.4-.42.43-.98.43-1.41v-.21Z"/>
      <path class="cls-2" d="M235.69,104.82h.06c.26-.3.59-.58,1.04-.78.54-.26,1.07-.32,1.57-.32.72,0,1.57.11,2.24.75.74.7.83,1.6.83,2.74v4.88h-3.36v-4.35c0-.75-.18-1.07-.26-1.2-.18-.29-.43-.42-.77-.42-.29,0-.64.1-.9.46-.32.45-.32,1.09-.32,1.18v4.32h-3.36v-8.13h3.22v.86Z"/>
      <path class="cls-2" d="M246.95,103.95h7.32v2.24l-4.23,3.68,4.43-.02v2.22h-7.88v-2.24l4.29-3.68h-3.94v-2.21Z"/>
      <path class="cls-2" d="M255.91,100.88h3.36v2.11h-3.36v-2.11ZM259.27,103.95v8.13h-3.36v-8.13h3.36Z"/>
      <path class="cls-2" d="M269.85,108.88c-.11,1.06-.59,1.84-1.09,2.34-1.06,1.06-2.43,1.15-3.47,1.15s-2.34-.13-3.33-1.07c-.56-.53-1.17-1.5-1.17-3.09s.61-2.67,1.31-3.38c1.01-.98,2.3-1.22,3.41-1.22,1.71,0,2.71.58,3.28,1.15.5.51.93,1.31.99,2.34h-3.09c0-.32-.08-.79-.38-1.09-.21-.21-.48-.29-.77-.29-.34,0-.59.1-.82.34-.42.45-.48,1.23-.48,1.87,0,.45.02,1.47.5,1.98.24.27.51.34.82.34.24,0,.53-.03.77-.27.26-.27.38-.77.38-1.1h3.14Z"/>
      <path class="cls-2" d="M274.73,104.64c.45-.4,1.25-.93,2.56-.93,1.09,0,1.78.37,2.18.75.75.7.86,1.71.86,2.74v4.88h-3.36v-4.35c0-.26-.02-.85-.26-1.2-.16-.24-.4-.42-.79-.42s-.66.14-.88.46c-.21.3-.32.75-.32,1.18v4.32h-3.36v-11.2h3.36v3.76Z"/>
      <path class="cls-2" d="M282.61,103.95h7.32v2.24l-4.23,3.68,4.43-.02v2.22h-7.88v-2.24l4.29-3.68h-3.94v-2.21Z"/>
      <path class="cls-2" d="M300.3,109.73c-.22.69-.66,1.47-1.62,2.03-1.02.59-2.11.61-2.96.61-1.26,0-2.59-.11-3.6-1.12-.62-.62-1.1-1.63-1.1-2.99s.45-2.48,1.22-3.28c.99-1.04,2.27-1.31,3.52-1.31,1.86,0,2.93.56,3.55,1.2,1.1,1.14,1.12,2.67,1.12,3.63v.19h-5.97c-.02.43.1.94.3,1.23.21.27.53.46,1.02.46.24,0,.58-.03.8-.16.26-.14.37-.34.42-.5h3.3ZM296.97,107.09c0-.35-.13-.85-.35-1.09-.24-.27-.56-.34-.83-.34-.34,0-.67.08-.91.35-.26.27-.38.74-.4,1.07h2.5Z"/>
      <path class="cls-2" d="M305.3,100.88v11.2h-3.36v-11.2h3.36Z"/>
      <path class="cls-2" d="M313.19,106.16h-1.89v5.92h-3.39v-5.92h-1.49v-2.21h1.49v-.13c0-.75.1-1.58.75-2.21.74-.71,1.87-.74,2.45-.74s1.46.08,2.08.16v2.03c-.27-.06-.66-.13-.88-.13-.29,0-.56.06-.74.21-.3.22-.27.46-.27.74v.06h1.89v2.21Z"/>
      <path class="cls-2" d="M326.76,109.73c-.22.69-.66,1.47-1.62,2.03-1.02.59-2.11.61-2.96.61-1.26,0-2.59-.11-3.6-1.12-.62-.62-1.1-1.63-1.1-2.99s.45-2.48,1.22-3.28c.99-1.04,2.27-1.31,3.52-1.31,1.86,0,2.93.56,3.55,1.2,1.1,1.14,1.12,2.67,1.12,3.63v.19h-5.97c-.02.43.1.94.3,1.23.21.27.53.46,1.02.46.24,0,.58-.03.8-.16.26-.14.37-.34.42-.5h3.3ZM323.43,107.09c0-.35-.13-.85-.35-1.09-.24-.27-.56-.34-.83-.34-.34,0-.67.08-.91.35-.26.27-.38.74-.4,1.07h2.5Z"/>
      <path class="cls-2" d="M331.62,104.82h.06c.26-.3.59-.58,1.04-.78.54-.26,1.07-.32,1.57-.32.72,0,1.57.11,2.24.75.74.7.83,1.6.83,2.74v4.88h-3.36v-4.35c0-.75-.18-1.07-.26-1.2-.18-.29-.43-.42-.77-.42-.29,0-.64.1-.9.46-.32.45-.32,1.09-.32,1.18v4.32h-3.36v-8.13h3.22v.86Z"/>
      <path class="cls-2" d="M89.63,125.92c.06-.78.38-1.44.82-1.89.91-.94,2.35-1.09,3.43-1.09.78,0,2.43.03,3.36.95.75.72.83,1.66.83,2.32v3.67c0,.58.03.78.11.93.08.16.26.3.45.37v.11h-3.62l-.21-.88h-.03c-.26.3-.61.59-.99.78-.59.3-1.26.38-1.83.38-.64,0-1.46-.08-2.05-.62-.32-.3-.69-.85-.69-1.76,0-.61.16-1.14.61-1.58.64-.64,1.54-.8,2.19-.88l.96-.11c.91-.11,1.26-.14,1.49-.35.11-.11.24-.3.24-.61,0-.27-.11-.45-.21-.53-.22-.21-.61-.22-.7-.22-.37,0-.61.11-.75.26-.16.16-.27.46-.26.77h-3.15ZM94.7,127.6c-.35.26-.62.3-.96.35-.27.05-.69.1-.96.38-.14.16-.19.32-.19.51,0,.24.1.42.21.53.18.18.38.21.56.21.37,0,.66-.1.91-.37.4-.42.43-.98.43-1.41v-.21Z"/>
      <path class="cls-2" d="M103.2,124.02h.06c.26-.3.59-.58,1.04-.78.54-.26,1.07-.32,1.57-.32.72,0,1.57.11,2.24.75.74.7.83,1.6.83,2.74v4.88h-3.36v-4.35c0-.75-.18-1.07-.26-1.2-.18-.29-.43-.42-.77-.42-.29,0-.64.1-.9.46-.32.45-.32,1.09-.32,1.18v4.32h-3.36v-8.13h3.22v.86Z"/>
      <path class="cls-2" d="M116.86,131.28v-.78h-.06c-.78.94-1.87,1.07-2.56,1.07-.78,0-1.81-.14-2.66-1.02-.59-.62-1.12-1.65-1.12-3.14,0-1.41.46-2.69,1.18-3.46.75-.8,1.67-1.09,2.72-1.09,1.39,0,2,.56,2.34.98v-3.76h3.36v11.2h-3.2ZM116.35,125.55c-.19-.21-.51-.42-1.01-.42-.32,0-.64.1-.91.37-.46.48-.51,1.34-.51,1.79,0,.98.29,1.5.58,1.79.21.19.5.37.91.37.38,0,.7-.13.94-.4.42-.48.48-1.23.48-1.86,0-.56-.06-1.2-.48-1.65Z"/>
      <path class="cls-2" d="M130.86,128.93c-.22.69-.66,1.47-1.62,2.03-1.02.59-2.11.61-2.96.61-1.26,0-2.59-.11-3.6-1.12-.62-.62-1.1-1.63-1.1-2.99s.45-2.48,1.22-3.28c.99-1.04,2.27-1.31,3.52-1.31,1.86,0,2.93.56,3.55,1.2,1.1,1.14,1.12,2.67,1.12,3.63v.19h-5.97c-.02.43.1.94.3,1.23.21.27.53.46,1.02.46.24,0,.58-.03.8-.16.26-.14.37-.34.42-.5h3.3ZM127.53,126.29c0-.35-.13-.85-.35-1.09-.24-.27-.56-.34-.83-.34-.34,0-.67.08-.91.35-.26.27-.38.74-.4,1.07h2.5Z"/>
      <path class="cls-2" d="M139.04,125.55c-.27-.05-.62-.08-.88-.08-.98,0-1.49.4-1.7.61-.56.58-.59,1.42-.59,2.19v3.01h-3.36v-8.13h3.22v1.15c.35-.54.78-.85,1.1-1.02.54-.29,1.14-.35,1.66-.35.19,0,.35.02.54.05v2.58Z"/>
      <path class="cls-2" d="M149.04,128.93c-.22.69-.66,1.47-1.62,2.03-1.02.59-2.11.61-2.96.61-1.26,0-2.59-.11-3.6-1.12-.62-.62-1.1-1.63-1.1-2.99s.45-2.48,1.22-3.28c.99-1.04,2.27-1.31,3.52-1.31,1.86,0,2.93.56,3.55,1.2,1.1,1.14,1.12,2.67,1.12,3.63v.19h-5.97c-.02.43.1.94.3,1.23.21.27.53.46,1.02.46.24,0,.58-.03.8-.16.26-.14.37-.34.42-.5h3.3ZM145.71,126.29c0-.35-.13-.85-.35-1.09-.24-.27-.56-.34-.83-.34-.34,0-.67.08-.91.35-.26.27-.38.74-.4,1.07h2.5Z"/>
      <path class="cls-2" d="M153.9,124.02h.06c.26-.3.59-.58,1.04-.78.54-.26,1.07-.32,1.57-.32.72,0,1.57.11,2.24.75.74.7.83,1.6.83,2.74v4.88h-3.36v-4.35c0-.75-.18-1.07-.26-1.2-.18-.29-.43-.42-.77-.42-.29,0-.64.1-.9.46-.32.45-.32,1.09-.32,1.18v4.32h-3.36v-8.13h3.22v.86Z"/>
      <path class="cls-2" d="M168.67,124.02h.06c.26-.3.59-.58,1.04-.78.54-.26,1.07-.32,1.57-.32.72,0,1.57.11,2.24.75.74.7.83,1.6.83,2.74v4.88h-3.36v-4.35c0-.75-.18-1.07-.26-1.2-.18-.29-.43-.42-.77-.42-.29,0-.64.1-.9.46-.32.45-.32,1.09-.32,1.18v4.32h-3.36v-8.13h3.22v.86Z"/>
      <path class="cls-2" d="M176.49,120.08h3.36v2.11h-3.36v-2.11ZM179.85,123.15v8.13h-3.36v-8.13h3.36Z"/>
      <path class="cls-2" d="M190.65,128.93c-.22.69-.66,1.47-1.62,2.03-1.02.59-2.11.61-2.96.61-1.26,0-2.59-.11-3.6-1.12-.62-.62-1.1-1.63-1.1-2.99s.45-2.48,1.22-3.28c.99-1.04,2.27-1.31,3.52-1.31,1.86,0,2.93.56,3.55,1.2,1.1,1.14,1.12,2.67,1.12,3.63v.19h-5.97c-.02.43.1.94.3,1.23.21.27.53.46,1.02.46.24,0,.58-.03.8-.16.26-.14.37-.34.42-.5h3.3ZM187.32,126.29c0-.35-.13-.85-.35-1.09-.24-.27-.56-.34-.83-.34-.34,0-.67.08-.91.35-.26.27-.38.74-.4,1.07h2.5Z"/>
      <path class="cls-2" d="M191.34,123.15h1.47v-2.4h3.36v2.4h1.73v2.21h-1.73v2.69c0,.24,0,.64.22.88.11.11.32.22.75.22.24,0,.51-.05.75-.11v2.26c-.72.16-1.36.22-2.07.22s-1.79-.06-2.4-.67c-.54-.54-.62-1.42-.62-2v-3.49h-1.47v-2.21Z"/>
      <path class="cls-2" d="M206.28,131.28h-3.2v-11.2h3.36v3.76c.83-.88,1.81-.98,2.46-.98.9,0,1.82.24,2.61,1.04.37.38,1.17,1.39,1.17,3.31s-.7,2.87-1.23,3.38c-.78.78-1.68.98-2.69.98-.78,0-1.73-.16-2.42-1.07h-.06v.78ZM206.83,129.06c.22.24.54.4.9.4.46,0,.77-.19.94-.38.4-.42.56-1.2.56-1.86s-.16-1.34-.53-1.71c-.24-.24-.53-.37-.91-.37s-.72.13-.98.4c-.4.43-.51,1.15-.51,1.78,0,.78.19,1.39.53,1.75Z"/>
      <path class="cls-2" d="M222.92,128.93c-.22.69-.66,1.47-1.62,2.03-1.02.59-2.11.61-2.96.61-1.26,0-2.59-.11-3.6-1.12-.62-.62-1.1-1.63-1.1-2.99s.45-2.48,1.22-3.28c.99-1.04,2.27-1.31,3.52-1.31,1.86,0,2.93.56,3.55,1.2,1.1,1.14,1.12,2.67,1.12,3.63v.19h-5.97c-.02.43.1.94.3,1.23.21.27.53.46,1.02.46.24,0,.58-.03.8-.16.26-.14.37-.34.42-.5h3.3ZM219.59,126.29c0-.35-.13-.85-.35-1.09-.24-.27-.56-.34-.83-.34-.34,0-.67.08-.91.35-.26.27-.38.74-.4,1.07h2.5Z"/>
      <path class="cls-2" d="M227.93,120.08v11.2h-3.36v-11.2h3.36Z"/>
      <path class="cls-2" d="M238.73,128.93c-.22.69-.66,1.47-1.62,2.03-1.02.59-2.11.61-2.96.61-1.26,0-2.59-.11-3.6-1.12-.62-.62-1.1-1.63-1.1-2.99s.45-2.48,1.22-3.28c.99-1.04,2.27-1.31,3.52-1.31,1.86,0,2.93.56,3.55,1.2,1.1,1.14,1.12,2.67,1.12,3.63v.19h-5.97c-.02.43.1.94.3,1.23.21.27.53.46,1.02.46.24,0,.58-.03.8-.16.26-.14.37-.34.42-.5h3.3ZM235.4,126.29c0-.35-.13-.85-.35-1.09-.24-.27-.56-.34-.83-.34-.34,0-.67.08-.91.35-.26.27-.38.74-.4,1.07h2.5Z"/>
      <path class="cls-2" d="M243.4,123.15v1.12h.1c.26-.4.59-.74.93-.96.4-.26.94-.43,1.57-.43.51,0,1.14.16,1.55.42.32.21.69.58.9,1.12.29-.46.66-.8,1.04-1.04.64-.42,1.25-.5,1.87-.5.5,0,1.46.06,2.16.74.83.78.93,2.06.93,2.85v4.82h-3.28v-4.53c0-.24-.02-.78-.27-1.12-.14-.21-.38-.37-.7-.37-.26,0-.58.08-.83.46-.19.29-.3.69-.3,1.15v4.4h-3.28v-4.59c0-.13-.02-.8-.3-1.14-.14-.16-.4-.29-.69-.29-.24,0-.54.1-.8.45-.21.3-.32.74-.32,1.12v4.45h-3.28v-8.13h3.03Z"/>
      <path class="cls-2" d="M259.54,123.15v1.12h.1c.26-.4.59-.74.93-.96.4-.26.95-.43,1.57-.43.51,0,1.14.16,1.55.42.32.21.69.58.9,1.12.29-.46.66-.8,1.04-1.04.64-.42,1.25-.5,1.87-.5.5,0,1.46.06,2.16.74.83.78.93,2.06.93,2.85v4.82h-3.28v-4.53c0-.24-.02-.78-.27-1.12-.14-.21-.38-.37-.7-.37-.26,0-.58.08-.83.46-.19.29-.3.69-.3,1.15v4.4h-3.28v-4.59c0-.13-.02-.8-.3-1.14-.14-.16-.4-.29-.69-.29-.24,0-.54.1-.8.45-.21.3-.32.74-.32,1.12v4.45h-3.28v-8.13h3.02Z"/>
      <path class="cls-2" d="M281.39,128.93c-.22.69-.66,1.47-1.62,2.03-1.02.59-2.11.61-2.96.61-1.26,0-2.59-.11-3.6-1.12-.62-.62-1.1-1.63-1.1-2.99s.45-2.48,1.22-3.28c.99-1.04,2.27-1.31,3.52-1.31,1.86,0,2.93.56,3.55,1.2,1.1,1.14,1.12,2.67,1.12,3.63v.19h-5.97c-.02.43.1.94.3,1.23.21.27.53.46,1.02.46.24,0,.58-.03.8-.16.26-.14.37-.34.42-.5h3.3ZM278.06,126.29c0-.35-.13-.85-.35-1.09-.24-.27-.56-.34-.83-.34-.34,0-.67.08-.91.35-.26.27-.38.74-.4,1.07h2.5Z"/>
      <path class="cls-2" d="M289.56,125.55c-.27-.05-.62-.08-.88-.08-.98,0-1.49.4-1.7.61-.56.58-.59,1.42-.59,2.19v3.01h-3.36v-8.13h3.22v1.15c.35-.54.78-.85,1.1-1.02.54-.29,1.14-.35,1.67-.35.19,0,.35.02.54.05v2.58Z"/>
      <path class="cls-2" d="M299.56,128.93c-.22.69-.66,1.47-1.62,2.03-1.02.59-2.11.61-2.96.61-1.26,0-2.59-.11-3.6-1.12-.62-.62-1.1-1.63-1.1-2.99s.45-2.48,1.22-3.28c.99-1.04,2.27-1.31,3.52-1.31,1.86,0,2.93.56,3.55,1.2,1.1,1.14,1.12,2.67,1.12,3.63v.19h-5.97c-.02.43.1.94.3,1.23.21.27.53.46,1.02.46.24,0,.58-.03.8-.16.26-.14.37-.34.42-.5h3.3ZM296.23,126.29c0-.35-.13-.85-.35-1.09-.24-.27-.56-.34-.83-.34-.34,0-.67.08-.91.35-.26.27-.38.74-.4,1.07h2.5Z"/>
      <path class="cls-2" d="M304.42,124.02h.06c.26-.3.59-.58,1.04-.78.54-.26,1.07-.32,1.57-.32.72,0,1.57.11,2.24.75.74.7.83,1.6.83,2.74v4.88h-3.36v-4.35c0-.75-.18-1.07-.26-1.2-.18-.29-.43-.42-.77-.42-.29,0-.64.1-.9.46-.32.45-.32,1.09-.32,1.18v4.32h-3.36v-8.13h3.22v.86Z"/>
    </g>
  </g>
</svg>