<?xml version="1.0" encoding="UTF-8"?>
<svg id="Layer_2" data-name="Layer 2" xmlns="http://www.w3.org/2000/svg" viewBox="0 0 397.92 239.39">
  <defs>
    <style>
      .cls-1 {
        fill: #d13389;
        opacity: .7;
      }

      .cls-1, .cls-2 {
        stroke-width: 0px;
      }

      .cls-2 {
        fill: #eff3e8;
      }
    </style>
  </defs>
  <g id="Layer_1-2" data-name="Layer 1">
    <g>
      <path class="cls-1" d="M374.23,189.06c-37.1,18.02-83.4,30.25-134.11,33.59-63.85,4.21-164.56,29.36-207.95,8.69C-11.22,210.66,2.71,144.15.36,108.39c-1.93-29.32,13.68-57.5,41.58-81.14C51.26,19.35,106.23-3.32,158.39.41c54.97,3.94,97.26,25.82,127.73,33.15,51.69,12.44,70.26-5.8,93.83,26.3,30.11,41.01,18.36,117.51-5.72,129.2Z"/>
      <g>
        <path class="cls-2" d="M73.57,105.63l.74,11.18-3.48.23-.74-11.18,3.48-.23Z"/>
        <path class="cls-2" d="M79.43,109.18h.06c.24-.33.55-.62.99-.86.53-.29,1.05-.39,1.54-.42.72-.05,1.57,0,2.29.6.78.65.94,1.54,1.01,2.68l.32,4.87-3.35.22-.29-4.34c-.05-.75-.25-1.06-.33-1.18-.19-.28-.46-.39-.79-.36-.29.02-.63.14-.86.52-.29.47-.25,1.11-.24,1.2l.28,4.31-3.35.22-.53-8.11,3.21-.21.06.86Z"/>
        <path class="cls-2" d="M90.17,113.08c-.03.29.07.65.3.85.17.15.47.24.83.22.29-.02.54-.05.8-.23.18-.12.33-.29.31-.58-.02-.27-.16-.46-.44-.57-.28-.11-.63-.13-1.09-.17l-.84-.07c-.77-.06-1.68-.18-2.27-.64-.32-.25-.72-.71-.78-1.54-.07-1.13.47-1.83.98-2.21.84-.65,2.02-.82,2.94-.88,1.37-.09,2.24.09,2.8.43.42.25,1.1.83,1.23,1.94l-2.86.19c0-.22-.1-.54-.29-.7-.2-.18-.58-.22-.85-.2-.43.03-.65.19-.71.24-.17.14-.27.35-.25.56.02.3.2.4.38.47.38.17.68.16,1.02.19l1.13.09c.56.04,1.52.16,2.16.69.39.33.75.88.8,1.68.07,1.05-.43,1.82-.94,2.24-.52.42-1.42.8-3.15.91-1.47.1-2.72.04-3.61-.77-.39-.36-.84-.99-.91-1.91l3.27-.22Z"/>
        <path class="cls-2" d="M95.96,107.23l1.47-.1-.16-2.4,3.35-.22.16,2.4,1.72-.11.15,2.2-1.72.11.18,2.68c.02.24.04.64.28.86.12.1.33.2.77.17.24-.02.51-.08.74-.16l.15,2.25c-.71.21-1.34.31-2.05.36s-1.79.05-2.44-.51c-.58-.51-.72-1.38-.75-1.95l-.23-3.48-1.47.1-.15-2.2Z"/>
        <path class="cls-2" d="M110.63,108.67c-.28-.03-.63-.04-.88-.02-.97.06-1.46.5-1.65.72-.52.61-.5,1.46-.45,2.23l.2,3-3.35.22-.53-8.11,3.21-.21.08,1.15c.32-.57.73-.9,1.03-1.09.52-.32,1.11-.43,1.64-.46.19-.01.35,0,.55.01l.17,2.57Z"/>
        <path class="cls-2" d="M118.04,113.02h-.08c-.82,1.01-1.84,1.25-2.69,1.31-.69.05-1.51-.01-2.17-.58-.88-.76-.98-2.04-1.03-2.71l-.32-4.85,3.35-.22.29,4.36c.05.72.21,1.04.35,1.21.23.27.53.32.82.3.37-.02.6-.15.79-.45.28-.42.27-.95.25-1.25l-.28-4.31,3.35-.22.53,8.11-3.11.21-.06-.89Z"/>
        <path class="cls-2" d="M131.55,109.82c-.04,1.06-.47,1.88-.93,2.4-.98,1.12-2.35,1.31-3.39,1.38s-2.34.03-3.39-.85c-.59-.49-1.26-1.42-1.37-3.01s.43-2.71,1.09-3.46c.94-1.04,2.22-1.37,3.32-1.44,1.71-.11,2.74.4,3.35.93.53.48,1.01,1.25,1.14,2.27l-3.08.2c-.02-.32-.13-.78-.46-1.06-.22-.19-.5-.26-.79-.24-.34.02-.58.13-.79.39-.39.47-.4,1.26-.36,1.9.03.45.11,1.47.63,1.95.26.26.53.3.84.28.24-.02.53-.07.75-.32.24-.29.33-.79.31-1.13l3.13-.21Z"/>
        <path class="cls-2" d="M131.78,104.87l1.47-.1-.16-2.4,3.35-.22.16,2.4,1.72-.11.15,2.2-1.72.11.18,2.68c.02.24.04.64.28.86.12.1.33.2.77.17.24-.02.51-.08.74-.16l.15,2.25c-.71.21-1.34.31-2.05.36s-1.79.05-2.44-.51c-.58-.51-.72-1.38-.75-1.95l-.23-3.48-1.47.1-.15-2.2Z"/>
        <path class="cls-2" d="M139.58,101.28l3.35-.22.14,2.11-3.35.22-.14-2.11ZM143.14,104.12l.53,8.11-3.35.22-.53-8.11,3.35-.22Z"/>
        <path class="cls-2" d="M154.29,109.18c-.18.7-.56,1.51-1.48,2.13-.98.66-2.07.75-2.92.8-1.26.08-2.59.06-3.67-.88-.66-.58-1.21-1.56-1.3-2.91s.28-2.51,1-3.35c.92-1.1,2.18-1.46,3.43-1.54,1.85-.12,2.96.37,3.62.96,1.18,1.06,1.29,2.59,1.36,3.55v.19s-5.95.39-5.95.39c.01.43.16.94.38,1.21.23.26.56.43,1.05.4.24-.02.57-.07.79-.21.25-.16.35-.36.38-.52l3.29-.22ZM150.8,106.76c-.02-.35-.18-.84-.42-1.06-.26-.26-.58-.3-.85-.28-.34.02-.67.12-.89.41-.24.29-.34.76-.33,1.1l2.49-.16Z"/>
        <path class="cls-2" d="M158.55,108.58c-.03.29.07.65.3.85.17.15.47.24.83.22.29-.02.54-.05.8-.23.18-.12.33-.29.31-.58-.02-.27-.16-.46-.44-.57-.28-.11-.63-.13-1.09-.17l-.84-.07c-.77-.06-1.68-.18-2.27-.64-.32-.25-.72-.71-.78-1.54-.07-1.13.47-1.83.98-2.21.84-.65,2.02-.82,2.94-.88,1.37-.09,2.24.09,2.8.43.42.25,1.1.83,1.23,1.94l-2.86.19c0-.22-.1-.54-.29-.7-.2-.18-.58-.22-.85-.2-.43.03-.65.19-.71.24-.17.14-.27.35-.25.56.02.3.2.4.38.47.38.17.68.16,1.02.19l1.13.09c.56.04,1.52.16,2.16.69.39.33.75.88.8,1.68.07,1.05-.43,1.82-.94,2.24-.52.42-1.42.8-3.15.91-1.47.1-2.72.04-3.61-.77-.39-.36-.84-.99-.91-1.91l3.27-.22Z"/>
        <path class="cls-2" d="M173.63,102.11l3.31-.22-2.44,8.31-3.61.24-3.41-7.92,3.37-.22,1.63,4.85,1.14-5.03Z"/>
        <path class="cls-2" d="M177.79,104.61c.01-.79.29-1.46.69-1.94.85-1,2.28-1.24,3.35-1.31.78-.05,2.43-.13,3.42.72.8.67.94,1.61.98,2.26l.24,3.66c.04.57.08.78.17.92.09.15.28.29.47.34v.11s-3.6.24-3.6.24l-.27-.86h-.03c-.24.32-.57.63-.94.85-.57.34-1.24.47-1.8.5-.64.04-1.46.02-2.09-.49-.34-.28-.74-.8-.8-1.71-.04-.61.09-1.14.5-1.62.6-.68,1.48-.9,2.13-1.02l.95-.18c.9-.17,1.25-.23,1.46-.45.1-.12.22-.32.2-.62-.02-.27-.14-.44-.24-.51-.24-.19-.62-.18-.72-.18-.37.02-.6.15-.73.3-.15.17-.24.48-.2.78l-3.15.21ZM182.96,105.96c-.33.28-.6.35-.94.41-.27.07-.68.14-.93.45-.13.17-.17.33-.16.52.02.24.12.41.24.51.19.16.4.18.57.17.37-.02.65-.14.89-.43.37-.44.37-1,.34-1.43v-.21Z"/>
        <path class="cls-2" d="M191.2,101.82h.06c.24-.33.55-.62.99-.86.53-.29,1.05-.39,1.54-.42.72-.05,1.57,0,2.29.6.78.65.94,1.54,1.01,2.68l.32,4.87-3.35.22-.29-4.34c-.05-.75-.25-1.06-.33-1.18-.19-.28-.46-.39-.79-.36-.29.02-.63.14-.86.52-.29.47-.25,1.11-.24,1.2l.28,4.31-3.35.22-.53-8.11,3.21-.21.06.86Z"/>
        <path class="cls-2" d="M206.07,100.66c.42-.43,1.18-1.01,2.49-1.09,1.09-.07,1.8.25,2.22.61.8.65.98,1.65,1.04,2.67l.32,4.87-3.35.22-.29-4.34c-.02-.26-.07-.85-.33-1.18-.18-.23-.43-.39-.81-.36s-.65.19-.85.52c-.19.32-.27.77-.24,1.2l.28,4.31-3.35.22-.74-11.18,3.35-.22.25,3.75Z"/>
        <path class="cls-2" d="M222.77,104.67c-.18.7-.56,1.51-1.48,2.13-.98.66-2.07.75-2.92.8-1.26.08-2.59.06-3.67-.88-.66-.58-1.21-1.56-1.3-2.91s.28-2.51,1-3.35c.92-1.1,2.18-1.46,3.43-1.54,1.85-.12,2.96.37,3.62.96,1.18,1.06,1.29,2.59,1.36,3.55v.19s-5.95.39-5.95.39c.01.43.16.94.38,1.21.23.26.56.43,1.05.4.24-.02.57-.07.79-.21.25-.16.35-.36.38-.52l3.29-.22ZM219.27,102.25c-.02-.35-.18-.84-.42-1.06-.26-.26-.58-.3-.85-.28-.34.02-.67.12-.89.41-.24.29-.34.76-.33,1.1l2.49-.16Z"/>
        <path class="cls-2" d="M223.07,98.85l1.47-.1-.16-2.4,3.35-.22.16,2.4,1.72-.11.15,2.2-1.72.11.18,2.68c.02.24.04.64.28.86.12.1.33.2.77.17.24-.02.51-.08.74-.16l.15,2.25c-.71.21-1.34.31-2.05.36s-1.79.05-2.44-.51c-.58-.51-.72-1.38-.75-1.95l-.23-3.48-1.47.1-.15-2.2Z"/>
        <path class="cls-2" d="M237.98,97.87l.06.89h.06c.68-1.11,1.76-1.31,2.54-1.36.69-.05,1.73-.03,2.61.71.27.22,1.23,1.14,1.37,3.25.08,1.28-.18,2.66-.97,3.58-.74.88-1.69,1.11-2.6,1.17-.72.05-1.65,0-2.42-.72l.23,3.55-3.35.22-.73-11.07,3.19-.21ZM238.8,103.62c.31.35.69.47,1.07.44.43-.03.72-.21.95-.48.43-.54.41-1.33.38-1.76-.03-.48-.13-1.26-.61-1.72-.19-.2-.52-.38-1-.35-.34.02-.68.16-.93.48-.42.51-.42,1.23-.38,1.79.03.45.11,1.13.52,1.6Z"/>
        <path class="cls-2" d="M254.97,102.54c-.18.7-.56,1.51-1.48,2.13-.98.66-2.07.75-2.92.8-1.26.08-2.59.06-3.67-.88-.66-.58-1.21-1.56-1.3-2.91s.28-2.51,1-3.35c.92-1.1,2.18-1.46,3.43-1.54,1.85-.12,2.96.37,3.62.96,1.18,1.06,1.29,2.59,1.36,3.55v.19s-5.95.39-5.95.39c.01.43.16.94.38,1.21.23.26.56.43,1.05.4.24-.02.57-.07.79-.21.25-.16.35-.36.38-.52l3.29-.22ZM251.47,100.13c-.02-.35-.18-.84-.42-1.06-.26-.26-.58-.3-.85-.28-.34.02-.67.12-.89.41-.24.29-.34.76-.33,1.1l2.49-.16Z"/>
        <path class="cls-2" d="M262.91,98.64c-.28-.03-.63-.04-.88-.02-.97.06-1.46.5-1.65.72-.52.61-.5,1.46-.45,2.23l.2,3-3.35.22-.53-8.11,3.21-.21.08,1.15c.32-.57.73-.9,1.03-1.09.52-.32,1.11-.43,1.64-.46.19-.01.35,0,.55.01l.17,2.57Z"/>
        <path class="cls-2" d="M267.02,101.43c-.03.29.07.65.3.85.17.15.47.24.83.22.29-.02.54-.05.8-.23.18-.12.33-.29.31-.58-.02-.27-.16-.46-.44-.57-.28-.11-.63-.13-1.09-.17l-.84-.07c-.77-.06-1.68-.18-2.27-.64-.32-.25-.72-.71-.78-1.54-.07-1.13.47-1.83.98-2.21.84-.65,2.02-.82,2.94-.88,1.37-.09,2.24.09,2.8.43.42.25,1.1.83,1.23,1.94l-2.86.19c0-.22-.1-.54-.29-.7-.2-.18-.58-.22-.85-.2-.43.03-.65.19-.71.24-.17.14-.27.35-.25.56.02.3.2.4.38.47.38.17.68.16,1.02.19l1.13.09c.56.04,1.52.16,2.16.69.39.33.75.88.8,1.68.07,1.05-.43,1.82-.94,2.24-.52.42-1.42.8-3.15.91-1.47.1-2.72.04-3.61-.77-.39-.36-.84-.99-.91-1.91l3.27-.22Z"/>
        <path class="cls-2" d="M281.6,102.26c-1.05,1.16-2.53,1.34-3.6,1.41-1.15.08-2.42.05-3.45-.78-.63-.49-1.3-1.42-1.41-3.08s.47-2.66,1-3.31c1.03-1.21,2.37-1.46,3.48-1.53.99-.07,2.42-.03,3.57.93.7.58,1.32,1.55,1.42,3.08s-.47,2.66-1.02,3.28ZM276.97,97.45c-.18.22-.47.72-.38,1.95.04.67.24,1.52.62,1.88.24.24.52.29.79.27.3-.02.57-.12.78-.37.49-.59.41-1.81.4-1.95-.04-.56-.18-1.46-.64-1.9-.24-.22-.48-.27-.77-.25-.34.02-.59.12-.79.37Z"/>
        <path class="cls-2" d="M287.13,95.5h.06c.24-.33.55-.62.99-.86.53-.29,1.05-.39,1.54-.42.72-.05,1.57,0,2.29.6.78.65.94,1.54,1.01,2.68l.32,4.87-3.35.22-.29-4.34c-.05-.75-.25-1.06-.33-1.18-.19-.28-.46-.39-.79-.36-.29.02-.63.14-.86.52-.29.47-.25,1.11-.24,1.2l.28,4.31-3.35.22-.53-8.11,3.21-.21.06.86Z"/>
        <path class="cls-2" d="M303.97,99.31c-.18.7-.56,1.51-1.48,2.13-.98.66-2.07.75-2.92.8-1.26.08-2.59.06-3.67-.88-.66-.58-1.21-1.56-1.3-2.91s.28-2.51,1-3.35c.92-1.1,2.18-1.46,3.43-1.54,1.85-.12,2.96.37,3.62.96,1.18,1.06,1.29,2.59,1.36,3.55v.19s-5.95.39-5.95.39c.01.43.16.94.38,1.21.23.26.56.43,1.05.4.24-.02.57-.07.79-.21.25-.16.35-.36.38-.52l3.29-.22ZM300.47,96.9c-.02-.35-.18-.84-.42-1.06-.26-.26-.58-.3-.85-.28-.34.02-.67.12-.89.41-.24.29-.34.76-.33,1.1l2.49-.16Z"/>
        <path class="cls-2" d="M314.31,98.63c-.18.7-.56,1.51-1.48,2.13-.98.66-2.07.75-2.92.8-1.26.08-2.59.06-3.67-.88-.66-.58-1.21-1.56-1.3-2.91s.28-2.51,1-3.35c.92-1.1,2.18-1.46,3.43-1.54,1.85-.12,2.96.37,3.62.96,1.18,1.06,1.29,2.59,1.36,3.55v.19s-5.95.39-5.95.39c.01.43.16.94.38,1.21.23.26.56.43,1.05.4.24-.02.57-.07.79-.21.25-.16.35-.36.38-.52l3.29-.22ZM310.82,96.22c-.02-.35-.18-.84-.42-1.06-.26-.26-.58-.3-.85-.28-.34.02-.67.12-.89.41-.24.29-.34.76-.33,1.1l2.49-.16Z"/>
        <path class="cls-2" d="M318.73,89.47l.74,11.18-3.35.22-.74-11.18,3.35-.22Z"/>
        <path class="cls-2" d="M146.27,123.16l3.31-.22-2.44,8.31-3.61.24-3.41-7.92,3.37-.22,1.63,4.85,1.14-5.03Z"/>
        <path class="cls-2" d="M153.6,119.59l.74,11.18-3.35.22-.74-11.18,3.35-.22Z"/>
        <path class="cls-2" d="M164.05,129.25c-1.05,1.16-2.53,1.34-3.6,1.41-1.15.08-2.42.05-3.45-.78-.63-.49-1.3-1.42-1.41-3.08s.47-2.66,1-3.31c1.03-1.21,2.37-1.46,3.48-1.53.99-.07,2.42-.03,3.57.93.7.58,1.32,1.55,1.42,3.08s-.47,2.66-1.02,3.28ZM159.42,124.44c-.18.22-.47.72-.38,1.95.04.67.24,1.52.62,1.88.24.24.52.29.79.27.3-.02.57-.12.78-.37.49-.59.41-1.81.4-1.95-.04-.56-.18-1.46-.64-1.9-.24-.22-.48-.27-.77-.25-.34.02-.59.12-.79.37Z"/>
        <path class="cls-2" d="M165.36,121.9l1.47-.1-.16-2.4,3.35-.22.16,2.4,1.72-.11.15,2.2-1.72.11.18,2.68c.02.24.04.64.28.86.12.1.33.2.77.17.24-.02.51-.08.74-.16l.15,2.25c-.71.21-1.34.31-2.05.36s-1.79.05-2.44-.51c-.58-.51-.72-1.38-.75-1.95l-.23-3.48-1.47.1-.15-2.2Z"/>
        <path class="cls-2" d="M185.25,127.85c-1.05,1.16-2.53,1.34-3.6,1.41-1.15.08-2.42.05-3.45-.78-.63-.49-1.3-1.42-1.41-3.08s.47-2.66,1-3.31c1.03-1.21,2.37-1.46,3.48-1.53.99-.07,2.42-.03,3.57.93.7.58,1.32,1.55,1.42,3.08s-.47,2.66-1.02,3.28ZM180.62,123.04c-.18.22-.47.72-.38,1.95.04.67.24,1.52.62,1.88.24.24.52.29.79.27.3-.02.57-.12.78-.37.49-.59.41-1.81.4-1.95-.04-.56-.18-1.46-.64-1.9-.24-.22-.48-.27-.77-.25-.34.02-.59.12-.79.37Z"/>
        <path class="cls-2" d="M190.71,120.23l.06.89h.06c.68-1.11,1.76-1.31,2.54-1.36.69-.05,1.73-.03,2.61.71.27.22,1.23,1.14,1.37,3.25.08,1.28-.18,2.66-.97,3.58-.74.88-1.69,1.11-2.6,1.17-.72.05-1.65,0-2.42-.72l.23,3.55-3.35.22-.73-11.07,3.19-.21ZM191.52,125.98c.31.35.69.47,1.07.44.43-.03.72-.21.95-.48.43-.54.41-1.33.38-1.76-.03-.48-.13-1.26-.61-1.72-.19-.2-.52-.38-1-.35-.34.02-.68.16-.93.48-.42.51-.42,1.23-.38,1.79.03.45.11,1.13.52,1.6Z"/>
        <path class="cls-2" d="M203.57,119.38l3.31-.22-2.44,8.31-3.61.24-3.41-7.92,3.37-.22,1.63,4.85,1.14-5.03Z"/>
        <path class="cls-2" d="M215.92,125.83c-1.05,1.16-2.53,1.34-3.6,1.41-1.15.08-2.42.05-3.45-.78-.63-.49-1.3-1.42-1.41-3.08s.47-2.66,1-3.31c1.03-1.21,2.37-1.46,3.48-1.53.99-.07,2.42-.03,3.57.93.7.58,1.32,1.55,1.42,3.08s-.47,2.66-1.02,3.28ZM211.29,121.02c-.18.22-.47.72-.38,1.95.04.67.24,1.52.62,1.88.24.24.52.29.79.27.3-.02.57-.12.78-.37.49-.59.41-1.81.4-1.95-.04-.56-.18-1.46-.64-1.9-.24-.22-.48-.27-.77-.25-.34.02-.59.12-.79.37Z"/>
        <path class="cls-2" d="M221.34,115.13l.74,11.18-3.35.22-.74-11.18,3.35-.22Z"/>
        <path class="cls-2" d="M227.45,126.36c.02.3.21.47.31.52.18.12.48.16.75.14.46-.03.72-.21.87-.36.27-.31.28-.68.26-.98l-.06-.89h-.08c-.66.64-1.41.8-2.24.86s-1.84.03-2.71-.72c-.53-.45-1.13-1.29-1.23-2.81-.11-1.63.4-2.64.89-3.23.65-.81,1.51-1.19,2.53-1.26.85-.06,1.8.11,2.54.81h.08s-.05-.76-.05-.76l3.15-.21.45,6.9c.07,1.13,0,2.36-.9,3.35-.96,1.04-2.31,1.2-3.41,1.27-.89.06-2.11.06-3.02-.49-.97-.58-1.17-1.45-1.23-1.94l3.1-.2ZM227.25,123.1c.26.3.59.43.97.4.46-.03.75-.23.93-.46.37-.49.35-1.27.33-1.51-.05-.78-.3-1.2-.56-1.44-.24-.21-.55-.35-.92-.32-.34.02-.65.17-.85.43-.42.48-.4,1.25-.38,1.53.03.43.11.97.48,1.38Z"/>
        <path class="cls-2" d="M243.62,122.53c-.18.7-.56,1.51-1.48,2.13-.98.66-2.07.75-2.92.8-1.26.08-2.59.06-3.67-.88-.66-.58-1.21-1.56-1.3-2.91s.28-2.51,1-3.35c.92-1.1,2.18-1.46,3.43-1.54,1.85-.12,2.96.37,3.62.96,1.18,1.06,1.29,2.59,1.36,3.55v.19s-5.95.39-5.95.39c.01.43.16.94.38,1.21.23.26.56.43,1.05.4.24-.02.57-.07.79-.21.25-.16.35-.36.38-.52l3.29-.22ZM240.12,120.12c-.02-.35-.18-.84-.42-1.06-.26-.26-.58-.3-.85-.28-.34.02-.67.12-.89.41-.24.29-.34.76-.33,1.1l2.49-.16Z"/>
        <path class="cls-2" d="M248.15,117.31h.06c.24-.33.55-.62.99-.86.53-.29,1.05-.39,1.54-.42.72-.05,1.57,0,2.29.6.78.65.94,1.54,1.01,2.68l.32,4.87-3.35.22-.29-4.34c-.05-.75-.25-1.06-.33-1.18-.19-.28-.46-.39-.79-.36-.29.02-.63.14-.86.52-.29.47-.25,1.11-.24,1.2l.28,4.31-3.35.22-.53-8.11,3.21-.21.06.86Z"/>
      </g>
    </g>
  </g>
</svg>