<?xml version="1.0" encoding="UTF-8"?>
<svg id="Layer_2" data-name="Layer 2" xmlns="http://www.w3.org/2000/svg" viewBox="0 0 400.37 242.56">
  <defs>
    <style>
      .cls-1 {
        fill: #d13389;
        opacity: .7;
      }

      .cls-1, .cls-2 {
        stroke-width: 0px;
      }

      .cls-2 {
        fill: #eff3e8;
      }
    </style>
  </defs>
  <g id="Layer_1-2" data-name="Layer 1">
    <g>
      <path class="cls-1" d="M.09,166.55c-1.78,32.08,23.72,59.14,55.85,59.17.25,0,.5,0,.76,0,49.55-.07,60.89-11.77,98.22-12.9,51-1.54,53.16,19.59,122.74,26.7,36.22,3.7,77.1,7.88,102.24-13.15,20.31-16.98,20.09-45.74,20.42-55.28,1.03-29.48-12.34-50.5-17.04-57.67-17.43-26.58-43.84-39.44-48.5-41.63-11.23-5.3-18.38-6.35-29.11-14.59-13.88-10.67-20.07-22.88-22.76-27.22C258.21-9.88,149.78.93,133.72,2.53c-22.66,2.26-54.77,7.59-91.97,21.27C20.8,31.5,6.48,50.99,5.25,73.28L.09,166.55Z"/>
      <g>
        <path class="cls-2" d="M120.99,111.72l-.34,6.17-2.56-.14-.16-.95c-.67.73-1.56,1.2-3.36,1.1-1.13-.06-2.58-.29-3.69-1.44-.92-.96-1.48-2.53-1.37-4.5.13-2.36,1.15-3.75,1.95-4.48,1.35-1.22,2.89-1.43,4.23-1.35s2.83.43,3.78,1.27c.7.62,1.38,1.74,1.48,3.18l-3.6-.2c-.03-.39-.17-.73-.37-.95-.39-.45-.98-.53-1.28-.55-.74-.04-1.21.22-1.52.51-.57.55-.83,1.61-.88,2.5s.08,2.06.72,2.72c.42.46.93.56,1.46.59.45.02.87-.03,1.3-.33.43-.31.67-.75.72-.86l-1.53-.08.14-2.46,4.89.27Z"/>
        <path class="cls-2" d="M131.24,116.12c-.26.67-.74,1.43-1.73,1.94-1.06.54-2.14.49-2.99.44-1.26-.07-2.58-.26-3.53-1.32-.59-.66-1.01-1.69-.94-3.05s.58-2.45,1.4-3.21c1.05-.98,2.34-1.18,3.59-1.12,1.85.1,2.89.72,3.48,1.39,1.04,1.2.97,2.73.92,3.69v.19s-5.97-.33-5.97-.33c-.04.43.04.95.24,1.25.19.28.5.49,1,.52.24.01.58,0,.81-.12.26-.13.39-.32.44-.47l3.29.18ZM128.06,113.3c.02-.35-.08-.85-.29-1.11-.22-.29-.54-.37-.81-.38-.34-.02-.68.04-.93.3-.27.26-.42.71-.46,1.05l2.49.14Z"/>
        <path class="cls-2" d="M141.59,116.69c-.26.67-.74,1.43-1.73,1.94-1.06.54-2.14.49-2.99.44-1.26-.07-2.58-.26-3.53-1.32-.59-.66-1.01-1.69-.94-3.05s.58-2.45,1.4-3.21c1.05-.98,2.34-1.18,3.59-1.12,1.85.1,2.89.72,3.48,1.39,1.04,1.2.97,2.73.92,3.69v.19s-5.97-.33-5.97-.33c-.04.43.04.95.24,1.25.19.28.5.49,1,.52.24.01.58,0,.81-.12.26-.13.39-.32.44-.47l3.29.18ZM138.41,113.87c.02-.35-.08-.85-.29-1.11-.22-.29-.54-.37-.81-.38-.34-.02-.68.04-.93.3-.27.26-.42.71-.46,1.05l2.49.14Z"/>
        <path class="cls-2" d="M146.72,112.05h.06c.27-.29.62-.54,1.08-.72.56-.23,1.09-.26,1.58-.23.72.04,1.56.2,2.2.87.7.74.74,1.64.68,2.78l-.27,4.87-3.36-.19.24-4.35c.04-.75-.12-1.08-.19-1.21-.16-.3-.41-.44-.74-.46-.29-.02-.64.06-.92.41-.34.43-.38,1.07-.39,1.17l-.24,4.31-3.36-.19.45-8.12,3.21.18-.05.86Z"/>
        <path class="cls-2" d="M161.62,112.7c.47-.37,1.3-.86,2.61-.78,1.09.06,1.75.47,2.13.87.71.74.77,1.76.71,2.78l-.27,4.87-3.36-.19.24-4.35c.01-.26.03-.85-.19-1.21-.15-.25-.38-.44-.76-.46s-.66.11-.9.42c-.22.29-.36.73-.39,1.17l-.24,4.31-3.36-.19.62-11.19,3.36.19-.21,3.75Z"/>
        <path class="cls-2" d="M176.62,120.11c-1.18,1.02-2.67,1.02-3.74.96-1.15-.06-2.41-.25-3.33-1.19-.56-.56-1.12-1.57-1.02-3.23s.78-2.59,1.39-3.16c1.17-1.07,2.53-1.16,3.64-1.1.99.05,2.41.26,3.43,1.36.62.66,1.12,1.7,1.04,3.23s-.78,2.59-1.41,3.13ZM172.61,114.77c-.2.2-.55.66-.62,1.89-.04.67.06,1.54.39,1.95.21.27.48.35.75.36.3.02.58-.05.82-.27.56-.53.63-1.75.63-1.89.03-.56,0-1.47-.4-1.96-.21-.25-.45-.33-.73-.35-.34-.02-.6.05-.83.27Z"/>
        <path class="cls-2" d="M187.07,120.68c-1.18,1.02-2.67,1.02-3.74.96-1.15-.06-2.41-.25-3.33-1.19-.56-.56-1.12-1.57-1.02-3.23s.78-2.59,1.39-3.16c1.17-1.07,2.53-1.16,3.64-1.1.99.05,2.41.26,3.43,1.36.62.66,1.12,1.7,1.04,3.23s-.78,2.59-1.41,3.13ZM183.06,115.35c-.2.2-.55.66-.62,1.89-.04.67.06,1.54.39,1.95.21.27.48.35.75.36.3.02.58-.05.82-.27.56-.53.63-1.75.63-1.89.03-.56,0-1.47-.4-1.96-.21-.25-.45-.33-.73-.35-.34-.02-.6.05-.83.27Z"/>
        <path class="cls-2" d="M195.9,116.12l-1.89-.1-.33,5.91-3.39-.19.33-5.91-1.49-.08.12-2.2,1.49.08v-.13c.05-.75.19-1.58.88-2.16.77-.66,1.91-.63,2.49-.6s1.45.16,2.07.27l-.11,2.03c-.27-.08-.65-.16-.87-.18-.29-.02-.56.03-.75.17-.32.21-.3.45-.31.72v.06s1.88.1,1.88.1l-.12,2.2Z"/>
        <path class="cls-2" d="M202.52,122.42l.04-.78h-.06c-.84.9-1.93.96-2.62.93-.78-.04-1.8-.24-2.6-1.17-.56-.66-1.03-1.71-.95-3.19.08-1.41.61-2.66,1.37-3.39.8-.76,1.72-.99,2.78-.94,1.39.08,1.97.67,2.28,1.1l.21-3.75,3.36.19-.62,11.19-3.2-.18ZM202.32,116.67c-.18-.22-.49-.44-.98-.47-.32-.02-.64.06-.93.32-.49.45-.59,1.31-.61,1.76-.05.98.2,1.52.48,1.82.2.2.47.4.89.42.38.02.71-.09.96-.35.44-.46.55-1.2.58-1.83.03-.56,0-1.2-.39-1.67Z"/>
        <path class="cls-2" d="M213.62,123.04l.04-.78h-.06c-.84.9-1.93.96-2.62.93-.78-.04-1.8-.24-2.6-1.17-.56-.66-1.03-1.71-.94-3.19.08-1.41.61-2.66,1.37-3.39.8-.76,1.72-.99,2.78-.94,1.39.08,1.97.67,2.28,1.1l.21-3.75,3.36.19-.62,11.19-3.2-.18ZM213.43,117.29c-.18-.22-.49-.44-.98-.47-.32-.02-.64.06-.93.32-.49.45-.59,1.31-.61,1.76-.05.98.2,1.52.48,1.82.2.2.48.4.89.42.38.02.71-.09.96-.35.44-.46.55-1.2.58-1.83.03-.56,0-1.2-.39-1.67Z"/>
        <path class="cls-2" d="M227.73,121.46c-.26.67-.74,1.43-1.73,1.94-1.06.54-2.14.49-2.99.44-1.26-.07-2.58-.26-3.53-1.32-.59-.66-1.01-1.69-.94-3.05s.58-2.45,1.4-3.21c1.05-.98,2.34-1.18,3.59-1.12,1.85.1,2.89.72,3.48,1.39,1.04,1.2.97,2.73.92,3.69v.19s-5.97-.33-5.97-.33c-.04.43.04.95.24,1.25.19.28.5.49,1,.52.24.01.58,0,.81-.12.26-.13.39-.32.44-.47l3.29.18ZM224.55,118.64c.02-.35-.08-.85-.29-1.11-.22-.29-.54-.37-.81-.38-.34-.02-.68.04-.93.3-.27.26-.42.71-.46,1.05l2.49.14Z"/>
        <path class="cls-2" d="M235.24,116.09l3.72.21-3.43,3.1,3.06,5.03-3.72-.21-1.52-2.97-.62.57-.13,2.27-3.36-.19.62-11.19,3.36.19-.31,5.59,2.33-2.4Z"/>
        <path class="cls-2" d="M242.25,121.94c-.06.28,0,.66.19.88.15.17.43.3.8.32.29.02.55.01.82-.13.2-.1.37-.25.38-.54.02-.27-.1-.47-.37-.61s-.61-.21-1.06-.3l-.82-.17c-.76-.15-1.65-.38-2.18-.91-.29-.29-.63-.79-.58-1.62.06-1.13.69-1.76,1.24-2.08.91-.54,2.1-.57,3.03-.52,1.37.08,2.21.36,2.73.76.38.29.99.95.99,2.07l-2.86-.16c.03-.22-.03-.55-.2-.73-.18-.2-.55-.29-.82-.3-.43-.02-.66.11-.73.15-.18.12-.31.32-.32.53-.02.3.15.43.32.51.36.21.66.25.99.31l1.11.22c.55.11,1.49.34,2.06.95.35.37.64.97.59,1.76-.06,1.06-.64,1.76-1.21,2.11-.56.35-1.51.62-3.24.53-1.47-.08-2.71-.29-3.49-1.2-.35-.4-.71-1.08-.67-2.01l3.28.18Z"/>
        <path class="cls-2" d="M257.72,123.12c-.26.67-.74,1.43-1.73,1.94-1.06.54-2.14.49-2.99.44-1.26-.07-2.58-.26-3.53-1.32-.59-.66-1.01-1.69-.94-3.05s.58-2.45,1.4-3.21c1.05-.98,2.34-1.18,3.59-1.12,1.85.1,2.89.72,3.48,1.39,1.04,1.2.97,2.73.92,3.69v.19s-5.97-.33-5.97-.33c-.04.43.04.95.24,1.25.19.28.5.49,1,.52.24.01.58,0,.81-.12.26-.13.39-.32.44-.47l3.29.18ZM254.54,120.3c.02-.35-.08-.85-.29-1.11-.22-.29-.54-.37-.81-.38-.34-.02-.68.04-.93.3-.27.26-.42.71-.46,1.05l2.49.14Z"/>
        <path class="cls-2" d="M263.21,114.56l-.62,11.19-3.36-.19.62-11.19,3.36.19Z"/>
        <path class="cls-2" d="M267.45,123.34c-.06.29,0,.66.19.88.15.17.43.3.8.32.29.02.54.01.82-.13.2-.1.37-.25.38-.54.02-.27-.1-.47-.37-.61-.26-.14-.61-.21-1.06-.3l-.82-.17c-.76-.15-1.65-.38-2.18-.91-.29-.29-.63-.79-.58-1.62.06-1.13.69-1.76,1.24-2.08.91-.54,2.1-.57,3.03-.52,1.37.08,2.21.36,2.73.76.38.29.99.95.99,2.07l-2.86-.16c.03-.22-.03-.55-.2-.73-.18-.2-.55-.29-.82-.3-.43-.02-.66.11-.73.15-.18.12-.31.32-.32.53-.02.3.15.43.32.51.36.21.66.25.99.31l1.11.22c.56.11,1.49.34,2.06.95.35.37.64.97.59,1.76-.06,1.06-.64,1.76-1.21,2.11-.56.35-1.51.62-3.24.53-1.47-.08-2.71-.29-3.49-1.2-.35-.4-.71-1.08-.67-2.01l3.28.18Z"/>
        <path class="cls-2" d="M278.41,115.4l3.36.19-.12,2.11-3.36-.19.12-2.11ZM281.6,118.65l-.45,8.12-3.36-.19.45-8.12,3.36.19Z"/>
        <path class="cls-2" d="M286.84,119.81h.06c.27-.29.62-.54,1.08-.72.56-.23,1.09-.26,1.58-.23.72.04,1.56.2,2.2.87.7.74.74,1.64.68,2.78l-.27,4.87-3.36-.19.24-4.35c.04-.75-.12-1.08-.19-1.21-.16-.3-.41-.44-.74-.46-.29-.02-.64.06-.92.41-.34.43-.38,1.07-.39,1.17l-.24,4.31-3.36-.19.45-8.12,3.21.18-.05.86Z"/>
        <path class="cls-2" d="M128.35,130.09c.47-.37,1.3-.86,2.61-.78,1.09.06,1.75.47,2.13.87.71.74.77,1.76.71,2.78l-.27,4.87-3.36-.19.24-4.35c.01-.26.03-.85-.19-1.21-.15-.25-.38-.44-.76-.46s-.66.11-.9.42c-.22.29-.36.73-.39,1.17l-.24,4.31-3.36-.19.62-11.19,3.36.19-.21,3.75Z"/>
        <path class="cls-2" d="M144.45,136.08c-.26.67-.74,1.43-1.73,1.94-1.06.54-2.14.49-2.99.44-1.26-.07-2.58-.26-3.53-1.32-.59-.66-1.01-1.69-.94-3.05s.58-2.45,1.4-3.21c1.05-.98,2.34-1.18,3.59-1.12,1.85.1,2.89.72,3.48,1.39,1.04,1.2.97,2.73.92,3.69v.19s-5.97-.33-5.97-.33c-.04.43.04.95.24,1.25.19.28.5.49,1,.52.24.01.58,0,.81-.12.26-.13.39-.32.44-.47l3.29.18ZM141.27,133.26c.02-.35-.08-.85-.29-1.11-.22-.29-.54-.37-.81-.38-.34-.02-.68.04-.93.3-.27.26-.42.71-.46,1.05l2.49.14Z"/>
        <path class="cls-2" d="M145.45,130.35l1.47.08.13-2.4,3.36.19-.13,2.4,1.73.1-.12,2.2-1.73-.1-.15,2.69c-.01.24-.04.64.18.89.11.12.31.24.74.26.24.01.51-.02.76-.07l-.12,2.25c-.73.12-1.37.15-2.07.11s-1.79-.16-2.36-.8c-.51-.57-.54-1.46-.51-2.03l.19-3.48-1.47-.08.12-2.2Z"/>
        <path class="cls-2" d="M159.51,136.59c-.06.28,0,.66.19.88.15.17.43.3.8.32.29.02.54.01.82-.13.2-.1.37-.25.38-.54.02-.27-.1-.47-.37-.61s-.61-.21-1.06-.3l-.82-.17c-.76-.15-1.65-.38-2.18-.91-.29-.29-.63-.79-.58-1.62.06-1.13.69-1.76,1.24-2.08.91-.54,2.1-.57,3.03-.52,1.37.08,2.21.36,2.73.76.38.29.99.95.99,2.07l-2.86-.16c.03-.22-.03-.55-.2-.73-.18-.2-.55-.29-.82-.3-.43-.02-.66.11-.73.15-.18.12-.31.32-.32.53-.02.3.15.43.32.51.36.21.66.25.99.31l1.11.22c.55.11,1.49.34,2.06.95.35.37.64.97.59,1.76-.06,1.06-.64,1.76-1.21,2.11-.56.35-1.51.62-3.24.53-1.47-.08-2.71-.29-3.49-1.2-.35-.4-.71-1.08-.67-2.01l3.28.18Z"/>
        <path class="cls-2" d="M174.8,136.91c-.17,1.05-.69,1.81-1.22,2.27-1.11,1-2.49,1.02-3.53.96s-2.33-.26-3.26-1.25c-.53-.56-1.08-1.57-1-3.15s.76-2.64,1.5-3.3c1.06-.92,2.37-1.09,3.47-1.03,1.71.09,2.67.72,3.21,1.33.47.54.85,1.36.86,2.39l-3.08-.17c.02-.32-.04-.79-.32-1.11-.2-.22-.46-.31-.75-.33-.34-.02-.6.06-.83.29-.44.42-.55,1.2-.58,1.84-.02.45-.07,1.47.39,2.01.22.29.49.36.8.38.24.01.53,0,.78-.23.27-.26.43-.75.44-1.08l3.13.17Z"/>
        <path class="cls-2" d="M179.9,132.94c.47-.37,1.3-.86,2.61-.78,1.09.06,1.75.47,2.13.87.71.74.77,1.76.71,2.78l-.27,4.87-3.36-.19.24-4.35c.01-.26.03-.85-.19-1.21-.15-.25-.38-.44-.76-.46s-.66.11-.91.42c-.22.29-.36.73-.38,1.17l-.24,4.31-3.36-.19.62-11.19,3.36.19-.21,3.75Z"/>
        <path class="cls-2" d="M194.91,140.35c-1.18,1.02-2.67,1.02-3.74.96-1.15-.06-2.41-.25-3.33-1.19-.56-.56-1.12-1.57-1.02-3.23s.78-2.59,1.39-3.16c1.17-1.07,2.53-1.16,3.64-1.1.99.05,2.41.26,3.44,1.36.62.66,1.12,1.7,1.04,3.23s-.78,2.59-1.41,3.13ZM190.89,135.01c-.2.2-.55.66-.62,1.89-.04.67.06,1.54.39,1.95.21.27.48.35.75.36.3.02.58-.05.82-.27.56-.53.63-1.75.63-1.89.03-.56,0-1.47-.4-1.96-.21-.25-.45-.33-.73-.35-.34-.02-.6.05-.83.27Z"/>
        <path class="cls-2" d="M205.36,140.93c-1.18,1.02-2.67,1.02-3.74.96-1.15-.06-2.41-.25-3.33-1.19-.56-.56-1.12-1.57-1.02-3.23s.78-2.59,1.39-3.16c1.17-1.07,2.53-1.16,3.64-1.1.99.05,2.41.26,3.44,1.36.62.66,1.12,1.7,1.04,3.23s-.78,2.59-1.41,3.13ZM201.34,135.59c-.2.2-.55.66-.62,1.89-.04.67.06,1.54.39,1.95.21.27.48.35.75.36.3.02.58-.05.82-.27.56-.53.63-1.75.63-1.89.03-.56,0-1.47-.4-1.96-.21-.25-.45-.33-.73-.35-.34-.02-.6.05-.83.27Z"/>
        <path class="cls-2" d="M212.03,130.96l-.62,11.19-3.36-.19.62-11.19,3.36.19Z"/>
        <path class="cls-2" d="M216.74,142.84c-.02.3.15.49.24.56.17.14.45.22.72.23.46.03.74-.12.91-.25.3-.27.36-.64.37-.94l.05-.9h-.08c-.74.55-1.49.62-2.32.57s-1.83-.2-2.6-1.04c-.47-.51-.96-1.42-.88-2.93.09-1.63.72-2.57,1.28-3.1.75-.73,1.64-1,2.67-.94.85.05,1.78.32,2.42,1.11h.08s.04-.75.04-.75l3.15.17-.38,6.9c-.06,1.13-.29,2.34-1.3,3.21-1.08.92-2.44.91-3.54.85-.9-.05-2.11-.2-2.93-.85-.89-.69-.99-1.58-.99-2.07l3.1.17ZM216.94,139.58c.22.33.53.49.92.52.46.03.78-.13.98-.35.42-.44.5-1.22.51-1.46.04-.78-.16-1.23-.38-1.5-.21-.24-.51-.41-.87-.43-.34-.02-.66.09-.9.32-.47.42-.55,1.19-.56,1.48-.02.43,0,.98.31,1.43Z"/>
        <path class="cls-2" d="M233.25,141c-.26.67-.74,1.43-1.73,1.94-1.06.54-2.14.49-2.99.44-1.26-.07-2.58-.26-3.53-1.32-.59-.66-1.01-1.69-.94-3.05s.58-2.45,1.4-3.21c1.05-.98,2.34-1.18,3.59-1.12,1.85.1,2.89.72,3.48,1.39,1.04,1.2.97,2.73.92,3.69v.19s-5.97-.33-5.97-.33c-.04.43.04.95.24,1.25.19.28.5.49,1,.52.24.01.58,0,.81-.12.26-.13.39-.32.44-.47l3.29.18ZM230.07,138.17c.02-.35-.08-.85-.29-1.11-.22-.29-.54-.37-.81-.38-.34-.02-.68.04-.93.3-.27.26-.42.71-.46,1.05l2.49.14Z"/>
        <path class="cls-2" d="M237.96,143.61l-3.2-.18.62-11.19,3.36.19-.21,3.75c.88-.83,1.86-.87,2.51-.84.9.05,1.81.34,2.55,1.18.35.4,1.09,1.46.98,3.37s-.86,2.82-1.42,3.3c-.83.74-1.73.88-2.74.83-.78-.04-1.72-.26-2.35-1.2h-.06s-.04.78-.04.78ZM238.63,141.42c.21.25.52.43.87.45.46.03.78-.15.96-.33.42-.39.63-1.17.66-1.82s-.09-1.35-.43-1.74c-.23-.25-.51-.4-.89-.42s-.73.09-1,.35c-.42.41-.58,1.12-.61,1.75-.04.78.12,1.4.43,1.77Z"/>
        <path class="cls-2" d="M253.62,143.6c-1.18,1.02-2.67,1.02-3.74.96-1.15-.06-2.41-.25-3.33-1.19-.56-.56-1.12-1.57-1.02-3.23s.78-2.59,1.39-3.16c1.17-1.07,2.53-1.16,3.64-1.1.99.05,2.41.26,3.43,1.36.62.66,1.12,1.7,1.04,3.23s-.78,2.59-1.41,3.13ZM249.6,138.26c-.2.2-.55.66-.62,1.89-.04.67.06,1.54.39,1.95.21.27.48.35.75.36.3.02.58-.05.82-.27.56-.53.63-1.75.63-1.89.03-.56,0-1.47-.4-1.96-.21-.25-.45-.33-.73-.35-.34-.02-.6.05-.83.27Z"/>
        <path class="cls-2" d="M262.18,144.06h-.08c-.93.89-1.98,1.01-2.83.96-.69-.04-1.5-.19-2.09-.84-.79-.86-.73-2.14-.69-2.81l.27-4.86,3.36.19-.24,4.36c-.04.72.08,1.06.2,1.25.19.3.49.38.78.4.37.02.61-.08.84-.35.33-.38.39-.91.4-1.21l.24-4.31,3.36.19-.45,8.12-3.12-.17.05-.9Z"/>
        <path class="cls-2" d="M272.02,145.5l-3.13-.17-2.36-8.27,3.2.18,1.02,4.48,1.33-4.35,2.88.16.83,4.47,1.46-4.34,3.23.18-3.17,7.97-3.07-.17-.86-4.39-1.34,4.27Z"/>
      </g>
    </g>
  </g>
</svg>