<?xml version="1.0" encoding="UTF-8"?>
<svg id="Layer_2" data-name="Layer 2" xmlns="http://www.w3.org/2000/svg" viewBox="0 0 404.2 240.65">
  <defs>
    <style>
      .cls-1 {
        fill: #d13389;
        opacity: .7;
      }

      .cls-1, .cls-2 {
        stroke-width: 0px;
      }

      .cls-2 {
        fill: #eff3e8;
      }
    </style>
  </defs>
  <g id="Layer_1-2" data-name="Layer 1">
    <g>
      <path class="cls-1" d="M5.18,187.62c1.75,32.09,30.06,56.18,62,52.69.25-.03.5-.05.75-.08,49.25-5.5,59.24-18.38,96.21-23.59,50.52-7.13,54.99,13.65,124.93,13.08,36.41-.29,77.5-.62,100.18-24.28,18.32-19.11,14.95-47.67,14.24-57.19-2.21-29.42-17.8-48.84-23.26-55.46-20.24-24.51-47.9-34.39-52.77-36.06-11.74-4.03-18.97-4.3-30.53-11.31-14.96-9.08-22.46-20.54-25.61-24.56-28.92-36.91-135.51-14.28-151.3-10.92-22.27,4.73-53.6,13.55-89.09,31.23C10.96,51.11-1.13,72.05.08,94.34l5.1,93.28Z"/>
      <g>
        <path class="cls-2" d="M91.66,121.37l.34,6.17-2.56.14-.26-.93c-.58.8-1.42,1.36-3.22,1.46-1.14.06-2.6,0-3.82-1.03-1.02-.86-1.75-2.36-1.86-4.32-.13-2.36.74-3.86,1.45-4.66,1.21-1.36,2.71-1.74,4.05-1.81s2.86.12,3.89.85c.77.54,1.56,1.58,1.81,2.99l-3.6.2c-.07-.38-.25-.71-.47-.9-.44-.41-1.03-.42-1.34-.41-.74.04-1.18.35-1.45.67-.51.61-.65,1.69-.6,2.58s.3,2.04,1.01,2.62c.47.41.99.46,1.51.43.45-.02.86-.13,1.26-.47.4-.36.58-.82.62-.93l-1.53.08-.13-2.46,4.89-.27Z"/>
        <path class="cls-2" d="M102.33,124.62c-.19.7-.57,1.51-1.5,2.12-.99.65-2.08.72-2.92.77-1.26.07-2.6.03-3.66-.92-.66-.59-1.19-1.57-1.27-2.93s.31-2.5,1.04-3.34c.93-1.09,2.2-1.43,3.44-1.5,1.85-.1,2.96.4,3.61,1,1.16,1.07,1.26,2.61,1.32,3.57v.19s-5.95.33-5.95.33c0,.43.15.94.37,1.21.22.26.55.44,1.05.41.24-.01.57-.06.79-.2.25-.16.35-.36.39-.52l3.29-.18ZM98.87,122.16c-.02-.35-.17-.84-.41-1.07-.25-.26-.58-.31-.85-.29-.34.02-.67.12-.89.4-.24.29-.34.76-.34,1.09l2.49-.14Z"/>
        <path class="cls-2" d="M112.69,124.05c-.19.7-.57,1.51-1.5,2.12-.99.65-2.08.72-2.92.77-1.26.07-2.6.03-3.66-.92-.66-.59-1.19-1.57-1.27-2.93s.31-2.5,1.04-3.34c.93-1.09,2.2-1.43,3.44-1.5,1.85-.1,2.96.4,3.61,1,1.16,1.07,1.26,2.61,1.32,3.57v.19s-5.95.33-5.95.33c0,.43.15.94.37,1.21.22.26.55.44,1.05.41.24-.01.57-.06.79-.2.25-.16.35-.36.39-.52l3.29-.18ZM109.22,121.6c-.02-.35-.17-.84-.41-1.07-.25-.26-.58-.31-.85-.29-.34.02-.67.12-.89.4-.24.29-.34.76-.34,1.09l2.49-.14Z"/>
        <path class="cls-2" d="M117.27,118.88h.06c.24-.32.56-.61,1-.84.53-.29,1.05-.38,1.55-.41.72-.04,1.57.03,2.28.63.77.66.92,1.55.98,2.69l.27,4.87-3.36.18-.24-4.35c-.04-.75-.23-1.06-.32-1.19-.19-.28-.45-.39-.79-.37-.29.02-.63.13-.87.51-.29.46-.26,1.1-.25,1.2l.24,4.31-3.36.18-.44-8.12,3.21-.18.05.86Z"/>
        <path class="cls-2" d="M132.5,125.73c.02.3.2.47.3.53.18.12.47.17.75.15.46-.03.73-.2.88-.35.27-.3.28-.67.27-.98l-.05-.9h-.08c-.67.63-1.42.79-2.25.83s-1.84,0-2.7-.75c-.52-.45-1.11-1.3-1.2-2.82-.09-1.63.43-2.64.93-3.22.66-.81,1.52-1.17,2.55-1.23.85-.05,1.8.13,2.53.84h.08s-.04-.76-.04-.76l3.15-.17.38,6.9c.06,1.14-.03,2.36-.94,3.34-.97,1.03-2.32,1.17-3.43,1.23-.9.05-2.11.04-3.01-.53-.96-.59-1.15-1.46-1.21-1.95l3.1-.17ZM132.34,122.47c.26.31.59.43.97.41.46-.03.76-.22.94-.45.37-.49.36-1.27.35-1.51-.04-.78-.29-1.2-.54-1.45-.24-.21-.55-.35-.92-.33-.34.02-.65.16-.86.42-.42.47-.41,1.24-.4,1.53.02.43.1.97.46,1.39Z"/>
        <path class="cls-2" d="M142.62,122.1c-.03.29.07.65.29.85.17.15.46.25.83.23.29-.02.54-.05.81-.22.19-.12.34-.29.32-.58-.01-.27-.15-.46-.43-.57s-.63-.14-1.08-.18l-.84-.08c-.77-.07-1.68-.2-2.27-.66-.32-.26-.71-.71-.76-1.55-.06-1.13.49-1.82,1-2.2.85-.64,2.02-.8,2.95-.85,1.37-.08,2.24.12,2.8.46.41.25,1.09.84,1.21,1.95l-2.86.16c0-.22-.09-.54-.28-.71-.2-.18-.57-.23-.84-.21-.43.02-.65.18-.71.23-.17.14-.27.35-.26.56.02.3.2.41.38.48.38.17.68.17,1.02.2l1.13.1c.56.05,1.52.17,2.15.72.39.33.74.89.78,1.69.06,1.06-.45,1.82-.97,2.23-.52.41-1.43.78-3.16.88-1.47.08-2.72,0-3.6-.81-.39-.36-.82-1-.89-1.92l3.28-.18Z"/>
        <path class="cls-2" d="M152.12,116.11l.06,1.12h.1c.23-.42.55-.77.87-1.02.39-.28.92-.48,1.54-.52.51-.03,1.14.1,1.57.33.33.19.72.54.96,1.07.26-.48.61-.83.98-1.1.62-.45,1.22-.56,1.84-.6.5-.03,1.46-.02,2.2.62.87.74,1.04,2.01,1.08,2.79l.26,4.81-3.28.18-.25-4.52c-.01-.24-.06-.78-.33-1.1-.16-.2-.4-.35-.72-.33-.26.01-.57.11-.81.51-.18.3-.27.7-.24,1.17l.24,4.39-3.28.18-.25-4.59c0-.13-.06-.8-.37-1.12-.15-.15-.41-.27-.7-.25-.24.01-.54.13-.78.49-.19.31-.28.75-.26,1.14l.24,4.44-3.28.18-.44-8.12,3.02-.17Z"/>
        <path class="cls-2" d="M165.13,117.29l6.38-.35.16,2.96-6.38.35-.16-2.96Z"/>
        <path class="cls-2" d="M177.03,123.3c.02.3.2.47.3.53.18.12.47.17.75.15.46-.03.73-.2.88-.35.27-.3.28-.67.27-.98l-.05-.9h-.08c-.67.63-1.42.79-2.25.83s-1.84,0-2.7-.75c-.52-.45-1.11-1.3-1.2-2.82-.09-1.63.43-2.64.93-3.22.66-.81,1.52-1.17,2.55-1.23.85-.05,1.8.13,2.53.84h.08s-.04-.76-.04-.76l3.15-.17.38,6.9c.06,1.14-.03,2.36-.94,3.34-.97,1.03-2.32,1.17-3.43,1.23-.9.05-2.11.04-3.01-.53-.96-.59-1.15-1.46-1.21-1.95l3.1-.17ZM176.86,120.04c.26.31.58.43.97.41.46-.03.76-.22.94-.45.37-.49.36-1.27.35-1.51-.04-.78-.29-1.2-.54-1.45-.24-.21-.55-.35-.92-.33-.34.02-.65.16-.86.42-.42.47-.41,1.24-.4,1.53.02.43.1.97.46,1.39Z"/>
        <path class="cls-2" d="M193.24,119.65c-.19.7-.57,1.51-1.5,2.12-.99.65-2.08.72-2.92.77-1.26.07-2.6.03-3.66-.92-.66-.59-1.19-1.57-1.27-2.93s.31-2.5,1.04-3.34c.93-1.09,2.2-1.43,3.44-1.5,1.85-.1,2.95.4,3.61,1,1.16,1.07,1.27,2.61,1.32,3.57v.19s-5.95.33-5.95.33c0,.43.15.94.37,1.21.22.26.55.44,1.05.41.24-.01.57-.06.79-.2.25-.16.35-.36.39-.52l3.29-.18ZM189.77,117.2c-.02-.35-.17-.84-.41-1.07-.25-.26-.58-.31-.85-.29-.34.02-.67.12-.89.4-.24.29-.34.76-.34,1.09l2.49-.14Z"/>
        <path class="cls-2" d="M198.2,121.74l-3.2.17-.61-11.19,3.36-.18.21,3.76c.78-.92,1.75-1.07,2.41-1.11.9-.05,1.84.14,2.66.9.39.36,1.24,1.33,1.35,3.24s-.55,2.9-1.05,3.44c-.74.83-1.62,1.07-2.63,1.12-.78.04-1.73-.07-2.47-.94h-.06s.04.79.04.79ZM198.63,119.49c.24.23.56.37.92.35.46-.03.76-.23.92-.43.38-.44.49-1.23.46-1.88s-.23-1.33-.62-1.68c-.25-.23-.55-.34-.93-.32s-.71.17-.95.45c-.38.45-.45,1.18-.41,1.8.04.78.27,1.38.62,1.71Z"/>
        <path class="cls-2" d="M212.32,115.23c-.27-.03-.63-.05-.88-.03-.98.05-1.46.48-1.66.7-.53.61-.51,1.46-.47,2.22l.16,3-3.36.18-.44-8.12,3.21-.18.06,1.15c.32-.56.74-.89,1.05-1.08.53-.32,1.11-.41,1.64-.44.19-.01.35,0,.55.02l.14,2.57Z"/>
        <path class="cls-2" d="M219.67,119.67h-.08c-.83,1-1.86,1.23-2.7,1.27-.69.04-1.51-.03-2.17-.6-.88-.77-.96-2.05-1-2.72l-.27-4.86,3.36-.18.24,4.36c.04.72.2,1.05.34,1.22.22.28.53.32.82.31.37-.02.6-.15.79-.44.28-.42.28-.95.27-1.25l-.24-4.31,3.36-.18.44,8.12-3.12.17-.05-.9Z"/>
        <path class="cls-2" d="M224.3,109.09l3.36-.18.12,2.11-3.36.18-.12-2.11ZM227.83,111.98l.44,8.12-3.36.18-.44-8.12,3.36-.18Z"/>
        <path class="cls-2" d="M235.45,111.56l3.72-.2-3.07,3.45,3.59,4.66-3.72.2-1.84-2.78-.56.64.12,2.27-3.36.18-.61-11.19,3.36-.18.31,5.59,2.05-2.64Z"/>
        <path class="cls-2" d="M243.68,108.03l3.36-.18.12,2.11-3.36.18-.12-2.11ZM247.21,110.92l.44,8.12-3.36.18-.44-8.12,3.36-.18Z"/>
        <path class="cls-2" d="M252.54,111.49h.06c.24-.32.56-.61,1-.84.53-.29,1.05-.38,1.55-.41.72-.04,1.57.03,2.28.63.77.66.92,1.55.98,2.69l.27,4.87-3.36.18-.24-4.35c-.04-.75-.23-1.06-.32-1.19-.19-.28-.45-.39-.79-.37-.29.02-.63.13-.87.51-.3.47-.26,1.1-.26,1.2l.24,4.31-3.36.18-.44-8.12,3.21-.18.05.86Z"/>
        <path class="cls-2" d="M270.3,117.8l-.04-.78h-.06c-.73.99-1.81,1.18-2.5,1.21-.78.04-1.81-.04-2.71-.88-.63-.59-1.21-1.58-1.29-3.07-.08-1.41.32-2.71.99-3.52.71-.84,1.6-1.18,2.66-1.23,1.39-.08,2.03.45,2.39.85l-.21-3.76,3.36-.18.61,11.19-3.2.17ZM269.48,112.11c-.2-.2-.53-.39-1.03-.36-.32.02-.63.13-.89.42-.44.51-.44,1.37-.41,1.82.05.98.37,1.49.67,1.76.22.18.52.34.93.32.38-.02.7-.17.92-.45.39-.5.41-1.26.38-1.88-.03-.56-.13-1.19-.57-1.62Z"/>
        <path class="cls-2" d="M284.16,114.69c-.19.7-.57,1.51-1.5,2.12-.99.65-2.08.72-2.92.77-1.26.07-2.6.03-3.66-.92-.66-.59-1.19-1.57-1.27-2.93s.31-2.5,1.04-3.34c.93-1.09,2.2-1.43,3.44-1.5,1.85-.1,2.95.4,3.61,1,1.16,1.07,1.27,2.61,1.32,3.57v.19s-5.95.33-5.95.33c0,.43.15.94.37,1.21.22.26.55.44,1.05.41.24-.01.57-.06.79-.2.25-.16.35-.36.39-.52l3.29-.18ZM280.69,112.23c-.02-.35-.17-.84-.41-1.07-.25-.26-.58-.31-.85-.29-.34.02-.67.12-.89.4-.24.29-.34.76-.34,1.09l2.49-.14Z"/>
        <path class="cls-2" d="M294.75,108.32l3.72-.2-3.07,3.45,3.59,4.66-3.72.2-1.84-2.78-.56.64.12,2.27-3.36.18-.61-11.19,3.36-.18.31,5.59,2.05-2.64Z"/>
        <path class="cls-2" d="M302.62,104.81l.61,11.19-3.36.18-.61-11.19,3.36-.18Z"/>
        <path class="cls-2" d="M304.8,110.54c.02-.79.3-1.46.71-1.93.86-.99,2.29-1.22,3.36-1.27.78-.04,2.43-.1,3.41.76.79.68.92,1.62.96,2.27l.2,3.66c.03.58.07.78.16.92.09.16.27.29.47.34v.11s-3.61.2-3.61.2l-.26-.87h-.03c-.24.32-.57.63-.95.84-.57.34-1.24.45-1.8.48-.64.03-1.46,0-2.08-.51-.34-.29-.73-.81-.78-1.72-.03-.61.1-1.14.52-1.62.6-.67,1.49-.88,2.14-1l.95-.16c.9-.16,1.25-.21,1.47-.43.11-.12.22-.32.21-.62-.01-.27-.14-.44-.24-.52-.24-.2-.62-.19-.72-.19-.37.02-.6.15-.74.3-.15.17-.25.48-.21.78l-3.15.17ZM309.96,111.95c-.34.27-.61.34-.94.4-.27.06-.68.13-.94.44-.13.17-.17.33-.16.52.01.24.12.41.24.52.19.17.4.19.57.18.37-.02.65-.13.89-.42.38-.44.38-1,.36-1.43v-.21Z"/>
        <path class="cls-2" d="M317.93,112.52c-.03.29.07.65.29.85.17.15.46.25.83.23.29-.02.54-.05.81-.22.19-.12.34-.29.32-.58-.01-.27-.15-.46-.43-.57s-.63-.14-1.08-.18l-.84-.08c-.77-.07-1.68-.2-2.27-.66-.32-.26-.71-.71-.76-1.55-.06-1.13.49-1.82,1-2.2.85-.64,2.02-.8,2.95-.85,1.37-.08,2.24.12,2.8.46.41.25,1.09.84,1.21,1.95l-2.86.16c0-.22-.09-.54-.28-.71-.2-.18-.57-.23-.84-.21-.43.02-.65.18-.71.23-.17.14-.27.35-.26.56.02.3.2.41.38.48.38.17.68.17,1.02.2l1.13.1c.56.05,1.52.17,2.15.72.39.33.74.89.78,1.69.06,1.06-.45,1.82-.97,2.23-.52.41-1.43.78-3.16.88-1.47.08-2.72,0-3.6-.81-.39-.36-.82-1-.89-1.92l3.28-.18Z"/>
      </g>
    </g>
  </g>
</svg>