<?xml version="1.0" encoding="UTF-8"?>
<svg id="Layer_2" data-name="Layer 2" xmlns="http://www.w3.org/2000/svg" viewBox="0 0 400 235.62">
  <defs>
    <style>
      .cls-1 {
        fill: #d13389;
        opacity: .7;
      }

      .cls-1, .cls-2 {
        stroke-width: 0px;
      }

      .cls-2 {
        fill: #eff3e8;
      }
    </style>
  </defs>
  <g id="Layer_1-2" data-name="Layer 1">
    <path class="cls-1" d="M371.72,204.01c-38.2,15.54-85.2,24.7-136.03,24.7-63.99,0-166.14,18.48-208.07-5.01C-14.31,200.22,3.96,134.77,3.96,98.94c0-29.38,17.43-56.48,46.82-78.23C60.61,13.43,116.95-5.57,168.75,1.58c54.6,7.54,95.35,32.16,125.27,41.47,50.76,15.81,70.49-1.17,91.9,32.41,27.35,42.9,10.59,118.46-14.2,128.54Z"/>
    <g>
      <path class="cls-2" d="M77.2,100.99v11.2h-3.49v-11.2h3.49Z"/>
      <path class="cls-2" d="M82.81,104.93h.06c.26-.3.59-.58,1.04-.78.54-.26,1.07-.32,1.57-.32.72,0,1.57.11,2.24.75.74.7.83,1.6.83,2.74v4.88h-3.36v-4.35c0-.75-.18-1.07-.26-1.2-.18-.29-.43-.42-.77-.42-.29,0-.64.1-.9.46-.32.45-.32,1.09-.32,1.18v4.32h-3.36v-8.13h3.22v.86Z"/>
      <path class="cls-2" d="M93.28,109.52c-.05.29.03.66.24.86.16.16.45.27.82.27.29,0,.54-.02.82-.18.19-.11.35-.27.35-.56,0-.27-.13-.46-.4-.59-.27-.13-.62-.18-1.07-.24l-.83-.13c-.77-.11-1.66-.29-2.23-.78-.3-.27-.67-.75-.67-1.58,0-1.14.59-1.79,1.12-2.14.88-.59,2.06-.69,2.99-.69,1.38,0,2.23.24,2.77.61.4.27,1.04.9,1.1,2.02h-2.87c.02-.22-.06-.54-.24-.72-.19-.19-.56-.26-.83-.26-.43,0-.66.14-.72.19-.18.13-.29.34-.29.54,0,.3.18.42.35.5.37.19.67.21,1.01.26l1.12.16c.56.08,1.5.26,2.11.83.37.35.69.93.69,1.73,0,1.06-.54,1.79-1.09,2.18-.54.38-1.47.7-3.2.7-1.47,0-2.72-.14-3.55-1.01-.37-.38-.77-1.04-.78-1.97h3.28Z"/>
      <path class="cls-2" d="M99.43,104.06h1.47v-2.4h3.36v2.4h1.73v2.21h-1.73v2.69c0,.24,0,.64.22.88.11.11.32.22.75.22.24,0,.51-.05.75-.11v2.26c-.72.16-1.36.22-2.06.22s-1.79-.06-2.4-.67c-.54-.54-.62-1.42-.62-2v-3.49h-1.47v-2.21Z"/>
      <path class="cls-2" d="M113.98,106.47c-.27-.05-.62-.08-.88-.08-.98,0-1.49.4-1.7.61-.56.58-.59,1.42-.59,2.19v3.01h-3.36v-8.13h3.22v1.15c.35-.54.78-.85,1.1-1.02.54-.29,1.14-.35,1.66-.35.19,0,.35.02.54.05v2.58Z"/>
      <path class="cls-2" d="M121.08,111.3h-.08c-.88.94-1.92,1.12-2.77,1.12-.69,0-1.5-.11-2.13-.72-.83-.82-.85-2.1-.85-2.77v-4.87h3.36v4.37c0,.72.14,1.06.27,1.23.21.29.51.35.8.35.37,0,.61-.11.82-.4.3-.4.34-.93.34-1.23v-4.32h3.36v8.13h-3.12v-.9Z"/>
      <path class="cls-2" d="M134.78,108.99c-.11,1.06-.59,1.84-1.09,2.34-1.06,1.06-2.43,1.15-3.47,1.15s-2.34-.13-3.33-1.07c-.56-.53-1.17-1.5-1.17-3.09s.61-2.67,1.31-3.38c1.01-.98,2.3-1.22,3.41-1.22,1.71,0,2.71.58,3.28,1.15.5.51.93,1.31.99,2.34h-3.09c0-.32-.08-.79-.38-1.09-.21-.21-.48-.29-.77-.29-.34,0-.59.1-.82.34-.42.45-.48,1.23-.48,1.87,0,.45.02,1.47.5,1.98.24.27.51.34.82.34.24,0,.53-.03.77-.27.26-.27.38-.77.38-1.1h3.14Z"/>
      <path class="cls-2" d="M135.34,104.06h1.47v-2.4h3.36v2.4h1.73v2.21h-1.73v2.69c0,.24,0,.64.22.88.11.11.32.22.75.22.24,0,.51-.05.75-.11v2.26c-.72.16-1.36.22-2.06.22s-1.79-.06-2.4-.67c-.54-.54-.62-1.42-.62-2v-3.49h-1.47v-2.21Z"/>
      <path class="cls-2" d="M143.35,100.99h3.36v2.11h-3.36v-2.11ZM146.71,104.06v8.13h-3.36v-8.13h3.36Z"/>
      <path class="cls-2" d="M157.52,109.84c-.22.69-.66,1.47-1.62,2.03-1.02.59-2.11.61-2.96.61-1.26,0-2.59-.11-3.6-1.12-.62-.62-1.1-1.63-1.1-2.99s.45-2.48,1.22-3.28c.99-1.04,2.27-1.31,3.52-1.31,1.86,0,2.93.56,3.55,1.2,1.1,1.14,1.12,2.67,1.12,3.63v.19h-5.97c-.02.43.1.94.3,1.23.21.27.53.46,1.02.46.24,0,.58-.03.8-.16.26-.14.37-.34.42-.5h3.3ZM154.19,107.2c0-.35-.13-.85-.35-1.09-.24-.27-.56-.34-.83-.34-.34,0-.67.08-.91.35-.26.27-.38.74-.4,1.07h2.5Z"/>
      <path class="cls-2" d="M161.8,109.52c-.05.29.03.66.24.86.16.16.45.27.82.27.29,0,.54-.02.82-.18.19-.11.35-.27.35-.56,0-.27-.13-.46-.4-.59-.27-.13-.62-.18-1.07-.24l-.83-.13c-.77-.11-1.66-.29-2.23-.78-.3-.27-.67-.75-.67-1.58,0-1.14.59-1.79,1.12-2.14.88-.59,2.06-.69,2.99-.69,1.38,0,2.23.24,2.77.61.4.27,1.04.9,1.1,2.02h-2.87c.02-.22-.06-.54-.24-.72-.19-.19-.56-.26-.83-.26-.43,0-.66.14-.72.19-.18.13-.29.34-.29.54,0,.3.18.42.35.5.37.19.67.21,1.01.26l1.12.16c.56.08,1.5.26,2.11.83.37.35.69.93.69,1.73,0,1.06-.54,1.79-1.09,2.18-.54.38-1.47.7-3.2.7-1.47,0-2.72-.14-3.55-1.01-.37-.38-.77-1.04-.78-1.97h3.28Z"/>
      <path class="cls-2" d="M177.27,104.06h3.31l-2.98,8.13h-3.62l-2.88-8.13h3.38l1.31,4.95,1.47-4.95Z"/>
      <path class="cls-2" d="M181.26,106.83c.06-.78.38-1.44.82-1.89.91-.94,2.35-1.09,3.43-1.09.78,0,2.43.03,3.36.95.75.72.83,1.66.83,2.32v3.67c0,.58.03.78.11.93.08.16.26.3.45.37v.11h-3.62l-.21-.88h-.03c-.26.3-.61.59-.99.78-.59.3-1.26.38-1.82.38-.64,0-1.46-.08-2.05-.62-.32-.3-.69-.85-.69-1.76,0-.61.16-1.14.61-1.58.64-.64,1.54-.8,2.19-.88l.96-.11c.91-.11,1.26-.14,1.49-.35.11-.11.24-.3.24-.61,0-.27-.11-.45-.21-.53-.22-.21-.61-.22-.7-.22-.37,0-.61.11-.75.26-.16.16-.27.46-.26.77h-3.15ZM186.33,108.51c-.35.26-.62.3-.96.35-.27.05-.69.1-.96.38-.14.16-.19.32-.19.51,0,.24.1.42.21.53.18.18.38.21.56.21.37,0,.66-.1.91-.37.4-.42.43-.98.43-1.41v-.21Z"/>
      <path class="cls-2" d="M194.83,104.93h.06c.26-.3.59-.58,1.04-.78.54-.26,1.07-.32,1.57-.32.72,0,1.57.11,2.24.75.74.7.83,1.6.83,2.74v4.88h-3.36v-4.35c0-.75-.18-1.07-.26-1.2-.18-.29-.43-.42-.77-.42-.29,0-.64.1-.9.46-.32.45-.32,1.09-.32,1.18v4.32h-3.36v-8.13h3.22v.86Z"/>
      <path class="cls-2" d="M209.74,104.75c.45-.4,1.25-.93,2.56-.93,1.09,0,1.78.37,2.18.75.75.7.86,1.71.86,2.74v4.88h-3.36v-4.35c0-.26-.02-.85-.26-1.2-.16-.24-.4-.42-.78-.42s-.66.14-.88.46c-.21.3-.32.75-.32,1.18v4.32h-3.36v-11.2h3.36v3.76Z"/>
      <path class="cls-2" d="M226.14,109.84c-.22.69-.66,1.47-1.62,2.03-1.02.59-2.11.61-2.96.61-1.26,0-2.59-.11-3.6-1.12-.62-.62-1.1-1.63-1.1-2.99s.45-2.48,1.22-3.28c.99-1.04,2.27-1.31,3.52-1.31,1.86,0,2.93.56,3.55,1.2,1.1,1.14,1.12,2.67,1.12,3.63v.19h-5.97c-.02.43.1.94.3,1.23.21.27.53.46,1.02.46.24,0,.58-.03.8-.16.26-.14.37-.34.42-.5h3.3ZM222.81,107.2c0-.35-.13-.85-.35-1.09-.24-.27-.56-.34-.83-.34-.34,0-.67.08-.91.35-.26.27-.38.74-.4,1.07h2.5Z"/>
      <path class="cls-2" d="M226.82,104.06h1.47v-2.4h3.36v2.4h1.73v2.21h-1.73v2.69c0,.24,0,.64.22.88.11.11.32.22.75.22.24,0,.51-.05.75-.11v2.26c-.72.16-1.36.22-2.06.22s-1.79-.06-2.4-.67c-.54-.54-.62-1.42-.62-2v-3.49h-1.47v-2.21Z"/>
      <path class="cls-2" d="M241.77,104.06v.9h.06c.75-1.06,1.84-1.18,2.62-1.18.69,0,1.73.08,2.56.88.26.24,1.15,1.22,1.15,3.33,0,1.28-.35,2.64-1.2,3.51-.8.83-1.76.99-2.67.99-.72,0-1.65-.11-2.37-.88v3.55h-3.36v-11.09h3.2ZM242.2,109.86c.29.37.66.51,1.04.51.43,0,.74-.16.98-.42.46-.51.5-1.3.5-1.73,0-.48-.05-1.26-.5-1.76-.18-.21-.5-.42-.98-.42-.34,0-.69.11-.96.42-.45.48-.5,1.2-.5,1.76,0,.45.03,1.14.42,1.63Z"/>
      <path class="cls-2" d="M258.41,109.84c-.22.69-.66,1.47-1.62,2.03-1.02.59-2.11.61-2.96.61-1.26,0-2.59-.11-3.6-1.12-.62-.62-1.1-1.63-1.1-2.99s.45-2.48,1.22-3.28c.99-1.04,2.27-1.31,3.52-1.31,1.86,0,2.93.56,3.55,1.2,1.1,1.14,1.12,2.67,1.12,3.63v.19h-5.97c-.02.43.1.94.3,1.23.21.27.53.46,1.02.46.24,0,.58-.03.8-.16.26-.14.37-.34.42-.5h3.3ZM255.08,107.2c0-.35-.13-.85-.35-1.09-.24-.27-.56-.34-.83-.34-.34,0-.67.08-.91.35-.26.27-.38.74-.4,1.07h2.5Z"/>
      <path class="cls-2" d="M266.59,106.47c-.27-.05-.62-.08-.88-.08-.98,0-1.49.4-1.7.61-.56.58-.59,1.42-.59,2.19v3.01h-3.36v-8.13h3.22v1.15c.35-.54.78-.85,1.1-1.02.54-.29,1.14-.35,1.66-.35.19,0,.35.02.54.05v2.58Z"/>
      <path class="cls-2" d="M270.5,109.52c-.05.29.03.66.24.86.16.16.45.27.82.27.29,0,.54-.02.82-.18.19-.11.35-.27.35-.56,0-.27-.13-.46-.4-.59-.27-.13-.62-.18-1.07-.24l-.83-.13c-.77-.11-1.66-.29-2.23-.78-.3-.27-.67-.75-.67-1.58,0-1.14.59-1.79,1.12-2.14.88-.59,2.06-.69,2.99-.69,1.38,0,2.23.24,2.77.61.4.27,1.04.9,1.1,2.02h-2.87c.02-.22-.06-.54-.24-.72-.19-.19-.56-.26-.83-.26-.43,0-.66.14-.72.19-.18.13-.29.34-.29.54,0,.3.18.42.35.5.37.19.67.21,1.01.26l1.12.16c.56.08,1.5.26,2.11.83.37.35.69.93.69,1.73,0,1.06-.54,1.79-1.09,2.18-.54.38-1.47.7-3.2.7-1.47,0-2.72-.14-3.55-1.01-.37-.38-.77-1.04-.78-1.97h3.28Z"/>
      <path class="cls-2" d="M285,111.32c-1.12,1.09-2.61,1.17-3.68,1.17-1.15,0-2.42-.11-3.39-1.01-.59-.53-1.2-1.5-1.2-3.17s.64-2.62,1.22-3.23c1.1-1.14,2.46-1.3,3.57-1.3.99,0,2.42.13,3.51,1.17.66.62,1.22,1.63,1.22,3.17s-.64,2.62-1.23,3.2ZM280.7,106.21c-.19.21-.51.69-.51,1.92,0,.67.14,1.54.5,1.92.22.26.5.32.77.32.3,0,.58-.08.8-.32.53-.56.53-1.78.53-1.92,0-.56-.08-1.47-.51-1.94-.22-.24-.46-.3-.75-.3-.34,0-.59.08-.82.32Z"/>
      <path class="cls-2" d="M290.97,104.93h.06c.26-.3.59-.58,1.04-.78.54-.26,1.07-.32,1.57-.32.72,0,1.57.11,2.24.75.74.7.83,1.6.83,2.74v4.88h-3.36v-4.35c0-.75-.18-1.07-.26-1.2-.18-.29-.43-.42-.77-.42-.29,0-.64.1-.9.46-.32.45-.32,1.09-.32,1.18v4.32h-3.36v-8.13h3.22v.86Z"/>
      <path class="cls-2" d="M307.51,109.84c-.22.69-.66,1.47-1.62,2.03-1.02.59-2.11.61-2.96.61-1.26,0-2.59-.11-3.6-1.12-.62-.62-1.1-1.63-1.1-2.99s.45-2.48,1.22-3.28c.99-1.04,2.27-1.31,3.52-1.31,1.86,0,2.93.56,3.55,1.2,1.1,1.14,1.12,2.67,1.12,3.63v.19h-5.97c-.02.43.1.94.3,1.23.21.27.53.46,1.02.46.24,0,.58-.03.8-.16.26-.14.37-.34.42-.5h3.3ZM304.18,107.2c0-.35-.13-.85-.35-1.09-.24-.27-.56-.34-.83-.34-.34,0-.67.08-.91.35-.26.27-.38.74-.4,1.07h2.5Z"/>
      <path class="cls-2" d="M317.88,109.84c-.22.69-.66,1.47-1.62,2.03-1.02.59-2.11.61-2.96.61-1.26,0-2.59-.11-3.6-1.12-.62-.62-1.1-1.63-1.1-2.99s.45-2.48,1.22-3.28c.99-1.04,2.27-1.31,3.52-1.31,1.86,0,2.93.56,3.55,1.2,1.1,1.14,1.12,2.67,1.12,3.63v.19h-5.97c-.02.43.1.94.3,1.23.21.27.53.46,1.02.46.24,0,.58-.03.8-.16.26-.14.37-.34.42-.5h3.3ZM314.55,107.2c0-.35-.13-.85-.35-1.09-.24-.27-.56-.34-.83-.34-.34,0-.67.08-.91.35-.26.27-.38.74-.4,1.07h2.5Z"/>
      <path class="cls-2" d="M322.89,100.99v11.2h-3.36v-11.2h3.36Z"/>
      <path class="cls-2" d="M148.59,123.27h3.31l-2.98,8.13h-3.62l-2.88-8.13h3.38l1.31,4.95,1.47-4.95Z"/>
      <path class="cls-2" d="M156.14,120.19v11.2h-3.36v-11.2h3.36Z"/>
      <path class="cls-2" d="M165.93,130.52c-1.12,1.09-2.61,1.17-3.68,1.17-1.15,0-2.42-.11-3.39-1.01-.59-.53-1.2-1.5-1.2-3.17s.64-2.62,1.22-3.23c1.1-1.14,2.46-1.3,3.57-1.3.99,0,2.42.13,3.51,1.17.66.62,1.22,1.63,1.22,3.17s-.64,2.62-1.23,3.2ZM161.63,125.41c-.19.21-.51.69-.51,1.92,0,.67.14,1.54.5,1.92.22.26.5.32.77.32.3,0,.58-.08.8-.32.53-.56.53-1.78.53-1.92,0-.56-.08-1.47-.51-1.94-.22-.24-.46-.3-.75-.3-.34,0-.59.08-.82.32Z"/>
      <path class="cls-2" d="M167.72,123.27h1.47v-2.4h3.36v2.4h1.73v2.21h-1.73v2.69c0,.24,0,.64.22.88.11.11.32.22.75.22.24,0,.51-.05.75-.11v2.26c-.72.16-1.36.22-2.06.22s-1.79-.06-2.4-.67c-.54-.54-.62-1.42-.62-2v-3.49h-1.47v-2.21Z"/>
      <path class="cls-2" d="M187.18,130.52c-1.12,1.09-2.61,1.17-3.68,1.17-1.15,0-2.42-.11-3.39-1.01-.59-.53-1.2-1.5-1.2-3.17s.64-2.62,1.22-3.23c1.1-1.14,2.46-1.3,3.57-1.3.99,0,2.42.13,3.51,1.17.66.62,1.22,1.63,1.22,3.17s-.64,2.62-1.23,3.2ZM182.87,125.41c-.19.21-.51.69-.51,1.92,0,.67.14,1.54.5,1.92.22.26.5.32.77.32.3,0,.58-.08.8-.32.53-.56.53-1.78.53-1.92,0-.56-.08-1.47-.51-1.94-.22-.24-.46-.3-.75-.3-.34,0-.59.08-.82.32Z"/>
      <path class="cls-2" d="M193.13,123.27v.9h.06c.75-1.06,1.84-1.18,2.62-1.18.69,0,1.73.08,2.56.88.26.24,1.15,1.22,1.15,3.33,0,1.28-.35,2.64-1.2,3.51-.8.83-1.76.99-2.67.99-.72,0-1.65-.11-2.37-.88v3.55h-3.36v-11.09h3.2ZM193.56,129.06c.29.37.66.51,1.04.51.43,0,.74-.16.98-.42.46-.51.5-1.3.5-1.73,0-.48-.05-1.26-.5-1.76-.18-.21-.5-.42-.98-.42-.34,0-.69.11-.96.42-.45.48-.5,1.2-.5,1.76,0,.45.03,1.14.42,1.63Z"/>
      <path class="cls-2" d="M206.01,123.27h3.31l-2.98,8.13h-3.62l-2.88-8.13h3.38l1.31,4.95,1.47-4.95Z"/>
      <path class="cls-2" d="M217.92,130.52c-1.12,1.09-2.61,1.17-3.68,1.17-1.15,0-2.42-.11-3.39-1.01-.59-.53-1.2-1.5-1.2-3.17s.64-2.62,1.22-3.23c1.1-1.14,2.46-1.3,3.57-1.3.99,0,2.42.13,3.51,1.17.66.62,1.22,1.63,1.22,3.17s-.64,2.62-1.23,3.2ZM213.61,125.41c-.19.21-.51.69-.51,1.92,0,.67.14,1.54.5,1.92.22.26.5.32.77.32.3,0,.58-.08.8-.32.53-.56.53-1.78.53-1.92,0-.56-.08-1.47-.51-1.94-.22-.24-.46-.3-.75-.3-.34,0-.59.08-.82.32Z"/>
      <path class="cls-2" d="M224.03,120.19v11.2h-3.36v-11.2h3.36Z"/>
      <path class="cls-2" d="M229.39,131.8c0,.3.18.48.27.54.18.13.46.19.74.19.46,0,.74-.16.9-.3.29-.29.32-.66.32-.96v-.9h-.08c-.7.59-1.46.7-2.29.7s-1.84-.1-2.66-.9c-.5-.48-1.04-1.36-1.04-2.88,0-1.63.58-2.61,1.1-3.17.7-.77,1.58-1.09,2.61-1.09.85,0,1.79.22,2.48.98h.08v-.75h3.15v6.91c0,1.14-.16,2.35-1.12,3.28-1.02.98-2.39,1.04-3.49,1.04-.9,0-2.11-.08-2.98-.69-.93-.64-1.07-1.52-1.1-2.02h3.11ZM229.4,128.53c.24.32.56.46.94.46.46,0,.77-.18.96-.4.4-.46.43-1.25.43-1.49,0-.78-.22-1.22-.46-1.47-.22-.22-.53-.38-.9-.38-.34,0-.66.13-.88.37-.45.45-.48,1.22-.48,1.5,0,.43.05.98.38,1.41Z"/>
      <path class="cls-2" d="M245.77,129.04c-.22.69-.66,1.47-1.62,2.03-1.02.59-2.11.61-2.96.61-1.26,0-2.59-.11-3.6-1.12-.62-.62-1.1-1.63-1.1-2.99s.45-2.48,1.22-3.28c.99-1.04,2.27-1.31,3.52-1.31,1.86,0,2.93.56,3.55,1.2,1.1,1.14,1.12,2.67,1.12,3.63v.19h-5.97c-.02.43.1.94.3,1.23.21.27.53.46,1.02.46.24,0,.58-.03.8-.16.26-.14.37-.34.42-.5h3.3ZM242.44,126.4c0-.35-.13-.85-.35-1.09-.24-.27-.56-.34-.83-.34-.34,0-.67.08-.91.35-.26.27-.38.74-.4,1.07h2.5Z"/>
      <path class="cls-2" d="M250.63,124.13h.06c.26-.3.59-.58,1.04-.78.54-.26,1.07-.32,1.57-.32.72,0,1.57.11,2.24.75.74.7.83,1.6.83,2.74v4.88h-3.36v-4.35c0-.75-.18-1.07-.26-1.2-.18-.29-.43-.42-.77-.42-.29,0-.64.1-.9.46-.32.45-.32,1.09-.32,1.18v4.32h-3.36v-8.13h3.22v.86Z"/>
    </g>
  </g>
</svg>