<?xml version="1.0" encoding="UTF-8"?>
<svg id="Layer_2" data-name="Layer 2" xmlns="http://www.w3.org/2000/svg" viewBox="0 0 400.38 243.76">
  <defs>
    <style>
      .cls-1 {
        fill: #d13389;
        opacity: .7;
      }

      .cls-1, .cls-2 {
        stroke-width: 0px;
      }

      .cls-2 {
        fill: #eff3e8;
      }
    </style>
  </defs>
  <g id="Layer_1-2" data-name="Layer 1">
    <g>
      <path class="cls-1" d="M.12,78.74C-1.93,46.67,23.33,19.4,55.46,19.1c.25,0,.5,0,.76,0,49.55-.35,60.99,11.25,98.32,12.07,51.01,1.11,53-20.04,122.51-27.75,36.19-4.01,77.03-8.53,102.35,12.28,20.45,16.81,20.48,45.57,20.89,55.11,1.28,29.47-11.91,50.6-16.55,57.82-17.2,26.72-43.51,39.81-48.14,42.04-11.18,5.39-18.33,6.51-28.98,14.84-13.79,10.78-19.87,23.05-22.53,27.42-24.36,40.07-132.88,30.18-148.95,28.71-22.67-2.07-54.83-7.12-92.15-20.49-21.01-7.52-35.49-26.89-36.91-49.17L.12,78.74Z"/>
      <g>
        <path class="cls-2" d="M66.88,116.98c.73-.05,1.85-.1,2.69.5.47.34.96.98,1.03,2.07.04.65-.1,1.21-.58,1.77-.34.41-.71.62-1.09.74v.06c.94.12,1.53.59,1.64.68.44.37.87,1,.93,2.04.08,1.25-.45,1.97-.91,2.35-.84.73-2.22.91-3.05.96l-6.28.4-.71-11.18,6.33-.4ZM64.31,121.47l1.79-.11c.29-.02.64-.06.85-.28.11-.1.24-.3.21-.69s-.18-.57-.33-.67c-.27-.17-.72-.16-.89-.15l-1.74.11.11,1.79ZM64.59,125.82l2.11-.13c.3-.02.65-.06.89-.3.15-.15.28-.4.25-.8-.03-.46-.23-.67-.37-.76-.25-.18-.64-.18-.93-.16l-2.09.13.13,2.03Z"/>
        <path class="cls-2" d="M81.93,124.89c-.18.7-.56,1.51-1.48,2.13-.98.66-2.07.74-2.92.8-1.26.08-2.59.05-3.67-.89-.66-.58-1.21-1.56-1.29-2.92s.29-2.5,1.01-3.35c.92-1.1,2.19-1.45,3.43-1.53,1.85-.12,2.96.37,3.62.97,1.17,1.06,1.29,2.6,1.35,3.56v.19s-5.95.38-5.95.38c.01.43.16.94.38,1.21.22.26.56.43,1.05.4.24-.02.57-.07.79-.21.25-.16.35-.36.38-.52l3.29-.21ZM78.44,122.46c-.02-.35-.18-.84-.42-1.06-.26-.26-.58-.3-.85-.28-.34.02-.67.12-.89.41-.24.29-.34.76-.33,1.1l2.49-.16Z"/>
        <path class="cls-2" d="M86.36,115.73l.71,11.18-3.35.21-.71-11.18,3.35-.21Z"/>
        <path class="cls-2" d="M97.7,123.88c-.18.7-.56,1.51-1.48,2.13-.98.66-2.07.74-2.92.8-1.26.08-2.59.05-3.67-.89-.66-.58-1.21-1.56-1.29-2.92s.29-2.5,1.01-3.35c.92-1.1,2.19-1.45,3.43-1.53,1.85-.12,2.96.37,3.62.97,1.17,1.06,1.29,2.6,1.35,3.56v.19s-5.95.38-5.95.38c.01.43.16.94.38,1.21.22.26.56.43,1.05.4.24-.02.57-.07.79-.21.25-.16.35-.36.38-.52l3.29-.21ZM94.21,121.46c-.02-.35-.18-.84-.42-1.06-.26-.26-.58-.3-.85-.28-.34.02-.67.12-.89.41-.24.29-.34.76-.33,1.1l2.49-.16Z"/>
        <path class="cls-2" d="M108.05,123.22c-.18.7-.56,1.51-1.48,2.13-.98.66-2.07.74-2.92.8-1.26.08-2.59.05-3.67-.89-.66-.58-1.21-1.56-1.29-2.92s.29-2.5,1.01-3.35c.92-1.1,2.19-1.45,3.43-1.53,1.85-.12,2.96.37,3.62.97,1.17,1.06,1.29,2.6,1.35,3.56v.19s-5.95.38-5.95.38c.01.43.16.94.38,1.21.22.26.56.43,1.05.4.24-.02.57-.07.79-.21.25-.16.35-.36.38-.52l3.29-.21ZM104.56,120.79c-.02-.35-.18-.84-.42-1.06-.26-.26-.58-.3-.85-.28-.34.02-.67.12-.89.41-.24.29-.34.76-.33,1.1l2.49-.16Z"/>
        <path class="cls-2" d="M115.26,119.18l-1.88.12.38,5.91-3.39.22-.38-5.91-1.49.09-.14-2.2,1.49-.09v-.13c-.06-.75-.01-1.59.6-2.25.69-.75,1.82-.85,2.4-.89s1.46-.01,2.09.03l.13,2.03c-.27-.05-.66-.09-.89-.07-.29.02-.56.1-.72.25-.29.24-.24.48-.22.75v.06s1.89-.12,1.89-.12l.14,2.2Z"/>
        <path class="cls-2" d="M122.58,124.65l-.05-.78h-.06c-.72,1-1.8,1.19-2.49,1.24-.78.05-1.81-.03-2.72-.85-.63-.58-1.22-1.57-1.32-3.06-.09-1.41.29-2.71.96-3.53.7-.85,1.59-1.19,2.65-1.26,1.39-.09,2.03.43,2.39.82l-.24-3.75,3.35-.21.71,11.18-3.19.2ZM121.71,118.96c-.2-.2-.54-.38-1.03-.35-.32.02-.63.14-.89.43-.43.51-.42,1.37-.4,1.82.06.97.38,1.48.69,1.75.22.18.52.34.93.31.38-.02.69-.17.92-.46.38-.51.4-1.26.36-1.88-.04-.56-.14-1.19-.58-1.61Z"/>
        <path class="cls-2" d="M136.41,121.41c-.18.7-.56,1.51-1.48,2.13-.98.66-2.07.74-2.92.8-1.26.08-2.59.05-3.67-.89-.66-.58-1.21-1.56-1.29-2.92s.29-2.5,1.01-3.35c.92-1.1,2.18-1.45,3.43-1.53,1.85-.12,2.96.37,3.62.97,1.17,1.06,1.29,2.6,1.35,3.55v.19s-5.95.38-5.95.38c.01.43.16.94.38,1.21.22.26.56.43,1.05.4.24-.02.57-.07.79-.21.25-.16.35-.36.38-.52l3.29-.21ZM132.92,118.98c-.02-.35-.18-.84-.42-1.06-.26-.26-.58-.3-.85-.28-.34.02-.67.12-.89.41-.24.29-.34.76-.33,1.1l2.49-.16Z"/>
        <path class="cls-2" d="M150.47,120.51c-.18.7-.56,1.51-1.48,2.13-.98.66-2.07.74-2.92.8-1.26.08-2.59.05-3.67-.89-.66-.58-1.21-1.56-1.29-2.92s.29-2.5,1.01-3.35c.92-1.1,2.18-1.45,3.43-1.53,1.85-.12,2.96.37,3.62.97,1.17,1.06,1.29,2.6,1.35,3.55v.19s-5.95.38-5.95.38c.01.43.16.94.38,1.21.22.26.56.43,1.05.4.24-.02.57-.07.79-.21.25-.16.35-.36.38-.52l3.29-.21ZM146.98,118.09c-.02-.35-.18-.84-.42-1.06-.26-.26-.58-.3-.85-.28-.34.02-.67.12-.89.41-.24.29-.34.76-.33,1.1l2.49-.16Z"/>
        <path class="cls-2" d="M155.01,115.3h.06c.24-.32.55-.62.99-.85.53-.29,1.05-.39,1.54-.42.72-.05,1.57.01,2.28.61.78.66.93,1.54,1,2.68l.31,4.87-3.35.21-.28-4.34c-.05-.75-.24-1.06-.33-1.18-.19-.28-.46-.39-.79-.37-.29.02-.63.14-.87.52-.29.47-.25,1.11-.24,1.2l.28,4.31-3.35.21-.52-8.11,3.21-.21.06.86Z"/>
        <path class="cls-2" d="M173.15,115.68c-.27-.03-.63-.04-.88-.02-.97.06-1.46.49-1.65.72-.52.61-.5,1.46-.45,2.23l.19,3-3.35.21-.52-8.11,3.21-.21.07,1.15c.32-.57.73-.9,1.04-1.09.52-.32,1.11-.42,1.64-.46.19-.01.35,0,.55.01l.16,2.57Z"/>
        <path class="cls-2" d="M183.35,118.41c-.18.7-.56,1.51-1.48,2.13-.98.66-2.07.74-2.92.8-1.26.08-2.59.05-3.67-.89-.66-.58-1.21-1.56-1.29-2.92s.29-2.5,1.01-3.35c.92-1.1,2.18-1.45,3.43-1.53,1.85-.12,2.96.37,3.62.97,1.17,1.06,1.29,2.6,1.35,3.55v.19s-5.95.38-5.95.38c.01.43.16.94.38,1.21.22.26.56.43,1.05.4.24-.02.57-.07.79-.21.25-.16.35-.36.38-.52l3.29-.21ZM179.86,115.99c-.02-.35-.18-.84-.42-1.06-.26-.26-.58-.3-.85-.28-.34.02-.67.12-.89.41-.24.29-.34.76-.33,1.1l2.49-.16Z"/>
        <path class="cls-2" d="M187.61,117.82c-.03.29.07.65.29.85.17.15.46.24.83.22.29-.02.54-.05.8-.23.18-.12.33-.29.32-.58-.02-.27-.16-.46-.44-.57s-.63-.14-1.09-.17l-.84-.07c-.77-.06-1.68-.18-2.27-.64-.32-.25-.72-.71-.77-1.54-.07-1.13.48-1.83.98-2.21.84-.65,2.02-.82,2.94-.88,1.37-.09,2.24.1,2.8.43.42.25,1.1.83,1.23,1.94l-2.86.18c0-.22-.1-.54-.29-.7-.2-.18-.58-.22-.85-.2-.43.03-.65.19-.71.24-.17.14-.27.35-.25.56.02.3.2.4.38.47.38.17.68.17,1.02.19l1.13.09c.56.04,1.52.16,2.16.7.39.33.75.88.8,1.68.07,1.05-.43,1.82-.95,2.24-.52.42-1.42.8-3.15.91-1.47.09-2.72.03-3.61-.78-.39-.36-.83-.99-.91-1.91l3.27-.21Z"/>
        <path class="cls-2" d="M197.22,111.73l.06.89h.06c.68-1.11,1.76-1.3,2.54-1.35.69-.04,1.73-.03,2.61.71.27.22,1.23,1.14,1.36,3.25.08,1.28-.18,2.66-.98,3.58-.75.88-1.69,1.1-2.6,1.16-.72.05-1.65,0-2.42-.73l.23,3.55-3.35.21-.71-11.07,3.19-.2ZM198.02,117.49c.31.35.69.47,1.07.44.43-.03.72-.21.95-.48.43-.54.41-1.32.38-1.76-.03-.48-.13-1.26-.61-1.73-.19-.2-.52-.38-1-.35-.34.02-.68.16-.93.48-.42.51-.42,1.23-.38,1.79.03.45.1,1.13.52,1.6Z"/>
        <path class="cls-2" d="M214.2,116.44c-.18.7-.56,1.51-1.48,2.13-.98.66-2.07.74-2.92.8-1.26.08-2.59.05-3.67-.89-.66-.58-1.21-1.56-1.29-2.92s.29-2.5,1.01-3.35c.92-1.1,2.19-1.45,3.43-1.53,1.85-.12,2.96.37,3.62.97,1.17,1.06,1.29,2.6,1.35,3.56v.19s-5.95.38-5.95.38c.01.43.16.94.38,1.21.22.26.56.43,1.05.4.24-.02.57-.07.79-.21.25-.16.35-.36.38-.52l3.29-.21ZM210.71,114.02c-.02-.35-.18-.84-.42-1.06-.26-.26-.58-.3-.85-.28-.34.02-.67.12-.89.41-.24.29-.34.76-.33,1.1l2.49-.16Z"/>
        <path class="cls-2" d="M224.27,114.95c-.04,1.06-.47,1.87-.94,2.4-.99,1.12-2.35,1.31-3.39,1.37s-2.34.02-3.39-.86c-.59-.49-1.26-1.43-1.36-3.01s.44-2.71,1.1-3.45c.94-1.04,2.22-1.36,3.32-1.43,1.71-.11,2.74.4,3.35.94.53.48,1.01,1.25,1.14,2.27l-3.08.2c-.02-.32-.13-.78-.45-1.06-.22-.19-.5-.26-.79-.24-.34.02-.58.13-.79.39-.39.47-.4,1.26-.36,1.9.03.45.11,1.47.62,1.95.26.26.53.3.84.28.24-.02.53-.06.75-.32.24-.29.33-.79.31-1.13l3.13-.2Z"/>
        <path class="cls-2" d="M224.51,109.99l1.47-.09-.15-2.4,3.35-.21.15,2.4,1.73-.11.14,2.2-1.73.11.17,2.68c.02.24.04.64.28.86.12.1.33.2.77.18.24-.02.51-.08.74-.16l.14,2.25c-.71.21-1.34.31-2.05.36s-1.79.05-2.44-.52c-.58-.51-.71-1.38-.75-1.96l-.22-3.48-1.47.09-.14-2.2Z"/>
        <path class="cls-2" d="M237.78,109.14l3.31-.21-2.45,8.3-3.61.23-3.39-7.93,3.37-.22,1.63,4.85,1.15-5.03Z"/>
        <path class="cls-2" d="M250.12,115.62c-1.05,1.16-2.53,1.33-3.6,1.4-1.15.07-2.42.04-3.45-.79-.63-.49-1.29-1.42-1.4-3.09s.47-2.66,1.01-3.3c1.03-1.2,2.38-1.45,3.48-1.52.99-.06,2.42-.03,3.57.94.69.58,1.32,1.55,1.42,3.08s-.47,2.66-1.03,3.27ZM245.5,110.8c-.18.22-.47.72-.39,1.95.04.67.24,1.52.62,1.89.24.24.52.29.79.27.3-.02.57-.12.78-.37.49-.59.41-1.81.4-1.95-.04-.56-.17-1.46-.63-1.9-.24-.23-.48-.27-.77-.26-.34.02-.59.12-.79.37Z"/>
        <path class="cls-2" d="M255.56,104.93l.71,11.18-3.35.21-.71-11.18,3.35-.21Z"/>
        <path class="cls-2" d="M260.99,104.58l.71,11.18-3.35.21-.71-11.18,3.35-.21Z"/>
        <path class="cls-2" d="M272.34,112.73c-.18.7-.56,1.51-1.48,2.13-.98.66-2.07.74-2.92.8-1.26.08-2.59.05-3.67-.89-.66-.58-1.21-1.56-1.29-2.92s.29-2.5,1.01-3.35c.92-1.1,2.19-1.45,3.43-1.53,1.85-.12,2.96.37,3.62.97,1.17,1.06,1.29,2.6,1.35,3.56v.19s-5.95.38-5.95.38c.01.43.16.94.38,1.21.22.26.56.43,1.05.4.24-.02.57-.07.79-.21.25-.16.35-.36.38-.52l3.29-.21ZM268.84,110.3c-.02-.35-.18-.84-.42-1.06-.26-.26-.58-.3-.85-.28-.34.02-.67.12-.89.41-.24.29-.34.76-.33,1.1l2.49-.16Z"/>
        <path class="cls-2" d="M285.49,113.36c-1.05,1.16-2.53,1.33-3.6,1.4-1.15.07-2.42.04-3.45-.79-.63-.49-1.29-1.42-1.4-3.09s.47-2.66,1.01-3.3c1.03-1.2,2.38-1.45,3.48-1.52.99-.06,2.42-.03,3.57.94.69.58,1.32,1.55,1.42,3.08s-.47,2.66-1.03,3.27ZM280.87,108.54c-.18.22-.47.72-.39,1.95.04.67.24,1.52.62,1.89.24.24.52.29.79.27.3-.02.57-.12.78-.37.49-.59.41-1.81.4-1.95-.04-.56-.17-1.46-.63-1.9-.24-.23-.48-.27-.77-.26-.34.02-.59.12-.79.37Z"/>
        <path class="cls-2" d="M290.79,105.76l.07,1.12h.1c.23-.42.54-.78.87-1.02.38-.28.91-.49,1.54-.53.51-.03,1.14.09,1.58.32.33.19.72.53.97,1.06.26-.48.6-.84.97-1.1.61-.46,1.21-.57,1.84-.61.5-.03,1.46-.03,2.2.6.88.73,1.06,2,1.11,2.78l.31,4.81-3.28.21-.29-4.52c-.02-.24-.07-.78-.34-1.1-.16-.2-.41-.34-.73-.32-.26.02-.57.12-.8.52-.17.3-.26.71-.23,1.17l.28,4.39-3.27.21-.29-4.58c0-.13-.07-.8-.38-1.11-.15-.15-.42-.26-.7-.24-.24.02-.54.13-.77.5-.19.32-.27.76-.25,1.14l.28,4.44-3.27.21-.52-8.11,3.02-.19Z"/>
        <path class="cls-2" d="M307.7,113.23c.02.3.21.47.31.53.18.12.48.16.75.15.46-.03.72-.21.88-.36.27-.31.28-.68.26-.98l-.06-.89h-.08c-.66.64-1.41.8-2.24.85s-1.84.02-2.71-.73c-.53-.45-1.12-1.29-1.22-2.81-.1-1.63.41-2.64.9-3.23.65-.81,1.51-1.19,2.53-1.25.85-.05,1.8.11,2.54.82h.08s-.05-.76-.05-.76l3.15-.2.44,6.9c.07,1.13,0,2.36-.91,3.35-.96,1.04-2.31,1.19-3.42,1.26-.89.06-2.11.05-3.02-.5-.97-.58-1.17-1.45-1.23-1.94l3.1-.2ZM307.51,109.97c.26.3.59.43.97.4.46-.03.76-.22.93-.46.37-.49.35-1.27.34-1.51-.05-.78-.3-1.2-.56-1.44-.24-.21-.55-.35-.92-.33-.34.02-.65.17-.86.42-.42.48-.4,1.24-.38,1.53.03.43.11.97.47,1.38Z"/>
        <path class="cls-2" d="M314.77,107c.01-.79.29-1.46.69-1.94.85-1,2.28-1.24,3.35-1.31.78-.05,2.43-.12,3.41.73.8.67.94,1.61.98,2.26l.23,3.66c.04.58.08.78.17.92.09.15.27.29.47.34v.11s-3.6.23-3.6.23l-.26-.86h-.03c-.24.32-.57.63-.94.85-.57.34-1.24.46-1.8.5-.64.04-1.46.01-2.08-.49-.34-.28-.74-.8-.8-1.71-.04-.61.09-1.14.51-1.62.6-.68,1.48-.9,2.13-1.02l.95-.17c.9-.17,1.25-.22,1.46-.45.1-.12.22-.32.2-.62-.02-.27-.14-.44-.24-.51-.24-.19-.62-.19-.72-.18-.37.02-.6.15-.74.3-.15.17-.24.48-.21.78l-3.15.2ZM319.94,108.35c-.34.28-.6.34-.94.41-.27.07-.68.14-.93.44-.13.17-.17.33-.16.52.02.24.12.41.24.51.19.16.4.18.57.17.37-.02.65-.14.89-.43.37-.44.37-1,.34-1.43v-.21Z"/>
        <path class="cls-2" d="M328.19,104.23h.06c.24-.32.55-.62.99-.85.53-.29,1.05-.39,1.54-.42.72-.05,1.57.01,2.28.61.78.66.93,1.54,1,2.68l.31,4.87-3.35.21-.28-4.34c-.05-.75-.24-1.06-.33-1.18-.19-.28-.46-.39-.79-.37-.29.02-.63.14-.87.52-.29.47-.25,1.11-.24,1.2l.28,4.31-3.35.21-.52-8.11,3.21-.21.06.86Z"/>
        <path class="cls-2" d="M339.76,111.18c.02.3.21.47.31.53.18.12.48.16.75.15.46-.03.72-.21.88-.36.27-.31.28-.68.26-.98l-.06-.89h-.08c-.67.64-1.41.8-2.24.85s-1.84.02-2.71-.73c-.53-.45-1.13-1.29-1.22-2.81-.1-1.63.41-2.64.9-3.23.65-.81,1.51-1.19,2.53-1.25.85-.05,1.8.11,2.54.82h.08s-.05-.76-.05-.76l3.15-.2.44,6.9c.07,1.13,0,2.36-.91,3.35-.96,1.04-2.31,1.19-3.42,1.26-.89.06-2.11.05-3.02-.5-.97-.58-1.17-1.45-1.23-1.94l3.1-.2ZM339.57,107.92c.26.3.59.43.97.4.46-.03.75-.22.93-.46.37-.49.35-1.27.34-1.51-.05-.78-.3-1.2-.56-1.44-.24-.21-.55-.35-.92-.33-.34.02-.65.17-.85.42-.42.48-.4,1.24-.38,1.53.03.43.11.97.47,1.38Z"/>
        <path class="cls-2" d="M88.69,137.9l.07,1.12h.1c.23-.42.54-.78.87-1.02.38-.28.91-.49,1.54-.53.51-.03,1.14.09,1.58.32.33.19.72.53.97,1.06.26-.48.6-.84.97-1.1.61-.46,1.21-.57,1.84-.61.5-.03,1.46-.03,2.2.6.88.73,1.06,2,1.11,2.78l.31,4.81-3.28.21-.29-4.52c-.02-.24-.07-.78-.34-1.1-.16-.2-.41-.34-.73-.32-.26.02-.57.12-.8.52-.17.3-.26.71-.23,1.17l.28,4.39-3.27.21-.29-4.58c0-.13-.07-.8-.38-1.11-.15-.15-.42-.26-.7-.24-.24.02-.54.13-.77.5-.19.32-.27.76-.25,1.14l.28,4.44-3.27.21-.52-8.11,3.02-.19Z"/>
        <path class="cls-2" d="M110.85,142.28c-.18.7-.56,1.51-1.48,2.13-.98.66-2.07.74-2.92.8-1.26.08-2.59.05-3.67-.89-.66-.58-1.21-1.56-1.29-2.92s.29-2.5,1.01-3.35c.92-1.1,2.19-1.45,3.43-1.53,1.85-.12,2.96.37,3.62.97,1.17,1.06,1.29,2.6,1.35,3.55v.19s-5.95.38-5.95.38c.01.43.16.94.38,1.21.22.26.56.43,1.05.4.24-.02.57-.07.79-.21.25-.16.35-.36.38-.52l3.29-.21ZM107.36,139.86c-.02-.35-.18-.84-.42-1.06-.26-.26-.58-.3-.85-.28-.34.02-.67.12-.89.41-.24.29-.34.76-.33,1.1l2.49-.16Z"/>
        <path class="cls-2" d="M111.17,136.47l1.47-.09-.15-2.4,3.35-.21.15,2.4,1.73-.11.14,2.2-1.73.11.17,2.68c.02.24.04.64.28.86.12.1.33.2.77.18.24-.02.51-.08.74-.16l.14,2.25c-.71.21-1.34.31-2.05.36s-1.79.05-2.44-.52c-.58-.51-.71-1.38-.75-1.96l-.22-3.48-1.47.09-.14-2.2Z"/>
        <path class="cls-2" d="M131.96,140.93c-.18.7-.56,1.51-1.48,2.13-.98.66-2.07.74-2.92.8-1.26.08-2.59.05-3.67-.89-.66-.58-1.21-1.56-1.29-2.92s.29-2.5,1.01-3.35c.92-1.1,2.18-1.45,3.43-1.53,1.85-.12,2.96.37,3.62.97,1.17,1.06,1.29,2.6,1.35,3.55v.19s-5.95.38-5.95.38c.01.43.16.94.38,1.21.22.26.56.43,1.05.4.24-.02.57-.07.79-.21.25-.16.35-.36.38-.52l3.29-.21ZM128.47,138.51c-.02-.35-.18-.84-.42-1.06-.26-.26-.58-.3-.85-.28-.34.02-.67.12-.89.41-.24.29-.34.76-.33,1.1l2.49-.16Z"/>
        <path class="cls-2" d="M136.39,131.78l.71,11.18-3.35.21-.71-11.18,3.35-.21Z"/>
        <path class="cls-2" d="M144.21,134.36l3.72-.24-3.03,3.48,3.63,4.63-3.72.24-1.86-2.77-.55.64.14,2.27-3.35.21-.71-11.18,3.35-.21.36,5.59,2.03-2.66Z"/>
        <path class="cls-2" d="M148.85,136.84c.01-.79.29-1.46.69-1.94.85-1,2.28-1.24,3.35-1.31.78-.05,2.43-.12,3.41.73.8.67.94,1.61.98,2.26l.23,3.66c.04.58.08.78.17.92.09.15.27.29.47.34v.11s-3.6.23-3.6.23l-.26-.86h-.03c-.24.32-.57.63-.94.85-.57.34-1.24.46-1.8.5-.64.04-1.46.01-2.08-.49-.34-.28-.74-.8-.8-1.71-.04-.61.09-1.14.51-1.62.6-.68,1.48-.9,2.13-1.02l.95-.17c.9-.17,1.25-.22,1.46-.45.1-.12.22-.32.2-.62-.02-.27-.14-.44-.24-.51-.24-.19-.62-.19-.72-.18-.37.02-.6.15-.73.3-.15.17-.24.48-.21.78l-3.15.2ZM154.02,138.19c-.33.28-.6.34-.94.41-.27.07-.68.14-.93.44-.13.17-.17.33-.16.52.02.24.12.41.24.51.19.16.4.18.57.17.37-.02.65-.14.89-.43.37-.44.37-1,.34-1.43v-.21Z"/>
        <path class="cls-2" d="M158.97,136.19c.01-.79.29-1.46.69-1.94.85-1,2.28-1.24,3.35-1.31.78-.05,2.43-.12,3.41.73.8.67.94,1.61.98,2.26l.23,3.66c.04.58.08.78.17.92.09.15.27.29.47.34v.11s-3.6.23-3.6.23l-.26-.86h-.03c-.24.32-.57.63-.94.85-.57.34-1.24.46-1.8.5-.64.04-1.46.01-2.08-.49-.34-.28-.74-.8-.8-1.71-.04-.61.09-1.14.51-1.62.6-.68,1.48-.9,2.13-1.02l.95-.17c.9-.17,1.25-.22,1.46-.45.1-.12.22-.32.2-.62-.02-.27-.14-.44-.24-.51-.24-.19-.62-.19-.72-.18-.37.02-.6.15-.74.3-.15.17-.24.48-.21.78l-3.15.2ZM164.15,137.54c-.34.28-.6.34-.94.41-.27.07-.68.14-.93.44-.13.17-.17.33-.16.52.02.24.12.41.24.51.19.16.4.18.57.17.37-.02.65-.14.89-.43.37-.44.37-1,.34-1.43v-.21Z"/>
        <path class="cls-2" d="M175.8,134.75c-.27-.03-.63-.04-.88-.02-.97.06-1.46.49-1.65.72-.52.61-.5,1.46-.45,2.23l.19,3-3.35.21-.52-8.11,3.21-.21.07,1.15c.32-.57.73-.9,1.04-1.09.52-.32,1.11-.42,1.64-.46.19-.01.35,0,.55.01l.16,2.57Z"/>
        <path class="cls-2" d="M189.72,137.24c-.18.7-.56,1.51-1.48,2.13-.98.66-2.07.74-2.92.8-1.26.08-2.59.05-3.67-.89-.66-.58-1.21-1.56-1.29-2.92s.29-2.5,1.01-3.35c.92-1.1,2.18-1.45,3.43-1.53,1.85-.12,2.96.37,3.62.97,1.17,1.06,1.29,2.6,1.35,3.55v.19s-5.95.38-5.95.38c.01.43.16.94.38,1.21.22.26.56.43,1.05.4.24-.02.57-.07.79-.21.25-.16.35-.36.38-.52l3.29-.21ZM186.22,134.82c-.02-.35-.18-.84-.42-1.06-.26-.26-.58-.3-.85-.28-.34.02-.67.12-.89.41-.24.29-.34.76-.33,1.1l2.49-.16Z"/>
        <path class="cls-2" d="M194.25,132.03h.06c.24-.32.55-.62.99-.85.53-.29,1.05-.39,1.54-.42.72-.05,1.57.01,2.28.61.78.66.93,1.54,1,2.68l.31,4.87-3.35.21-.28-4.34c-.05-.75-.24-1.06-.33-1.18-.19-.28-.46-.39-.79-.37-.29.02-.63.14-.87.52-.29.47-.25,1.11-.24,1.2l.28,4.31-3.35.21-.52-8.11,3.21-.21.06.86Z"/>
        <path class="cls-2" d="M209.12,130.9c.42-.43,1.19-1.01,2.5-1.09,1.09-.07,1.8.25,2.22.61.8.65.97,1.65,1.04,2.68l.31,4.87-3.35.21-.28-4.34c-.02-.26-.07-.85-.33-1.18-.18-.23-.43-.39-.81-.37s-.65.19-.85.52c-.19.32-.27.77-.24,1.2l.28,4.31-3.35.21-.71-11.18,3.35-.21.24,3.75Z"/>
        <path class="cls-2" d="M225.82,134.94c-.18.7-.56,1.51-1.48,2.13-.98.66-2.07.74-2.92.8-1.26.08-2.59.05-3.67-.89-.66-.58-1.21-1.56-1.29-2.92s.29-2.5,1.01-3.35c.92-1.1,2.19-1.45,3.43-1.53,1.85-.12,2.96.37,3.62.97,1.17,1.06,1.29,2.6,1.35,3.55v.19s-5.95.38-5.95.38c.01.43.16.94.38,1.21.22.26.56.43,1.05.4.24-.02.57-.07.79-.21.25-.16.35-.36.38-.52l3.29-.21ZM222.33,132.51c-.02-.35-.18-.84-.42-1.06-.26-.26-.58-.3-.85-.28-.34.02-.67.12-.89.41-.24.29-.34.76-.33,1.1l2.49-.16Z"/>
        <path class="cls-2" d="M226.13,129.13l1.47-.09-.15-2.4,3.35-.21.15,2.4,1.73-.11.14,2.2-1.73.11.17,2.68c.02.24.04.64.28.86.12.1.33.2.77.18.24-.02.51-.08.74-.16l.14,2.25c-.71.21-1.34.31-2.05.36s-1.79.05-2.44-.52c-.58-.51-.71-1.38-.75-1.96l-.22-3.48-1.47.09-.14-2.2Z"/>
        <path class="cls-2" d="M241.05,128.17l.06.89h.06c.68-1.11,1.76-1.3,2.54-1.35.69-.04,1.73-.03,2.61.71.27.22,1.23,1.14,1.36,3.25.08,1.28-.18,2.66-.98,3.58-.75.88-1.69,1.1-2.6,1.16-.72.05-1.65,0-2.42-.73l.23,3.55-3.35.21-.71-11.07,3.19-.2ZM241.85,133.93c.31.35.69.47,1.07.44.43-.03.72-.21.95-.48.43-.54.41-1.32.38-1.76-.03-.48-.13-1.26-.61-1.73-.19-.2-.52-.38-1-.35-.34.02-.68.16-.93.48-.42.51-.42,1.23-.38,1.79.03.45.1,1.13.52,1.6Z"/>
        <path class="cls-2" d="M258.02,132.88c-.18.7-.56,1.51-1.48,2.13-.98.66-2.07.74-2.92.8-1.26.08-2.59.05-3.67-.89-.66-.58-1.21-1.56-1.29-2.92s.29-2.5,1.01-3.35c.92-1.1,2.19-1.45,3.43-1.53,1.85-.12,2.96.37,3.62.97,1.17,1.06,1.29,2.6,1.35,3.55v.19s-5.95.38-5.95.38c.01.43.16.94.38,1.21.22.26.56.43,1.05.4.24-.02.57-.07.79-.21.25-.16.35-.36.38-.52l3.29-.21ZM254.53,130.46c-.02-.35-.18-.84-.42-1.06-.26-.26-.58-.3-.85-.28-.34.02-.67.12-.89.41-.24.29-.34.76-.33,1.1l2.49-.16Z"/>
        <path class="cls-2" d="M265.97,128.99c-.27-.03-.63-.04-.88-.02-.97.06-1.46.49-1.65.72-.52.61-.5,1.46-.45,2.23l.19,3-3.35.21-.52-8.11,3.21-.21.07,1.15c.32-.57.73-.9,1.04-1.09.52-.32,1.11-.42,1.64-.46.19-.01.35,0,.55.01l.16,2.57Z"/>
        <path class="cls-2" d="M270.07,131.79c-.03.29.07.65.29.85.17.15.46.24.83.22.29-.02.54-.05.8-.23.18-.12.33-.29.32-.58-.02-.27-.16-.46-.44-.57s-.63-.14-1.09-.17l-.84-.07c-.77-.06-1.68-.18-2.27-.64-.32-.25-.72-.71-.77-1.54-.07-1.13.48-1.83.98-2.21.84-.65,2.02-.82,2.94-.88,1.37-.09,2.24.1,2.8.43.42.25,1.1.83,1.23,1.94l-2.86.18c0-.22-.1-.54-.29-.7-.2-.18-.58-.22-.85-.2-.43.03-.65.19-.71.24-.17.14-.27.35-.25.56.02.3.2.4.38.47.38.17.68.17,1.02.19l1.13.09c.56.04,1.52.16,2.16.7.39.33.75.88.8,1.68.07,1.05-.43,1.82-.95,2.24-.52.42-1.42.8-3.15.91-1.47.09-2.72.03-3.61-.78-.39-.36-.83-.99-.91-1.91l3.27-.21Z"/>
        <path class="cls-2" d="M284.65,132.65c-1.05,1.16-2.53,1.33-3.6,1.4-1.15.07-2.42.04-3.45-.79-.63-.49-1.29-1.42-1.4-3.09s.47-2.66,1.01-3.3c1.03-1.2,2.38-1.45,3.48-1.52.99-.06,2.42-.03,3.57.94.69.58,1.32,1.55,1.42,3.08s-.47,2.66-1.03,3.27ZM280.03,127.83c-.18.22-.47.72-.39,1.95.04.67.24,1.52.62,1.89.24.24.52.29.79.27.3-.02.57-.12.78-.37.49-.59.41-1.81.4-1.95-.04-.56-.17-1.46-.63-1.9-.24-.23-.48-.27-.77-.26-.34.02-.59.12-.79.37Z"/>
        <path class="cls-2" d="M290.2,125.9h.06c.24-.32.55-.62.99-.85.53-.29,1.05-.39,1.54-.42.72-.05,1.57.01,2.28.61.78.66.93,1.54,1,2.68l.31,4.87-3.35.21-.28-4.34c-.05-.75-.24-1.06-.33-1.18-.19-.28-.46-.39-.79-.37-.29.02-.63.14-.87.52-.29.47-.25,1.11-.24,1.2l.28,4.31-3.35.21-.52-8.11,3.21-.21.06.86Z"/>
        <path class="cls-2" d="M307.03,129.75c-.18.7-.56,1.51-1.48,2.13-.98.66-2.07.74-2.92.8-1.26.08-2.59.05-3.67-.89-.66-.58-1.21-1.56-1.29-2.92s.29-2.5,1.01-3.35c.92-1.1,2.19-1.45,3.43-1.53,1.85-.12,2.96.37,3.62.97,1.17,1.06,1.29,2.6,1.35,3.55v.19s-5.95.38-5.95.38c.01.43.16.94.38,1.21.22.26.56.43,1.05.4.24-.02.57-.07.79-.21.25-.16.35-.36.38-.52l3.29-.21ZM303.54,127.33c-.02-.35-.18-.84-.42-1.06-.26-.26-.58-.3-.85-.28-.34.02-.67.12-.89.41-.24.29-.34.76-.33,1.1l2.49-.16Z"/>
        <path class="cls-2" d="M317.37,129.09c-.18.7-.56,1.51-1.48,2.13-.98.66-2.07.74-2.92.8-1.26.08-2.59.05-3.67-.89-.66-.58-1.21-1.56-1.29-2.92s.29-2.5,1.01-3.35c.92-1.1,2.18-1.45,3.43-1.53,1.85-.12,2.96.37,3.62.97,1.17,1.06,1.29,2.6,1.35,3.55v.19s-5.95.38-5.95.38c.01.43.16.94.38,1.21.22.26.56.43,1.05.4.24-.02.57-.07.79-.21.25-.16.35-.36.38-.52l3.29-.21ZM313.88,126.67c-.02-.35-.18-.84-.42-1.06-.26-.26-.58-.3-.85-.28-.34.02-.67.12-.89.41-.24.29-.34.76-.33,1.1l2.49-.16Z"/>
        <path class="cls-2" d="M321.8,119.94l.71,11.18-3.35.21-.71-11.18,3.35-.21Z"/>
      </g>
    </g>
  </g>
</svg>