<?xml version="1.0" encoding="UTF-8"?>
<svg id="Layer_2" data-name="Layer 2" xmlns="http://www.w3.org/2000/svg" viewBox="0 0 400 235.4">
  <defs>
    <style>
      .cls-1 {
        fill: #d13389;
        opacity: .7;
      }

      .cls-1, .cls-2 {
        stroke-width: 0px;
      }

      .cls-2 {
        fill: #eff3e8;
      }
    </style>
  </defs>
  <g id="Layer_1-2" data-name="Layer 1">
    <path class="cls-1" d="M0,176.94c0,32.13,26.95,57.74,59.04,55.99.25-.01.5-.03.75-.04,49.47-2.81,60.15-15.12,97.36-18.31,50.83-4.36,54.16,16.62,124.03,19.88,36.37,1.69,77.42,3.61,101.36-18.78,19.34-18.08,17.53-46.78,17.34-56.33-.6-29.49-15.11-49.74-20.2-56.64-18.87-25.57-45.96-36.95-50.72-38.89-11.51-4.67-18.71-5.32-29.87-12.96-14.44-9.88-21.3-21.73-24.23-25.92C247.98-13.49,140.31,3.29,124.36,5.78c-22.5,3.51-54.26,10.6-90.66,26.32C13.21,40.95,0,61.2,0,83.52v93.42Z"/>
    <g>
      <path class="cls-2" d="M117.69,115.5v6.18h-2.56l-.21-.94c-.62.77-1.49,1.28-3.3,1.28-1.14,0-2.59-.14-3.76-1.23-.98-.91-1.62-2.45-1.62-4.42,0-2.37.94-3.81,1.7-4.58,1.28-1.3,2.8-1.58,4.15-1.58s2.85.27,3.84,1.06c.74.58,1.47,1.66,1.65,3.09h-3.6c-.05-.38-.21-.72-.42-.93-.42-.43-1.01-.48-1.31-.48-.74,0-1.2.29-1.49.59-.54.58-.74,1.65-.74,2.54s.19,2.05.86,2.67c.45.43.96.51,1.49.51.45,0,.87-.08,1.28-.4.42-.34.62-.78.67-.9h-1.54v-2.46h4.9Z"/>
      <path class="cls-2" d="M128.17,119.33c-.22.69-.66,1.47-1.62,2.03-1.02.59-2.11.61-2.96.61-1.26,0-2.59-.11-3.6-1.12-.62-.62-1.1-1.63-1.1-2.99s.45-2.48,1.22-3.28c.99-1.04,2.27-1.31,3.52-1.31,1.86,0,2.93.56,3.55,1.2,1.1,1.14,1.12,2.67,1.12,3.63v.19h-5.97c-.02.43.1.94.3,1.23.21.27.53.46,1.02.46.24,0,.58-.03.8-.16.26-.14.37-.34.42-.5h3.3ZM124.84,116.69c0-.35-.13-.85-.35-1.09-.24-.27-.56-.34-.83-.34-.34,0-.67.08-.91.35-.26.27-.38.74-.4,1.07h2.5Z"/>
      <path class="cls-2" d="M138.53,119.33c-.22.69-.66,1.47-1.62,2.03-1.02.59-2.11.61-2.96.61-1.26,0-2.59-.11-3.6-1.12-.62-.62-1.1-1.63-1.1-2.99s.45-2.48,1.22-3.28c.99-1.04,2.27-1.31,3.52-1.31,1.86,0,2.93.56,3.55,1.2,1.1,1.14,1.12,2.67,1.12,3.63v.19h-5.97c-.02.43.1.94.3,1.23.21.27.53.46,1.02.46.24,0,.58-.03.8-.16.26-.14.37-.34.42-.5h3.3ZM135.2,116.69c0-.35-.13-.85-.35-1.09-.24-.27-.56-.34-.83-.34-.34,0-.67.08-.91.35-.26.27-.38.74-.4,1.07h2.5Z"/>
      <path class="cls-2" d="M143.4,114.42h.06c.26-.3.59-.58,1.04-.78.54-.26,1.07-.32,1.57-.32.72,0,1.57.11,2.24.75.74.7.83,1.6.83,2.74v4.88h-3.36v-4.35c0-.75-.18-1.07-.26-1.2-.18-.29-.43-.42-.77-.42-.29,0-.64.1-.9.46-.32.45-.32,1.09-.32,1.18v4.32h-3.36v-8.13h3.22v.86Z"/>
      <path class="cls-2" d="M158.31,114.24c.45-.4,1.25-.93,2.56-.93,1.09,0,1.78.37,2.18.75.75.7.86,1.71.86,2.74v4.88h-3.36v-4.35c0-.26-.02-.85-.26-1.2-.16-.24-.4-.42-.79-.42s-.66.14-.88.46c-.21.3-.32.75-.32,1.18v4.32h-3.36v-11.2h3.36v3.76Z"/>
      <path class="cls-2" d="M173.7,120.8c-1.12,1.09-2.61,1.17-3.68,1.17-1.15,0-2.42-.11-3.39-1.01-.59-.53-1.2-1.5-1.2-3.17s.64-2.62,1.22-3.23c1.1-1.14,2.46-1.3,3.57-1.3.99,0,2.42.13,3.5,1.17.66.62,1.22,1.63,1.22,3.17s-.64,2.62-1.23,3.2ZM169.39,115.7c-.19.21-.51.69-.51,1.92,0,.67.14,1.54.5,1.92.22.26.5.32.77.32.3,0,.58-.08.8-.32.53-.56.53-1.78.53-1.92,0-.56-.08-1.47-.51-1.94-.22-.24-.46-.3-.75-.3-.34,0-.59.08-.82.32Z"/>
      <path class="cls-2" d="M184.16,120.8c-1.12,1.09-2.61,1.17-3.68,1.17-1.15,0-2.42-.11-3.39-1.01-.59-.53-1.2-1.5-1.2-3.17s.64-2.62,1.22-3.23c1.1-1.14,2.46-1.3,3.57-1.3.99,0,2.42.13,3.5,1.17.66.62,1.22,1.63,1.22,3.17s-.64,2.62-1.23,3.2ZM179.86,115.7c-.19.21-.51.69-.51,1.92,0,.67.14,1.54.5,1.92.22.26.5.32.77.32.3,0,.58-.08.8-.32.53-.56.53-1.78.53-1.92,0-.56-.08-1.47-.51-1.94-.22-.24-.46-.3-.75-.3-.34,0-.59.08-.82.32Z"/>
      <path class="cls-2" d="M192.72,115.76h-1.89v5.92h-3.39v-5.92h-1.49v-2.21h1.49v-.13c0-.75.1-1.58.75-2.21.74-.71,1.87-.74,2.45-.74s1.46.08,2.08.16v2.03c-.27-.06-.66-.13-.88-.13-.29,0-.56.06-.74.21-.3.22-.27.46-.27.74v.06h1.89v2.21Z"/>
      <path class="cls-2" d="M199.68,121.68v-.78h-.06c-.78.94-1.87,1.07-2.56,1.07-.78,0-1.81-.14-2.66-1.02-.59-.62-1.12-1.65-1.12-3.14,0-1.41.46-2.69,1.18-3.46.75-.8,1.67-1.09,2.72-1.09,1.39,0,2,.56,2.34.98v-3.76h3.36v11.2h-3.2ZM199.17,115.95c-.19-.21-.51-.42-1.01-.42-.32,0-.64.1-.91.37-.46.48-.51,1.34-.51,1.79,0,.98.29,1.5.58,1.79.21.19.5.37.91.37.38,0,.7-.13.94-.4.42-.48.48-1.23.48-1.86,0-.56-.06-1.2-.48-1.65Z"/>
      <path class="cls-2" d="M210.8,121.68v-.78h-.06c-.78.94-1.87,1.07-2.56,1.07-.78,0-1.81-.14-2.66-1.02-.59-.62-1.12-1.65-1.12-3.14,0-1.41.46-2.69,1.18-3.46.75-.8,1.66-1.09,2.72-1.09,1.39,0,2,.56,2.34.98v-3.76h3.36v11.2h-3.2ZM210.29,115.95c-.19-.21-.51-.42-1.01-.42-.32,0-.64.1-.91.37-.46.48-.51,1.34-.51,1.79,0,.98.29,1.5.58,1.79.21.19.5.37.91.37.38,0,.7-.13.94-.4.42-.48.48-1.23.48-1.86,0-.56-.06-1.2-.48-1.65Z"/>
      <path class="cls-2" d="M224.8,119.33c-.22.69-.66,1.47-1.62,2.03-1.02.59-2.11.61-2.96.61-1.26,0-2.59-.11-3.6-1.12-.62-.62-1.1-1.63-1.1-2.99s.45-2.48,1.22-3.28c.99-1.04,2.27-1.31,3.52-1.31,1.86,0,2.93.56,3.55,1.2,1.1,1.14,1.12,2.67,1.12,3.63v.19h-5.97c-.02.43.1.94.3,1.23.21.27.53.46,1.02.46.24,0,.58-.03.8-.16.26-.14.37-.34.42-.5h3.3ZM221.47,116.69c0-.35-.13-.85-.35-1.09-.24-.27-.56-.34-.83-.34-.34,0-.67.08-.91.35-.26.27-.38.74-.4,1.07h2.5Z"/>
      <path class="cls-2" d="M232,113.55h3.73l-3.25,3.28,3.33,4.85h-3.73l-1.68-2.88-.59.61v2.27h-3.36v-11.2h3.36v5.6l2.19-2.53Z"/>
      <path class="cls-2" d="M239.33,119.01c-.05.29.03.66.24.86.16.16.45.27.82.27.29,0,.54-.02.82-.18.19-.11.35-.27.35-.56,0-.27-.13-.46-.4-.59s-.62-.18-1.07-.24l-.83-.13c-.77-.11-1.67-.29-2.23-.78-.3-.27-.67-.75-.67-1.58,0-1.14.59-1.79,1.12-2.14.88-.59,2.07-.69,2.99-.69,1.38,0,2.23.24,2.77.61.4.27,1.04.9,1.1,2.02h-2.87c.02-.22-.06-.54-.24-.72-.19-.19-.56-.26-.83-.26-.43,0-.66.14-.72.19-.18.13-.29.34-.29.54,0,.3.18.42.35.5.37.19.67.21,1.01.26l1.12.16c.56.08,1.5.26,2.11.83.37.35.69.93.69,1.73,0,1.06-.54,1.79-1.09,2.18-.54.38-1.47.7-3.2.7-1.47,0-2.72-.14-3.55-1.01-.37-.38-.77-1.04-.78-1.97h3.28Z"/>
      <path class="cls-2" d="M254.84,119.33c-.22.69-.66,1.47-1.62,2.03-1.02.59-2.11.61-2.96.61-1.26,0-2.59-.11-3.6-1.12-.62-.62-1.1-1.63-1.1-2.99s.45-2.48,1.22-3.28c.99-1.04,2.27-1.31,3.52-1.31,1.86,0,2.93.56,3.55,1.2,1.1,1.14,1.12,2.67,1.12,3.63v.19h-5.97c-.02.43.1.94.3,1.23.21.27.53.46,1.02.46.24,0,.58-.03.8-.16.26-.14.37-.34.42-.5h3.3ZM251.51,116.69c0-.35-.13-.85-.35-1.09-.24-.27-.56-.34-.83-.34-.34,0-.67.08-.91.35-.26.27-.38.74-.4,1.07h2.5Z"/>
      <path class="cls-2" d="M259.84,110.48v11.2h-3.36v-11.2h3.36Z"/>
      <path class="cls-2" d="M264.56,119.01c-.05.29.03.66.24.86.16.16.45.27.82.27.29,0,.54-.02.82-.18.19-.11.35-.27.35-.56,0-.27-.13-.46-.4-.59-.27-.13-.62-.18-1.07-.24l-.83-.13c-.77-.11-1.66-.29-2.22-.78-.3-.27-.67-.75-.67-1.58,0-1.14.59-1.79,1.12-2.14.88-.59,2.06-.69,2.99-.69,1.38,0,2.22.24,2.77.61.4.27,1.04.9,1.1,2.02h-2.87c.02-.22-.06-.54-.24-.72-.19-.19-.56-.26-.83-.26-.43,0-.66.14-.72.19-.18.13-.29.34-.29.54,0,.3.18.42.35.5.37.19.67.21,1.01.26l1.12.16c.56.08,1.5.26,2.11.83.37.35.69.93.69,1.73,0,1.06-.54,1.79-1.09,2.18-.54.38-1.47.7-3.2.7-1.47,0-2.72-.14-3.55-1.01-.37-.38-.77-1.04-.78-1.97h3.28Z"/>
      <path class="cls-2" d="M275.07,110.48h3.36v2.11h-3.36v-2.11ZM278.43,113.55v8.13h-3.36v-8.13h3.36Z"/>
      <path class="cls-2" d="M283.73,114.42h.06c.26-.3.59-.58,1.04-.78.54-.26,1.07-.32,1.57-.32.72,0,1.57.11,2.24.75.74.7.83,1.6.83,2.74v4.88h-3.36v-4.35c0-.75-.18-1.07-.26-1.2-.18-.29-.43-.42-.77-.42-.29,0-.64.1-.9.46-.32.45-.32,1.09-.32,1.18v4.32h-3.36v-8.13h3.22v.86Z"/>
      <path class="cls-2" d="M126.05,133.44c.45-.4,1.25-.93,2.56-.93,1.09,0,1.78.37,2.18.75.75.7.86,1.71.86,2.74v4.88h-3.36v-4.35c0-.26-.02-.85-.26-1.2-.16-.24-.4-.42-.79-.42s-.66.14-.88.46c-.21.3-.32.75-.32,1.18v4.32h-3.36v-11.2h3.36v3.76Z"/>
      <path class="cls-2" d="M142.45,138.53c-.22.69-.66,1.47-1.62,2.03-1.02.59-2.11.61-2.96.61-1.26,0-2.59-.11-3.6-1.12-.62-.62-1.1-1.63-1.1-2.99s.45-2.48,1.22-3.28c.99-1.04,2.27-1.31,3.52-1.31,1.86,0,2.93.56,3.55,1.2,1.1,1.14,1.12,2.67,1.12,3.63v.19h-5.97c-.02.43.1.94.3,1.23.21.27.53.46,1.02.46.24,0,.58-.03.8-.16.26-.14.37-.34.42-.5h3.3ZM139.12,135.89c0-.35-.13-.85-.35-1.09-.24-.27-.56-.34-.83-.34-.34,0-.67.08-.91.35-.26.27-.38.74-.4,1.07h2.5Z"/>
      <path class="cls-2" d="M143.14,132.75h1.47v-2.4h3.36v2.4h1.73v2.21h-1.73v2.69c0,.24,0,.64.22.88.11.11.32.22.75.22.24,0,.51-.05.75-.11v2.26c-.72.16-1.36.22-2.06.22s-1.79-.06-2.4-.67c-.54-.54-.62-1.42-.62-2v-3.49h-1.47v-2.21Z"/>
      <path class="cls-2" d="M157.52,138.21c-.05.29.03.66.24.86.16.16.45.27.82.27.29,0,.54-.02.82-.18.19-.11.35-.27.35-.56,0-.27-.13-.46-.4-.59s-.62-.18-1.07-.24l-.83-.13c-.77-.11-1.67-.29-2.23-.78-.3-.27-.67-.75-.67-1.58,0-1.14.59-1.79,1.12-2.14.88-.59,2.07-.69,2.99-.69,1.38,0,2.23.24,2.77.61.4.27,1.04.9,1.1,2.02h-2.87c.02-.22-.06-.54-.24-.72-.19-.19-.56-.26-.83-.26-.43,0-.66.14-.72.19-.18.13-.29.34-.29.54,0,.3.18.42.35.5.37.19.67.21,1.01.26l1.12.16c.56.08,1.5.26,2.11.83.37.35.69.93.69,1.73,0,1.06-.54,1.79-1.09,2.18-.54.38-1.47.7-3.2.7-1.47,0-2.72-.14-3.55-1.01-.37-.38-.77-1.04-.78-1.97h3.28Z"/>
      <path class="cls-2" d="M172.8,137.68c-.11,1.06-.59,1.84-1.09,2.34-1.06,1.06-2.43,1.15-3.47,1.15s-2.34-.13-3.33-1.07c-.56-.53-1.17-1.5-1.17-3.09s.61-2.67,1.31-3.38c1.01-.98,2.31-1.22,3.41-1.22,1.71,0,2.71.58,3.28,1.15.5.51.93,1.31.99,2.34h-3.09c0-.32-.08-.79-.38-1.09-.21-.21-.48-.29-.77-.29-.34,0-.59.1-.82.34-.42.45-.48,1.23-.48,1.87,0,.45.02,1.47.5,1.98.24.27.51.34.82.34.24,0,.53-.03.77-.27.26-.27.38-.77.38-1.1h3.14Z"/>
      <path class="cls-2" d="M177.68,133.44c.45-.4,1.25-.93,2.56-.93,1.09,0,1.78.37,2.18.75.75.7.86,1.71.86,2.74v4.88h-3.36v-4.35c0-.26-.02-.85-.26-1.2-.16-.24-.4-.42-.78-.42s-.66.14-.88.46c-.21.3-.32.75-.32,1.18v4.32h-3.36v-11.2h3.36v3.76Z"/>
      <path class="cls-2" d="M193.08,140c-1.12,1.09-2.61,1.17-3.68,1.17-1.15,0-2.42-.11-3.39-1.01-.59-.53-1.2-1.5-1.2-3.17s.64-2.62,1.22-3.23c1.1-1.14,2.46-1.3,3.57-1.3.99,0,2.42.13,3.51,1.17.66.62,1.22,1.63,1.22,3.17s-.64,2.62-1.23,3.2ZM188.77,134.9c-.19.21-.51.69-.51,1.92,0,.67.14,1.54.5,1.92.22.26.5.32.77.32.3,0,.58-.08.8-.32.53-.56.53-1.78.53-1.92,0-.56-.08-1.47-.51-1.94-.22-.24-.46-.3-.75-.3-.34,0-.59.08-.82.32Z"/>
      <path class="cls-2" d="M203.54,140c-1.12,1.09-2.61,1.17-3.68,1.17-1.15,0-2.42-.11-3.39-1.01-.59-.53-1.2-1.5-1.2-3.17s.64-2.62,1.22-3.23c1.1-1.14,2.46-1.3,3.57-1.3.99,0,2.42.13,3.51,1.17.66.62,1.22,1.63,1.22,3.17s-.64,2.62-1.23,3.2ZM199.23,134.9c-.19.21-.51.69-.51,1.92,0,.67.14,1.54.5,1.92.22.26.5.32.77.32.3,0,.58-.08.8-.32.53-.56.53-1.78.53-1.92,0-.56-.08-1.47-.51-1.94-.22-.24-.46-.3-.75-.3-.34,0-.59.08-.82.32Z"/>
      <path class="cls-2" d="M209.65,129.68v11.2h-3.36v-11.2h3.36Z"/>
      <path class="cls-2" d="M215.01,141.28c0,.3.18.48.27.54.18.13.46.19.74.19.46,0,.74-.16.9-.3.29-.29.32-.66.32-.96v-.9h-.08c-.7.59-1.46.7-2.29.7s-1.84-.1-2.66-.9c-.5-.48-1.04-1.36-1.04-2.88,0-1.63.58-2.61,1.1-3.17.7-.77,1.58-1.09,2.61-1.09.85,0,1.79.22,2.48.98h.08v-.75h3.15v6.91c0,1.14-.16,2.35-1.12,3.28-1.02.98-2.39,1.04-3.49,1.04-.9,0-2.11-.08-2.98-.69-.93-.64-1.07-1.52-1.1-2.02h3.11ZM215.03,138.02c.24.32.56.46.94.46.46,0,.77-.18.96-.4.4-.46.43-1.25.43-1.49,0-.78-.22-1.22-.46-1.47-.22-.22-.53-.38-.9-.38-.34,0-.66.13-.88.37-.45.45-.48,1.22-.48,1.5,0,.43.05.98.38,1.41Z"/>
      <path class="cls-2" d="M231.4,138.53c-.22.69-.66,1.47-1.62,2.03-1.02.59-2.11.61-2.96.61-1.26,0-2.59-.11-3.6-1.12-.62-.62-1.1-1.63-1.1-2.99s.45-2.48,1.22-3.28c.99-1.04,2.27-1.31,3.52-1.31,1.86,0,2.93.56,3.55,1.2,1.1,1.14,1.12,2.67,1.12,3.63v.19h-5.97c-.02.43.1.94.3,1.23.21.27.53.46,1.02.46.24,0,.58-.03.8-.16.26-.14.37-.34.42-.5h3.3ZM228.07,135.89c0-.35-.13-.85-.35-1.09-.24-.27-.56-.34-.83-.34-.34,0-.67.08-.91.35-.26.27-.38.74-.4,1.07h2.5Z"/>
      <path class="cls-2" d="M236.24,140.88h-3.2v-11.2h3.36v3.76c.83-.88,1.81-.98,2.46-.98.9,0,1.82.24,2.61,1.04.37.38,1.17,1.39,1.17,3.31s-.7,2.87-1.23,3.38c-.78.78-1.68.98-2.69.98-.78,0-1.73-.16-2.42-1.07h-.06v.78ZM236.79,138.66c.22.24.54.4.9.4.46,0,.77-.19.94-.38.4-.42.56-1.2.56-1.86s-.16-1.34-.53-1.71c-.24-.24-.53-.37-.91-.37s-.72.13-.98.4c-.4.43-.51,1.15-.51,1.78,0,.78.19,1.39.53,1.75Z"/>
      <path class="cls-2" d="M251.88,140c-1.12,1.09-2.61,1.17-3.68,1.17-1.15,0-2.42-.11-3.39-1.01-.59-.53-1.2-1.5-1.2-3.17s.64-2.62,1.22-3.23c1.1-1.14,2.46-1.3,3.57-1.3.99,0,2.42.13,3.5,1.17.66.62,1.22,1.63,1.22,3.17s-.64,2.62-1.23,3.2ZM247.57,134.9c-.19.21-.51.69-.51,1.92,0,.67.14,1.54.5,1.92.22.26.5.32.77.32.3,0,.58-.08.8-.32.53-.56.53-1.78.53-1.92,0-.56-.08-1.47-.51-1.94-.22-.24-.46-.3-.75-.3-.34,0-.59.08-.82.32Z"/>
      <path class="cls-2" d="M260.45,139.99h-.08c-.88.94-1.92,1.12-2.77,1.12-.69,0-1.5-.11-2.13-.72-.83-.82-.85-2.1-.85-2.77v-4.87h3.36v4.37c0,.72.14,1.06.27,1.23.21.29.51.35.8.35.37,0,.61-.11.82-.4.3-.4.34-.93.34-1.23v-4.32h3.36v8.13h-3.12v-.9Z"/>
      <path class="cls-2" d="M270.35,140.88h-3.14l-2.82-8.13h3.2l1.26,4.42,1.09-4.42h2.88l1.07,4.42,1.22-4.42h3.23l-2.72,8.13h-3.07l-1.1-4.34-1.1,4.34Z"/>
    </g>
  </g>
</svg>