<?xml version="1.0" encoding="UTF-8"?>
<svg id="Layer_2" data-name="Layer 2" xmlns="http://www.w3.org/2000/svg" viewBox="0 0 398.32 238.59">
  <defs>
    <style>
      .cls-1 {
        fill: #d13389;
        opacity: .7;
      }

      .cls-1, .cls-2 {
        stroke-width: 0px;
      }

      .cls-2 {
        fill: #eff3e8;
      }
    </style>
  </defs>
  <g id="Layer_1-2" data-name="Layer 1">
    <path class="cls-1" d="M373.79,191.92c-37.32,17.55-83.77,29.2-134.52,31.9-63.9,3.4-164.92,27.29-208.04,6.07C-11.9,208.68,2.86,142.34.96,106.56-.61,77.22,15.36,49.23,43.55,25.94,52.97,18.16,108.23-3.82,160.33.57c54.92,4.63,96.93,27.04,127.3,34.75,51.53,13.08,70.33-4.92,93.5,27.48,29.6,41.39,16.88,117.73-7.34,129.12Z"/>
    <g>
      <path class="cls-2" d="M116.41,111.89l.33,6.17-2.56.14-.26-.93c-.58.8-1.42,1.36-3.22,1.45-1.13.06-2.6,0-3.82-1.03-1.02-.86-1.75-2.36-1.85-4.33-.13-2.37.74-3.85,1.45-4.66,1.21-1.36,2.71-1.73,4.05-1.8,1.29-.07,2.86.12,3.89.85.77.54,1.56,1.58,1.81,3l-3.6.19c-.07-.38-.25-.71-.46-.91-.44-.41-1.03-.43-1.34-.41-.74.04-1.18.35-1.45.67-.51.6-.65,1.69-.6,2.58.05.88.3,2.04,1.01,2.62.47.41.99.46,1.51.43.45-.02.86-.13,1.26-.47.4-.36.58-.82.62-.93l-1.54.08-.13-2.46,4.89-.26Z"/>
      <path class="cls-2" d="M127.08,115.15c-.19.7-.58,1.51-1.5,2.12-.99.65-2.08.72-2.92.77-1.26.07-2.6.03-3.66-.93-.66-.59-1.19-1.57-1.26-2.93-.07-1.29.32-2.5,1.04-3.34.94-1.09,2.2-1.43,3.45-1.5,1.85-.1,2.96.4,3.61,1.01,1.16,1.08,1.26,2.61,1.31,3.57v.19s-5.95.32-5.95.32c0,.43.15.94.37,1.21.22.26.55.44,1.05.41.24-.01.57-.06.79-.2.25-.16.35-.35.39-.52l3.29-.18ZM123.62,112.69c-.02-.35-.17-.84-.41-1.07-.25-.26-.58-.31-.85-.29-.33.02-.67.12-.89.4-.24.29-.34.76-.34,1.09l2.49-.13Z"/>
      <path class="cls-2" d="M137.43,114.6c-.19.7-.58,1.51-1.5,2.12-.99.65-2.08.72-2.92.77-1.26.07-2.6.03-3.66-.93-.66-.59-1.19-1.57-1.26-2.93-.07-1.29.32-2.5,1.04-3.34.94-1.09,2.2-1.43,3.45-1.5,1.85-.1,2.96.4,3.61,1.01,1.16,1.08,1.26,2.61,1.31,3.57v.19s-5.95.32-5.95.32c0,.43.15.94.37,1.22.22.26.55.43,1.05.41.24-.01.57-.06.79-.2.25-.16.35-.35.39-.52l3.29-.18ZM133.97,112.14c-.02-.35-.17-.84-.41-1.07-.25-.26-.58-.31-.85-.29-.34.02-.67.12-.89.4-.24.29-.34.76-.34,1.09l2.49-.13Z"/>
      <path class="cls-2" d="M142.03,109.44h.06c.24-.32.56-.61,1-.84.53-.28,1.05-.38,1.55-.4.72-.04,1.57.03,2.28.63.77.66.92,1.55.98,2.69l.26,4.87-3.36.18-.23-4.35c-.04-.75-.23-1.06-.32-1.19-.19-.28-.45-.39-.79-.37-.29.02-.63.13-.87.51-.3.46-.26,1.1-.26,1.2l.23,4.32-3.36.18-.43-8.12,3.21-.17.05.86Z"/>
      <path class="cls-2" d="M156.91,108.47c.43-.42,1.2-.99,2.51-1.06,1.09-.06,1.79.27,2.21.64.79.66.95,1.66,1.01,2.69l.26,4.87-3.36.18-.23-4.35c-.01-.26-.06-.85-.32-1.19-.17-.23-.42-.39-.81-.37-.37.02-.65.18-.85.51-.19.31-.28.77-.26,1.2l.23,4.32-3.36.18-.6-11.19,3.36-.18.2,3.76Z"/>
      <path class="cls-2" d="M172.63,114.2c-1.06,1.15-2.54,1.31-3.61,1.36-1.15.06-2.42.02-3.44-.83-.62-.5-1.28-1.44-1.37-3.1-.09-1.63.5-2.66,1.04-3.29,1.04-1.19,2.39-1.43,3.5-1.48.99-.05,2.42,0,3.56.98.69.59,1.3,1.57,1.38,3.1.08,1.6-.5,2.66-1.06,3.26ZM168.06,109.33c-.18.22-.48.71-.41,1.95.04.67.23,1.53.6,1.89.24.24.51.29.78.28.3-.02.57-.11.78-.36.5-.59.43-1.8.43-1.95-.03-.56-.16-1.47-.61-1.91-.24-.23-.48-.28-.77-.26-.34.02-.59.11-.8.36Z"/>
      <path class="cls-2" d="M183.08,113.64c-1.06,1.15-2.54,1.31-3.61,1.36-1.15.06-2.42.02-3.44-.83-.62-.5-1.28-1.44-1.37-3.1-.09-1.63.5-2.66,1.04-3.29,1.04-1.19,2.39-1.43,3.5-1.48.99-.05,2.42,0,3.56.98.69.59,1.3,1.57,1.38,3.1.08,1.6-.5,2.66-1.06,3.26ZM178.51,108.77c-.18.22-.48.71-.41,1.95.04.67.23,1.53.6,1.89.24.24.51.29.78.28.3-.02.57-.11.78-.36.5-.59.43-1.8.42-1.95-.03-.56-.16-1.47-.61-1.91-.24-.23-.48-.28-.77-.26-.34.02-.59.11-.8.36Z"/>
      <path class="cls-2" d="M191.36,108.15l-1.89.1.32,5.91-3.39.18-.32-5.91-1.49.08-.12-2.21,1.49-.08v-.13c-.05-.75,0-1.59.63-2.25.7-.74,1.83-.83,2.41-.87.59-.03,1.46,0,2.09.05l.11,2.03c-.28-.05-.66-.09-.89-.08-.29.02-.56.09-.72.25-.29.24-.25.48-.23.75v.06s1.89-.1,1.89-.1l.12,2.21Z"/>
      <path class="cls-2" d="M198.62,113.7l-.04-.78h-.06c-.73.99-1.81,1.17-2.5,1.21-.78.04-1.81-.05-2.71-.88-.62-.59-1.21-1.59-1.29-3.07-.08-1.41.32-2.71,1-3.52.71-.84,1.6-1.18,2.66-1.23,1.39-.07,2.03.45,2.39.85l-.2-3.76,3.36-.18.6,11.19-3.2.17ZM197.81,108c-.2-.2-.53-.39-1.03-.36-.32.02-.63.13-.89.42-.44.5-.44,1.37-.42,1.82.05.98.37,1.49.67,1.76.22.18.51.34.93.32.38-.02.7-.17.92-.45.39-.5.42-1.26.38-1.88-.03-.56-.13-1.2-.57-1.62Z"/>
      <path class="cls-2" d="M209.73,113.11l-.04-.78h-.06c-.73.99-1.81,1.17-2.5,1.21-.78.04-1.81-.05-2.71-.88-.62-.59-1.21-1.59-1.29-3.07-.08-1.41.32-2.71,1-3.52.71-.84,1.6-1.18,2.66-1.23,1.39-.07,2.03.45,2.39.85l-.2-3.76,3.36-.18.6,11.19-3.2.17ZM208.91,107.41c-.2-.2-.53-.39-1.03-.36-.32.02-.63.13-.89.42-.44.5-.44,1.37-.42,1.82.05.98.37,1.49.67,1.76.22.18.51.34.93.32.38-.02.7-.17.92-.45.39-.5.42-1.26.38-1.88-.03-.56-.13-1.2-.57-1.62Z"/>
      <path class="cls-2" d="M223.58,110.01c-.19.7-.58,1.51-1.5,2.12-.99.65-2.08.72-2.92.77-1.26.07-2.6.03-3.66-.93-.66-.59-1.19-1.57-1.26-2.93-.07-1.29.32-2.5,1.04-3.34.94-1.09,2.2-1.43,3.45-1.5,1.85-.1,2.96.4,3.61,1.01,1.16,1.08,1.26,2.61,1.31,3.57v.19s-5.95.32-5.95.32c0,.43.15.94.37,1.22.22.26.55.43,1.05.41.24-.01.57-.06.79-.2.25-.16.35-.35.39-.52l3.29-.18ZM220.12,107.55c-.02-.35-.17-.84-.41-1.07-.25-.26-.58-.31-.85-.29-.34.02-.67.12-.89.4-.24.29-.34.76-.34,1.09l2.49-.13Z"/>
      <path class="cls-2" d="M230.47,103.86l3.72-.2-3.07,3.45,3.58,4.67-3.72.2-1.83-2.79-.56.64.12,2.27-3.36.18-.6-11.19,3.36-.18.3,5.59,2.06-2.64Z"/>
      <path class="cls-2" d="M238.07,108.92c-.03.29.07.65.29.85.17.15.46.25.83.23.29-.02.54-.04.81-.22.18-.12.34-.29.32-.58-.01-.27-.15-.46-.43-.57-.28-.11-.63-.14-1.08-.18l-.84-.08c-.77-.07-1.68-.2-2.26-.66-.32-.26-.71-.72-.76-1.55-.06-1.14.5-1.82,1.01-2.2.85-.64,2.02-.8,2.95-.85,1.37-.07,2.23.12,2.8.46.41.25,1.09.84,1.21,1.96l-2.86.15c0-.22-.09-.54-.28-.71-.2-.18-.57-.23-.84-.21-.43.02-.65.18-.71.23-.17.14-.27.35-.26.56.02.3.2.41.38.48.38.17.68.17,1.02.2l1.13.1c.56.05,1.52.18,2.15.72.39.33.74.89.78,1.69.06,1.06-.45,1.82-.97,2.23-.52.41-1.43.78-3.16.87-1.47.08-2.73,0-3.6-.82-.39-.36-.82-1-.89-1.92l3.28-.17Z"/>
      <path class="cls-2" d="M253.57,108.41c-.19.7-.58,1.51-1.51,2.12-.99.65-2.08.72-2.92.77-1.26.07-2.6.03-3.66-.93-.66-.59-1.19-1.57-1.26-2.93-.07-1.29.32-2.5,1.04-3.34.94-1.09,2.2-1.43,3.45-1.5,1.86-.1,2.96.4,3.61,1.01,1.16,1.08,1.26,2.61,1.31,3.57v.19s-5.95.32-5.95.32c0,.43.15.94.37,1.21.22.26.55.44,1.05.41.24-.01.57-.06.79-.2.25-.16.35-.36.39-.52l3.29-.18ZM250.11,105.95c-.02-.35-.17-.84-.41-1.07-.25-.26-.58-.31-.85-.29-.33.02-.67.12-.89.4-.24.29-.35.76-.34,1.09l2.49-.13Z"/>
      <path class="cls-2" d="M258.1,99.31l.6,11.19-3.36.18-.6-11.19,3.36-.18Z"/>
      <path class="cls-2" d="M263.27,107.58c-.03.29.07.65.29.85.17.15.46.25.83.23.29-.02.54-.04.81-.22.19-.12.34-.29.32-.58-.01-.27-.15-.46-.43-.57s-.63-.14-1.08-.18l-.84-.08c-.77-.07-1.68-.2-2.26-.67-.32-.26-.71-.72-.76-1.55-.06-1.14.5-1.82,1.01-2.2.85-.64,2.02-.8,2.95-.85,1.37-.07,2.23.12,2.8.46.41.25,1.09.84,1.21,1.95l-2.86.15c0-.22-.09-.54-.28-.71-.2-.18-.57-.23-.84-.21-.43.02-.65.18-.71.23-.17.14-.27.35-.26.56.02.3.2.41.38.48.38.17.68.17,1.02.2l1.13.1c.56.05,1.52.18,2.15.72.38.33.74.89.78,1.69.06,1.06-.45,1.82-.97,2.23s-1.43.78-3.16.87c-1.47.08-2.73,0-3.6-.82-.39-.36-.82-1-.89-1.92l3.28-.17Z"/>
      <path class="cls-2" d="M277.03,98.3l3.36-.18.11,2.11-3.36.18-.11-2.11ZM280.55,101.19l.43,8.12-3.36.18-.43-8.12,3.36-.18Z"/>
      <path class="cls-2" d="M285.89,101.77h.06c.24-.32.56-.61,1-.84.53-.28,1.05-.38,1.55-.4.72-.04,1.57.03,2.28.63.77.66.92,1.55.98,2.69l.26,4.87-3.36.18-.23-4.35c-.04-.75-.23-1.06-.32-1.19-.19-.28-.45-.39-.79-.37-.29.02-.63.13-.87.51-.3.46-.26,1.1-.26,1.2l.23,4.32-3.36.18-.43-8.12,3.21-.17.05.86Z"/>
      <path class="cls-2" d="M154.1,127.84c.43-.42,1.2-.99,2.51-1.06,1.09-.06,1.79.27,2.21.64.79.66.95,1.66,1.01,2.69l.26,4.88-3.36.18-.23-4.35c-.01-.26-.06-.85-.32-1.18-.17-.23-.42-.39-.8-.37-.37.02-.65.18-.85.51-.19.31-.28.77-.26,1.2l.23,4.32-3.36.18-.6-11.19,3.36-.18.2,3.76Z"/>
      <path class="cls-2" d="M170.75,132.05c-.19.7-.58,1.51-1.51,2.12-.99.65-2.08.72-2.92.77-1.26.07-2.6.03-3.66-.93-.66-.59-1.19-1.57-1.26-2.93-.07-1.29.32-2.5,1.04-3.34.94-1.09,2.2-1.43,3.45-1.5,1.85-.1,2.96.4,3.61,1.01,1.16,1.08,1.26,2.61,1.31,3.57v.19s-5.95.32-5.95.32c0,.43.15.94.37,1.22.22.26.55.44,1.05.41.24-.01.57-.06.79-.2.25-.16.35-.35.39-.52l3.29-.18ZM167.29,129.59c-.02-.35-.17-.84-.41-1.07-.25-.26-.58-.31-.85-.29-.33.02-.67.12-.89.4-.24.29-.34.76-.34,1.09l2.49-.13Z"/>
      <path class="cls-2" d="M171.13,126.25l1.47-.08-.13-2.4,3.36-.18.13,2.4,1.73-.09.12,2.21-1.73.09.14,2.69c.01.24.03.64.27.87.12.11.33.21.76.18.24-.01.51-.08.75-.15l.12,2.25c-.71.2-1.35.3-2.05.33-.69.04-1.79.03-2.43-.54-.57-.52-.7-1.39-.73-1.96l-.19-3.48-1.47.08-.12-2.21Z"/>
      <path class="cls-2" d="M186.59,133.97c.02.3.2.47.3.53.18.12.47.17.75.15.46-.02.73-.2.88-.35.27-.3.29-.67.27-.98l-.05-.9h-.08c-.67.63-1.42.78-2.25.83-.83.04-1.84,0-2.7-.75-.52-.45-1.11-1.3-1.19-2.82-.09-1.63.44-2.64.93-3.22.66-.8,1.52-1.17,2.55-1.23.85-.04,1.8.13,2.53.84h.08s-.04-.76-.04-.76l3.15-.17.37,6.91c.06,1.13-.04,2.36-.95,3.34-.97,1.03-2.33,1.17-3.43,1.23-.89.05-2.11.03-3.01-.53-.96-.59-1.15-1.46-1.21-1.96l3.1-.17ZM186.43,130.71c.26.31.58.43.97.41.46-.02.76-.22.94-.45.38-.48.37-1.27.35-1.51-.04-.78-.29-1.2-.54-1.45-.24-.21-.55-.36-.92-.34-.34.02-.65.16-.86.41-.42.47-.42,1.24-.4,1.53.02.43.1.97.46,1.39Z"/>
      <path class="cls-2" d="M202.8,130.35c-.19.7-.58,1.51-1.51,2.12-.99.65-2.08.72-2.92.76-1.26.07-2.6.03-3.66-.93-.66-.59-1.19-1.57-1.26-2.93-.07-1.29.32-2.5,1.04-3.34.94-1.09,2.2-1.43,3.45-1.5,1.85-.1,2.96.4,3.61,1.01,1.16,1.08,1.26,2.61,1.31,3.57v.19s-5.95.32-5.95.32c0,.43.15.94.37,1.22.22.26.55.44,1.05.41.24-.01.57-.06.79-.2.25-.16.35-.35.39-.52l3.29-.18ZM199.34,127.89c-.02-.35-.17-.84-.41-1.07-.25-.26-.58-.31-.85-.29-.34.02-.67.12-.89.4-.24.29-.35.76-.34,1.09l2.49-.13Z"/>
      <path class="cls-2" d="M207.77,132.44l-3.2.17-.6-11.19,3.36-.18.2,3.76c.78-.92,1.75-1.07,2.41-1.11.89-.05,1.83.14,2.66.9.39.36,1.24,1.33,1.34,3.25.1,1.82-.55,2.9-1.05,3.44-.74.82-1.63,1.06-2.63,1.12-.78.04-1.73-.07-2.47-.94h-.06s.04.79.04.79ZM208.19,130.19c.24.23.56.37.92.35.46-.02.76-.23.92-.43.38-.44.5-1.23.46-1.88-.04-.67-.23-1.33-.62-1.68-.25-.23-.55-.34-.93-.32-.4.02-.71.17-.95.45-.38.45-.45,1.18-.42,1.8.04.78.27,1.38.62,1.71Z"/>
      <path class="cls-2" d="M223.33,130.73c-1.06,1.15-2.54,1.31-3.61,1.36-1.15.06-2.42.02-3.44-.83-.62-.5-1.28-1.44-1.37-3.1-.09-1.63.5-2.66,1.04-3.29,1.04-1.19,2.39-1.43,3.5-1.48.99-.05,2.42,0,3.56.98.69.59,1.3,1.57,1.38,3.1.09,1.6-.5,2.66-1.06,3.26ZM218.76,125.86c-.18.22-.48.71-.41,1.95.04.67.23,1.53.6,1.89.24.24.51.29.78.28.3-.02.57-.11.78-.36.5-.59.43-1.8.42-1.95-.03-.56-.16-1.47-.61-1.91-.24-.23-.48-.28-.77-.26-.34.02-.59.11-.8.36Z"/>
      <path class="cls-2" d="M231.9,130.25h-.08c-.83.99-1.86,1.23-2.71,1.27-.69.04-1.51-.03-2.16-.61-.88-.77-.96-2.05-1-2.72l-.26-4.86,3.36-.18.23,4.36c.04.72.2,1.05.34,1.22.22.28.53.32.82.31.37-.02.6-.14.79-.44.28-.42.29-.94.27-1.25l-.23-4.32,3.36-.18.43,8.12-3.12.17-.05-.9Z"/>
      <path class="cls-2" d="M241.83,130.62l-3.13.17-3.25-7.97,3.2-.17,1.5,4.34.85-4.47,2.88-.15,1.3,4.35.98-4.48,3.23-.17-2.29,8.27-3.07.16-1.33-4.27-.87,4.39Z"/>
    </g>
  </g>
</svg>