<?xml version="1.0" encoding="UTF-8"?>
<svg id="Layer_2" data-name="Layer 2" xmlns="http://www.w3.org/2000/svg" viewBox="0 0 400.18 238.12">
  <defs>
    <style>
      .cls-1 {
        fill: #d13389;
        opacity: .7;
      }

      .cls-1, .cls-2 {
        stroke-width: 0px;
      }

      .cls-2 {
        fill: #eff3e8;
      }
    </style>
  </defs>
  <g id="Layer_1-2" data-name="Layer 1">
    <g>
      <path class="cls-1" d="M.01,65.4C-.7,33.27,25.68,7.08,57.8,8.12c.25,0,.5.02.76.03,49.52,1.71,60.47,13.79,97.74,16.15,50.92,3.24,53.78-17.82,123.56-22.62,36.32-2.5,77.32-5.32,101.75,16.53,19.73,17.65,18.56,46.38,18.58,55.93.05,29.5-14.01,50.06-18.95,57.08-18.3,25.98-45.13,37.96-49.85,40-11.4,4.92-18.59,5.74-29.58,13.62-14.22,10.2-20.82,22.2-23.66,26.45-26.01,39.02-134.02,24.61-150.02,22.48-22.57-3.01-54.48-9.4-91.22-24.31-20.68-8.39-34.34-28.35-34.83-50.66L.01,65.4Z"/>
      <g>
        <path class="cls-2" d="M65.12,106.39c.74-.02,1.86-.03,2.67.61.46.36.92,1.02.94,2.11.01.66-.15,1.2-.65,1.74-.36.39-.74.59-1.12.7v.06c.93.16,1.5.66,1.6.75.42.39.82,1.04.85,2.08.03,1.25-.53,1.95-1.01,2.31-.86.69-2.25.82-3.09.84l-6.29.14-.25-11.2,6.34-.14ZM62.37,110.77l1.79-.04c.29,0,.64-.03.86-.24.11-.1.25-.29.24-.68s-.16-.57-.3-.68c-.26-.19-.71-.19-.88-.19l-1.74.04.04,1.79ZM62.47,115.12l2.11-.05c.3,0,.66-.03.91-.26.16-.15.3-.39.29-.79-.01-.46-.21-.68-.34-.78-.24-.19-.63-.21-.92-.2l-2.1.05.04,2.03Z"/>
        <path class="cls-2" d="M79.83,114.92c-.21.69-.62,1.49-1.57,2.07-1.01.62-2.1.65-2.95.67-1.26.03-2.59-.06-3.63-1.04-.64-.61-1.14-1.61-1.17-2.97s.39-2.49,1.14-3.31c.97-1.06,2.24-1.36,3.49-1.39,1.86-.04,2.94.49,3.58,1.12,1.13,1.11,1.18,2.65,1.2,3.61v.19s-5.97.13-5.97.13c0,.43.12.94.33,1.23.21.27.54.45,1.03.44.24,0,.58-.04.8-.18.25-.15.36-.34.41-.51l3.3-.07ZM76.44,112.35c0-.35-.15-.85-.38-1.08-.25-.27-.57-.32-.84-.32-.34,0-.67.09-.9.37-.25.28-.37.74-.38,1.08l2.5-.06Z"/>
        <path class="cls-2" d="M84.64,105.96l.25,11.2-3.36.07-.25-11.2,3.36-.07Z"/>
        <path class="cls-2" d="M95.63,114.57c-.21.69-.62,1.49-1.57,2.07-1.01.62-2.1.65-2.95.67-1.26.03-2.59-.06-3.63-1.04-.64-.61-1.14-1.61-1.17-2.97s.39-2.49,1.14-3.31c.97-1.06,2.24-1.36,3.49-1.39,1.86-.04,2.94.49,3.58,1.12,1.13,1.11,1.18,2.65,1.2,3.61v.19s-5.97.13-5.97.13c0,.43.12.94.33,1.23.21.27.54.45,1.03.44.24,0,.58-.04.8-.18.25-.15.36-.34.41-.51l3.3-.07ZM92.25,112c0-.35-.15-.85-.38-1.08-.25-.27-.57-.32-.84-.32-.34,0-.67.09-.9.37-.25.28-.37.74-.38,1.08l2.5-.06Z"/>
        <path class="cls-2" d="M106,114.34c-.21.69-.62,1.49-1.57,2.07-1.01.62-2.1.65-2.95.67-1.26.03-2.59-.06-3.63-1.04-.64-.61-1.14-1.61-1.17-2.97s.39-2.49,1.14-3.31c.97-1.06,2.24-1.36,3.49-1.39,1.86-.04,2.94.49,3.58,1.12,1.13,1.11,1.18,2.65,1.2,3.61v.19s-5.97.13-5.97.13c0,.43.12.94.33,1.23.21.27.54.45,1.03.44.24,0,.58-.04.8-.18.25-.15.36-.34.41-.51l3.3-.07ZM102.61,111.77c0-.35-.15-.85-.38-1.08-.25-.27-.57-.32-.84-.32-.34,0-.67.09-.9.37-.25.28-.37.74-.38,1.08l2.5-.06Z"/>
        <path class="cls-2" d="M113.37,110.61l-1.89.04.13,5.92-3.39.07-.13-5.92-1.49.03-.05-2.21,1.49-.03v-.13c-.02-.75.06-1.59.7-2.22.72-.72,1.86-.78,2.43-.79s1.46.05,2.08.11l.04,2.03c-.27-.06-.66-.11-.88-.11-.29,0-.56.08-.73.22-.3.23-.26.47-.26.74v.06s1.89-.04,1.89-.04l.05,2.21Z"/>
        <path class="cls-2" d="M120.46,116.37l-.02-.78h-.06c-.76.96-1.85,1.11-2.54,1.13-.78.02-1.81-.1-2.68-.97-.61-.61-1.16-1.62-1.19-3.11-.03-1.41.41-2.7,1.11-3.48.74-.82,1.64-1.12,2.7-1.15,1.39-.03,2.01.52,2.36.92l-.08-3.76,3.36-.07.25,11.2-3.2.07ZM119.82,110.66c-.2-.2-.52-.4-1.02-.39-.32,0-.64.11-.9.39-.45.49-.48,1.36-.47,1.8.02.98.32,1.5.62,1.78.21.19.5.36.92.35.38,0,.7-.14.94-.42.41-.49.45-1.24.44-1.87-.01-.56-.09-1.2-.52-1.64Z"/>
        <path class="cls-2" d="M134.41,113.71c-.21.69-.62,1.49-1.57,2.07-1.01.62-2.1.65-2.95.67-1.26.03-2.59-.06-3.63-1.04-.64-.61-1.14-1.61-1.17-2.97s.39-2.49,1.14-3.31c.97-1.06,2.24-1.36,3.49-1.39,1.86-.04,2.94.49,3.58,1.12,1.13,1.11,1.18,2.65,1.2,3.61v.19s-5.97.13-5.97.13c0,.43.12.94.33,1.23.21.27.54.45,1.03.44.24,0,.58-.04.8-.18.25-.15.36-.34.4-.51l3.3-.07ZM131.02,111.14c0-.35-.15-.85-.38-1.08-.25-.27-.57-.32-.84-.32-.34,0-.67.09-.9.37-.25.28-.37.74-.38,1.08l2.5-.06Z"/>
        <path class="cls-2" d="M148.5,113.4c-.21.69-.62,1.49-1.57,2.07-1.01.62-2.1.65-2.95.67-1.26.03-2.59-.06-3.63-1.04-.64-.61-1.14-1.61-1.17-2.97s.39-2.49,1.14-3.31c.97-1.06,2.24-1.36,3.49-1.39,1.86-.04,2.94.49,3.58,1.12,1.13,1.11,1.18,2.65,1.2,3.61v.19s-5.97.13-5.97.13c0,.43.12.94.33,1.23.21.27.54.45,1.03.44.24,0,.58-.04.8-.18.25-.15.36-.34.4-.51l3.3-.07ZM145.11,110.83c0-.35-.15-.85-.38-1.08-.25-.27-.57-.32-.84-.32-.34,0-.67.09-.9.37-.25.28-.37.74-.38,1.08l2.5-.06Z"/>
        <path class="cls-2" d="M153.25,108.38h.06c.25-.31.58-.59,1.02-.81.54-.27,1.06-.34,1.56-.35.72-.02,1.57.08,2.26.7.75.69.87,1.58.89,2.72l.11,4.88-3.36.07-.1-4.35c-.02-.75-.2-1.07-.28-1.2-.18-.28-.44-.41-.78-.4-.29,0-.64.11-.89.48-.31.46-.3,1.09-.29,1.19l.1,4.32-3.36.07-.18-8.13,3.22-.07.02.86Z"/>
        <path class="cls-2" d="M171.36,109.52c-.27-.04-.63-.07-.88-.06-.98.02-1.48.43-1.68.65-.55.59-.56,1.44-.54,2.21l.07,3.01-3.36.07-.18-8.13,3.22-.07.03,1.15c.34-.55.77-.87,1.08-1.05.54-.3,1.13-.38,1.66-.39.19,0,.35,0,.55.04l.06,2.58Z"/>
        <path class="cls-2" d="M181.44,112.67c-.21.69-.62,1.49-1.57,2.07-1.01.62-2.1.65-2.95.67-1.26.03-2.59-.06-3.63-1.04-.64-.61-1.14-1.61-1.17-2.97s.39-2.49,1.14-3.31c.97-1.06,2.24-1.36,3.49-1.39,1.86-.04,2.94.49,3.58,1.12,1.13,1.11,1.18,2.65,1.2,3.61v.19s-5.97.13-5.97.13c0,.43.12.94.33,1.23.21.27.54.45,1.03.44.24,0,.58-.04.8-.18.25-.15.36-.34.4-.51l3.3-.07ZM178.05,110.11c0-.35-.15-.85-.38-1.08-.25-.27-.57-.32-.84-.32-.34,0-.67.09-.9.37-.25.28-.37.74-.38,1.08l2.5-.06Z"/>
        <path class="cls-2" d="M185.71,112.26c-.04.29.05.66.26.86.16.16.45.26.82.25.29,0,.54-.03.81-.19.19-.12.35-.28.34-.57,0-.27-.14-.46-.41-.58s-.63-.16-1.08-.22l-.83-.11c-.77-.1-1.67-.25-2.24-.73-.31-.27-.69-.74-.71-1.57-.03-1.14.55-1.8,1.07-2.17.87-.61,2.05-.73,2.98-.75,1.38-.03,2.23.19,2.78.55.41.26,1.06.87,1.15,1.99l-2.86.06c.01-.22-.08-.54-.26-.71-.2-.19-.57-.24-.84-.24-.43,0-.65.16-.72.21-.17.13-.28.34-.28.55,0,.3.18.41.36.49.37.18.68.19,1.01.23l1.12.14c.56.07,1.51.22,2.13.79.38.34.71.91.73,1.71.02,1.06-.5,1.8-1.04,2.2-.54.4-1.46.74-3.19.77-1.47.03-2.72-.08-3.57-.93-.38-.38-.79-1.02-.83-1.95l3.28-.07Z"/>
        <path class="cls-2" d="M195.57,106.58l.02.9h.06c.73-1.07,1.81-1.23,2.6-1.24.69-.02,1.73.04,2.58.82.26.23,1.18,1.19,1.23,3.3.03,1.28-.29,2.65-1.12,3.53-.78.85-1.74,1.03-2.65,1.05-.72.02-1.65-.08-2.39-.83l.08,3.55-3.36.07-.24-11.09,3.2-.07ZM196.13,112.36c.3.36.67.5,1.05.49.43,0,.73-.18.97-.44.45-.52.47-1.31.46-1.74-.01-.48-.08-1.26-.53-1.75-.18-.2-.51-.4-.99-.39-.34,0-.69.13-.95.44-.44.49-.47,1.21-.46,1.77,0,.45.06,1.14.45,1.62Z"/>
        <path class="cls-2" d="M212.34,111.99c-.21.69-.62,1.49-1.57,2.07-1.01.62-2.1.65-2.95.67-1.26.03-2.59-.06-3.63-1.04-.64-.61-1.14-1.61-1.17-2.97s.39-2.49,1.14-3.31c.97-1.06,2.24-1.36,3.49-1.39,1.86-.04,2.94.49,3.58,1.12,1.13,1.11,1.18,2.65,1.2,3.61v.19s-5.97.13-5.97.13c0,.43.12.94.33,1.23.21.27.54.45,1.03.44.24,0,.58-.04.8-.18.25-.15.36-.34.41-.51l3.3-.07ZM208.95,109.42c0-.35-.15-.85-.38-1.08-.25-.27-.57-.32-.84-.32-.34,0-.67.09-.9.37-.25.28-.37.74-.38,1.08l2.5-.06Z"/>
        <path class="cls-2" d="M222.46,110.92c-.09,1.06-.55,1.85-1.04,2.36-1.03,1.08-2.41,1.21-3.45,1.23s-2.34-.08-3.35-1c-.57-.52-1.2-1.48-1.24-3.06s.55-2.69,1.24-3.41c.99-1,2.28-1.27,3.38-1.29,1.71-.04,2.72.52,3.31,1.08.51.5.96,1.29,1.04,2.32l-3.09.07c0-.32-.1-.78-.41-1.08-.21-.2-.49-.28-.77-.27-.34,0-.59.11-.81.35-.41.46-.45,1.24-.44,1.88,0,.45.05,1.47.54,1.97.25.27.52.32.82.32.24,0,.53-.04.76-.29.25-.28.37-.78.36-1.11l3.14-.07Z"/>
        <path class="cls-2" d="M222.91,105.98l1.47-.03-.05-2.4,3.36-.07.05,2.4,1.73-.04.05,2.21-1.73.04.06,2.69c0,.24.01.64.24.88.11.11.33.22.76.21.24,0,.51-.06.75-.13l.05,2.26c-.72.18-1.36.25-2.06.27s-1.79-.02-2.41-.62c-.56-.53-.66-1.41-.67-1.99l-.08-3.49-1.47.03-.05-2.21Z"/>
        <path class="cls-2" d="M236.2,105.68l3.31-.07-2.8,8.19-3.62.08-3.06-8.07,3.38-.07,1.42,4.92,1.36-4.98Z"/>
        <path class="cls-2" d="M248.27,112.67c-1.1,1.11-2.58,1.23-3.65,1.25-1.15.03-2.42-.06-3.42-.93-.6-.51-1.23-1.48-1.27-3.14s.58-2.64,1.15-3.26c1.08-1.16,2.44-1.35,3.54-1.37.99-.02,2.42.07,3.53,1.09.67.61,1.25,1.61,1.29,3.14s-.58,2.64-1.16,3.23ZM243.85,107.66c-.19.21-.5.7-.47,1.93.01.67.18,1.53.54,1.91.23.25.5.31.78.3.3,0,.57-.09.79-.34.52-.57.49-1.79.49-1.93-.01-.56-.11-1.47-.55-1.92-.23-.24-.47-.29-.76-.29-.34,0-.59.09-.81.34Z"/>
        <path class="cls-2" d="M254.15,102.21l.25,11.2-3.36.07-.25-11.2,3.36-.07Z"/>
        <path class="cls-2" d="M259.59,102.09l.25,11.2-3.36.07-.25-11.2,3.36-.07Z"/>
        <path class="cls-2" d="M270.58,110.7c-.21.69-.62,1.49-1.57,2.07-1.01.62-2.1.65-2.95.67-1.26.03-2.59-.06-3.63-1.04-.64-.61-1.14-1.61-1.17-2.97s.39-2.49,1.14-3.31c.97-1.06,2.24-1.36,3.49-1.39,1.86-.04,2.94.49,3.58,1.12,1.13,1.11,1.18,2.65,1.2,3.61v.19s-5.97.13-5.97.13c0,.43.12.94.33,1.23.21.27.54.45,1.03.44.24,0,.58-.04.8-.18.25-.15.36-.34.41-.51l3.3-.07ZM267.19,108.14c0-.35-.15-.85-.38-1.08-.25-.27-.57-.32-.84-.32-.34,0-.67.09-.9.37-.25.28-.37.74-.38,1.08l2.5-.06Z"/>
        <path class="cls-2" d="M283.7,111.89c-1.1,1.11-2.58,1.23-3.65,1.25-1.15.03-2.42-.06-3.42-.93-.6-.51-1.23-1.48-1.27-3.14s.58-2.64,1.15-3.26c1.08-1.16,2.44-1.35,3.54-1.37.99-.02,2.42.07,3.53,1.09.67.61,1.25,1.61,1.29,3.14s-.58,2.64-1.16,3.23ZM279.28,106.88c-.19.21-.5.7-.47,1.93.01.67.18,1.53.54,1.91.23.25.5.31.78.3.3,0,.57-.09.79-.34.52-.57.49-1.79.49-1.93-.01-.56-.11-1.47-.55-1.92-.23-.24-.47-.29-.76-.29-.34,0-.59.09-.81.34Z"/>
        <path class="cls-2" d="M289.31,104.51l.02,1.12h.1c.25-.41.58-.75.91-.98.39-.26.93-.45,1.56-.47.51-.01,1.14.14,1.56.38.32.2.7.56.92,1.1.28-.47.64-.81,1.02-1.06.63-.43,1.24-.52,1.86-.54.5-.01,1.46.03,2.18.69.85.77.97,2.04.99,2.83l.11,4.82-3.28.07-.1-4.53c0-.24-.03-.78-.3-1.11-.15-.2-.39-.36-.71-.35-.26,0-.57.09-.82.48-.18.29-.29.7-.28,1.16l.1,4.4-3.28.07-.1-4.59c0-.13-.03-.8-.33-1.13-.15-.16-.41-.28-.69-.27-.24,0-.54.11-.79.47-.2.31-.3.74-.3,1.13l.1,4.45-3.28.07-.18-8.13,3.02-.07Z"/>
        <path class="cls-2" d="M305.89,112.68c0,.3.19.48.28.54.18.12.47.18.74.18.46-.01.73-.18.89-.32.28-.29.31-.66.3-.97l-.02-.9h-.08c-.69.61-1.44.74-2.27.76s-1.84-.06-2.68-.84c-.51-.47-1.07-1.34-1.1-2.86-.04-1.63.52-2.62,1.03-3.19.69-.78,1.56-1.12,2.58-1.15.85-.02,1.8.18,2.5.92h.08s-.02-.75-.02-.75l3.15-.07.15,6.91c.03,1.14-.11,2.36-1.05,3.31-1,1-2.36,1.09-3.47,1.12-.9.02-2.11-.03-2.99-.62-.94-.62-1.11-1.5-1.15-1.99l3.1-.07ZM305.84,109.41c.25.31.57.45.95.44.46-.01.76-.19.95-.42.39-.47.4-1.26.4-1.5-.02-.78-.25-1.21-.5-1.46-.23-.22-.54-.37-.9-.36-.34,0-.65.14-.87.39-.44.46-.45,1.23-.45,1.52,0,.43.07.98.41,1.4Z"/>
        <path class="cls-2" d="M313.22,106.75c.05-.79.35-1.45.77-1.91.89-.96,2.33-1.14,3.4-1.16.78-.02,2.43-.02,3.38.87.77.7.87,1.65.88,2.3l.08,3.67c.01.58.05.78.13.93.08.16.26.3.46.36v.11s-3.61.08-3.61.08l-.23-.88h-.03c-.25.31-.59.61-.97.81-.58.32-1.26.41-1.82.42-.64.01-1.46-.05-2.06-.58-.33-.3-.71-.83-.73-1.75-.01-.61.14-1.14.57-1.6.63-.65,1.52-.83,2.17-.93l.96-.13c.91-.13,1.26-.17,1.48-.39.11-.11.23-.31.23-.61,0-.27-.12-.45-.22-.52-.23-.2-.61-.21-.71-.21-.37,0-.61.13-.75.27-.16.16-.26.47-.24.77l-3.15.07ZM318.33,108.32c-.35.26-.62.32-.95.37-.27.05-.69.11-.95.4-.14.16-.19.32-.18.52,0,.24.11.41.22.52.18.17.39.2.57.2.37,0,.65-.11.9-.39.39-.43.41-.99.4-1.42v-.21Z"/>
        <path class="cls-2" d="M326.74,104.55h.06c.25-.31.58-.59,1.02-.81.54-.27,1.06-.34,1.56-.35.72-.02,1.57.08,2.26.7.75.69.87,1.58.89,2.72l.11,4.88-3.36.07-.1-4.35c-.02-.75-.2-1.07-.28-1.2-.18-.28-.44-.41-.78-.4-.29,0-.64.11-.89.48-.31.46-.3,1.09-.29,1.19l.1,4.32-3.36.07-.18-8.13,3.22-.07.02.86Z"/>
        <path class="cls-2" d="M338.01,111.97c0,.3.19.48.28.54.18.12.47.18.74.18.46-.01.73-.18.89-.32.28-.29.31-.66.3-.97l-.02-.9h-.08c-.69.61-1.44.74-2.27.76s-1.84-.06-2.68-.84c-.51-.47-1.07-1.34-1.1-2.86-.04-1.63.52-2.62,1.03-3.19.69-.78,1.56-1.12,2.58-1.15.85-.02,1.8.18,2.5.92h.08s-.02-.75-.02-.75l3.15-.07.15,6.91c.03,1.14-.11,2.36-1.05,3.31-1,1-2.36,1.09-3.47,1.12-.9.02-2.11-.03-2.99-.62-.94-.62-1.11-1.5-1.15-1.99l3.1-.07ZM337.96,108.7c.25.31.57.45.95.44.46-.01.76-.19.95-.42.39-.47.4-1.26.4-1.5-.02-.78-.25-1.21-.5-1.46-.23-.22-.54-.37-.9-.36-.34,0-.65.14-.87.39-.44.46-.45,1.23-.45,1.52,0,.43.07.98.42,1.4Z"/>
        <path class="cls-2" d="M86.04,128.21l.02,1.12h.1c.25-.41.58-.75.91-.98.39-.26.93-.45,1.56-.47.51-.01,1.14.14,1.56.38.32.2.7.56.92,1.1.28-.47.64-.81,1.02-1.06.63-.43,1.24-.52,1.86-.54.5-.01,1.46.03,2.18.69.85.77.97,2.04.99,2.83l.11,4.82-3.28.07-.1-4.53c0-.24-.03-.78-.3-1.11-.15-.2-.39-.36-.71-.35-.26,0-.57.09-.82.48-.18.29-.29.7-.28,1.16l.1,4.4-3.28.07-.1-4.59c0-.13-.03-.8-.33-1.13-.15-.16-.41-.28-.69-.27-.24,0-.54.11-.79.47-.2.31-.3.74-.3,1.13l.1,4.45-3.28.07-.18-8.13,3.02-.07Z"/>
        <path class="cls-2" d="M108.01,133.5c-.21.69-.62,1.49-1.57,2.07-1.01.62-2.1.65-2.95.67-1.26.03-2.59-.06-3.63-1.04-.64-.61-1.14-1.61-1.17-2.97s.39-2.49,1.14-3.31c.97-1.06,2.24-1.36,3.49-1.39,1.86-.04,2.94.49,3.58,1.12,1.13,1.11,1.18,2.65,1.2,3.61v.19s-5.96.13-5.96.13c0,.43.12.94.33,1.23.21.27.54.45,1.03.44.24,0,.58-.04.8-.18.25-.15.36-.34.41-.51l3.3-.07ZM104.62,130.93c0-.35-.15-.85-.38-1.08-.25-.27-.57-.32-.84-.32-.34,0-.67.09-.9.37-.25.28-.37.74-.38,1.08l2.5-.06Z"/>
        <path class="cls-2" d="M108.56,127.71l1.47-.03-.05-2.4,3.36-.07.05,2.4,1.73-.04.05,2.21-1.73.04.06,2.69c0,.24.01.64.24.88.11.11.33.22.76.21.24,0,.51-.06.75-.13l.05,2.26c-.72.18-1.36.25-2.06.27s-1.79-.02-2.41-.62c-.56-.53-.66-1.41-.67-1.99l-.08-3.49-1.47.03-.05-2.21Z"/>
        <path class="cls-2" d="M129.15,133.03c-.21.69-.62,1.49-1.57,2.07-1.01.62-2.1.65-2.95.67-1.26.03-2.59-.06-3.63-1.04-.64-.61-1.14-1.61-1.17-2.97s.39-2.49,1.14-3.31c.97-1.06,2.24-1.36,3.49-1.39,1.86-.04,2.94.49,3.58,1.12,1.13,1.11,1.18,2.65,1.2,3.61v.19s-5.96.13-5.96.13c0,.43.12.94.33,1.23.21.27.54.45,1.03.44.24,0,.58-.04.8-.18.25-.15.36-.34.4-.51l3.3-.07ZM125.76,130.47c0-.35-.15-.85-.38-1.08-.25-.27-.57-.32-.84-.32-.34,0-.67.09-.9.37-.25.28-.37.74-.38,1.08l2.5-.06Z"/>
        <path class="cls-2" d="M133.96,124.07l.25,11.2-3.36.07-.25-11.2,3.36-.07Z"/>
        <path class="cls-2" d="M141.66,126.98l3.73-.08-3.18,3.35,3.44,4.77-3.73.08-1.74-2.84-.58.62.05,2.27-3.36.07-.25-11.2,3.36-.07.12,5.6,2.14-2.58Z"/>
        <path class="cls-2" d="M146.2,129.65c.05-.79.35-1.45.77-1.91.89-.96,2.33-1.14,3.4-1.16.78-.02,2.43-.02,3.38.87.77.7.87,1.65.88,2.3l.08,3.67c.01.58.05.78.13.93.08.16.26.3.46.36v.11s-3.61.08-3.61.08l-.23-.88h-.03c-.25.31-.6.61-.97.81-.59.32-1.26.41-1.82.42-.64.01-1.46-.05-2.06-.58-.33-.3-.71-.83-.73-1.75-.01-.61.14-1.14.57-1.6.63-.65,1.52-.83,2.17-.93l.96-.13c.91-.13,1.26-.17,1.48-.39.11-.11.23-.31.23-.61,0-.27-.12-.44-.22-.52-.23-.2-.61-.21-.71-.21-.37,0-.61.13-.75.27-.16.16-.26.47-.24.77l-3.15.07ZM151.31,131.21c-.35.26-.62.32-.95.37-.27.05-.69.11-.95.4-.14.16-.19.32-.18.52,0,.24.1.41.22.52.18.17.39.2.57.2.37,0,.65-.11.9-.39.39-.43.41-.99.4-1.42v-.21Z"/>
        <path class="cls-2" d="M156.34,129.42c.05-.79.35-1.45.77-1.91.89-.96,2.33-1.14,3.4-1.16.78-.02,2.43-.02,3.38.87.77.7.87,1.65.88,2.3l.08,3.67c.01.58.05.78.13.93.08.16.26.3.46.36v.11s-3.61.08-3.61.08l-.23-.88h-.03c-.25.31-.59.61-.97.81-.58.32-1.26.41-1.82.42-.64.01-1.46-.05-2.06-.58-.33-.3-.71-.83-.73-1.75-.01-.61.14-1.14.57-1.6.63-.65,1.52-.83,2.17-.93l.96-.13c.91-.13,1.26-.17,1.48-.39.11-.11.23-.31.23-.61,0-.27-.12-.44-.22-.52-.23-.2-.61-.21-.71-.21-.37,0-.61.13-.75.27-.16.16-.26.47-.24.77l-3.15.07ZM161.45,130.99c-.35.26-.62.32-.95.37-.27.05-.69.11-.95.4-.14.16-.19.32-.18.52,0,.24.11.41.22.52.18.17.39.2.57.2.37,0,.65-.11.9-.39.39-.43.41-.99.4-1.42v-.21Z"/>
        <path class="cls-2" d="M173.21,128.68c-.27-.04-.63-.07-.88-.06-.98.02-1.48.43-1.68.65-.55.59-.56,1.44-.54,2.21l.07,3.01-3.36.07-.18-8.13,3.22-.07.03,1.15c.34-.55.77-.87,1.08-1.05.54-.3,1.13-.38,1.66-.39.19,0,.35,0,.55.04l.06,2.58Z"/>
        <path class="cls-2" d="M187.01,131.75c-.21.69-.62,1.49-1.57,2.07-1.01.62-2.1.65-2.95.67-1.26.03-2.59-.06-3.63-1.04-.64-.61-1.14-1.61-1.17-2.97s.39-2.49,1.14-3.31c.97-1.06,2.24-1.36,3.49-1.39,1.86-.04,2.94.49,3.58,1.12,1.13,1.11,1.18,2.65,1.2,3.61v.19s-5.96.13-5.96.13c0,.43.12.94.33,1.23.21.27.54.45,1.03.44.24,0,.58-.04.8-.18.25-.15.36-.34.4-.51l3.3-.07ZM183.62,129.19c0-.35-.15-.85-.38-1.08-.25-.27-.57-.32-.84-.32-.34,0-.67.09-.9.37-.25.28-.37.74-.38,1.08l2.5-.06Z"/>
        <path class="cls-2" d="M191.76,126.73h.06c.25-.31.58-.59,1.02-.81.54-.27,1.06-.34,1.56-.35.72-.02,1.57.08,2.26.7.75.69.87,1.58.89,2.72l.11,4.88-3.36.07-.1-4.35c-.02-.75-.2-1.07-.28-1.2-.18-.28-.44-.41-.78-.4-.29,0-.64.11-.89.48-.31.46-.3,1.09-.29,1.19l.1,4.32-3.36.07-.18-8.13,3.22-.07.02.86Z"/>
        <path class="cls-2" d="M206.66,126.23c.44-.41,1.23-.96,2.54-.98,1.09-.02,1.78.33,2.19.7.77.69.9,1.69.92,2.72l.11,4.88-3.36.07-.1-4.35c0-.26-.04-.85-.28-1.2-.17-.24-.41-.41-.79-.4s-.65.16-.87.48c-.2.31-.3.76-.29,1.19l.1,4.32-3.36.07-.25-11.2,3.36-.07.08,3.76Z"/>
        <path class="cls-2" d="M223.18,130.96c-.21.69-.62,1.49-1.57,2.07-1.01.62-2.1.65-2.95.67-1.26.03-2.59-.06-3.63-1.04-.64-.61-1.14-1.61-1.17-2.97s.39-2.49,1.14-3.31c.97-1.06,2.24-1.36,3.49-1.39,1.86-.04,2.94.49,3.58,1.12,1.13,1.11,1.18,2.65,1.2,3.61v.19s-5.96.13-5.96.13c0,.43.12.94.33,1.23.21.27.54.45,1.03.44.24,0,.58-.04.8-.18.25-.15.36-.34.41-.51l3.3-.07ZM219.79,128.39c0-.35-.15-.85-.38-1.08-.25-.27-.57-.32-.84-.32-.34,0-.67.09-.9.37-.25.28-.37.74-.38,1.08l2.5-.06Z"/>
        <path class="cls-2" d="M223.73,125.16l1.47-.03-.05-2.4,3.36-.07.05,2.4,1.73-.04.05,2.21-1.73.04.06,2.69c0,.24.01.64.24.88.11.11.33.22.76.21.24,0,.51-.06.75-.13l.05,2.26c-.72.18-1.36.25-2.06.27s-1.79-.02-2.41-.62c-.56-.53-.66-1.41-.67-1.99l-.08-3.49-1.47.03-.05-2.21Z"/>
        <path class="cls-2" d="M238.67,124.83l.02.9h.06c.73-1.07,1.81-1.23,2.6-1.24.69-.02,1.73.04,2.58.82.26.23,1.18,1.19,1.23,3.3.03,1.28-.29,2.65-1.12,3.53-.78.85-1.74,1.03-2.65,1.05-.72.02-1.65-.08-2.39-.83l.08,3.55-3.36.07-.24-11.09,3.2-.07ZM239.23,130.62c.3.36.67.5,1.05.49.43,0,.73-.18.97-.44.45-.52.47-1.31.46-1.74-.01-.48-.08-1.26-.53-1.75-.18-.2-.51-.4-.99-.39-.34,0-.69.13-.95.44-.44.49-.47,1.21-.46,1.77,0,.45.06,1.14.45,1.62Z"/>
        <path class="cls-2" d="M255.44,130.24c-.21.69-.62,1.49-1.57,2.07-1.01.62-2.1.65-2.95.67-1.26.03-2.59-.06-3.63-1.04-.64-.61-1.14-1.61-1.17-2.97s.39-2.49,1.14-3.31c.97-1.06,2.24-1.36,3.49-1.39,1.86-.04,2.94.49,3.58,1.12,1.13,1.11,1.18,2.65,1.2,3.61v.19s-5.96.13-5.96.13c0,.43.12.94.33,1.23.21.27.54.45,1.03.44.24,0,.58-.04.8-.18.25-.15.36-.34.41-.51l3.3-.07ZM252.05,127.68c0-.35-.15-.85-.38-1.08-.25-.27-.57-.32-.84-.32-.34,0-.67.09-.9.37-.25.28-.37.74-.38,1.08l2.5-.06Z"/>
        <path class="cls-2" d="M263.54,126.69c-.27-.04-.63-.07-.88-.06-.98.02-1.48.43-1.68.65-.55.59-.56,1.44-.54,2.21l.07,3.01-3.36.07-.18-8.13,3.22-.07.03,1.15c.34-.55.77-.87,1.08-1.05.54-.3,1.13-.38,1.66-.39.19,0,.35,0,.55.04l.06,2.58Z"/>
        <path class="cls-2" d="M267.52,129.66c-.04.29.05.66.26.86.16.16.45.26.82.25.29,0,.54-.03.81-.19.19-.12.35-.28.34-.57,0-.27-.14-.46-.41-.58s-.63-.16-1.08-.22l-.83-.11c-.77-.1-1.67-.25-2.24-.73-.31-.27-.69-.74-.71-1.57-.03-1.14.55-1.8,1.07-2.17.87-.61,2.05-.73,2.98-.75,1.38-.03,2.23.19,2.78.55.41.26,1.06.87,1.15,1.99l-2.86.06c.01-.22-.08-.54-.26-.71-.2-.19-.57-.24-.84-.24-.43,0-.65.16-.72.21-.17.13-.28.34-.28.55,0,.3.18.41.36.49.37.18.68.19,1.01.23l1.12.14c.56.07,1.51.22,2.13.79.38.34.71.91.73,1.71.02,1.06-.5,1.8-1.04,2.2-.54.4-1.46.74-3.19.77-1.47.03-2.72-.08-3.57-.93-.38-.38-.79-1.02-.83-1.95l3.28-.07Z"/>
        <path class="cls-2" d="M282.06,131.13c-1.1,1.11-2.58,1.23-3.65,1.25-1.15.03-2.42-.06-3.42-.93-.6-.51-1.23-1.48-1.27-3.14s.58-2.64,1.15-3.26c1.08-1.16,2.44-1.35,3.54-1.37.99-.02,2.42.07,3.53,1.09.67.61,1.25,1.61,1.29,3.14s-.58,2.64-1.16,3.23ZM277.64,126.12c-.19.21-.5.7-.47,1.93.01.67.18,1.53.54,1.91.23.25.5.31.78.3.3,0,.57-.09.79-.34.52-.57.49-1.79.49-1.93-.01-.56-.11-1.47-.55-1.92-.23-.24-.47-.29-.76-.29-.34,0-.59.09-.81.34Z"/>
        <path class="cls-2" d="M287.88,124.61h.06c.25-.31.58-.59,1.02-.81.54-.27,1.06-.34,1.56-.35.72-.02,1.57.08,2.26.7.75.69.87,1.58.89,2.72l.11,4.88-3.36.07-.1-4.35c-.02-.75-.2-1.07-.28-1.2-.18-.28-.44-.41-.78-.4-.29,0-.64.11-.89.48-.31.46-.3,1.09-.29,1.19l.1,4.32-3.36.07-.18-8.13,3.22-.07.02.86Z"/>
        <path class="cls-2" d="M304.53,129.16c-.21.69-.62,1.49-1.57,2.07-1.01.62-2.1.65-2.95.67-1.26.03-2.59-.06-3.63-1.04-.64-.61-1.14-1.61-1.17-2.97s.39-2.49,1.14-3.31c.97-1.06,2.24-1.36,3.49-1.39,1.86-.04,2.94.49,3.58,1.12,1.13,1.11,1.18,2.65,1.2,3.61v.19s-5.96.13-5.96.13c0,.43.12.94.33,1.23.21.27.54.45,1.03.44.24,0,.58-.04.8-.18.25-.15.36-.34.41-.51l3.3-.07ZM301.14,126.59c0-.35-.15-.85-.38-1.08-.25-.27-.57-.32-.84-.32-.34,0-.67.09-.9.37-.25.28-.37.74-.38,1.08l2.5-.06Z"/>
        <path class="cls-2" d="M314.9,128.93c-.21.69-.62,1.49-1.57,2.07-1.01.62-2.1.65-2.95.67-1.26.03-2.59-.06-3.63-1.04-.64-.61-1.14-1.61-1.17-2.97s.39-2.49,1.14-3.31c.97-1.06,2.24-1.36,3.49-1.39,1.86-.04,2.94.49,3.58,1.12,1.13,1.11,1.18,2.65,1.2,3.61v.19s-5.96.13-5.96.13c0,.43.12.94.33,1.23.21.27.54.45,1.03.44.24,0,.58-.04.8-.18.25-.15.36-.34.4-.51l3.3-.07ZM311.51,126.36c0-.35-.15-.85-.38-1.08-.25-.27-.57-.32-.84-.32-.34,0-.67.09-.9.37-.25.28-.37.74-.38,1.08l2.5-.06Z"/>
        <path class="cls-2" d="M319.7,119.97l.25,11.2-3.36.07-.25-11.2,3.36-.07Z"/>
      </g>
    </g>
  </g>
</svg>