<?xml version="1.0" encoding="UTF-8"?>
<svg id="Layer_2" data-name="Layer 2" xmlns="http://www.w3.org/2000/svg" viewBox="0 0 406.51 245.63">
  <defs>
    <style>
      .cls-1 {
        fill: #d13389;
        opacity: .7;
      }

      .cls-1, .cls-2 {
        stroke-width: 0px;
      }

      .cls-2 {
        fill: #eff3e8;
      }
    </style>
  </defs>
  <g id="Layer_1-2" data-name="Layer 1">
    <g>
      <path class="cls-1" d="M8.57,194.54c2.87,32.01,32,55.1,63.8,50.5.25-.04.5-.07.75-.11,49.02-7.21,58.56-20.43,95.33-26.93,50.24-8.88,55.43,11.72,125.31,8.73,36.37-1.56,77.43-3.32,99.28-27.75,17.65-19.74,13.29-48.16,12.24-57.65-3.23-29.32-19.49-48.19-25.18-54.61-21.08-23.79-49.07-32.7-53.99-34.2-11.88-3.62-19.11-3.63-30.91-10.24-15.27-8.56-23.16-19.74-26.45-23.66-30.19-35.88-135.93-9.55-151.59-5.65-22.09,5.5-53.1,15.41-87.95,34.31C9.59,57.92-1.77,79.27.23,101.5l8.34,93.05Z"/>
      <g>
        <path class="cls-2" d="M61.74,114.68c1.2-1.51,2.76-1.82,4.09-1.94,1.43-.13,3.21-.05,4.62,1.18,1.38,1.18,1.75,2.85,1.86,4.08.19,2.15-.34,3.58-1.06,4.51-1.17,1.5-2.79,1.86-4.24,1.99s-3.21.06-4.64-1.22c-.56-.5-1.6-1.72-1.81-4.1-.18-2.06.44-3.54,1.19-4.49ZM65.16,121.11c.45.39.98.51,1.54.46s1.07-.23,1.44-.72c.46-.6.55-1.61.47-2.42s-.27-1.74-.9-2.3c-.45-.39-.95-.51-1.49-.46s-1.07.24-1.46.73c-.58.73-.58,1.82-.52,2.43s.23,1.68.91,2.3Z"/>
        <path class="cls-2" d="M77.04,116h.06c.23-.33.54-.63.97-.88.52-.3,1.04-.41,1.53-.46.72-.06,1.57-.03,2.3.55.8.64.97,1.52,1.07,2.65l.44,4.86-3.35.3-.39-4.34c-.07-.75-.27-1.05-.36-1.17-.2-.27-.47-.38-.8-.35-.29.03-.63.15-.85.54-.28.48-.22,1.11-.21,1.21l.39,4.3-3.35.3-.73-8.1,3.2-.29.08.86Z"/>
        <path class="cls-2" d="M91.3,122.02l-.07-.78h-.06c-.7,1.02-1.77,1.24-2.45,1.3-.78.07-1.81.02-2.74-.78-.65-.57-1.26-1.54-1.4-3.03-.13-1.4.22-2.72.87-3.55.68-.86,1.56-1.23,2.61-1.33,1.39-.12,2.04.38,2.41.76l-.34-3.75,3.35-.3,1,11.16-3.19.29ZM90.28,116.35c-.21-.19-.55-.37-1.04-.32-.32.03-.63.15-.88.45-.42.52-.39,1.39-.35,1.83.09.97.42,1.47.73,1.73.22.17.53.32.94.29.38-.03.69-.19.9-.48.37-.52.37-1.27.31-1.89-.05-.56-.17-1.19-.63-1.6Z"/>
        <path class="cls-2" d="M105.03,118.42c-.16.7-.52,1.53-1.43,2.17-.97.68-2.05.79-2.89.87-1.26.11-2.59.12-3.69-.79-.68-.57-1.25-1.53-1.37-2.88s.22-2.51.92-3.38c.9-1.13,2.15-1.51,3.39-1.62,1.85-.17,2.97.3,3.65.88,1.2,1.03,1.36,2.56,1.44,3.52l.02.19-5.95.53c.02.43.18.93.41,1.2.23.25.57.42,1.06.37.24-.02.57-.08.78-.23.24-.17.34-.37.37-.53l3.28-.29ZM101.48,116.09c-.03-.35-.2-.83-.45-1.05-.26-.25-.59-.29-.86-.26-.33.03-.66.14-.88.43-.23.29-.32.77-.3,1.1l2.49-.22Z"/>
        <path class="cls-2" d="M112.87,114.33c-.28-.02-.63-.02-.88,0-.97.09-1.45.53-1.64.76-.51.62-.46,1.47-.39,2.24l.27,3-3.35.3-.73-8.1,3.2-.29.1,1.15c.3-.57.71-.92,1.01-1.12.52-.34,1.1-.45,1.63-.5.19-.02.35-.02.55,0l.23,2.57Z"/>
        <path class="cls-2" d="M120.17,119.43l-3.13.28-3.53-7.85,3.19-.29,1.65,4.29.69-4.5,2.87-.26,1.46,4.3.82-4.51,3.22-.29-1.98,8.34-3.06.27-1.49-4.22-.71,4.42Z"/>
        <path class="cls-2" d="M128.01,107.48l3.35-.3.19,2.1-3.35.3-.19-2.1ZM131.64,110.24l.73,8.1-3.35.3-.73-8.1,3.35-.3Z"/>
        <path class="cls-2" d="M137.18,109.74l.72,8.08c.07.75.1,1.65-.5,2.36s-1.66.87-2.28.93c-.85.08-1.41.05-1.8,0l-.2-2.26c.18.02.34.02.51,0,.16-.01.51-.05.7-.27.2-.24.19-.6.16-.9l-.68-7.64,3.36-.3ZM133.55,106.98l3.38-.3.2,2.22-3.38.3-.2-2.22Z"/>
        <path class="cls-2" d="M142.39,114.75c-.02.29.09.65.32.84.17.15.47.23.84.2.29-.03.54-.07.8-.25.18-.13.33-.3.3-.59-.02-.27-.17-.45-.45-.55-.28-.1-.64-.12-1.09-.14l-.84-.05c-.78-.04-1.68-.14-2.29-.58-.33-.24-.74-.69-.81-1.52-.1-1.13.43-1.84.92-2.24.82-.67,2-.87,2.92-.95,1.37-.12,2.24.04,2.81.36.42.24,1.12.8,1.28,1.91l-2.85.26c0-.22-.11-.54-.3-.7-.21-.17-.58-.21-.85-.18-.43.04-.64.2-.7.26-.16.14-.26.36-.24.57.03.3.21.4.4.46.38.16.69.15,1.03.17l1.13.06c.56.03,1.52.12,2.18.64.4.32.77.86.84,1.66.09,1.05-.38,1.83-.89,2.27-.51.43-1.4.83-3.13.99-1.47.13-2.72.1-3.63-.69-.4-.35-.86-.97-.96-1.89l3.27-.29Z"/>
        <path class="cls-2" d="M154.19,108.21l3.71-.33-2.94,3.56,3.75,4.53-3.71.33-1.93-2.72-.54.66.2,2.26-3.35.3-1-11.16,3.35-.3.5,5.58,1.96-2.71Z"/>
        <path class="cls-2" d="M158.89,110.57c0-.79.25-1.47.64-1.95.83-1.02,2.25-1.29,3.31-1.39.78-.07,2.43-.19,3.43.64.81.65.98,1.58,1.04,2.24l.33,3.65c.05.57.1.78.19.91.09.15.28.28.48.33v.11s-3.59.32-3.59.32l-.29-.86h-.03c-.23.33-.55.65-.92.87-.56.36-1.23.5-1.78.55-.64.06-1.46.05-2.1-.44-.35-.27-.76-.78-.84-1.69-.05-.61.06-1.15.46-1.63.58-.69,1.46-.93,2.11-1.07l.95-.2c.9-.19,1.25-.26,1.45-.48.1-.12.21-.32.18-.63-.02-.27-.15-.44-.25-.51-.24-.19-.63-.17-.72-.16-.37.03-.6.17-.73.32-.15.17-.23.49-.19.79l-3.14.28ZM164.1,111.79c-.33.29-.59.36-.92.44-.27.07-.68.16-.92.47-.13.17-.16.34-.15.53.02.24.13.41.25.51.19.16.4.17.58.16.37-.03.64-.15.88-.45.36-.45.34-1.01.3-1.44l-.02-.21Z"/>
        <path class="cls-2" d="M172.24,107.46h.06c.23-.33.54-.63.97-.88.52-.3,1.04-.41,1.53-.46.72-.06,1.57-.03,2.3.55.8.64.97,1.52,1.07,2.65l.44,4.86-3.35.3-.39-4.34c-.07-.75-.27-1.05-.36-1.17-.2-.27-.47-.38-.8-.35-.29.03-.63.15-.85.54-.28.48-.22,1.11-.21,1.21l.39,4.3-3.35.3-.73-8.1,3.2-.29.08.86Z"/>
        <path class="cls-2" d="M183.07,111.11c-.02.29.09.65.32.84.17.15.47.23.84.2.29-.03.54-.07.8-.25.18-.13.33-.3.3-.59-.02-.27-.17-.45-.45-.55-.28-.1-.64-.12-1.09-.14l-.84-.05c-.78-.04-1.68-.14-2.29-.58-.33-.24-.74-.69-.81-1.52-.1-1.13.43-1.84.93-2.24.82-.67,1.99-.87,2.92-.95,1.37-.12,2.24.04,2.81.36.42.24,1.12.8,1.28,1.91l-2.85.26c0-.22-.11-.54-.3-.7-.21-.17-.58-.21-.85-.18-.43.04-.64.2-.7.26-.16.14-.26.36-.24.57.03.3.21.4.39.46.38.16.69.15,1.03.17l1.13.06c.57.03,1.52.12,2.18.64.4.32.77.86.84,1.66.09,1.05-.38,1.83-.89,2.27-.51.43-1.4.83-3.13.99-1.47.13-2.72.1-3.63-.69-.4-.35-.86-.97-.96-1.89l3.27-.29Z"/>
        <path class="cls-2" d="M198.54,110.04c-.16.7-.52,1.53-1.43,2.17-.97.68-2.05.79-2.89.87-1.26.11-2.59.12-3.69-.79-.68-.57-1.25-1.53-1.37-2.88s.22-2.51.92-3.38c.9-1.13,2.15-1.51,3.39-1.62,1.85-.17,2.97.3,3.65.88,1.2,1.03,1.36,2.56,1.44,3.52l.02.19-5.95.53c.02.43.18.93.41,1.2.23.25.57.42,1.06.37.24-.02.57-.08.78-.23.24-.17.34-.37.37-.53l3.28-.29ZM194.99,107.71c-.03-.35-.2-.83-.45-1.05-.26-.25-.59-.29-.86-.26-.33.03-.66.14-.88.43-.23.29-.32.77-.3,1.1l2.49-.22Z"/>
        <path class="cls-2" d="M202.95,104.71h.06c.23-.33.54-.63.97-.88.52-.3,1.04-.41,1.53-.46.72-.06,1.57-.03,2.3.55.8.64.97,1.52,1.07,2.65l.44,4.86-3.35.3-.39-4.34c-.07-.75-.27-1.05-.36-1.17-.2-.27-.47-.38-.8-.35-.29.03-.63.15-.85.54-.28.48-.22,1.11-.21,1.21l.39,4.3-3.35.3-.73-8.1,3.2-.29.08.86Z"/>
        <path class="cls-2" d="M219.32,102.38l3.3-.3-2.24,8.36-3.6.32-3.6-7.84,3.36-.3,1.75,4.81,1.03-5.06Z"/>
        <path class="cls-2" d="M223.53,104.78c0-.79.25-1.47.64-1.95.82-1.02,2.25-1.29,3.31-1.39.78-.07,2.43-.19,3.43.64.81.65.98,1.58,1.04,2.24l.33,3.65c.05.57.1.78.19.91.09.15.28.28.48.33v.11s-3.59.32-3.59.32l-.29-.86h-.03c-.23.33-.55.65-.92.87-.56.36-1.23.5-1.78.55-.64.06-1.46.05-2.1-.44-.35-.27-.76-.78-.84-1.69-.05-.61.06-1.15.46-1.63.58-.69,1.46-.93,2.11-1.07l.95-.2c.9-.19,1.25-.26,1.45-.48.1-.12.21-.32.19-.63-.02-.27-.15-.44-.25-.51-.24-.19-.63-.17-.72-.16-.37.03-.6.17-.73.32-.15.17-.23.49-.19.79l-3.14.28ZM228.73,106c-.33.29-.59.36-.93.44-.27.07-.68.16-.92.47-.13.17-.16.34-.15.53.02.24.13.41.25.51.19.16.4.17.58.16.37-.03.64-.15.88-.45.36-.45.34-1.01.31-1.44l-.02-.21Z"/>
        <path class="cls-2" d="M236.88,101.67h.06c.23-.33.54-.63.97-.88.52-.3,1.04-.41,1.53-.46.72-.06,1.57-.03,2.3.55.8.64.97,1.52,1.07,2.65l.44,4.86-3.35.3-.39-4.34c-.07-.75-.27-1.05-.36-1.17-.2-.27-.47-.38-.8-.35-.29.03-.63.15-.85.54-.28.48-.22,1.11-.21,1.21l.39,4.3-3.35.3-.73-8.1,3.2-.29.08.86Z"/>
        <path class="cls-2" d="M248.01,99.8l7.29-.65.2,2.23-3.88,4.04,4.41-.41.2,2.22-7.84.7-.2-2.23,3.94-4.05-3.92.35-.2-2.2Z"/>
        <path class="cls-2" d="M256.66,95.94l3.35-.3.19,2.1-3.35.3-.19-2.1ZM260.29,98.7l.73,8.1-3.35.3-.73-8.1,3.35-.3Z"/>
        <path class="cls-2" d="M271.26,102.67c-.02,1.06-.43,1.89-.87,2.42-.96,1.15-2.32,1.37-3.36,1.46s-2.34.08-3.41-.77c-.6-.48-1.3-1.39-1.44-2.97s.37-2.72,1.01-3.48c.92-1.06,2.19-1.42,3.29-1.52,1.71-.15,2.75.33,3.37.85.54.47,1.04,1.23,1.2,2.24l-3.08.28c-.03-.32-.15-.77-.48-1.05-.23-.19-.5-.24-.79-.22-.33.03-.58.15-.78.41-.37.48-.37,1.27-.31,1.91.04.45.15,1.47.67,1.93.26.25.54.29.84.26.24-.02.52-.08.74-.34.23-.29.31-.8.28-1.13l3.12-.28Z"/>
        <path class="cls-2" d="M275.74,98.01c.41-.44,1.16-1.04,2.47-1.15,1.08-.1,1.8.21,2.24.55.81.63,1.01,1.63,1.11,2.65l.44,4.86-3.35.3-.39-4.34c-.02-.26-.09-.84-.36-1.17-.18-.22-.44-.38-.82-.34s-.64.2-.83.54c-.18.32-.25.78-.21,1.21l.39,4.3-3.35.3-1-11.16,3.35-.3.34,3.75Z"/>
        <path class="cls-2" d="M283.54,96.62l7.29-.65.2,2.23-3.88,4.04,4.41-.41.2,2.22-7.84.7-.2-2.23,3.94-4.05-3.92.35-.2-2.2Z"/>
        <path class="cls-2" d="M301.66,100.8c-.16.7-.52,1.53-1.43,2.17-.97.68-2.05.79-2.9.87-1.26.11-2.59.12-3.69-.79-.68-.57-1.25-1.53-1.37-2.88s.22-2.51.92-3.38c.9-1.13,2.15-1.51,3.39-1.62,1.85-.17,2.97.3,3.65.88,1.2,1.03,1.35,2.56,1.44,3.52l.02.19-5.95.53c.02.43.18.93.41,1.2.23.25.57.42,1.06.37.24-.02.57-.08.78-.23.24-.17.34-.37.37-.53l3.28-.29ZM298.11,98.46c-.03-.35-.2-.83-.45-1.05-.26-.25-.59-.29-.86-.26-.33.03-.66.14-.88.43-.23.29-.32.77-.3,1.1l2.49-.22Z"/>
        <path class="cls-2" d="M305.86,91.53l1,11.16-3.35.3-1-11.16,3.35-.3Z"/>
        <path class="cls-2" d="M314.19,96.09l-1.88.17.53,5.9-3.38.3-.53-5.9-1.48.13-.2-2.2,1.48-.13v-.13c-.08-.75-.06-1.59.54-2.27.67-.77,1.8-.9,2.37-.95s1.46-.05,2.09-.03l.18,2.03c-.28-.04-.67-.07-.89-.05-.29.03-.55.11-.71.27-.28.25-.23.49-.21.76v.06s1.89-.17,1.89-.17l.2,2.2Z"/>
        <path class="cls-2" d="M328.02,98.43c-.16.7-.52,1.53-1.43,2.17-.97.68-2.05.79-2.9.87-1.26.11-2.59.12-3.69-.79-.68-.57-1.25-1.53-1.37-2.88s.22-2.51.92-3.38c.9-1.13,2.15-1.51,3.39-1.62,1.85-.17,2.97.3,3.65.88,1.2,1.03,1.35,2.56,1.44,3.52l.02.19-5.95.53c.02.43.18.93.41,1.2.23.25.57.42,1.06.37.24-.02.57-.08.78-.23.24-.17.34-.37.37-.53l3.28-.29ZM324.47,96.1c-.03-.35-.2-.83-.45-1.05-.26-.25-.59-.29-.86-.26-.33.03-.66.14-.88.43-.23.29-.32.77-.3,1.1l2.49-.22Z"/>
        <path class="cls-2" d="M332.43,93.11h.06c.23-.33.54-.63.97-.88.52-.3,1.04-.41,1.53-.46.72-.06,1.57-.03,2.3.55.8.64.97,1.52,1.07,2.65l.44,4.86-3.35.3-.39-4.34c-.07-.75-.27-1.05-.36-1.17-.2-.27-.47-.38-.8-.35-.29.03-.63.15-.85.54-.28.48-.22,1.11-.21,1.21l.39,4.3-3.35.3-.73-8.1,3.2-.29.08.86Z"/>
        <path class="cls-2" d="M93.28,135.73c0-.79.25-1.47.64-1.95.83-1.02,2.25-1.29,3.31-1.39.78-.07,2.43-.19,3.43.64.81.65.98,1.58,1.04,2.24l.33,3.65c.05.57.1.78.19.91.09.15.28.28.48.33v.11s-3.59.32-3.59.32l-.29-.86h-.03c-.23.33-.55.65-.92.87-.56.36-1.23.5-1.78.55-.64.06-1.46.05-2.1-.44-.35-.27-.76-.78-.84-1.69-.05-.61.06-1.15.46-1.63.58-.69,1.46-.93,2.11-1.07l.95-.2c.9-.19,1.25-.26,1.45-.48.1-.12.21-.32.18-.63-.02-.27-.15-.44-.25-.51-.24-.19-.63-.17-.72-.16-.37.03-.6.17-.73.32-.15.17-.23.49-.19.79l-3.14.28ZM98.48,136.95c-.33.29-.59.36-.92.44-.27.07-.68.16-.92.47-.13.17-.16.34-.15.53.02.24.13.41.25.51.19.16.4.17.58.16.37-.03.64-.15.88-.45.36-.45.34-1.01.3-1.44l-.02-.21Z"/>
        <path class="cls-2" d="M106.62,132.62h.06c.23-.33.54-.63.97-.88.52-.3,1.04-.41,1.53-.46.72-.06,1.57-.03,2.3.55.8.64.97,1.52,1.07,2.65l.44,4.86-3.35.3-.39-4.34c-.07-.75-.27-1.05-.36-1.17-.2-.27-.47-.38-.8-.35-.29.03-.63.15-.85.54-.28.48-.22,1.11-.21,1.21l.39,4.3-3.35.3-.73-8.1,3.2-.29.08.86Z"/>
        <path class="cls-2" d="M120.88,138.64l-.07-.78h-.06c-.7,1.02-1.77,1.24-2.46,1.3-.78.07-1.81.02-2.74-.78-.65-.57-1.26-1.54-1.4-3.03-.13-1.4.22-2.72.87-3.55.68-.86,1.56-1.23,2.61-1.33,1.39-.12,2.04.38,2.41.76l-.34-3.75,3.35-.3,1,11.16-3.19.29ZM119.86,132.98c-.21-.19-.55-.37-1.04-.32-.32.03-.63.15-.88.45-.42.52-.39,1.39-.35,1.83.09.97.42,1.47.73,1.73.22.17.53.32.94.29.38-.03.69-.19.9-.48.37-.52.37-1.27.31-1.89-.05-.56-.17-1.19-.62-1.6Z"/>
        <path class="cls-2" d="M134.62,135.05c-.16.7-.52,1.53-1.43,2.17-.97.68-2.05.79-2.9.87-1.26.11-2.59.12-3.69-.79-.68-.57-1.25-1.53-1.37-2.88s.22-2.51.92-3.38c.9-1.13,2.15-1.51,3.39-1.62,1.85-.17,2.97.3,3.65.88,1.2,1.03,1.35,2.56,1.44,3.52l.02.19-5.95.53c.02.43.18.93.41,1.2.23.25.57.42,1.06.37.24-.02.57-.08.78-.23.24-.17.34-.37.37-.53l3.28-.29ZM131.07,132.71c-.03-.35-.2-.83-.45-1.05-.26-.25-.59-.29-.86-.26-.33.03-.66.14-.88.43-.23.29-.32.77-.3,1.1l2.49-.22Z"/>
        <path class="cls-2" d="M142.46,130.95c-.28-.02-.63-.02-.88,0-.97.09-1.45.53-1.64.76-.51.62-.46,1.47-.39,2.24l.27,3-3.35.3-.73-8.1,3.2-.29.1,1.15c.3-.57.71-.92,1.01-1.12.52-.34,1.1-.45,1.63-.5.19-.02.35-.02.55,0l.23,2.57Z"/>
        <path class="cls-2" d="M152.72,133.42c-.16.7-.52,1.53-1.43,2.17-.97.68-2.05.79-2.9.87-1.26.11-2.59.12-3.69-.79-.68-.57-1.25-1.53-1.37-2.88s.22-2.51.92-3.38c.9-1.13,2.15-1.51,3.39-1.62,1.85-.17,2.97.3,3.65.88,1.2,1.03,1.35,2.56,1.44,3.52l.02.19-5.95.53c.02.43.18.93.41,1.2.23.25.57.42,1.06.37.24-.02.57-.08.78-.23.24-.17.34-.37.37-.53l3.28-.29ZM149.17,131.09c-.03-.35-.2-.83-.45-1.05-.26-.25-.59-.29-.86-.26-.33.03-.66.14-.88.43-.23.29-.32.77-.3,1.1l2.49-.22Z"/>
        <path class="cls-2" d="M157.13,128.1h.06c.23-.33.54-.63.97-.88.52-.3,1.04-.41,1.53-.46.72-.06,1.57-.03,2.3.55.8.64.97,1.52,1.07,2.65l.44,4.86-3.35.3-.39-4.34c-.07-.75-.27-1.05-.36-1.17-.2-.27-.47-.38-.8-.35-.29.03-.63.15-.85.54-.28.48-.22,1.11-.21,1.21l.39,4.3-3.35.3-.73-8.1,3.2-.29.08.86Z"/>
        <path class="cls-2" d="M171.83,126.78h.06c.23-.33.54-.63.97-.88.52-.3,1.04-.41,1.53-.46.72-.06,1.57-.03,2.3.55.8.64.97,1.52,1.07,2.65l.44,4.86-3.35.3-.39-4.34c-.07-.75-.27-1.05-.36-1.17-.2-.27-.47-.38-.8-.35-.29.03-.63.15-.85.54-.28.48-.22,1.11-.21,1.21l.39,4.3-3.35.3-.73-8.1,3.2-.29.08.86Z"/>
        <path class="cls-2" d="M179.27,122.16l3.35-.3.19,2.1-3.35.3-.19-2.1ZM182.9,124.92l.73,8.1-3.35.3-.73-8.1,3.35-.3Z"/>
        <path class="cls-2" d="M194.17,129.71c-.16.7-.52,1.53-1.43,2.17-.97.68-2.05.79-2.9.87-1.26.11-2.59.12-3.69-.79-.68-.57-1.25-1.53-1.37-2.88s.22-2.51.92-3.38c.9-1.13,2.15-1.51,3.39-1.62,1.85-.17,2.97.3,3.65.88,1.2,1.03,1.35,2.56,1.44,3.52l.02.19-5.95.53c.02.43.18.93.41,1.2.23.25.57.42,1.06.37.24-.02.57-.08.78-.23.24-.17.34-.37.37-.53l3.28-.29ZM190.62,127.38c-.03-.35-.2-.83-.45-1.05-.26-.25-.59-.29-.86-.26-.33.03-.66.14-.88.43-.23.29-.32.77-.3,1.1l2.49-.22Z"/>
        <path class="cls-2" d="M194.34,123.89l1.47-.13-.21-2.39,3.35-.3.21,2.39,1.72-.15.2,2.2-1.72.15.24,2.68c.02.24.06.64.3.86.12.1.34.19.77.16.24-.02.51-.09.74-.18l.2,2.25c-.7.22-1.33.35-2.04.41s-1.79.1-2.45-.46c-.59-.49-.75-1.36-.8-1.94l-.31-3.48-1.47.13-.2-2.2Z"/>
        <path class="cls-2" d="M209.95,130.66l-3.19.29-1-11.16,3.35-.3.34,3.75c.75-.95,1.71-1.13,2.37-1.19.89-.08,1.84.08,2.69.8.4.35,1.29,1.28,1.46,3.2s-.45,2.92-.93,3.47c-.71.85-1.59,1.12-2.59,1.21-.78.07-1.74,0-2.5-.85h-.06s.07.79.07.79ZM210.29,128.39c.25.22.58.35.93.32.46-.04.75-.26.91-.47.36-.45.45-1.25.39-1.9s-.28-1.33-.68-1.66c-.26-.22-.56-.32-.94-.29s-.71.19-.94.49c-.36.47-.41,1.19-.35,1.82.07.78.32,1.37.68,1.69Z"/>
        <path class="cls-2" d="M226.31,126.83c-.16.7-.52,1.53-1.43,2.17-.97.68-2.05.79-2.9.87-1.26.11-2.59.12-3.69-.79-.68-.57-1.25-1.53-1.37-2.88s.22-2.51.92-3.38c.9-1.13,2.15-1.51,3.39-1.62,1.85-.17,2.97.3,3.65.88,1.2,1.03,1.35,2.56,1.44,3.52l.02.19-5.95.53c.02.43.18.93.41,1.2.23.25.57.42,1.06.37.24-.02.57-.08.78-.23.24-.17.34-.37.37-.53l3.28-.29ZM222.76,124.49c-.03-.35-.2-.83-.45-1.05-.26-.25-.59-.29-.86-.26-.33.03-.66.14-.88.43-.23.29-.32.77-.3,1.1l2.49-.22Z"/>
        <path class="cls-2" d="M230.51,117.56l1,11.16-3.35.3-1-11.16,3.35-.3Z"/>
        <path class="cls-2" d="M242.06,125.42c-.16.7-.52,1.53-1.43,2.17-.97.68-2.05.79-2.89.87-1.26.11-2.59.12-3.69-.79-.68-.57-1.25-1.53-1.37-2.88s.22-2.51.92-3.38c.9-1.13,2.15-1.51,3.39-1.62,1.85-.17,2.97.3,3.65.88,1.2,1.03,1.36,2.56,1.44,3.52l.02.19-5.95.53c.02.43.18.93.41,1.2.23.25.57.42,1.06.37.24-.02.57-.08.78-.23.24-.17.34-.37.37-.53l3.28-.29ZM238.51,123.08c-.03-.35-.2-.83-.45-1.05-.26-.25-.59-.29-.86-.26-.33.03-.66.14-.88.43-.23.29-.32.77-.3,1.1l2.49-.22Z"/>
        <path class="cls-2" d="M246.19,119.24l.1,1.12h.1c.22-.43.52-.79.84-1.05.38-.29.9-.51,1.52-.57.51-.05,1.15.06,1.58.28.34.18.74.51.99,1.04.25-.49.58-.86.94-1.13.6-.47,1.2-.61,1.82-.66.49-.04,1.46-.07,2.22.54.9.71,1.11,1.97,1.18,2.75l.43,4.8-3.27.29-.4-4.51c-.02-.24-.09-.78-.37-1.09-.16-.19-.42-.33-.73-.3-.26.02-.57.13-.79.54-.16.3-.24.71-.2,1.18l.39,4.38-3.27.29-.41-4.58c-.01-.13-.09-.8-.4-1.1-.16-.15-.42-.25-.71-.23-.24.02-.53.14-.76.52-.18.32-.25.76-.22,1.14l.4,4.43-3.27.29-.73-8.1,3.01-.27Z"/>
        <path class="cls-2" d="M262.27,117.8l.1,1.12h.1c.22-.43.52-.79.84-1.05.38-.29.9-.51,1.52-.57.51-.05,1.15.06,1.58.28.34.18.74.51.99,1.04.25-.49.58-.86.94-1.13.6-.47,1.2-.61,1.82-.66.49-.04,1.46-.07,2.22.54.9.71,1.11,1.97,1.18,2.75l.43,4.8-3.27.29-.4-4.51c-.02-.24-.09-.78-.37-1.09-.16-.19-.42-.33-.73-.3-.25.02-.57.13-.79.54-.17.3-.24.71-.2,1.18l.39,4.38-3.27.29-.41-4.58c-.01-.13-.09-.8-.4-1.11-.16-.15-.42-.25-.71-.23-.24.02-.53.14-.76.52-.18.32-.25.76-.22,1.14l.4,4.43-3.27.29-.73-8.1,3.01-.27Z"/>
        <path class="cls-2" d="M284.54,121.61c-.16.7-.52,1.53-1.43,2.17-.97.68-2.05.79-2.9.87-1.26.11-2.59.12-3.69-.79-.68-.57-1.25-1.53-1.37-2.88s.22-2.51.92-3.38c.9-1.13,2.15-1.51,3.39-1.62,1.85-.17,2.97.3,3.65.88,1.2,1.03,1.35,2.56,1.44,3.52l.02.19-5.95.53c.02.43.18.93.41,1.2.23.25.57.42,1.06.37.24-.02.57-.08.78-.23.24-.17.34-.37.37-.53l3.28-.29ZM280.99,119.27c-.03-.35-.2-.83-.45-1.05-.26-.25-.59-.29-.86-.26-.33.03-.66.14-.88.43-.23.29-.32.77-.3,1.1l2.49-.22Z"/>
        <path class="cls-2" d="M292.38,117.51c-.28-.02-.63-.02-.88,0-.97.09-1.45.53-1.64.76-.51.62-.46,1.47-.39,2.24l.27,3-3.35.3-.73-8.1,3.2-.29.1,1.15c.3-.57.71-.92,1.01-1.12.52-.34,1.1-.45,1.63-.5.19-.02.35-.02.55,0l.23,2.57Z"/>
        <path class="cls-2" d="M302.65,119.99c-.16.7-.52,1.53-1.43,2.17-.97.68-2.05.79-2.9.87-1.26.11-2.59.12-3.69-.79-.68-.57-1.25-1.53-1.37-2.88s.22-2.51.92-3.38c.9-1.13,2.15-1.51,3.39-1.62,1.85-.17,2.97.3,3.65.88,1.2,1.03,1.35,2.56,1.44,3.52l.02.19-5.95.53c.02.43.18.93.41,1.2.23.25.57.42,1.06.37.24-.02.57-.08.78-.23.24-.17.34-.37.37-.53l3.28-.29ZM299.09,117.65c-.03-.35-.2-.83-.45-1.05-.26-.25-.59-.29-.86-.26-.33.03-.66.14-.88.43-.23.29-.32.77-.3,1.1l2.49-.22Z"/>
        <path class="cls-2" d="M307.05,114.66h.06c.23-.33.54-.63.97-.88.52-.3,1.04-.41,1.53-.46.72-.06,1.57-.03,2.3.55.8.64.97,1.52,1.07,2.65l.44,4.86-3.35.3-.39-4.34c-.07-.75-.27-1.05-.36-1.17-.2-.27-.47-.38-.8-.35-.29.03-.63.15-.85.54-.28.47-.22,1.11-.21,1.21l.39,4.3-3.35.3-.73-8.1,3.2-.29.08.86Z"/>
      </g>
    </g>
  </g>
</svg>