<?xml version="1.0" encoding="UTF-8"?>
<svg id="Layer_2" data-name="Layer 2" xmlns="http://www.w3.org/2000/svg" viewBox="0 0 487.82 470.93">
  <defs>
    <style>
      .cls-1 {
        fill: #d10089;
        opacity: .17;
      }

      .cls-1, .cls-2, .cls-3, .cls-4, .cls-5, .cls-6, .cls-7, .cls-8, .cls-9 {
        stroke-width: 0px;
      }

      .cls-2 {
        opacity: .2;
      }

      .cls-2, .cls-4, .cls-5, .cls-6, .cls-8 {
        fill: #d13389;
      }

      .cls-10 {
        stroke: #fff;
        stroke-miterlimit: 10;
      }

      .cls-10, .cls-3, .cls-7, .cls-9 {
        fill: #d7d1e7;
      }

      .cls-5, .cls-7 {
        opacity: .5;
      }

      .cls-6 {
        opacity: .4;
      }

      .cls-8, .cls-9 {
        opacity: .3;
      }
    </style>
  </defs>
  <g id="Layer_7" data-name="Layer 7">
    <path class="cls-7" d="M227.05,422.47l25.15-7.36c10.24-3,16.05-13.51,12.97-23.48l-7.66-24.84c-3.07-9.98-13.87-15.63-24.11-12.64l-25.15,7.36c-10.24,3-16.05,13.51-12.97,23.48l7.66,24.84c3.07,9.98,13.87,15.63,24.11,12.64Z"/>
    <ellipse class="cls-4" cx="60.94" cy="316.11" rx="24.31" ry="23.68"/>
    <path class="cls-9" d="M248.75,168.85l24.32,56.12c1.25,2.9,5.15,3.39,7.09.9l37.73-48.58c1.98-2.55.42-6.28-2.78-6.67l-62.05-7.54c-3.18-.39-5.59,2.83-4.31,5.77Z"/>
    <path class="cls-4" d="M211.46,238.16h0c4.72-2.66,6.34-8.54,3.61-13.14l-.06-.09c-2.73-4.6-8.76-6.18-13.49-3.52h0c-4.72,2.66-6.34,8.54-3.61,13.14l.06.09c2.73,4.6,8.76,6.18,13.49,3.52Z"/>
    <ellipse class="cls-8" cx="318.89" cy="115.27" rx="19.49" ry="18.99"/>
    <ellipse class="cls-10" cx="230.23" cy="63.62" rx="12.15" ry="11.84"/>
    <ellipse class="cls-7" cx="146.8" cy="246.78" rx="17.45" ry="17"/>
    <ellipse class="cls-4" cx="354.37" cy="164.33" rx="5.64" ry="5.5"/>
    <ellipse class="cls-4" cx="120.47" cy="324.77" rx="8.88" ry="8.65"/>
    <path class="cls-4" d="M202.19,167l.81.16c10.69,2.04,21.06-4.75,23.16-15.17l.2-1.01c2.09-10.42-4.88-20.52-15.57-22.56l-.81-.16c-10.69-2.04-21.06,4.75-23.16,15.17l-.2,1.01c-2.09,10.42,4.88,20.52,15.57,22.56Z"/>
    <path class="cls-3" d="M64.86,419.63l13.29-7.47c5.48-3.08,7.36-9.91,4.2-15.26l-7.78-13.13c-3.17-5.34-10.18-7.17-15.66-4.09l-13.29,7.47c-5.48,3.08-7.36,9.91-4.2,15.26l7.78,13.13c3.17,5.34,10.18,7.17,15.66,4.09Z"/>
    <path class="cls-6" d="M352.28,262.83l18.93.76c7.89.31,14.54-5.66,14.86-13.34l.79-18.7c.32-7.68-5.81-14.17-13.69-14.48l-18.93-.76c-7.89-.31-14.54,5.66-14.86,13.34l-.79,18.7c-.32,7.68,5.81,14.17,13.69,14.48Z"/>
    <path class="cls-4" d="M129.09,371.29l11.46,35.97c.91,2.84,4.92,2.85,5.84.02l19.23-58.87c.93-2.85-2.35-5.21-4.76-3.41l-30.69,22.9c-1.05.78-1.49,2.15-1.09,3.39Z"/>
    <path class="cls-4" d="M7.55,455.67l11.72,14.53c.93,1.15,2.75.89,3.31-.48l7.07-17.08c.57-1.39-.57-2.87-2.06-2.67l-18.79,2.54c-1.5.2-2.21,1.97-1.25,3.15Z"/>
    <path class="cls-6" d="M228.24,319.95l61.75-7.2c4.06-.47,5.24-5.8,1.76-7.94l-81.48-50.27c-3.44-2.12-7.65,1.24-6.33,5.06l19.72,57.46c.66,1.92,2.56,3.11,4.57,2.88Z"/>
    <path class="cls-1" d="M380.48,315.73l-52.68-26.36c-2.27-1.14-4.9.67-4.66,3.19l5.85,61.69c.24,2.51,3.14,3.79,5.16,2.27l46.83-35.32c1.91-1.44,1.64-4.39-.5-5.47Z"/>
    <path class="cls-2" d="M407.96,187.64l64.6-18.9c9.07-2.65,14.22-11.97,11.5-20.81l-8.92-28.95c-2.72-8.84-12.29-13.86-21.36-11.2l-64.6,18.9c-9.07,2.65-14.22,11.97-11.5,20.81l8.92,28.95c2.72,8.84,12.29,13.86,21.36,11.2Z"/>
    <path class="cls-4" d="M122.71,422.9l-8.8,10.24c-2.18,2.54-.18,6.44,3.15,6.15l19.33-1.69c3.34-.29,4.63-4.5,2.03-6.61l-10.53-8.54c-1.57-1.27-3.86-1.07-5.18.47Z"/>
    <path class="cls-4" d="M14.87,401.56h0c4.72-2.66,6.34-8.54,3.61-13.14l-.06-.09c-2.73-4.6-8.76-6.18-13.49-3.52h0c-4.72,2.66-6.34,8.54-3.61,13.14l.06.09c2.73,4.6,8.76,6.18,13.49,3.52Z"/>
    <ellipse class="cls-4" cx="289.13" cy="351.8" rx="12.65" ry="12.33"/>
  </g>
  <g id="Layer_2-2" data-name="Layer 2">
    <path class="cls-5" d="M481.59,92.37l-123.35,4.78c-4.54.18-7.84-4.26-6.36-8.55l28.87-84.23c1.47-4.29,6.8-5.77,10.27-2.85l94.48,79.45c4.52,3.8,1.99,11.18-3.91,11.4Z"/>
  </g>
</svg>