<?xml version="1.0" encoding="UTF-8"?>
<svg id="Layer_2" data-name="Layer 2" xmlns="http://www.w3.org/2000/svg" viewBox="0 0 850.49 1538.47">
  <defs>
    <style>
      .cls-1 {
        fill: #fbb0ff;
      }

      .cls-1, .cls-2, .cls-3 {
        stroke: #fbb0ff;
        stroke-miterlimit: 10;
      }

      .cls-4 {
        letter-spacing: -.02em;
      }

      .cls-5 {
        letter-spacing: 0em;
      }

      .cls-6 {
        font-size: 15px;
      }

      .cls-6, .cls-2, .cls-7 {
        fill: #fff;
      }

      .cls-6, .cls-8, .cls-7 {
        font-family: MSReferenceSansSerif, 'MS Reference Sans Serif';
      }

      .cls-9 {
        letter-spacing: 0em;
      }

      .cls-10 {
        letter-spacing: 0em;
      }

      .cls-11 {
        letter-spacing: -.05em;
      }

      .cls-12 {
        letter-spacing: -.02em;
      }

      .cls-13 {
        letter-spacing: 0em;
      }

      .cls-14 {
        letter-spacing: -.02em;
      }

      .cls-8 {
        font-size: 17px;
      }

      .cls-7 {
        font-size: 28.48px;
      }

      .cls-15 {
        letter-spacing: -.11em;
      }

      .cls-16 {
        letter-spacing: 0em;
      }

      .cls-17 {
        letter-spacing: -.02em;
      }

      .cls-18 {
        fill: #ea008a;
        opacity: .1;
        stroke-width: 0px;
      }
    </style>
  </defs>
  <g id="Layer_2-2" data-name="Layer 2">
    <g>
      <line class="cls-3" x1="284.39" y1="781.8" x2="849.97" y2="781.8"/>
      <line class="cls-3" x1="284.39" y1="839.95" x2="850.34" y2="839.95"/>
      <line class="cls-3" x1="283.46" y1="898.09" x2="850.13" y2="898.09"/>
      <line class="cls-3" x1="284.39" y1="956.24" x2="849.73" y2="956.24"/>
      <line class="cls-3" x1="284.39" y1="1014.38" x2="850.37" y2="1014.38"/>
      <line class="cls-3" x1="284.39" y1="1072.53" x2="850.49" y2="1072.53"/>
      <line class="cls-3" x1="284.39" y1="1130.67" x2="850.13" y2="1130.67"/>
      <line class="cls-3" x1="284.39" y1="1188.82" x2="850.13" y2="1188.82"/>
      <line class="cls-3" x1="284.39" y1="1246.96" x2="849.83" y2="1246.96"/>
      <line class="cls-3" x1="283.46" y1="1305.11" x2="850.47" y2="1305.11"/>
      <line class="cls-3" x1="284.39" y1="1363.25" x2="850.34" y2="1363.25"/>
      <line class="cls-3" x1="283.46" y1="1421.4" x2="849.34" y2="1421.4"/>
      <line class="cls-3" x1="284.39" y1="1479.54" x2="848.71" y2="1483.56"/>
      <line class="cls-2" x1="605.5" y1="68.71" x2="606.07" y2="1537.16"/>
      <line class="cls-2" x1="362.26" y1="69.52" x2="362.83" y2="1536.77"/>
      <line class="cls-2" x1="685.7" y1="1.04" x2="686.27" y2="1537.19"/>
      <line class="cls-2" x1="766.5" y1="68.71" x2="767.07" y2="1537.51"/>
      <line class="cls-2" x1="443.29" y1="68.71" x2="443.85" y2="1538.14"/>
      <line class="cls-2" x1="524.78" y1="69.95" x2="525.35" y2="1537.23"/>
      <text class="cls-8" transform="translate(397.49 343.94)"><tspan x="0" y="0">3</tspan></text>
      <text class="cls-8" transform="translate(316.81 403.55)"><tspan x="0" y="0">3</tspan></text>
      <text class="cls-8" transform="translate(478.28 402.79)"><tspan x="0" y="0">3</tspan></text>
      <text class="cls-8" transform="translate(561.57 403.04)"><tspan x="0" y="0">3</tspan></text>
      <text class="cls-8" transform="translate(640.66 402.79)"><tspan x="0" y="0">3</tspan></text>
      <text class="cls-8" transform="translate(720.48 403.3)"><tspan x="0" y="0">3</tspan></text>
      <text class="cls-8" transform="translate(397.66 402.79)"><tspan x="0" y="0">4</tspan></text>
      <text class="cls-8" transform="translate(803.14 402.79)"><tspan x="0" y="0">4</tspan></text>
      <text class="cls-8" transform="translate(316.15 462.46)"><tspan x="0" y="0">2</tspan></text>
      <text class="cls-8" transform="translate(478.87 463.54)"><tspan x="0" y="0">2</tspan></text>
      <text class="cls-8" transform="translate(561.64 463.54)"><tspan x="0" y="0">2</tspan></text>
      <text class="cls-8" transform="translate(641.35 463.54)"><tspan x="0" y="0">2</tspan></text>
      <text class="cls-8" transform="translate(720.42 463.54)"><tspan x="0" y="0">2</tspan></text>
      <text class="cls-8" transform="translate(804.15 463.54)"><tspan x="0" y="0">4</tspan></text>
      <text class="cls-8" transform="translate(397.66 462.46)"><tspan x="0" y="0">3</tspan></text>
      <text class="cls-8" transform="translate(561.48 523.42)"><tspan x="0" y="0">2</tspan></text>
      <text class="cls-8" transform="translate(317.52 582.99)"><tspan x="0" y="0">2</tspan></text>
      <text class="cls-8" transform="translate(399.62 583.25)"><tspan x="0" y="0">2</tspan></text>
      <text class="cls-8" transform="translate(478.41 583.25)"><tspan x="0" y="0">2</tspan></text>
      <text class="cls-8" transform="translate(562.57 583.25)"><tspan x="0" y="0">2</tspan></text>
      <text class="cls-8" transform="translate(641.99 582.99)"><tspan x="0" y="0">2</tspan></text>
      <text class="cls-8" transform="translate(720.9 582.99)"><tspan x="0" y="0">1</tspan></text>
      <text class="cls-8" transform="translate(804.15 583.25)"><tspan x="0" y="0">1</tspan></text>
      <text class="cls-8" transform="translate(317.52 643)"><tspan x="0" y="0">2</tspan></text>
      <text class="cls-8" transform="translate(398.56 644.51)"><tspan x="0" y="0">2</tspan></text>
      <text class="cls-8" transform="translate(478.41 644.51)"><tspan x="0" y="0">2</tspan></text>
      <text class="cls-8" transform="translate(562.2 644.51)"><tspan x="0" y="0">2</tspan></text>
      <text class="cls-8" transform="translate(642.29 644.51)"><tspan x="0" y="0">2</tspan></text>
      <text class="cls-8" transform="translate(721.07 644.51)"><tspan x="0" y="0">2</tspan></text>
      <text class="cls-8" transform="translate(805.15 644.51)"><tspan x="0" y="0">2</tspan></text>
      <text class="cls-8" transform="translate(317.44 703.08)"><tspan x="0" y="0">2</tspan></text>
      <text class="cls-8" transform="translate(397.56 703.08)"><tspan x="0" y="0">2</tspan></text>
      <text class="cls-8" transform="translate(478.27 703.08)"><tspan x="0" y="0">2</tspan></text>
      <text class="cls-8" transform="translate(562.21 703.08)"><tspan x="0" y="0">2</tspan></text>
      <text class="cls-8" transform="translate(642.22 703.08)"><tspan x="0" y="0">2</tspan></text>
      <text class="cls-8" transform="translate(721.81 703.08)"><tspan x="0" y="0">2</tspan></text>
      <text class="cls-8" transform="translate(804.09 703.08)"><tspan x="0" y="0">2</tspan></text>
      <text class="cls-8" transform="translate(316.8 761.64)"><tspan x="0" y="0">2</tspan></text>
      <text class="cls-8" transform="translate(398.56 761.64)"><tspan x="0" y="0">2</tspan></text>
      <text class="cls-8" transform="translate(478.35 761.64)"><tspan x="0" y="0">2</tspan></text>
      <text class="cls-8" transform="translate(642.22 761.64)"><tspan x="0" y="0">2</tspan></text>
      <text class="cls-8" transform="translate(721.81 761.64)"><tspan x="0" y="0">1</tspan></text>
      <text class="cls-8" transform="translate(805.09 761.64)"><tspan x="0" y="0">1</tspan></text>
      <text class="cls-8" transform="translate(316.45 817.4)"><tspan x="0" y="0">5</tspan></text>
      <text class="cls-8" transform="translate(478.35 817.14)"><tspan x="0" y="0">5</tspan></text>
      <text class="cls-8" transform="translate(561.51 817.65)"><tspan x="0" y="0">5</tspan></text>
      <text class="cls-8" transform="translate(642.22 817.91)"><tspan x="0" y="0">5</tspan></text>
      <text class="cls-8" transform="translate(804.15 817.14)"><tspan x="0" y="0">5</tspan></text>
      <text class="cls-8" transform="translate(397.56 817.14)"><tspan x="0" y="0">6</tspan></text>
      <text class="cls-8" transform="translate(721.49 817.4)"><tspan x="0" y="0">4</tspan></text>
      <text class="cls-8" transform="translate(317.04 875.42)"><tspan x="0" y="0">1</tspan></text>
      <text class="cls-8" transform="translate(561.96 875.42)"><tspan x="0" y="0">1</tspan></text>
      <text class="cls-8" transform="translate(478.41 875.42)"><tspan x="0" y="0">3</tspan></text>
      <text class="cls-8" transform="translate(722.49 875.68)"><tspan x="0" y="0">1</tspan></text>
      <text class="cls-8" transform="translate(317.96 934.1)"><tspan x="0" y="0">3</tspan></text>
      <text class="cls-8" transform="translate(398.56 934.35)"><tspan x="0" y="0">3</tspan></text>
      <text class="cls-8" transform="translate(478.87 934.1)"><tspan x="0" y="0">3</tspan></text>
      <text class="cls-8" transform="translate(722.49 934.61)"><tspan x="0" y="0">2</tspan></text>
      <text class="cls-8" transform="translate(721.4 1108.51)"><tspan x="0" y="0">7</tspan></text>
      <text class="cls-8" transform="translate(479.86 1165.49)"><tspan x="0" y="0">7</tspan></text>
      <text class="cls-8" transform="translate(561.66 1165.49)"><tspan x="0" y="0">7</tspan></text>
      <text class="cls-8" transform="translate(397.55 1168.06)"><tspan x="0" y="0">4</tspan></text>
      <text class="cls-8" transform="translate(317.5 1168.06)"><tspan x="0" y="0">4</tspan></text>
      <text class="cls-8" transform="translate(641.9 1165.49)"><tspan x="0" y="0">4</tspan></text>
      <text class="cls-8" transform="translate(722.4 1165.49)"><tspan x="0" y="0">3</tspan></text>
      <text class="cls-8" transform="translate(802.62 1165.75) scale(1.1 1)"><tspan x="0" y="0">2</tspan></text>
      <text class="cls-8" transform="translate(721.85 1049.53) scale(1.1 1)"><tspan x="0" y="0">2</tspan></text>
      <text class="cls-8" transform="translate(803.44 992.85) scale(1.1 1)"><tspan x="0" y="0">2</tspan></text>
      <text class="cls-8" transform="translate(479.45 1049.53)"><tspan x="0" y="0">1</tspan></text>
      <text class="cls-8" transform="translate(397.55 1049.53)"><tspan x="0" y="0">1</tspan></text>
      <text class="cls-8" transform="translate(316.95 1049.53)"><tspan x="0" y="0">5</tspan></text>
      <text class="cls-8" transform="translate(561 1224.58)"><tspan x="0" y="0">1</tspan></text>
      <text class="cls-8" transform="translate(641.71 1284.73)"><tspan x="0" y="0">3</tspan></text>
      <text class="cls-8" transform="translate(641.99 1342.05)"><tspan x="0" y="0">2</tspan></text>
      <text class="cls-8" transform="translate(641.93 1400.54)"><tspan x="0" y="0">2</tspan></text>
      <text class="cls-8" transform="translate(641.93 1460.41)"><tspan x="0" y="0">2</tspan></text>
      <text class="cls-8" transform="translate(803.89 1518.58)"><tspan x="0" y="0">5</tspan></text>
      <text class="cls-8" transform="translate(804.3 344.47)"><tspan x="0" y="0">3</tspan></text>
      <rect class="cls-18" x=".21" y="0" width="849.02" height="1538.14" rx="46.68" ry="46.68"/>
      <path class="cls-18" d="M849.23,70.88H.21v-23.17C.21,21.94,21.11,1.04,46.89,1.04h755.67c25.78,0,46.68,20.9,46.68,46.68v23.17h0Z"/>
      <path class="cls-18" d="M284.46,1538.47H47.68c-2.58-.1-6.23-.41-10.51-1.4-3.27-.76-9.91-2.36-17.02-7.15-1.71-1.15-5.79-3.93-9.53-8.51-8.22-10.05-9.3-21.97-10.23-33.98-.75-9.65-.17-16.81-.17-16.89V67.94c.04-2.7.1-6.66.24-11.47.16-5.68.24-8.52.37-10.15.22-2.65.89-10.42,4.56-18.65.95-2.13,4.77-10.49,12.03-16.58C27.72,2.46,40.68,1.95,46.79,1.8,68.34,1.24,159.54.05,284.46,0c0,33.99,0,67.97,0,101.96,0,478.84,0,957.68,0,1436.52Z"/>
      <text class="cls-7" transform="translate(91.35 43.82)"><tspan class="cls-11" x="0" y="0">V</tspan><tspan x="18.08" y="0">ak</tspan><tspan class="cls-5" x="52.03" y="0">k</tspan><tspan x="68.61" y="0">en</tspan></text>
      <text class="cls-8" transform="translate(78.82 105.6)"><tspan x="0" y="0">Aardrijkskunde</tspan></text>
      <text class="cls-8" transform="translate(109.65 165.76)"><tspan x="0" y="0">Biologie</tspan></text>
      <text class="cls-8" transform="translate(111.11 224.66)"><tspan x="0" y="0">Chemie</tspan></text>
      <text class="cls-8" transform="translate(111.77 284.91)"><tspan x="0" y="0">Cultuur</tspan></text>
      <text class="cls-8" transform="translate(121.11 343.94)"><tspan x="0" y="0">Duits</tspan></text>
      <text class="cls-8" transform="translate(115.27 402.79)"><tspan x="0" y="0">Engels</tspan></text>
      <text class="cls-8" transform="translate(119.87 462.46)"><tspan x="0" y="0">F</tspan><tspan class="cls-17" x="9.77" y="0">r</tspan><tspan class="cls-13" x="16.73" y="0">ans</tspan></text>
      <text class="cls-8" transform="translate(116.94 522.42)"><tspan x="0" y="0">Fysica</tspan></text>
      <text class="cls-8" transform="translate(87.36 582.99)"><tspan x="0" y="0">Geschiedenis</tspan></text>
      <text class="cls-8" transform="translate(58.43 641)"><tspan x="0" y="0">Le</tspan><tspan class="cls-10" x="19.59" y="0">v</tspan><tspan x="29.5" y="0">ensbeschouwing</tspan></text>
      <text class="cls-8" transform="translate(41.78 699.58)"><tspan x="0" y="0">Lichamelij</tspan><tspan class="cls-16" x="85.8" y="0">k</tspan><tspan x="95.69" y="0">e Op</tspan><tspan class="cls-10" x="135.77" y="0">v</tspan><tspan class="cls-13" x="145.68" y="0">oeding</tspan></text>
      <text class="cls-8" transform="translate(47.76 758.22)"><tspan x="0" y="0">Natuurwetenschappen</tspan></text>
      <text class="cls-8" transform="translate(95.2 817.14)"><tspan x="0" y="0">Nederlands</tspan></text>
      <text class="cls-8" transform="translate(42.69 875.42)"><tspan class="cls-15" x="0" y="0">T</tspan><tspan x="8.65" y="0">oegepaste Informatica</tspan></text>
      <text class="cls-8" transform="translate(101.98 938.21)"><tspan x="0" y="0">Economie</tspan></text>
      <text class="cls-8" transform="translate(44.53 981.37)"><tspan x="0" y="0">Economisch Financiele </tspan><tspan x="39.93" y="20.4">Competenties</tspan></text>
      <text class="cls-8" transform="translate(41.48 1038.61)"><tspan x="0" y="0">Bedrijfswetenschappen </tspan><tspan x="68.58" y="20.4">&amp; </tspan><tspan class="cls-14" x="86.91" y="20.4">R</tspan><tspan x="98.31" y="20.4">echt</tspan></text>
      <text class="cls-8" transform="translate(28.8 1107.51)"><tspan class="cls-15" x="0" y="0">T</tspan><tspan x="8.65" y="0">oegepaste economie - BO</tspan></text>
      <text class="cls-8" transform="translate(99.9 1168.06)"><tspan x="0" y="0">Wiskunde</tspan></text>
      <text class="cls-8" transform="translate(33.88 1224.58)"><tspan x="0" y="0">Onder</tspan><tspan class="cls-9" x="52.11" y="0">z</tspan><tspan x="60.94" y="0">oekscompetenties</tspan></text>
      <text class="cls-8" transform="translate(48.87 1340.63)"><tspan x="0" y="0">Cultuurwetenschappen</tspan></text>
      <text class="cls-8" transform="translate(41.7 1281.23)"><tspan x="0" y="0">Ged</tspan><tspan class="cls-4" x="33.9" y="0">r</tspan><tspan x="40.86" y="0">agswetenschappen</tspan></text>
      <text class="cls-8" transform="translate(108.47 1400.54)"><tspan x="0" y="0">Filosofie</tspan></text>
      <text class="cls-8" transform="translate(76.41 1512.66)"><tspan x="0" y="0">Public </tspan><tspan class="cls-14" x="55.76" y="0">R</tspan><tspan x="67.17" y="0">elations</tspan></text>
      <text class="cls-8" transform="translate(66.03 1456.91)"><tspan class="cls-12" x="0" y="0">K</tspan><tspan x="11.36" y="0">unstbeschouwing</tspan></text>
      <line class="cls-1" x1="284.39" y1="128.58" x2="848.47" y2="128.58"/>
      <line class="cls-3" x1="284.39" y1="188.27" x2="848.47" y2="188.27"/>
      <line class="cls-3" x1="284.39" y1="247.97" x2="848.46" y2="247.97"/>
      <line class="cls-3" x1="283.46" y1="307.67" x2="848.46" y2="307.67"/>
      <line class="cls-3" x1="283.46" y1="367.36" x2="848.21" y2="367.36"/>
      <line class="cls-3" x1="284.39" y1="427.06" x2="848.47" y2="427.06"/>
      <line class="cls-3" x1="283.46" y1="486.76" x2="848.47" y2="486.76"/>
      <line class="cls-3" x1="283.46" y1="546.45" x2="848.47" y2="546.45"/>
      <line class="cls-3" x1="284.39" y1="606.15" x2="848.47" y2="606.15"/>
      <line class="cls-3" x1="284.39" y1="665.51" x2="848.59" y2="665.51"/>
      <line class="cls-3" x1="284.39" y1="723.66" x2="848.58" y2="723.66"/>
      <text class="cls-6" transform="translate(411.09 23.61)"><tspan x="0" y="0">Doorstroom finaliteit</tspan></text>
      <text class="cls-6" transform="translate(734.49 17.43)"><tspan x="0" y="0">Dubbele </tspan><tspan x="0" y="18">finaliteit</tspan></text>
      <text class="cls-8" transform="translate(309.84 58.08)"><tspan x="0" y="0">BW</tspan></text>
      <text class="cls-8" transform="translate(391.45 58.34)"><tspan x="0" y="0">ET</tspan></text>
      <text class="cls-8" transform="translate(471.64 58.08)"><tspan x="0" y="0">EW</tspan></text>
      <text class="cls-8" transform="translate(553.24 58.08)"><tspan x="0" y="0">WW</tspan></text>
      <text class="cls-8" transform="translate(718.14 58.08)"><tspan x="0" y="0">BO</tspan></text>
      <text class="cls-8" transform="translate(794.85 58.08)"><tspan x="0" y="0">T&amp;C</tspan></text>
      <text class="cls-8" transform="translate(633.57 58.08)"><tspan x="0" y="0">HW</tspan></text>
      <text class="cls-8" transform="translate(560.57 104.53)"><tspan x="0" y="0">1</tspan></text>
      <text class="cls-8" transform="translate(559.6 165.76)"><tspan x="0" y="0">2</tspan></text>
      <text class="cls-8" transform="translate(560.27 224.88)"><tspan x="0" y="0">2</tspan></text>
      <text class="cls-8" transform="translate(720.9 285.17)"><tspan x="0" y="0">1</tspan></text>
      <text class="cls-8" transform="translate(803.56 285.54)"><tspan x="0" y="0">1</tspan></text>
    </g>
  </g>
</svg>