<?xml version="1.0" encoding="utf-8"?>
<!-- Generator: Adobe Illustrator 28.1.0, SVG Export Plug-In . SVG Version: 6.00 Build 0)  -->
<svg version="1.1" id="calendar" xmlns="http://www.w3.org/2000/svg" xmlns:xlink="http://www.w3.org/1999/xlink" x="0px" y="0px"
	 viewBox="0 0 24 24" style="enable-background:new 0 0 24 24;" xml:space="preserve">
<style type="text/css">
	.st0{fill:#EFF3E8;}
</style>
<path class="st0" d="M12,14c0.6,0,1-0.4,1-1s-0.4-1-1-1s-1,0.4-1,1S11.4,14,12,14z M17,14c0.6,0,1-0.4,1-1s-0.4-1-1-1s-1,0.4-1,1
	S16.4,14,17,14z M12,18c0.6,0,1-0.4,1-1s-0.4-1-1-1s-1,0.4-1,1S11.4,18,12,18z M17,18c0.6,0,1-0.4,1-1s-0.4-1-1-1s-1,0.4-1,1
	S16.4,18,17,18z M7,14c0.6,0,1-0.4,1-1s-0.4-1-1-1s-1,0.4-1,1S6.4,14,7,14z M19,4h-1V3c0-0.6-0.4-1-1-1s-1,0.4-1,1v1H8V3
	c0-0.6-0.4-1-1-1S6,2.4,6,3v1H5C3.3,4,2,5.3,2,7v12c0,1.7,1.3,3,3,3h14c1.7,0,3-1.3,3-3V7C22,5.3,20.7,4,19,4z M20,19
	c0,0.6-0.4,1-1,1H5c-0.6,0-1-0.4-1-1v-9h16V19z M20,8H4V7c0-0.6,0.4-1,1-1h14c0.6,0,1,0.4,1,1V8z M7,18c0.6,0,1-0.4,1-1s-0.4-1-1-1
	s-1,0.4-1,1S6.4,18,7,18z"/>
</svg>
