<?xml version="1.0" encoding="utf-8"?>
<!-- Generator: Adobe Illustrator 28.1.0, SVG Export Plug-In . SVG Version: 6.00 Build 0)  -->
<svg version="1.1" id="Layer_1" xmlns="http://www.w3.org/2000/svg" xmlns:xlink="http://www.w3.org/1999/xlink" x="0px" y="0px"
	 viewBox="0 0 800 800" style="enable-background:new 0 0 800 800;" xml:space="preserve">
<style type="text/css">
	.st0{fill:#EFF3E8;}
</style>
<g>
	<path class="st0" d="M143.8,168.5H470c11.1,0,20.2,9,20.2,20.2c0,11.1-9,20.2-20.2,20.2H143.8c-11.1,0-20.2-9-20.2-20.2
		C123.6,177.5,132.6,168.5,143.8,168.5z M143.8,255.7H470c11.1,0,20.2,9,20.2,20.2c0,11.1-9,20.2-20.2,20.2H143.8
		c-11.1,0-20.2-9-20.2-20.2C123.6,264.8,132.6,255.7,143.8,255.7z M143.8,343H470c11.1,0,20.2,9,20.2,20.2c0,11.1-9,20.2-20.2,20.2
		H143.8c-11.1,0-20.2-9-20.2-20.2C123.6,352,132.6,343,143.8,343z M143.8,430.2H470c11.1,0,20.2,9,20.2,20.2
		c0,11.1-9,20.2-20.2,20.2H143.8c-11.1,0-20.2-9-20.2-20.2C123.6,439.3,132.6,430.2,143.8,430.2L143.8,430.2z"/>
	<path class="st0" d="M143.8,208.8H470c11.1,0,20.2-9,20.2-20.2c0-11.1-9-20.2-20.2-20.2H143.8c-11.1,0-20.2,9-20.2,20.2
		C123.6,199.8,132.6,208.8,143.8,208.8z"/>
	<path class="st0" d="M143.8,296.1H470c11.1,0,20.2-9,20.2-20.2c0-11.1-9-20.2-20.2-20.2H143.8c-11.1,0-20.2,9-20.2,20.2
		C123.6,287,132.6,296.1,143.8,296.1z"/>
	<path class="st0" d="M143.8,383.3H470c11.1,0,20.2-9,20.2-20.2c0-11.1-9-20.2-20.2-20.2H143.8c-11.1,0-20.2,9-20.2,20.2
		C123.6,374.3,132.6,383.3,143.8,383.3z"/>
	<path class="st0" d="M143.8,470.6H470c11.1,0,20.2-9,20.2-20.2c0-11.1-9-20.2-20.2-20.2H143.8c-11.1,0-20.2,9-20.2,20.2
		C123.6,461.6,132.6,470.6,143.8,470.6z"/>
	<path class="st0" d="M800,330.9c0-5.4-2.1-10.5-5.9-14.3l-55-55c-3.8-3.8-8.9-5.9-14.3-5.9s-10.5,2.1-14.3,5.9l-96.7,96.7V61.9
		c0-11.1-9-20.2-20.2-20.2H20.2C9,41.7,0,50.8,0,61.9v676.2c0,11.1,9,20.2,20.2,20.2h573.4c11.1,0,20.2-9,20.2-20.2V525.5
		l180.3-180.3C797.9,341.4,800,336.3,800,330.9L800,330.9z M40.4,717.9V82.1h533v316.6L454.7,517.5H143.8c-11.1,0-20.2,9-20.2,20.2
		s9,20.2,20.2,20.2h270.5l-3.5,3.5c-2.6,2.6-4.5,5.9-5.3,9.5l-14,57.4h-84.6c-11.1,0-20.2,9-20.2,20.2s9,20.2,20.2,20.2
		c0,0,100,0,100.5,0c1.6,0,3.2-0.2,4.8-0.6l72.8-17.7c3.6-0.9,6.9-2.7,9.5-5.3l79-79v152L40.4,717.9L40.4,717.9z M469.8,612.3
		l-35,8.5l8.5-35l281.4-281.4l26.5,26.5L469.8,612.3z"/>
</g>
</svg>
