<?xml version="1.0" encoding="UTF-8"?>
<svg id="Layer_2" data-name="Layer 2" xmlns="http://www.w3.org/2000/svg" viewBox="0 0 600 600">
  <defs>
    <style>
      .cls-1 {
        fill: #fff;
        stroke-width: 0px;
      }
    </style>
  </defs>
  <g id="Layer_1-2" data-name="Layer 1">
    <g id="SVGRepo_iconCarrier" data-name="SVGRepo iconCarrier">
      <path class="cls-1" d="M516.67,600C231.32,600,0,368.68,0,83.33c0-12.87.47-25.64,1.4-38.28,1.06-14.5,1.59-21.76,5.39-28.36,3.15-5.47,8.73-10.65,14.41-13.39C28.06,0,36.06,0,52.07,0h93.91c13.46,0,20.19,0,25.96,2.22,5.1,1.96,9.63,5.13,13.21,9.25,4.05,4.66,6.35,10.99,10.95,23.64l38.87,106.89c5.35,14.72,8.03,22.07,7.57,29.05-.4,6.16-2.5,12.08-6.07,17.11-4.04,5.71-10.76,9.74-24.19,17.79l-45.62,27.37c40.06,88.3,111.67,160,200,200l27.37-45.62c8.06-13.43,12.08-20.14,17.79-24.19,5.03-3.57,10.96-5.67,17.11-6.07,6.98-.45,14.34,2.22,29.06,7.57l106.89,38.87c12.65,4.6,18.97,6.9,23.64,10.95,4.12,3.58,7.3,8.12,9.25,13.21,2.22,5.77,2.22,12.5,2.22,25.96v93.91c0,16,0,24.01-3.31,30.87-2.74,5.68-7.92,11.26-13.39,14.41-6.6,3.8-13.85,4.33-28.36,5.39-12.64.93-25.4,1.4-38.28,1.4Z"/>
    </g>
  </g>
</svg>